G04*
G04 #@! TF.GenerationSoftware,Altium Limited,Altium Designer,26.7.1 (11)*
G04*
G04 Layer_Color=255*
G04 Board_Origin=18000000|21950000*
%FSLAX44Y44*%
%MOMM*%
G71*
G04*
G04 #@! TF.SameCoordinates,D071BD7E-3876-4D20-9434-7D3039072E30*
G04*
G04*
G04 #@! TF.FilePolarity,Positive*
G04*
G01*
G75*
%ADD14R,0.9000X1.0000*%
%ADD15R,1.0000X0.9000*%
%ADD16R,2.7900X0.7400*%
%ADD17R,0.3000X1.3000*%
%ADD18R,1.6000X1.6000*%
%ADD19R,1.8000X2.2000*%
%ADD20C,1.5500*%
%ADD21R,1.9500X1.9500*%
%ADD22C,2.4000*%
%ADD23C,0.5100*%
%ADD24C,1.9500*%
%ADD25C,1.4200*%
%ADD26O,2.4000X0.9000*%
%ADD27O,1.7000X0.9000*%
%ADD28C,0.6500*%
%ADD29R,1.5500X1.5500*%
%ADD30R,1.5500X1.5500*%
%ADD31C,2.0000*%
%ADD32C,5.0000*%
D14*
X843660Y238760D02*
D03*
X827660D02*
D03*
D15*
X580390Y157100D02*
D03*
Y173100D02*
D03*
X795020Y389510D02*
D03*
X816610D02*
D03*
X647700Y178180D02*
D03*
X614680Y174370D02*
D03*
X594360Y173100D02*
D03*
Y157100D02*
D03*
X614680Y158370D02*
D03*
X647700Y162180D02*
D03*
X795020Y405510D02*
D03*
X816610D02*
D03*
D16*
X1272210Y488620D02*
D03*
X1231510Y552120D02*
D03*
X1272210D02*
D03*
X1231510Y526720D02*
D03*
X1272210D02*
D03*
X1231510Y475920D02*
D03*
X1272210D02*
D03*
X1231510Y488620D02*
D03*
Y514020D02*
D03*
Y539420D02*
D03*
Y501320D02*
D03*
X1272210Y539420D02*
D03*
Y514020D02*
D03*
Y501320D02*
D03*
D17*
X937500Y421140D02*
D03*
X355670Y515290D02*
D03*
X942500Y421140D02*
D03*
X897500D02*
D03*
X515670Y515290D02*
D03*
X510670D02*
D03*
X480670D02*
D03*
X350670D02*
D03*
X340670D02*
D03*
X500670D02*
D03*
X922500Y421140D02*
D03*
X410670Y515290D02*
D03*
X932500Y421140D02*
D03*
X912500D02*
D03*
X405670Y515290D02*
D03*
X380670D02*
D03*
X470670D02*
D03*
X370670D02*
D03*
X365670D02*
D03*
X375670D02*
D03*
X902500Y421140D02*
D03*
X465670Y515290D02*
D03*
X360670D02*
D03*
X450670D02*
D03*
X460670D02*
D03*
X495670D02*
D03*
X440670D02*
D03*
X435670D02*
D03*
X927500Y421140D02*
D03*
X917500D02*
D03*
X907500D02*
D03*
X390670Y515290D02*
D03*
X445670D02*
D03*
X400670D02*
D03*
X420670D02*
D03*
X485670D02*
D03*
X395670D02*
D03*
X425670D02*
D03*
X455670D02*
D03*
X385670D02*
D03*
X430670D02*
D03*
X505670D02*
D03*
X415670D02*
D03*
X475670D02*
D03*
X490670D02*
D03*
X345670D02*
D03*
X520670D02*
D03*
X525670D02*
D03*
X530670D02*
D03*
X535670D02*
D03*
D18*
X727220Y43180D02*
D03*
X761220D02*
D03*
D19*
X961500Y388640D02*
D03*
X878500D02*
D03*
X554670Y482790D02*
D03*
X321670D02*
D03*
D20*
X1208710Y615620D02*
D03*
X75870D02*
D03*
X25070D02*
D03*
X1208710Y641020D02*
D03*
X101270Y590220D02*
D03*
X1208710Y666420D02*
D03*
X1234110Y641020D02*
D03*
Y691820D02*
D03*
Y615620D02*
D03*
X101270D02*
D03*
X1208710Y590220D02*
D03*
X1234110Y666420D02*
D03*
X1208710Y691820D02*
D03*
X50470Y590220D02*
D03*
X75870D02*
D03*
X50470Y615620D02*
D03*
D21*
X1223080Y290830D02*
D03*
D22*
X535940Y646430D02*
D03*
X688340D02*
D03*
X637540D02*
D03*
X586740D02*
D03*
D23*
X1251860Y545770D02*
D03*
Y482270D02*
D03*
D24*
X1273080Y290830D02*
D03*
X1248080Y390830D02*
D03*
D25*
X1253160Y172390D02*
D03*
Y197790D02*
D03*
D26*
X49040Y285820D02*
D03*
Y199320D02*
D03*
D27*
X15240Y285820D02*
D03*
Y199320D02*
D03*
D28*
X58840Y272320D02*
D03*
X45340D02*
D03*
Y212820D02*
D03*
X58840D02*
D03*
Y263820D02*
D03*
Y255320D02*
D03*
Y246820D02*
D03*
Y238320D02*
D03*
Y229820D02*
D03*
Y221320D02*
D03*
X45340D02*
D03*
Y229820D02*
D03*
Y238320D02*
D03*
Y246820D02*
D03*
Y255320D02*
D03*
Y263820D02*
D03*
D29*
X1234110Y590220D02*
D03*
D30*
X25070D02*
D03*
D31*
X1248080Y340830D02*
D03*
D32*
X1280000Y35000D02*
D03*
Y680000D02*
D03*
X35000Y35000D02*
D03*
Y680000D02*
D03*
M02*
