G04*
G04 #@! TF.GenerationSoftware,Altium Limited,Altium Designer,26.7.1 (11)*
G04*
G04 Layer_Color=16711935*
G04 Board_Origin=18000000|21950000*
%FSLAX44Y44*%
%MOMM*%
G71*
G04*
G04 #@! TF.SameCoordinates,D071BD7E-3876-4D20-9434-7D3039072E30*
G04*
G04*
G04 #@! TF.FilePolarity,Positive*
G04*
G01*
G75*
%ADD10C,0.2000*%
%ADD11C,0.1000*%
G36*
X4747Y187288D02*
X4739Y187169D01*
X4731Y187043D01*
X4723Y186908D01*
X4707Y186781D01*
X4691Y186670D01*
Y186654D01*
X4675Y186607D01*
X4659Y186535D01*
X4636Y186448D01*
X4604Y186345D01*
X4564Y186242D01*
X4509Y186131D01*
X4446Y186028D01*
X4437Y186020D01*
X4414Y185981D01*
X4374Y185933D01*
X4319Y185878D01*
X4247Y185814D01*
X4160Y185743D01*
X4065Y185672D01*
X3946Y185608D01*
X3930Y185600D01*
X3891Y185584D01*
X3827Y185561D01*
X3740Y185529D01*
X3637Y185497D01*
X3518Y185473D01*
X3383Y185458D01*
X3241Y185450D01*
X3233D01*
X3209D01*
X3178D01*
X3130Y185458D01*
X3074Y185466D01*
X3003Y185473D01*
X2932Y185481D01*
X2853Y185505D01*
X2670Y185553D01*
X2488Y185632D01*
X2393Y185679D01*
X2298Y185735D01*
X2203Y185798D01*
X2116Y185878D01*
X2108Y185886D01*
X2100Y185901D01*
X2076Y185925D01*
X2044Y185957D01*
X2013Y186012D01*
X1973Y186068D01*
X1933Y186139D01*
X1894Y186226D01*
X1846Y186321D01*
X1806Y186432D01*
X1767Y186559D01*
X1735Y186694D01*
X1704Y186852D01*
X1680Y187019D01*
X1672Y187201D01*
X1664Y187399D01*
Y188731D01*
X-460D01*
Y189420D01*
X4747D01*
Y187288D01*
D02*
G37*
G36*
X2314Y184760D02*
X2385D01*
X2472Y184752D01*
X2559Y184744D01*
X2662Y184729D01*
X2884Y184689D01*
X3122Y184641D01*
X3368Y184562D01*
X3598Y184459D01*
X3605D01*
X3621Y184443D01*
X3653Y184427D01*
X3701Y184404D01*
X3748Y184372D01*
X3803Y184332D01*
X3938Y184229D01*
X4089Y184110D01*
X4239Y183960D01*
X4390Y183778D01*
X4517Y183579D01*
Y183571D01*
X4533Y183556D01*
X4548Y183524D01*
X4564Y183476D01*
X4588Y183429D01*
X4620Y183365D01*
X4644Y183286D01*
X4675Y183207D01*
X4707Y183120D01*
X4731Y183025D01*
X4786Y182811D01*
X4818Y182573D01*
X4834Y182319D01*
Y182240D01*
X4826Y182185D01*
X4818Y182121D01*
X4810Y182042D01*
X4802Y181955D01*
X4786Y181860D01*
X4739Y181654D01*
X4667Y181432D01*
X4620Y181321D01*
X4564Y181210D01*
X4501Y181107D01*
X4430Y181004D01*
X4422Y180996D01*
X4414Y180980D01*
X4390Y180956D01*
X4358Y180917D01*
X4319Y180877D01*
X4263Y180822D01*
X4208Y180766D01*
X4144Y180711D01*
X4065Y180647D01*
X3986Y180592D01*
X3891Y180528D01*
X3788Y180465D01*
X3685Y180410D01*
X3566Y180354D01*
X3312Y180259D01*
X3154Y180940D01*
X3162D01*
X3178Y180948D01*
X3209Y180956D01*
X3249Y180972D01*
X3296Y180996D01*
X3352Y181020D01*
X3471Y181075D01*
X3605Y181147D01*
X3748Y181242D01*
X3875Y181345D01*
X3986Y181471D01*
X3994Y181487D01*
X4025Y181535D01*
X4065Y181606D01*
X4121Y181709D01*
X4168Y181828D01*
X4208Y181979D01*
X4239Y182145D01*
X4247Y182335D01*
Y182391D01*
X4239Y182430D01*
Y182486D01*
X4232Y182541D01*
X4208Y182684D01*
X4176Y182842D01*
X4121Y183009D01*
X4049Y183175D01*
X3954Y183334D01*
Y183342D01*
X3938Y183350D01*
X3899Y183397D01*
X3835Y183468D01*
X3748Y183556D01*
X3637Y183643D01*
X3510Y183738D01*
X3352Y183825D01*
X3178Y183896D01*
X3170D01*
X3154Y183904D01*
X3130Y183912D01*
X3090Y183920D01*
X3051Y183936D01*
X2995Y183944D01*
X2868Y183976D01*
X2718Y184007D01*
X2551Y184031D01*
X2369Y184047D01*
X2179Y184055D01*
X2171D01*
X2147D01*
X2116D01*
X2068D01*
X2013Y184047D01*
X1941D01*
X1870Y184039D01*
X1791Y184031D01*
X1608Y184007D01*
X1410Y183976D01*
X1212Y183928D01*
X1022Y183865D01*
X1014D01*
X998Y183857D01*
X974Y183841D01*
X943Y183825D01*
X848Y183785D01*
X745Y183722D01*
X618Y183635D01*
X499Y183532D01*
X380Y183413D01*
X277Y183270D01*
Y183262D01*
X269Y183255D01*
X253Y183231D01*
X237Y183199D01*
X206Y183112D01*
X158Y183001D01*
X119Y182874D01*
X79Y182724D01*
X47Y182557D01*
X39Y182383D01*
Y182327D01*
X47Y182288D01*
Y182240D01*
X55Y182177D01*
X79Y182042D01*
X119Y181891D01*
X182Y181725D01*
X261Y181567D01*
X372Y181408D01*
X380Y181400D01*
X388Y181392D01*
X435Y181345D01*
X515Y181273D01*
X618Y181186D01*
X760Y181099D01*
X927Y181004D01*
X1133Y180925D01*
X1363Y180861D01*
X1188Y180172D01*
X1180D01*
X1149Y180180D01*
X1109Y180196D01*
X1046Y180211D01*
X982Y180243D01*
X895Y180275D01*
X808Y180306D01*
X713Y180354D01*
X499Y180457D01*
X285Y180600D01*
X79Y180758D01*
X-16Y180853D01*
X-103Y180956D01*
X-111Y180964D01*
X-119Y180980D01*
X-143Y181012D01*
X-175Y181059D01*
X-206Y181115D01*
X-246Y181178D01*
X-286Y181250D01*
X-325Y181337D01*
X-365Y181432D01*
X-404Y181535D01*
X-444Y181654D01*
X-476Y181773D01*
X-531Y182034D01*
X-539Y182177D01*
X-547Y182327D01*
Y182407D01*
X-539Y182470D01*
Y182541D01*
X-531Y182621D01*
X-516Y182716D01*
X-507Y182811D01*
X-460Y183033D01*
X-404Y183262D01*
X-317Y183484D01*
X-270Y183595D01*
X-206Y183698D01*
X-199Y183706D01*
X-191Y183722D01*
X-167Y183746D01*
X-143Y183785D01*
X-64Y183881D01*
X47Y183992D01*
X182Y184126D01*
X356Y184253D01*
X554Y184388D01*
X784Y184499D01*
X792D01*
X816Y184507D01*
X848Y184522D01*
X895Y184538D01*
X958Y184562D01*
X1030Y184586D01*
X1109Y184610D01*
X1204Y184633D01*
X1299Y184657D01*
X1410Y184681D01*
X1648Y184729D01*
X1902Y184760D01*
X2179Y184768D01*
X2187D01*
X2219D01*
X2258D01*
X2314Y184760D01*
D02*
G37*
G36*
X4747Y177311D02*
X4739Y177255D01*
Y177200D01*
X4731Y177065D01*
X4707Y176915D01*
X4683Y176756D01*
X4644Y176598D01*
X4588Y176455D01*
Y176447D01*
X4580Y176439D01*
X4556Y176392D01*
X4517Y176328D01*
X4469Y176249D01*
X4398Y176154D01*
X4311Y176059D01*
X4216Y175972D01*
X4097Y175884D01*
X4081Y175877D01*
X4041Y175853D01*
X3970Y175821D01*
X3883Y175781D01*
X3780Y175742D01*
X3669Y175710D01*
X3542Y175686D01*
X3407Y175678D01*
X3392D01*
X3352D01*
X3288Y175686D01*
X3201Y175702D01*
X3106Y175726D01*
X3003Y175758D01*
X2884Y175797D01*
X2773Y175861D01*
X2758Y175869D01*
X2726Y175892D01*
X2670Y175940D01*
X2607Y175995D01*
X2528Y176075D01*
X2456Y176170D01*
X2377Y176281D01*
X2306Y176415D01*
Y176408D01*
X2298Y176392D01*
X2290Y176368D01*
X2282Y176336D01*
X2242Y176249D01*
X2195Y176146D01*
X2123Y176027D01*
X2044Y175908D01*
X1949Y175789D01*
X1830Y175686D01*
X1814Y175678D01*
X1775Y175647D01*
X1704Y175607D01*
X1608Y175552D01*
X1489Y175504D01*
X1363Y175464D01*
X1212Y175433D01*
X1046Y175425D01*
X1030D01*
X982D01*
X911Y175433D01*
X824Y175441D01*
X721Y175464D01*
X602Y175488D01*
X483Y175528D01*
X364Y175583D01*
X348Y175591D01*
X309Y175607D01*
X253Y175647D01*
X182Y175686D01*
X103Y175742D01*
X23Y175805D01*
X-56Y175884D01*
X-127Y175964D01*
X-135Y175972D01*
X-151Y176003D01*
X-183Y176051D01*
X-222Y176122D01*
X-262Y176201D01*
X-302Y176304D01*
X-341Y176415D01*
X-381Y176534D01*
Y176550D01*
X-397Y176598D01*
X-404Y176669D01*
X-420Y176764D01*
X-436Y176891D01*
X-444Y177034D01*
X-460Y177192D01*
Y179356D01*
X4747D01*
Y177311D01*
D02*
G37*
G36*
Y168673D02*
X4136D01*
Y171748D01*
X2536D01*
Y168871D01*
X1925D01*
Y171748D01*
X150D01*
Y168554D01*
X-460D01*
Y172437D01*
X4747D01*
Y168673D01*
D02*
G37*
G36*
Y165606D02*
X4739Y165471D01*
X4731Y165329D01*
X4715Y165170D01*
X4691Y165019D01*
X4667Y164893D01*
Y164885D01*
X4659Y164869D01*
Y164853D01*
X4644Y164821D01*
X4620Y164734D01*
X4580Y164631D01*
X4533Y164512D01*
X4469Y164386D01*
X4390Y164259D01*
X4295Y164132D01*
Y164124D01*
X4279Y164116D01*
X4232Y164061D01*
X4152Y163989D01*
X4049Y163902D01*
X3922Y163799D01*
X3772Y163696D01*
X3598Y163601D01*
X3399Y163514D01*
X3392D01*
X3376Y163506D01*
X3344Y163498D01*
X3304Y163482D01*
X3257Y163466D01*
X3193Y163450D01*
X3122Y163427D01*
X3043Y163411D01*
X2956Y163395D01*
X2860Y163371D01*
X2655Y163340D01*
X2425Y163316D01*
X2171Y163308D01*
X2163D01*
X2147D01*
X2116D01*
X2068D01*
X2021Y163316D01*
X1957D01*
X1814Y163324D01*
X1656Y163340D01*
X1474Y163371D01*
X1291Y163403D01*
X1117Y163450D01*
X1109D01*
X1093Y163458D01*
X1069Y163466D01*
X1038Y163474D01*
X958Y163506D01*
X848Y163545D01*
X729Y163593D01*
X602Y163657D01*
X475Y163728D01*
X356Y163807D01*
X340Y163815D01*
X309Y163847D01*
X253Y163886D01*
X182Y163950D01*
X111Y164013D01*
X31Y164100D01*
X-48Y164187D01*
X-119Y164282D01*
X-127Y164291D01*
X-143Y164330D01*
X-175Y164386D01*
X-214Y164457D01*
X-254Y164544D01*
X-294Y164647D01*
X-333Y164766D01*
X-373Y164901D01*
Y164916D01*
X-389Y164964D01*
X-397Y165035D01*
X-412Y165138D01*
X-428Y165257D01*
X-444Y165400D01*
X-452Y165558D01*
X-460Y165733D01*
Y167603D01*
X4747D01*
Y165606D01*
D02*
G37*
G36*
X2242Y162523D02*
X2314D01*
X2393Y162515D01*
X2480Y162507D01*
X2575Y162491D01*
X2797Y162452D01*
X3035Y162396D01*
X3288Y162317D01*
X3534Y162214D01*
X3542D01*
X3566Y162198D01*
X3598Y162183D01*
X3645Y162159D01*
X3701Y162119D01*
X3756Y162079D01*
X3907Y161984D01*
X4065Y161850D01*
X4224Y161699D01*
X4374Y161509D01*
X4446Y161414D01*
X4509Y161303D01*
Y161295D01*
X4525Y161279D01*
X4541Y161239D01*
X4556Y161200D01*
X4588Y161144D01*
X4612Y161073D01*
X4644Y160994D01*
X4675Y160907D01*
X4699Y160812D01*
X4731Y160708D01*
X4786Y160471D01*
X4818Y160217D01*
X4834Y159932D01*
Y159837D01*
X4826Y159789D01*
Y159726D01*
X4810Y159591D01*
X4786Y159440D01*
X4755Y159266D01*
X4707Y159092D01*
X4644Y158917D01*
Y158910D01*
X4636Y158894D01*
X4628Y158870D01*
X4612Y158838D01*
X4572Y158759D01*
X4509Y158656D01*
X4437Y158537D01*
X4350Y158418D01*
X4255Y158299D01*
X4136Y158196D01*
X4121Y158188D01*
X4081Y158157D01*
X4010Y158109D01*
X3907Y158046D01*
X3788Y157982D01*
X3645Y157919D01*
X3479Y157856D01*
X3288Y157800D01*
X3114Y158426D01*
X3122D01*
X3130Y158434D01*
X3178Y158442D01*
X3249Y158474D01*
X3344Y158505D01*
X3439Y158545D01*
X3542Y158593D01*
X3645Y158648D01*
X3740Y158711D01*
X3748Y158719D01*
X3780Y158743D01*
X3819Y158783D01*
X3875Y158838D01*
X3930Y158910D01*
X3994Y158997D01*
X4049Y159092D01*
X4105Y159211D01*
X4113Y159227D01*
X4128Y159266D01*
X4152Y159338D01*
X4176Y159425D01*
X4200Y159528D01*
X4224Y159647D01*
X4239Y159781D01*
X4247Y159924D01*
Y160003D01*
X4239Y160090D01*
X4232Y160201D01*
X4208Y160328D01*
X4184Y160471D01*
X4144Y160605D01*
X4097Y160740D01*
X4089Y160756D01*
X4073Y160796D01*
X4041Y160859D01*
X3994Y160938D01*
X3938Y161025D01*
X3875Y161120D01*
X3803Y161208D01*
X3716Y161295D01*
X3708Y161303D01*
X3677Y161327D01*
X3629Y161366D01*
X3566Y161414D01*
X3487Y161469D01*
X3399Y161525D01*
X3304Y161572D01*
X3201Y161620D01*
X3193D01*
X3178Y161628D01*
X3154Y161636D01*
X3114Y161651D01*
X3074Y161667D01*
X3019Y161683D01*
X2892Y161715D01*
X2734Y161754D01*
X2559Y161786D01*
X2361Y161810D01*
X2155Y161818D01*
X2147D01*
X2123D01*
X2092D01*
X2036Y161810D01*
X1981D01*
X1910Y161802D01*
X1830Y161794D01*
X1751Y161786D01*
X1561Y161762D01*
X1363Y161715D01*
X1173Y161659D01*
X982Y161580D01*
X974D01*
X958Y161572D01*
X935Y161556D01*
X903Y161533D01*
X824Y161477D01*
X721Y161406D01*
X610Y161311D01*
X491Y161192D01*
X380Y161049D01*
X285Y160891D01*
Y160883D01*
X277Y160867D01*
X261Y160843D01*
X253Y160812D01*
X237Y160772D01*
X214Y160716D01*
X174Y160597D01*
X134Y160447D01*
X95Y160288D01*
X71Y160106D01*
X63Y159916D01*
Y159837D01*
X71Y159749D01*
X87Y159639D01*
X103Y159512D01*
X134Y159361D01*
X174Y159203D01*
X229Y159044D01*
Y159036D01*
X237Y159028D01*
X245Y159005D01*
X261Y158973D01*
X293Y158894D01*
X340Y158799D01*
X396Y158695D01*
X459Y158593D01*
X531Y158490D01*
X602Y158394D01*
X1585D01*
Y159924D01*
X2195D01*
Y157721D01*
X261D01*
X253Y157729D01*
X245Y157745D01*
X222Y157768D01*
X198Y157808D01*
X158Y157856D01*
X126Y157911D01*
X31Y158046D01*
X-64Y158204D01*
X-167Y158379D01*
X-262Y158577D01*
X-349Y158775D01*
Y158783D01*
X-357Y158799D01*
X-365Y158830D01*
X-381Y158870D01*
X-397Y158917D01*
X-412Y158973D01*
X-428Y159044D01*
X-444Y159116D01*
X-484Y159282D01*
X-516Y159464D01*
X-539Y159670D01*
X-547Y159876D01*
Y159948D01*
X-539Y160003D01*
Y160075D01*
X-531Y160154D01*
X-523Y160241D01*
X-507Y160336D01*
X-468Y160558D01*
X-412Y160788D01*
X-333Y161033D01*
X-222Y161271D01*
X-214Y161279D01*
X-206Y161295D01*
X-191Y161334D01*
X-159Y161374D01*
X-127Y161430D01*
X-88Y161485D01*
X16Y161620D01*
X150Y161778D01*
X317Y161929D01*
X507Y162079D01*
X721Y162214D01*
X729D01*
X752Y162230D01*
X784Y162246D01*
X832Y162262D01*
X887Y162285D01*
X958Y162317D01*
X1038Y162341D01*
X1133Y162373D01*
X1228Y162404D01*
X1339Y162428D01*
X1577Y162484D01*
X1838Y162515D01*
X2116Y162531D01*
X2123D01*
X2147D01*
X2187D01*
X2242Y162523D01*
D02*
G37*
G36*
X4747Y152926D02*
X4136D01*
Y156001D01*
X2536D01*
Y153124D01*
X1925D01*
Y156001D01*
X150D01*
Y152807D01*
X-460D01*
Y156691D01*
X4747D01*
Y152926D01*
D02*
G37*
%LPC*%
G36*
X4136Y188731D02*
X2274D01*
Y187328D01*
X2282Y187280D01*
Y187225D01*
X2290Y187169D01*
X2306Y187027D01*
X2338Y186868D01*
X2377Y186710D01*
X2440Y186567D01*
X2480Y186504D01*
X2520Y186448D01*
X2528Y186432D01*
X2567Y186401D01*
X2623Y186361D01*
X2702Y186306D01*
X2797Y186250D01*
X2916Y186210D01*
X3059Y186179D01*
X3217Y186163D01*
X3233D01*
X3273D01*
X3336Y186171D01*
X3415Y186187D01*
X3502Y186203D01*
X3598Y186234D01*
X3693Y186274D01*
X3780Y186329D01*
X3788Y186337D01*
X3819Y186361D01*
X3859Y186393D01*
X3907Y186448D01*
X3954Y186512D01*
X4010Y186583D01*
X4049Y186670D01*
X4089Y186765D01*
Y186773D01*
X4097Y186797D01*
X4105Y186844D01*
X4113Y186908D01*
X4121Y186995D01*
X4128Y187106D01*
X4136Y187249D01*
Y188731D01*
D02*
G37*
G36*
Y178666D02*
X2551D01*
Y177390D01*
X2559Y177295D01*
X2567Y177184D01*
X2575Y177073D01*
X2591Y176978D01*
X2607Y176891D01*
X2615Y176883D01*
X2623Y176851D01*
X2639Y176804D01*
X2670Y176740D01*
X2702Y176677D01*
X2749Y176614D01*
X2805Y176550D01*
X2868Y176495D01*
X2876Y176487D01*
X2900Y176471D01*
X2940Y176455D01*
X2995Y176423D01*
X3059Y176399D01*
X3138Y176384D01*
X3225Y176368D01*
X3328Y176360D01*
X3336D01*
X3376D01*
X3423Y176368D01*
X3487Y176376D01*
X3558Y176392D01*
X3629Y176415D01*
X3708Y176447D01*
X3788Y176487D01*
X3796Y176495D01*
X3819Y176511D01*
X3851Y176542D01*
X3899Y176582D01*
X3938Y176629D01*
X3986Y176693D01*
X4025Y176764D01*
X4057Y176843D01*
Y176851D01*
X4073Y176891D01*
X4081Y176946D01*
X4097Y177026D01*
X4113Y177137D01*
X4121Y177271D01*
X4136Y177438D01*
Y178666D01*
D02*
G37*
G36*
X1941D02*
X150D01*
Y177192D01*
X158Y177034D01*
X166Y176962D01*
X174Y176907D01*
Y176899D01*
X182Y176867D01*
X190Y176820D01*
X206Y176764D01*
X245Y176637D01*
X309Y176511D01*
X317Y176503D01*
X325Y176479D01*
X348Y176455D01*
X388Y176415D01*
X428Y176368D01*
X475Y176328D01*
X538Y176281D01*
X602Y176241D01*
X610Y176233D01*
X634Y176225D01*
X673Y176209D01*
X729Y176186D01*
X792Y176170D01*
X871Y176154D01*
X951Y176146D01*
X1046Y176138D01*
X1062D01*
X1093D01*
X1149Y176146D01*
X1212Y176154D01*
X1291Y176178D01*
X1379Y176201D01*
X1466Y176241D01*
X1545Y176297D01*
X1553Y176304D01*
X1585Y176320D01*
X1616Y176360D01*
X1664Y176408D01*
X1719Y176463D01*
X1767Y176534D01*
X1814Y176614D01*
X1854Y176709D01*
X1862Y176724D01*
X1870Y176756D01*
X1886Y176820D01*
X1902Y176899D01*
X1917Y177010D01*
X1925Y177137D01*
X1941Y177295D01*
Y178666D01*
D02*
G37*
G36*
X4136Y166914D02*
X150D01*
Y165725D01*
X158Y165638D01*
X166Y165519D01*
X174Y165392D01*
X190Y165257D01*
X214Y165131D01*
X245Y165012D01*
X253Y164996D01*
X261Y164964D01*
X285Y164909D01*
X317Y164845D01*
X356Y164766D01*
X396Y164687D01*
X451Y164615D01*
X515Y164544D01*
X523Y164536D01*
X562Y164504D01*
X618Y164457D01*
X689Y164401D01*
X784Y164346D01*
X895Y164282D01*
X1030Y164219D01*
X1173Y164164D01*
X1180D01*
X1188Y164156D01*
X1212Y164148D01*
X1244Y164140D01*
X1284Y164132D01*
X1331Y164116D01*
X1450Y164092D01*
X1601Y164069D01*
X1775Y164045D01*
X1965Y164029D01*
X2179Y164021D01*
X2187D01*
X2219D01*
X2258D01*
X2314D01*
X2385Y164029D01*
X2464Y164037D01*
X2551Y164045D01*
X2639Y164053D01*
X2845Y164084D01*
X3051Y164132D01*
X3249Y164203D01*
X3344Y164243D01*
X3431Y164291D01*
X3439D01*
X3447Y164306D01*
X3471Y164314D01*
X3502Y164338D01*
X3582Y164394D01*
X3669Y164473D01*
X3772Y164568D01*
X3867Y164679D01*
X3954Y164806D01*
X4025Y164940D01*
X4033Y164956D01*
X4041Y164996D01*
X4057Y165059D01*
X4081Y165154D01*
X4105Y165281D01*
X4121Y165432D01*
X4128Y165614D01*
X4136Y165828D01*
Y166914D01*
D02*
G37*
%LPD*%
D10*
X73240Y272320D02*
G03*
X73240Y272320I-1000J0D01*
G01*
X1253160Y214590D02*
G03*
X1253160Y155590I0J-29500D01*
G01*
D02*
G03*
X1253160Y214590I0J29500D01*
G01*
X896700Y264510D02*
X912700D01*
Y276510D01*
X896700D02*
X912700D01*
X896700Y264510D02*
Y276510D01*
X1234710Y469570D02*
X1269010D01*
Y558470D01*
X1234710D02*
X1269010D01*
X1234710Y469570D02*
Y558470D01*
X912920Y395400D02*
X927920D01*
Y363400D02*
Y395400D01*
X912920Y363400D02*
X927920D01*
X912920D02*
Y395400D01*
X322670Y508790D02*
X553670D01*
Y452790D02*
Y508790D01*
X322670Y452790D02*
X553670D01*
X322670D02*
Y508790D01*
D11*
X1301080Y340830D02*
G03*
X1195080Y340830I-53000J0D01*
G01*
D02*
G03*
X1301080Y340830I53000J0D01*
G01*
X159710Y77970D02*
X167950D01*
Y61730D02*
Y77970D01*
X159710Y61730D02*
X167950D01*
X159710D02*
Y77970D01*
X250290Y608430D02*
X326290D01*
Y684430D01*
X250290D02*
X326290D01*
X250290Y608430D02*
Y684430D01*
X320420Y191580D02*
Y199580D01*
X304420Y191580D02*
X320420D01*
X304420D02*
Y199580D01*
X320420D01*
X321810Y210510D02*
Y218750D01*
X305570Y210510D02*
X321810D01*
X305570D02*
Y218750D01*
X321810D01*
X323080Y230830D02*
Y239070D01*
X306840Y230830D02*
X323080D01*
X306840D02*
Y239070D01*
X323080D01*
X827660Y234760D02*
Y242760D01*
Y234760D02*
X843660D01*
Y242760D01*
X827660D02*
X843660D01*
X496950Y394780D02*
Y402780D01*
X480950Y394780D02*
X496950D01*
X480950D02*
Y402780D01*
X496950D01*
X644400Y559690D02*
Y575690D01*
X676400D01*
Y559690D02*
Y575690D01*
X644400Y559690D02*
X676400D01*
X310930Y425140D02*
Y433380D01*
X294690Y425140D02*
X310930D01*
X294690D02*
Y433380D01*
X310930D01*
X108330Y263970D02*
Y271970D01*
X92330Y263970D02*
X108330D01*
X92330D02*
Y271970D01*
X108330D01*
X953960Y202820D02*
Y218820D01*
X945960D02*
X953960D01*
X945960Y202820D02*
Y218820D01*
Y202820D02*
X953960D01*
X884880Y147820D02*
X893120D01*
Y131580D02*
Y147820D01*
X884880Y131580D02*
X893120D01*
X884880D02*
Y147820D01*
X925520Y188730D02*
X933760D01*
X925520D02*
Y204970D01*
X933760D01*
Y188730D02*
Y204970D01*
X576390Y157100D02*
X584390D01*
Y173100D01*
X576390D02*
X584390D01*
X576390Y157100D02*
Y173100D01*
X590360D02*
X598360D01*
X590360Y157100D02*
Y173100D01*
Y157100D02*
X598360D01*
Y173100D01*
X856030Y426690D02*
X861030Y421690D01*
Y146690D02*
Y426690D01*
X581030Y146690D02*
X861030D01*
X581030D02*
Y426690D01*
X861030D01*
X651700Y162180D02*
Y178180D01*
X643700Y162180D02*
X651700D01*
X643700D02*
Y178180D01*
X651700D01*
X610680Y158370D02*
X618680D01*
Y174370D01*
X610680D02*
X618680D01*
X610680Y158370D02*
Y174370D01*
X948310Y253810D02*
Y261810D01*
X964310D01*
Y253810D02*
Y261810D01*
X948310Y253810D02*
X964310D01*
X1084200Y250000D02*
Y258000D01*
X1100200D01*
Y250000D02*
Y258000D01*
X1084200Y250000D02*
X1100200D01*
X595250Y567880D02*
X611250D01*
X595250Y559880D02*
Y567880D01*
Y559880D02*
X611250D01*
Y567880D01*
X344940Y658170D02*
X361180D01*
X344940Y649930D02*
Y658170D01*
Y649930D02*
X361180D01*
Y658170D01*
X346210Y677220D02*
X362450D01*
X346210Y668980D02*
Y677220D01*
Y668980D02*
X362450D01*
Y677220D01*
X190190Y198890D02*
Y215130D01*
Y198890D02*
X198430D01*
Y215130D01*
X190190D02*
X198430D01*
X30670Y214250D02*
Y230250D01*
X22670D02*
X30670D01*
X22670Y214250D02*
Y230250D01*
Y214250D02*
X30670D01*
X799020Y389510D02*
Y405510D01*
X791020Y389510D02*
X799020D01*
X791020D02*
Y405510D01*
X799020D01*
X820610Y389510D02*
Y405510D01*
X812610Y389510D02*
X820610D01*
X812610D02*
Y405510D01*
X820610D01*
X-2160Y137570D02*
Y287270D01*
X64440Y197870D02*
Y287270D01*
X-27260Y197870D02*
X64440D01*
X-27260D02*
Y287270D01*
X-2160D01*
X64440D01*
X148280Y643390D02*
Y659630D01*
Y643390D02*
X156520D01*
Y659630D01*
X148280D02*
X156520D01*
X129350Y643510D02*
Y659510D01*
Y643510D02*
X137350D01*
Y659510D01*
X129350D02*
X137350D01*
X188730Y696920D02*
X204970D01*
Y705160D01*
X188730D02*
X204970D01*
X188730Y696920D02*
Y705160D01*
X259640Y545850D02*
X269140Y536350D01*
X259640D02*
Y565350D01*
X275640D01*
Y536350D02*
Y565350D01*
X259640Y536350D02*
X275640D01*
X1251080Y287830D02*
X1287080D01*
Y305030D01*
X1209080Y287830D02*
X1245080D01*
X1209080D02*
Y305030D01*
X1080680Y197400D02*
X1087180Y203900D01*
X1080680D02*
X1110680D01*
Y173900D02*
Y203900D01*
X1080680Y173900D02*
X1110680D01*
X1080680D02*
Y203900D01*
X728220Y35180D02*
Y51180D01*
Y35180D02*
X760220D01*
Y51180D01*
X728220D02*
X760220D01*
X1132375Y176150D02*
Y192150D01*
X1124375D02*
X1132375D01*
X1124375Y176150D02*
Y192150D01*
Y176150D02*
X1132375D01*
X329700Y541980D02*
X345940D01*
Y550220D01*
X329700D02*
X345940D01*
X329700Y541980D02*
Y550220D01*
X1061910Y195200D02*
Y211200D01*
X1053910D02*
X1061910D01*
X1053910Y195200D02*
Y211200D01*
Y195200D02*
X1061910D01*
X1010400Y151690D02*
Y167690D01*
Y151690D02*
X1018400D01*
Y167690D01*
X1010400D02*
X1018400D01*
X1015620Y139890D02*
X1031620D01*
X1015620Y131890D02*
Y139890D01*
Y131890D02*
X1031620D01*
Y139890D01*
X889770Y180650D02*
X906010D01*
X889770Y172410D02*
Y180650D01*
Y172410D02*
X906010D01*
Y180650D01*
X720980Y515430D02*
X736980D01*
Y523430D01*
X720980D02*
X736980D01*
X720980Y515430D02*
Y523430D01*
X476810Y465950D02*
X492810D01*
X476810Y457950D02*
Y465950D01*
Y457950D02*
X492810D01*
Y465950D01*
X806260Y460630D02*
Y476630D01*
Y460630D02*
X814260D01*
Y476630D01*
X806260D02*
X814260D01*
X773620Y461900D02*
Y477900D01*
X765620D02*
X773620D01*
X765620Y461900D02*
Y477900D01*
Y461900D02*
X773620D01*
X743720Y119120D02*
X759960D01*
X743720Y110880D02*
Y119120D01*
Y110880D02*
X759960D01*
Y119120D01*
X76640Y636900D02*
X92880D01*
Y645140D01*
X76640D02*
X92880D01*
X76640Y636900D02*
Y645140D01*
X847860Y489910D02*
X864100D01*
Y498150D01*
X847860D02*
X864100D01*
X847860Y489910D02*
Y498150D01*
X237800Y515670D02*
Y531910D01*
X229560D02*
X237800D01*
X229560Y515670D02*
Y531910D01*
Y515670D02*
X237800D01*
X696730Y119120D02*
X712970D01*
X696730Y110880D02*
Y119120D01*
Y110880D02*
X712970D01*
Y119120D01*
X640850Y118420D02*
X657090D01*
X640850Y110180D02*
Y118420D01*
Y110180D02*
X657090D01*
Y118420D01*
X596400Y119120D02*
X612640D01*
X596400Y110880D02*
Y119120D01*
Y110880D02*
X612640D01*
Y119120D01*
X551160Y197290D02*
Y213530D01*
X542920D02*
X551160D01*
X542920Y197290D02*
Y213530D01*
Y197290D02*
X551160D01*
X794060Y663710D02*
Y679950D01*
X785820D02*
X794060D01*
X785820Y663710D02*
Y679950D01*
Y663710D02*
X794060D01*
X162060Y420680D02*
X178300D01*
X162060Y412440D02*
Y420680D01*
Y412440D02*
X178300D01*
Y420680D01*
X1241560Y432110D02*
X1257800D01*
X1241560Y423870D02*
Y432110D01*
Y423870D02*
X1257800D01*
Y432110D01*
X1077730Y150170D02*
X1093970D01*
X1077730Y141930D02*
Y150170D01*
Y141930D02*
X1093970D01*
Y150170D01*
X311780Y50480D02*
Y66720D01*
Y50480D02*
X320020D01*
Y66720D01*
X311780D02*
X320020D01*
X545140Y64270D02*
Y80510D01*
X536900D02*
X545140D01*
X536900Y64270D02*
Y80510D01*
Y64270D02*
X545140D01*
X346210Y487370D02*
X362450D01*
Y495610D01*
X346210D02*
X362450D01*
X346210Y487370D02*
Y495610D01*
X543870Y101650D02*
Y117890D01*
X535630D02*
X543870D01*
X535630Y101650D02*
Y117890D01*
Y101650D02*
X543870D01*
X295080Y464800D02*
X311320D01*
X295080Y456560D02*
Y464800D01*
Y456560D02*
X311320D01*
Y464800D01*
X485120Y288220D02*
Y304460D01*
X476880D02*
X485120D01*
X476880Y288220D02*
Y304460D01*
Y288220D02*
X485120D01*
X314940Y259520D02*
Y275760D01*
X306700D02*
X314940D01*
X306700Y259520D02*
Y275760D01*
Y259520D02*
X314940D01*
X305760Y367800D02*
Y384040D01*
Y367800D02*
X314000D01*
Y384040D01*
X305760D02*
X314000D01*
X480830Y367340D02*
X497070D01*
X480830Y359100D02*
Y367340D01*
Y359100D02*
X497070D01*
Y367340D01*
X311130Y307780D02*
Y324020D01*
X302890D02*
X311130D01*
X302890Y307780D02*
Y324020D01*
Y307780D02*
X311130D01*
X887230Y319080D02*
X903470D01*
X887230Y310840D02*
Y319080D01*
Y310840D02*
X903470D01*
Y319080D01*
X1053270Y285110D02*
X1069510D01*
Y293350D01*
X1053270D02*
X1069510D01*
X1053270Y285110D02*
Y293350D01*
X542920Y249360D02*
Y265600D01*
Y249360D02*
X551160D01*
Y265600D01*
X542920D02*
X551160D01*
X554030Y303030D02*
Y319270D01*
X545790D02*
X554030D01*
X545790Y303030D02*
Y319270D01*
Y303030D02*
X554030D01*
X552760Y386850D02*
Y403090D01*
X544520D02*
X552760D01*
X544520Y386850D02*
Y403090D01*
Y386850D02*
X552760D01*
X811030Y110880D02*
X827270D01*
Y119120D01*
X811030D02*
X827270D01*
X811030Y110880D02*
Y119120D01*
X584640Y452750D02*
X600880D01*
Y460990D01*
X584640D02*
X600880D01*
X584640Y452750D02*
Y460990D01*
X667710Y463050D02*
Y479290D01*
Y463050D02*
X675950D01*
Y479290D01*
X667710D02*
X675950D01*
X728670Y461780D02*
Y478020D01*
Y461780D02*
X736910D01*
Y478020D01*
X728670D02*
X736910D01*
X837890Y457970D02*
Y474210D01*
Y457970D02*
X846130D01*
Y474210D01*
X837890D02*
X846130D01*
X917380Y322560D02*
X933620D01*
X917380Y314320D02*
Y322560D01*
Y314320D02*
X933620D01*
Y322560D01*
X887420Y341130D02*
Y357370D01*
Y341130D02*
X895660D01*
Y357370D01*
X887420D02*
X895660D01*
X887230Y239070D02*
X903470D01*
X887230Y230830D02*
Y239070D01*
Y230830D02*
X903470D01*
Y239070D01*
X885960Y222560D02*
X902200D01*
X885960Y214320D02*
Y222560D01*
Y214320D02*
X902200D01*
Y222560D01*
X793940Y628270D02*
Y644270D01*
X785940D02*
X793940D01*
X785940Y628270D02*
Y644270D01*
Y628270D02*
X793940D01*
X299530Y554610D02*
Y570610D01*
Y554610D02*
X307530D01*
Y570610D01*
X299530D02*
X307530D01*
X917500Y337300D02*
X933500D01*
Y345300D01*
X917500D02*
X933500D01*
X917500Y337300D02*
Y345300D01*
X888810Y404750D02*
Y420750D01*
Y404750D02*
X896810D01*
Y420750D01*
X888810D02*
X896810D01*
X1196010Y706420D02*
X1246810D01*
Y575620D02*
Y706420D01*
X1196010Y575620D02*
X1246810D01*
X1196010D02*
Y706420D01*
X882000Y358640D02*
X920000D01*
X882000D02*
Y362640D01*
X886000D01*
Y366640D01*
X879500D02*
X886000D01*
X879500D02*
Y414640D01*
X892000D01*
X894000Y412640D01*
X946000D01*
X948000Y414640D01*
X960500D01*
Y366640D02*
Y414640D01*
X954000Y366640D02*
X960500D01*
X954000Y362640D02*
Y366640D01*
Y362640D02*
X958000D01*
Y358640D02*
Y362640D01*
X920000Y358640D02*
X958000D01*
X115870Y577520D02*
Y628320D01*
X10470Y577520D02*
X115870D01*
X10470D02*
Y628320D01*
X115870D01*
X81330Y285550D02*
X154890D01*
Y336750D01*
X81330D02*
X154890D01*
X81330Y285550D02*
Y336750D01*
X477810Y565970D02*
Y617010D01*
X451170D02*
X477810D01*
X451170Y565970D02*
Y617010D01*
Y565970D02*
X477810D01*
X470070D02*
X477810Y573710D01*
X277500Y24100D02*
Y125100D01*
X176500D02*
X277500D01*
X176500Y24100D02*
Y125100D01*
Y24100D02*
X277500D01*
X759050Y562130D02*
X768550Y571630D01*
X739550Y562130D02*
X768550D01*
X739550D02*
Y575130D01*
X768550D01*
Y562130D02*
Y575130D01*
X979690Y664820D02*
X987430Y672570D01*
X979690D02*
X1005930D01*
Y622170D02*
Y672570D01*
X979690Y622170D02*
X1005930D01*
X979690D02*
Y672570D01*
X144700Y357800D02*
Y394040D01*
X198200D01*
Y357800D02*
Y394040D01*
X144700Y357800D02*
X198200D01*
X943780Y600380D02*
Y664380D01*
X815780D02*
X943780D01*
X815780Y536380D02*
Y664380D01*
Y536380D02*
X919780D01*
X943780Y560380D01*
Y600380D01*
X206270Y647319D02*
Y663319D01*
X177270D02*
X206270D01*
X177270Y647319D02*
Y663319D01*
Y647319D02*
X206270D01*
X513780Y57060D02*
Y87060D01*
X483780Y57060D02*
X513780D01*
X483780D02*
Y87060D01*
X513780D01*
X345110Y264870D02*
X353110Y256870D01*
X345110D02*
Y479070D01*
X446710D01*
Y256870D02*
Y479070D01*
X345110Y256870D02*
X446710D01*
X1030390Y221170D02*
X1043090Y233870D01*
X990790Y221170D02*
X1043090D01*
X990790D02*
Y273470D01*
X1043090D01*
Y221170D02*
Y273470D01*
X929450Y224410D02*
Y240410D01*
Y224410D02*
X937450D01*
Y240410D01*
X929450D02*
X937450D01*
M02*
