G04*
G04 #@! TF.GenerationSoftware,Altium Limited,Altium Designer,26.7.1 (11)*
G04*
G04 Layer_Color=32896*
G04 Board_Origin=18000000|21950000*
%FSLAX44Y44*%
%MOMM*%
G71*
G04*
G04 #@! TF.SameCoordinates,D071BD7E-3876-4D20-9434-7D3039072E30*
G04*
G04*
G04 #@! TF.FilePolarity,Positive*
G04*
G01*
G75*
%ADD10C,0.2000*%
%ADD11C,0.1000*%
G36*
X239165Y217208D02*
X239272Y217052D01*
X239389Y216906D01*
X239506Y216770D01*
X239613Y216662D01*
X239701Y216574D01*
X239760Y216516D01*
X239769Y216506D01*
X239779Y216497D01*
X239964Y216340D01*
X240159Y216194D01*
X240354Y216067D01*
X240530Y215960D01*
X240686Y215872D01*
X240754Y215843D01*
X240813Y215814D01*
X240852Y215784D01*
X240891Y215765D01*
X240910Y215755D01*
X240920D01*
Y214985D01*
X240784Y215043D01*
X240637Y215112D01*
X240501Y215170D01*
X240374Y215238D01*
X240267Y215297D01*
X240179Y215345D01*
X240120Y215385D01*
X240111Y215394D01*
X240101D01*
X239935Y215492D01*
X239789Y215599D01*
X239662Y215687D01*
X239555Y215775D01*
X239467Y215843D01*
X239399Y215892D01*
X239360Y215931D01*
X239350Y215940D01*
Y210927D01*
X238560D01*
Y217365D01*
X239077D01*
X239165Y217208D01*
D02*
G37*
G36*
X247650Y213629D02*
Y213444D01*
X247640Y213268D01*
X247631Y213102D01*
X247611Y212946D01*
X247592Y212810D01*
X247572Y212673D01*
X247553Y212556D01*
X247523Y212449D01*
X247504Y212351D01*
X247484Y212263D01*
X247465Y212185D01*
X247445Y212127D01*
X247426Y212078D01*
X247416Y212049D01*
X247406Y212029D01*
Y212020D01*
X247299Y211815D01*
X247172Y211629D01*
X247045Y211483D01*
X246909Y211356D01*
X246792Y211249D01*
X246684Y211181D01*
X246646Y211152D01*
X246626Y211142D01*
X246607Y211122D01*
X246597D01*
X246372Y211025D01*
X246119Y210947D01*
X245875Y210898D01*
X245641Y210859D01*
X245534Y210849D01*
X245436Y210839D01*
X245348Y210830D01*
X245270D01*
X245212Y210820D01*
X245124D01*
X244792Y210839D01*
X244500Y210878D01*
X244363Y210898D01*
X244246Y210927D01*
X244129Y210966D01*
X244032Y210995D01*
X243944Y211025D01*
X243856Y211064D01*
X243788Y211093D01*
X243739Y211112D01*
X243690Y211142D01*
X243661Y211152D01*
X243641Y211171D01*
X243632D01*
X243437Y211317D01*
X243261Y211464D01*
X243125Y211620D01*
X243017Y211766D01*
X242939Y211903D01*
X242881Y212000D01*
X242861Y212039D01*
X242851Y212068D01*
X242842Y212088D01*
Y212098D01*
X242764Y212322D01*
X242715Y212575D01*
X242676Y212829D01*
X242647Y213073D01*
X242637Y213190D01*
X242627Y213297D01*
Y213385D01*
X242617Y213473D01*
Y213541D01*
Y213590D01*
Y213619D01*
Y213629D01*
Y217335D01*
X243466D01*
Y213629D01*
Y213414D01*
X243485Y213209D01*
X243505Y213034D01*
X243524Y212868D01*
X243554Y212712D01*
X243593Y212585D01*
X243632Y212468D01*
X243661Y212361D01*
X243700Y212273D01*
X243739Y212195D01*
X243768Y212137D01*
X243807Y212088D01*
X243827Y212049D01*
X243846Y212020D01*
X243866Y212010D01*
Y212000D01*
X243944Y211922D01*
X244041Y211863D01*
X244246Y211756D01*
X244461Y211688D01*
X244685Y211629D01*
X244880Y211600D01*
X244968Y211590D01*
X245046D01*
X245114Y211581D01*
X245202D01*
X245397Y211590D01*
X245573Y211610D01*
X245729Y211649D01*
X245865Y211688D01*
X245972Y211717D01*
X246050Y211756D01*
X246099Y211776D01*
X246119Y211786D01*
X246255Y211873D01*
X246363Y211971D01*
X246460Y212078D01*
X246528Y212176D01*
X246587Y212263D01*
X246626Y212332D01*
X246646Y212380D01*
X246655Y212400D01*
X246684Y212478D01*
X246704Y212566D01*
X246743Y212761D01*
X246763Y212966D01*
X246782Y213161D01*
X246792Y213346D01*
X246802Y213424D01*
Y213492D01*
Y213551D01*
Y213590D01*
Y213619D01*
Y213629D01*
Y217335D01*
X247650D01*
Y213629D01*
D02*
G37*
G36*
X403790Y603764D02*
X400635D01*
X400746Y603612D01*
X400802Y603542D01*
X400857Y603480D01*
X400905Y603424D01*
X400940Y603383D01*
X400968Y603355D01*
X400975Y603348D01*
X401016Y603307D01*
X401072Y603251D01*
X401134Y603196D01*
X401204Y603133D01*
X401349Y602995D01*
X401502Y602863D01*
X401647Y602738D01*
X401710Y602682D01*
X401772Y602634D01*
X401814Y602592D01*
X401856Y602565D01*
X401876Y602544D01*
X401883Y602537D01*
X402036Y602405D01*
X402181Y602280D01*
X402313Y602169D01*
X402431Y602058D01*
X402542Y601961D01*
X402639Y601864D01*
X402729Y601781D01*
X402812Y601705D01*
X402882Y601642D01*
X402937Y601580D01*
X402986Y601531D01*
X403027Y601490D01*
X403055Y601455D01*
X403083Y601434D01*
X403090Y601421D01*
X403097Y601414D01*
X403228Y601261D01*
X403332Y601122D01*
X403423Y600991D01*
X403499Y600873D01*
X403554Y600776D01*
X403596Y600699D01*
X403610Y600672D01*
X403617Y600651D01*
X403624Y600644D01*
Y600637D01*
X403679Y600498D01*
X403714Y600360D01*
X403742Y600235D01*
X403762Y600117D01*
X403776Y600020D01*
X403783Y599944D01*
Y599916D01*
Y599895D01*
Y599888D01*
Y599881D01*
X403776Y599742D01*
X403762Y599611D01*
X403735Y599486D01*
X403700Y599361D01*
X403658Y599250D01*
X403610Y599146D01*
X403561Y599049D01*
X403513Y598966D01*
X403464Y598883D01*
X403416Y598813D01*
X403367Y598751D01*
X403326Y598702D01*
X403291Y598668D01*
X403263Y598633D01*
X403249Y598619D01*
X403242Y598612D01*
X403138Y598522D01*
X403027Y598446D01*
X402910Y598376D01*
X402785Y598314D01*
X402667Y598265D01*
X402542Y598224D01*
X402424Y598189D01*
X402306Y598161D01*
X402202Y598141D01*
X402098Y598127D01*
X402008Y598113D01*
X401932Y598106D01*
X401869Y598099D01*
X401779D01*
X401613Y598106D01*
X401453Y598120D01*
X401308Y598141D01*
X401169Y598175D01*
X401037Y598210D01*
X400919Y598252D01*
X400808Y598293D01*
X400711Y598335D01*
X400621Y598383D01*
X400545Y598425D01*
X400476Y598466D01*
X400420Y598501D01*
X400378Y598536D01*
X400351Y598557D01*
X400330Y598571D01*
X400323Y598577D01*
X400226Y598668D01*
X400143Y598772D01*
X400066Y598876D01*
X399997Y598993D01*
X399942Y599104D01*
X399886Y599215D01*
X399845Y599333D01*
X399810Y599437D01*
X399775Y599541D01*
X399754Y599638D01*
X399734Y599729D01*
X399720Y599805D01*
X399713Y599867D01*
X399706Y599909D01*
X399699Y599937D01*
Y599950D01*
X400503Y600034D01*
X400510Y599923D01*
X400517Y599819D01*
X400559Y599638D01*
X400614Y599472D01*
X400642Y599403D01*
X400677Y599340D01*
X400704Y599285D01*
X400739Y599236D01*
X400767Y599195D01*
X400788Y599160D01*
X400815Y599132D01*
X400829Y599111D01*
X400836Y599104D01*
X400843Y599098D01*
X400912Y599035D01*
X400982Y598980D01*
X401058Y598938D01*
X401134Y598896D01*
X401287Y598834D01*
X401432Y598792D01*
X401557Y598772D01*
X401613Y598758D01*
X401661D01*
X401703Y598751D01*
X401856D01*
X401953Y598765D01*
X402126Y598799D01*
X402271Y598855D01*
X402403Y598910D01*
X402500Y598973D01*
X402542Y599001D01*
X402577Y599028D01*
X402604Y599049D01*
X402625Y599063D01*
X402632Y599070D01*
X402639Y599077D01*
X402701Y599139D01*
X402750Y599202D01*
X402799Y599264D01*
X402833Y599333D01*
X402896Y599465D01*
X402937Y599590D01*
X402958Y599694D01*
X402972Y599742D01*
Y599784D01*
X402979Y599812D01*
Y599840D01*
Y599853D01*
Y599860D01*
X402972Y599944D01*
X402965Y600027D01*
X402923Y600193D01*
X402861Y600353D01*
X402792Y600498D01*
X402722Y600623D01*
X402695Y600672D01*
X402660Y600720D01*
X402639Y600755D01*
X402618Y600783D01*
X402611Y600796D01*
X402604Y600803D01*
X402528Y600900D01*
X402438Y601004D01*
X402334Y601115D01*
X402223Y601226D01*
X401994Y601455D01*
X401758Y601670D01*
X401647Y601774D01*
X401536Y601864D01*
X401439Y601948D01*
X401356Y602017D01*
X401287Y602079D01*
X401238Y602121D01*
X401204Y602155D01*
X401190Y602162D01*
X401065Y602267D01*
X400954Y602364D01*
X400843Y602454D01*
X400746Y602544D01*
X400649Y602627D01*
X400566Y602710D01*
X400489Y602780D01*
X400420Y602849D01*
X400358Y602911D01*
X400309Y602967D01*
X400261Y603015D01*
X400226Y603050D01*
X400191Y603085D01*
X400171Y603106D01*
X400163Y603119D01*
X400157Y603126D01*
X400032Y603279D01*
X399928Y603431D01*
X399838Y603577D01*
X399768Y603709D01*
X399713Y603820D01*
X399692Y603868D01*
X399671Y603903D01*
X399657Y603938D01*
X399650Y603958D01*
X399644Y603972D01*
Y603979D01*
X399609Y604076D01*
X399588Y604173D01*
X399567Y604263D01*
X399560Y604347D01*
X399553Y604416D01*
Y604472D01*
Y604506D01*
Y604520D01*
X403790D01*
Y603764D01*
D02*
G37*
G36*
X398971D02*
X395816D01*
Y598120D01*
X394970D01*
Y604520D01*
X398971D01*
Y603764D01*
D02*
G37*
G36*
X902349Y196840D02*
X902525Y196831D01*
X902847Y196762D01*
X902993Y196723D01*
X903139Y196674D01*
X903266Y196626D01*
X903383Y196577D01*
X903490Y196528D01*
X903578Y196479D01*
X903656Y196431D01*
X903725Y196392D01*
X903783Y196353D01*
X903822Y196323D01*
X903842Y196314D01*
X903851Y196304D01*
X903978Y196197D01*
X904095Y196080D01*
X904290Y195826D01*
X904466Y195563D01*
X904593Y195299D01*
X904651Y195182D01*
X904690Y195075D01*
X904729Y194968D01*
X904768Y194890D01*
X904788Y194812D01*
X904807Y194763D01*
X904817Y194724D01*
Y194714D01*
X903968Y194499D01*
X903890Y194782D01*
X903793Y195036D01*
X903676Y195241D01*
X903568Y195416D01*
X903461Y195543D01*
X903373Y195641D01*
X903315Y195699D01*
X903305Y195709D01*
X903295Y195719D01*
X903100Y195855D01*
X902905Y195953D01*
X902700Y196031D01*
X902515Y196080D01*
X902349Y196109D01*
X902271Y196119D01*
X902213D01*
X902164Y196128D01*
X902096D01*
X901881Y196119D01*
X901676Y196080D01*
X901491Y196031D01*
X901335Y195982D01*
X901198Y195924D01*
X901091Y195884D01*
X901052Y195865D01*
X901023Y195846D01*
X901013Y195836D01*
X901003D01*
X900828Y195709D01*
X900681Y195563D01*
X900555Y195416D01*
X900447Y195260D01*
X900369Y195133D01*
X900321Y195016D01*
X900301Y194977D01*
X900282Y194948D01*
X900272Y194929D01*
Y194919D01*
X900194Y194685D01*
X900135Y194441D01*
X900096Y194197D01*
X900067Y193973D01*
X900057Y193875D01*
X900047Y193787D01*
Y193700D01*
X900038Y193631D01*
Y193573D01*
Y193534D01*
Y193505D01*
Y193495D01*
X900047Y193261D01*
X900067Y193036D01*
X900096Y192832D01*
X900135Y192646D01*
X900174Y192490D01*
X900184Y192422D01*
X900203Y192373D01*
X900213Y192324D01*
X900223Y192295D01*
X900233Y192276D01*
Y192266D01*
X900321Y192051D01*
X900428Y191856D01*
X900545Y191700D01*
X900652Y191564D01*
X900759Y191456D01*
X900847Y191378D01*
X900906Y191329D01*
X900916Y191310D01*
X900925D01*
X901120Y191193D01*
X901325Y191105D01*
X901530Y191037D01*
X901725Y190998D01*
X901901Y190969D01*
X901969Y190959D01*
X902037D01*
X902086Y190949D01*
X902154D01*
X902388Y190959D01*
X902593Y190998D01*
X902778Y191047D01*
X902925Y191105D01*
X903052Y191173D01*
X903139Y191222D01*
X903198Y191261D01*
X903217Y191271D01*
X903373Y191408D01*
X903500Y191564D01*
X903617Y191739D01*
X903705Y191905D01*
X903773Y192051D01*
X903802Y192120D01*
X903832Y192178D01*
X903851Y192227D01*
X903861Y192266D01*
X903871Y192285D01*
Y192295D01*
X904710Y192100D01*
X904593Y191788D01*
X904524Y191642D01*
X904456Y191515D01*
X904378Y191388D01*
X904300Y191271D01*
X904232Y191173D01*
X904154Y191076D01*
X904085Y190998D01*
X904017Y190930D01*
X903949Y190861D01*
X903900Y190813D01*
X903851Y190774D01*
X903822Y190744D01*
X903802Y190735D01*
X903793Y190725D01*
X903666Y190637D01*
X903539Y190559D01*
X903403Y190491D01*
X903266Y190432D01*
X902993Y190344D01*
X902739Y190286D01*
X902622Y190266D01*
X902515Y190257D01*
X902418Y190247D01*
X902339Y190237D01*
X902271Y190227D01*
X902174D01*
X901862Y190247D01*
X901569Y190286D01*
X901306Y190354D01*
X901189Y190383D01*
X901081Y190422D01*
X900984Y190462D01*
X900886Y190491D01*
X900808Y190530D01*
X900750Y190559D01*
X900691Y190578D01*
X900652Y190598D01*
X900633Y190618D01*
X900623D01*
X900379Y190774D01*
X900155Y190959D01*
X899969Y191144D01*
X899823Y191329D01*
X899696Y191495D01*
X899648Y191564D01*
X899609Y191622D01*
X899579Y191681D01*
X899560Y191720D01*
X899540Y191739D01*
Y191749D01*
X899413Y192032D01*
X899316Y192334D01*
X899257Y192627D01*
X899209Y192900D01*
X899189Y193027D01*
X899179Y193134D01*
X899170Y193241D01*
Y193329D01*
X899160Y193397D01*
Y193446D01*
Y193485D01*
Y193495D01*
X899170Y193836D01*
X899209Y194148D01*
X899267Y194441D01*
X899296Y194578D01*
X899326Y194694D01*
X899355Y194812D01*
X899384Y194909D01*
X899413Y194997D01*
X899443Y195075D01*
X899462Y195133D01*
X899482Y195173D01*
X899491Y195202D01*
Y195212D01*
X899628Y195494D01*
X899794Y195738D01*
X899950Y195953D01*
X900116Y196119D01*
X900252Y196255D01*
X900369Y196353D01*
X900418Y196382D01*
X900447Y196411D01*
X900467Y196421D01*
X900477Y196431D01*
X900603Y196509D01*
X900740Y196567D01*
X901013Y196674D01*
X901296Y196743D01*
X901569Y196801D01*
X901686Y196811D01*
X901803Y196831D01*
X901901Y196840D01*
X901988D01*
X902066Y196850D01*
X902164D01*
X902349Y196840D01*
D02*
G37*
G36*
X907782D02*
X907967Y196821D01*
X908133Y196782D01*
X908299Y196733D01*
X908445Y196674D01*
X908592Y196606D01*
X908718Y196538D01*
X908826Y196460D01*
X908933Y196392D01*
X909021Y196323D01*
X909099Y196255D01*
X909157Y196197D01*
X909206Y196148D01*
X909245Y196109D01*
X909265Y196089D01*
X909274Y196080D01*
X909362Y195963D01*
X909440Y195836D01*
X909508Y195709D01*
X909567Y195572D01*
X909655Y195329D01*
X909723Y195094D01*
X909743Y194987D01*
X909752Y194890D01*
X909762Y194802D01*
X909772Y194724D01*
X909781Y194665D01*
Y194617D01*
Y194587D01*
Y194578D01*
X909772Y194412D01*
X909752Y194246D01*
X909723Y194100D01*
X909694Y193953D01*
X909645Y193827D01*
X909596Y193700D01*
X909547Y193592D01*
X909489Y193485D01*
X909430Y193397D01*
X909382Y193319D01*
X909333Y193251D01*
X909284Y193193D01*
X909255Y193144D01*
X909225Y193114D01*
X909206Y193095D01*
X909196Y193085D01*
X909089Y192978D01*
X908972Y192890D01*
X908855Y192812D01*
X908728Y192744D01*
X908611Y192685D01*
X908494Y192646D01*
X908270Y192568D01*
X908172Y192549D01*
X908075Y192529D01*
X907997Y192519D01*
X907919Y192510D01*
X907860Y192500D01*
X907782D01*
X907548Y192519D01*
X907324Y192568D01*
X907119Y192627D01*
X906943Y192705D01*
X906787Y192783D01*
X906729Y192812D01*
X906670Y192841D01*
X906631Y192871D01*
X906602Y192890D01*
X906582Y192900D01*
X906573Y192910D01*
X906924Y191183D01*
X909479D01*
Y190432D01*
X906300D01*
X905675Y193719D01*
X906416Y193827D01*
X906485Y193729D01*
X906563Y193641D01*
X906641Y193563D01*
X906709Y193495D01*
X906777Y193446D01*
X906836Y193407D01*
X906875Y193388D01*
X906885Y193378D01*
X907002Y193319D01*
X907119Y193270D01*
X907236Y193241D01*
X907343Y193212D01*
X907441Y193202D01*
X907509Y193193D01*
X907577D01*
X907792Y193212D01*
X907987Y193251D01*
X908162Y193319D01*
X908299Y193388D01*
X908416Y193456D01*
X908494Y193524D01*
X908543Y193563D01*
X908562Y193583D01*
X908689Y193739D01*
X908787Y193914D01*
X908855Y194090D01*
X908894Y194256D01*
X908923Y194412D01*
X908933Y194480D01*
Y194538D01*
X908943Y194578D01*
Y194617D01*
Y194636D01*
Y194646D01*
X908923Y194899D01*
X908884Y195124D01*
X908816Y195319D01*
X908748Y195485D01*
X908679Y195611D01*
X908611Y195709D01*
X908572Y195767D01*
X908552Y195777D01*
Y195787D01*
X908475Y195865D01*
X908397Y195924D01*
X908240Y196031D01*
X908075Y196099D01*
X907928Y196158D01*
X907792Y196187D01*
X907684Y196197D01*
X907645Y196206D01*
X907587D01*
X907421Y196197D01*
X907265Y196158D01*
X907129Y196109D01*
X907011Y196060D01*
X906914Y196001D01*
X906846Y195963D01*
X906807Y195924D01*
X906787Y195914D01*
X906670Y195787D01*
X906582Y195641D01*
X906504Y195494D01*
X906456Y195348D01*
X906416Y195212D01*
X906387Y195104D01*
X906377Y195065D01*
X906368Y195036D01*
Y195016D01*
Y195007D01*
X905539Y195065D01*
X905558Y195212D01*
X905587Y195358D01*
X905666Y195611D01*
X905773Y195836D01*
X905880Y196021D01*
X905939Y196099D01*
X905987Y196167D01*
X906036Y196226D01*
X906075Y196275D01*
X906114Y196314D01*
X906143Y196343D01*
X906153Y196353D01*
X906163Y196362D01*
X906270Y196450D01*
X906387Y196518D01*
X906504Y196587D01*
X906621Y196645D01*
X906855Y196733D01*
X907080Y196792D01*
X907187Y196811D01*
X907285Y196821D01*
X907372Y196831D01*
X907441Y196840D01*
X907499Y196850D01*
X907587D01*
X907782Y196840D01*
D02*
G37*
G36*
X1168452Y648017D02*
X1168638Y647997D01*
X1168813Y647988D01*
X1168969Y647968D01*
X1169116Y647939D01*
X1169252Y647919D01*
X1169369Y647890D01*
X1169476Y647861D01*
X1169574Y647841D01*
X1169652Y647822D01*
X1169710Y647793D01*
X1169759Y647783D01*
X1169798Y647763D01*
X1169818Y647754D01*
X1169828D01*
X1170052Y647646D01*
X1170247Y647519D01*
X1170403Y647383D01*
X1170549Y647256D01*
X1170657Y647139D01*
X1170735Y647051D01*
X1170754Y647012D01*
X1170774Y646983D01*
X1170793Y646973D01*
Y646963D01*
X1170910Y646768D01*
X1170988Y646563D01*
X1171047Y646378D01*
X1171096Y646203D01*
X1171115Y646047D01*
X1171125Y645978D01*
Y645929D01*
X1171134Y645881D01*
Y645822D01*
X1171125Y645666D01*
X1171105Y645510D01*
X1171076Y645364D01*
X1171047Y645227D01*
X1170949Y644983D01*
X1170891Y644876D01*
X1170842Y644779D01*
X1170783Y644681D01*
X1170725Y644603D01*
X1170676Y644535D01*
X1170637Y644486D01*
X1170598Y644437D01*
X1170569Y644408D01*
X1170549Y644389D01*
X1170540Y644379D01*
X1170423Y644281D01*
X1170305Y644193D01*
X1170179Y644115D01*
X1170042Y644057D01*
X1169915Y643998D01*
X1169779Y643950D01*
X1169535Y643881D01*
X1169418Y643862D01*
X1169311Y643842D01*
X1169213Y643832D01*
X1169135Y643823D01*
X1169067Y643813D01*
X1169008D01*
X1168979D01*
X1168969D01*
X1168794Y643823D01*
X1168628Y643832D01*
X1168482Y643862D01*
X1168335Y643901D01*
X1168199Y643940D01*
X1168072Y643989D01*
X1167955Y644037D01*
X1167857Y644086D01*
X1167760Y644135D01*
X1167682Y644184D01*
X1167614Y644232D01*
X1167555Y644271D01*
X1167506Y644310D01*
X1167477Y644340D01*
X1167457Y644350D01*
X1167448Y644359D01*
X1167350Y644466D01*
X1167262Y644574D01*
X1167184Y644691D01*
X1167116Y644798D01*
X1167057Y644915D01*
X1167009Y645023D01*
X1166941Y645237D01*
X1166901Y645422D01*
X1166892Y645500D01*
X1166882Y645569D01*
X1166872Y645627D01*
Y645705D01*
X1166882Y645881D01*
X1166911Y646047D01*
X1166941Y646193D01*
X1166989Y646320D01*
X1167028Y646427D01*
X1167057Y646515D01*
X1167087Y646563D01*
X1167096Y646583D01*
X1167194Y646729D01*
X1167292Y646856D01*
X1167399Y646973D01*
X1167496Y647061D01*
X1167574Y647139D01*
X1167653Y647188D01*
X1167691Y647227D01*
X1167711Y647236D01*
X1167643D01*
X1167594D01*
X1167565D01*
X1167555D01*
X1167370D01*
X1167194Y647217D01*
X1167038Y647197D01*
X1166892Y647178D01*
X1166765Y647159D01*
X1166667Y647139D01*
X1166638Y647129D01*
X1166609D01*
X1166599Y647120D01*
X1166589D01*
X1166423Y647071D01*
X1166277Y647022D01*
X1166150Y646973D01*
X1166043Y646934D01*
X1165955Y646885D01*
X1165887Y646856D01*
X1165848Y646837D01*
X1165838Y646827D01*
X1165741Y646759D01*
X1165653Y646681D01*
X1165575Y646612D01*
X1165517Y646534D01*
X1165468Y646476D01*
X1165429Y646427D01*
X1165409Y646388D01*
X1165399Y646378D01*
X1165341Y646271D01*
X1165302Y646164D01*
X1165273Y646056D01*
X1165253Y645959D01*
X1165243Y645871D01*
X1165234Y645803D01*
Y645744D01*
X1165243Y645588D01*
X1165273Y645452D01*
X1165312Y645335D01*
X1165351Y645237D01*
X1165390Y645149D01*
X1165429Y645091D01*
X1165458Y645052D01*
X1165468Y645042D01*
X1165565Y644944D01*
X1165692Y644866D01*
X1165819Y644808D01*
X1165946Y644759D01*
X1166053Y644720D01*
X1166150Y644701D01*
X1166189Y644691D01*
X1166219Y644681D01*
X1166228D01*
X1166238D01*
X1166180Y643930D01*
X1165907Y643979D01*
X1165673Y644057D01*
X1165468Y644145D01*
X1165302Y644242D01*
X1165175Y644340D01*
X1165078Y644418D01*
X1165019Y644476D01*
X1165009Y644486D01*
X1164999Y644496D01*
X1164863Y644691D01*
X1164765Y644886D01*
X1164687Y645091D01*
X1164639Y645286D01*
X1164609Y645461D01*
X1164600Y645539D01*
Y645598D01*
X1164590Y645656D01*
Y645725D01*
X1164609Y645978D01*
X1164648Y646222D01*
X1164707Y646427D01*
X1164775Y646612D01*
X1164844Y646759D01*
X1164873Y646817D01*
X1164902Y646866D01*
X1164931Y646915D01*
X1164941Y646944D01*
X1164960Y646954D01*
Y646963D01*
X1165117Y647149D01*
X1165292Y647305D01*
X1165478Y647441D01*
X1165663Y647558D01*
X1165819Y647646D01*
X1165887Y647675D01*
X1165955Y647705D01*
X1166004Y647724D01*
X1166043Y647744D01*
X1166063Y647754D01*
X1166072D01*
X1166219Y647802D01*
X1166365Y647841D01*
X1166687Y647909D01*
X1167019Y647958D01*
X1167331Y647997D01*
X1167477Y648007D01*
X1167604Y648017D01*
X1167730D01*
X1167828Y648027D01*
X1167916D01*
X1167974D01*
X1168023D01*
X1168033D01*
X1168248D01*
X1168452Y648017D01*
D02*
G37*
G36*
X1167028Y643072D02*
X1167194Y643052D01*
X1167340Y643023D01*
X1167487Y642994D01*
X1167614Y642945D01*
X1167740Y642896D01*
X1167848Y642847D01*
X1167955Y642789D01*
X1168043Y642730D01*
X1168121Y642682D01*
X1168189Y642633D01*
X1168248Y642584D01*
X1168296Y642555D01*
X1168326Y642525D01*
X1168345Y642506D01*
X1168355Y642496D01*
X1168462Y642389D01*
X1168550Y642272D01*
X1168628Y642155D01*
X1168696Y642028D01*
X1168755Y641911D01*
X1168794Y641794D01*
X1168872Y641570D01*
X1168891Y641472D01*
X1168911Y641375D01*
X1168921Y641297D01*
X1168930Y641219D01*
X1168940Y641160D01*
Y641082D01*
X1168921Y640848D01*
X1168872Y640624D01*
X1168813Y640419D01*
X1168735Y640243D01*
X1168657Y640087D01*
X1168628Y640029D01*
X1168599Y639970D01*
X1168569Y639931D01*
X1168550Y639902D01*
X1168540Y639882D01*
X1168530Y639873D01*
X1170257Y640224D01*
Y642779D01*
X1171008D01*
Y639599D01*
X1167721Y638975D01*
X1167614Y639716D01*
X1167711Y639785D01*
X1167799Y639863D01*
X1167877Y639941D01*
X1167945Y640009D01*
X1167994Y640077D01*
X1168033Y640136D01*
X1168052Y640175D01*
X1168062Y640185D01*
X1168121Y640302D01*
X1168169Y640419D01*
X1168199Y640536D01*
X1168228Y640643D01*
X1168238Y640741D01*
X1168248Y640809D01*
Y640877D01*
X1168228Y641092D01*
X1168189Y641287D01*
X1168121Y641462D01*
X1168052Y641599D01*
X1167984Y641716D01*
X1167916Y641794D01*
X1167877Y641843D01*
X1167857Y641862D01*
X1167701Y641989D01*
X1167526Y642087D01*
X1167350Y642155D01*
X1167184Y642194D01*
X1167028Y642223D01*
X1166960Y642233D01*
X1166901D01*
X1166862Y642243D01*
X1166823D01*
X1166804D01*
X1166794D01*
X1166541Y642223D01*
X1166316Y642184D01*
X1166121Y642116D01*
X1165955Y642048D01*
X1165829Y641979D01*
X1165731Y641911D01*
X1165673Y641872D01*
X1165663Y641852D01*
X1165653D01*
X1165575Y641775D01*
X1165517Y641696D01*
X1165409Y641540D01*
X1165341Y641375D01*
X1165282Y641228D01*
X1165253Y641092D01*
X1165243Y640984D01*
X1165234Y640946D01*
Y640887D01*
X1165243Y640721D01*
X1165282Y640565D01*
X1165331Y640428D01*
X1165380Y640312D01*
X1165438Y640214D01*
X1165478Y640146D01*
X1165517Y640107D01*
X1165526Y640087D01*
X1165653Y639970D01*
X1165799Y639882D01*
X1165946Y639804D01*
X1166092Y639756D01*
X1166228Y639716D01*
X1166336Y639687D01*
X1166375Y639678D01*
X1166404Y639668D01*
X1166423D01*
X1166433D01*
X1166375Y638839D01*
X1166228Y638858D01*
X1166082Y638887D01*
X1165829Y638965D01*
X1165604Y639073D01*
X1165419Y639180D01*
X1165341Y639239D01*
X1165273Y639287D01*
X1165214Y639336D01*
X1165165Y639375D01*
X1165126Y639414D01*
X1165097Y639443D01*
X1165087Y639453D01*
X1165078Y639463D01*
X1164990Y639570D01*
X1164921Y639687D01*
X1164853Y639804D01*
X1164795Y639921D01*
X1164707Y640155D01*
X1164648Y640380D01*
X1164629Y640487D01*
X1164619Y640585D01*
X1164609Y640672D01*
X1164600Y640741D01*
X1164590Y640799D01*
Y640887D01*
X1164600Y641082D01*
X1164619Y641267D01*
X1164658Y641433D01*
X1164707Y641599D01*
X1164765Y641745D01*
X1164834Y641892D01*
X1164902Y642018D01*
X1164980Y642126D01*
X1165048Y642233D01*
X1165117Y642321D01*
X1165185Y642399D01*
X1165243Y642457D01*
X1165292Y642506D01*
X1165331Y642545D01*
X1165351Y642565D01*
X1165360Y642574D01*
X1165478Y642662D01*
X1165604Y642740D01*
X1165731Y642808D01*
X1165868Y642867D01*
X1166111Y642955D01*
X1166346Y643023D01*
X1166453Y643043D01*
X1166550Y643052D01*
X1166638Y643062D01*
X1166716Y643072D01*
X1166775Y643082D01*
X1166823D01*
X1166853D01*
X1166862D01*
X1167028Y643072D01*
D02*
G37*
G36*
X1166941Y637268D02*
X1166658Y637190D01*
X1166404Y637093D01*
X1166199Y636976D01*
X1166024Y636868D01*
X1165897Y636761D01*
X1165799Y636673D01*
X1165741Y636615D01*
X1165731Y636605D01*
X1165721Y636595D01*
X1165585Y636400D01*
X1165487Y636205D01*
X1165409Y636000D01*
X1165360Y635815D01*
X1165331Y635649D01*
X1165321Y635571D01*
Y635513D01*
X1165312Y635464D01*
Y635396D01*
X1165321Y635181D01*
X1165360Y634976D01*
X1165409Y634791D01*
X1165458Y634635D01*
X1165517Y634498D01*
X1165555Y634391D01*
X1165575Y634352D01*
X1165594Y634323D01*
X1165604Y634313D01*
Y634303D01*
X1165731Y634128D01*
X1165877Y633981D01*
X1166024Y633855D01*
X1166180Y633747D01*
X1166307Y633669D01*
X1166423Y633620D01*
X1166463Y633601D01*
X1166492Y633582D01*
X1166511Y633572D01*
X1166521D01*
X1166755Y633494D01*
X1166999Y633435D01*
X1167243Y633396D01*
X1167467Y633367D01*
X1167565Y633357D01*
X1167653Y633347D01*
X1167740D01*
X1167809Y633338D01*
X1167867D01*
X1167906D01*
X1167935D01*
X1167945D01*
X1168179Y633347D01*
X1168403Y633367D01*
X1168608Y633396D01*
X1168794Y633435D01*
X1168950Y633474D01*
X1169018Y633484D01*
X1169067Y633503D01*
X1169116Y633513D01*
X1169145Y633523D01*
X1169164Y633533D01*
X1169174D01*
X1169389Y633620D01*
X1169584Y633728D01*
X1169740Y633845D01*
X1169876Y633952D01*
X1169984Y634059D01*
X1170062Y634147D01*
X1170110Y634206D01*
X1170130Y634216D01*
Y634225D01*
X1170247Y634420D01*
X1170335Y634625D01*
X1170403Y634830D01*
X1170442Y635025D01*
X1170471Y635201D01*
X1170481Y635269D01*
Y635337D01*
X1170491Y635386D01*
Y635454D01*
X1170481Y635688D01*
X1170442Y635893D01*
X1170393Y636078D01*
X1170335Y636225D01*
X1170266Y636352D01*
X1170218Y636439D01*
X1170179Y636498D01*
X1170169Y636517D01*
X1170032Y636673D01*
X1169876Y636800D01*
X1169701Y636917D01*
X1169535Y637005D01*
X1169389Y637073D01*
X1169320Y637103D01*
X1169262Y637132D01*
X1169213Y637151D01*
X1169174Y637161D01*
X1169155Y637171D01*
X1169145D01*
X1169340Y638010D01*
X1169652Y637893D01*
X1169798Y637824D01*
X1169925Y637756D01*
X1170052Y637678D01*
X1170169Y637600D01*
X1170266Y637532D01*
X1170364Y637454D01*
X1170442Y637385D01*
X1170510Y637317D01*
X1170579Y637249D01*
X1170627Y637200D01*
X1170666Y637151D01*
X1170696Y637122D01*
X1170705Y637103D01*
X1170715Y637093D01*
X1170803Y636966D01*
X1170881Y636839D01*
X1170949Y636703D01*
X1171008Y636566D01*
X1171096Y636293D01*
X1171154Y636039D01*
X1171174Y635922D01*
X1171183Y635815D01*
X1171193Y635718D01*
X1171203Y635639D01*
X1171213Y635571D01*
Y635474D01*
X1171193Y635162D01*
X1171154Y634869D01*
X1171086Y634606D01*
X1171057Y634489D01*
X1171018Y634381D01*
X1170978Y634284D01*
X1170949Y634186D01*
X1170910Y634108D01*
X1170881Y634050D01*
X1170861Y633991D01*
X1170842Y633952D01*
X1170822Y633933D01*
Y633923D01*
X1170666Y633679D01*
X1170481Y633455D01*
X1170296Y633269D01*
X1170110Y633123D01*
X1169945Y632996D01*
X1169876Y632948D01*
X1169818Y632909D01*
X1169759Y632879D01*
X1169720Y632860D01*
X1169701Y632840D01*
X1169691D01*
X1169408Y632713D01*
X1169106Y632616D01*
X1168813Y632557D01*
X1168540Y632509D01*
X1168413Y632489D01*
X1168306Y632479D01*
X1168199Y632470D01*
X1168111D01*
X1168043Y632460D01*
X1167994D01*
X1167955D01*
X1167945D01*
X1167604Y632470D01*
X1167292Y632509D01*
X1166999Y632567D01*
X1166862Y632596D01*
X1166745Y632626D01*
X1166628Y632655D01*
X1166531Y632684D01*
X1166443Y632713D01*
X1166365Y632743D01*
X1166307Y632762D01*
X1166267Y632782D01*
X1166238Y632791D01*
X1166228D01*
X1165946Y632928D01*
X1165702Y633094D01*
X1165487Y633250D01*
X1165321Y633416D01*
X1165185Y633552D01*
X1165087Y633669D01*
X1165058Y633718D01*
X1165029Y633747D01*
X1165019Y633767D01*
X1165009Y633777D01*
X1164931Y633903D01*
X1164873Y634040D01*
X1164765Y634313D01*
X1164697Y634596D01*
X1164639Y634869D01*
X1164629Y634986D01*
X1164609Y635103D01*
X1164600Y635201D01*
Y635288D01*
X1164590Y635366D01*
Y635464D01*
X1164600Y635649D01*
X1164609Y635825D01*
X1164678Y636147D01*
X1164717Y636293D01*
X1164765Y636439D01*
X1164814Y636566D01*
X1164863Y636683D01*
X1164912Y636790D01*
X1164960Y636878D01*
X1165009Y636956D01*
X1165048Y637024D01*
X1165087Y637083D01*
X1165117Y637122D01*
X1165126Y637142D01*
X1165136Y637151D01*
X1165243Y637278D01*
X1165360Y637395D01*
X1165614Y637590D01*
X1165877Y637766D01*
X1166141Y637893D01*
X1166258Y637951D01*
X1166365Y637990D01*
X1166472Y638029D01*
X1166550Y638068D01*
X1166628Y638088D01*
X1166677Y638107D01*
X1166716Y638117D01*
X1166726D01*
X1166941Y637268D01*
D02*
G37*
%LPC*%
G36*
X1169067Y647149D02*
X1169028D01*
X1169008D01*
X1168998D01*
X1168764Y647129D01*
X1168550Y647090D01*
X1168374Y647032D01*
X1168218Y646973D01*
X1168101Y646905D01*
X1168013Y646846D01*
X1167965Y646807D01*
X1167945Y646788D01*
X1167818Y646651D01*
X1167721Y646505D01*
X1167662Y646349D01*
X1167614Y646212D01*
X1167584Y646086D01*
X1167574Y645988D01*
X1167565Y645949D01*
Y645900D01*
X1167584Y645705D01*
X1167623Y645530D01*
X1167682Y645374D01*
X1167760Y645237D01*
X1167828Y645130D01*
X1167887Y645052D01*
X1167926Y645003D01*
X1167945Y644983D01*
X1168101Y644866D01*
X1168257Y644779D01*
X1168423Y644710D01*
X1168589Y644671D01*
X1168725Y644642D01*
X1168842Y644632D01*
X1168882Y644623D01*
X1168911D01*
X1168930D01*
X1168940D01*
X1169184Y644642D01*
X1169398Y644681D01*
X1169594Y644740D01*
X1169750Y644818D01*
X1169876Y644886D01*
X1169974Y644944D01*
X1170032Y644983D01*
X1170052Y645003D01*
X1170130Y645081D01*
X1170198Y645159D01*
X1170296Y645315D01*
X1170374Y645461D01*
X1170432Y645608D01*
X1170462Y645734D01*
X1170471Y645832D01*
X1170481Y645871D01*
Y645920D01*
X1170462Y646105D01*
X1170423Y646271D01*
X1170354Y646417D01*
X1170286Y646544D01*
X1170208Y646651D01*
X1170140Y646720D01*
X1170101Y646768D01*
X1170081Y646788D01*
X1169915Y646905D01*
X1169740Y646993D01*
X1169564Y647061D01*
X1169389Y647100D01*
X1169233Y647129D01*
X1169174Y647139D01*
X1169116D01*
X1169067Y647149D01*
D02*
G37*
%LPD*%
D10*
X283400Y164570D02*
Y257070D01*
X211900Y164570D02*
X283400D01*
X211900D02*
Y257070D01*
X283400D01*
X363970Y577520D02*
Y631520D01*
X425970D01*
Y577520D02*
Y631520D01*
X363970Y577520D02*
X425970D01*
X880099Y186790D02*
Y206910D01*
X918221D01*
Y186790D02*
Y206910D01*
X880099Y186790D02*
X918221D01*
X359399Y534770D02*
Y554890D01*
X397521D01*
Y534770D02*
Y554890D01*
X359399Y534770D02*
X397521D01*
X194409Y543571D02*
X214530D01*
Y505449D02*
Y543571D01*
X194409Y505449D02*
X214530D01*
X194409D02*
Y543571D01*
X903070Y120639D02*
X923191D01*
X903070D02*
Y158761D01*
X923191D01*
Y120639D02*
Y158761D01*
X1157590Y619710D02*
X1171590D01*
X1157590D02*
Y645210D01*
X1171590D01*
Y619710D02*
Y645210D01*
X668120Y123201D02*
X688241D01*
Y85079D02*
Y123201D01*
X668120Y85079D02*
X688241D01*
X668120D02*
Y123201D01*
X521959Y358240D02*
Y378360D01*
X560081D01*
Y358240D02*
Y378360D01*
X521959Y358240D02*
X560081D01*
D11*
X501040Y693930D02*
X723240D01*
Y605930D02*
Y693930D01*
X501040Y605930D02*
Y693930D01*
Y605930D02*
X723240D01*
M02*
