G04*
G04 #@! TF.GenerationSoftware,Altium Limited,Altium Designer,26.7.1 (11)*
G04*
G04 Layer_Color=32896*
G04 Board_Origin=18000000|21950000*
%FSLAX44Y44*%
%MOMM*%
G71*
G04*
G04 #@! TF.SameCoordinates,D071BD7E-3876-4D20-9434-7D3039072E30*
G04*
G04*
G04 #@! TF.FilePolarity,Positive*
G04*
G01*
G75*
%ADD11C,0.1000*%
D11*
X612140Y644930D02*
Y654930D01*
X607140Y649930D02*
X617140D01*
X247650Y205820D02*
Y215820D01*
X242650Y210820D02*
X252650D01*
X394970Y599520D02*
Y609520D01*
X389970Y604520D02*
X399970D01*
X899160Y191850D02*
Y201850D01*
X894160Y196850D02*
X904160D01*
X378460Y539830D02*
Y549830D01*
X373460Y544830D02*
X383460D01*
X199470Y524510D02*
X209470D01*
X204470Y519510D02*
Y529510D01*
X908130Y139700D02*
X918130D01*
X913130Y134700D02*
Y144700D01*
X1159590Y632460D02*
X1169590D01*
X1164590Y627460D02*
Y637460D01*
X673180Y104140D02*
X683180D01*
X678180Y99140D02*
Y109140D01*
X541020Y363300D02*
Y373300D01*
X536020Y368300D02*
X546020D01*
M02*
