G04*
G04 #@! TF.GenerationSoftware,Altium Limited,Altium Designer,26.7.1 (11)*
G04*
G04 Layer_Color=12632256*
G04 Board_Origin=18000000|21950000*
%FSLAX44Y44*%
%MOMM*%
G71*
G04*
G04 #@! TF.SameCoordinates,D071BD7E-3876-4D20-9434-7D3039072E30*
G04*
G04*
G04 #@! TF.FilePolarity,Positive*
G04*
G01*
G75*
%ADD20C,1.5500*%
%ADD21R,1.9500X1.9500*%
%ADD22C,2.4000*%
%ADD23C,0.5100*%
%ADD24C,1.9500*%
%ADD25C,1.4200*%
%ADD26O,2.4000X0.9000*%
%ADD27O,1.7000X0.9000*%
%ADD28C,0.6500*%
%ADD29R,1.5500X1.5500*%
%ADD30R,1.5500X1.5500*%
%ADD31C,2.0000*%
%ADD32C,5.0000*%
D20*
X1208710Y615620D02*
D03*
X75870D02*
D03*
X25070D02*
D03*
X1208710Y641020D02*
D03*
X101270Y590220D02*
D03*
X1208710Y666420D02*
D03*
X1234110Y641020D02*
D03*
Y691820D02*
D03*
Y615620D02*
D03*
X101270D02*
D03*
X1208710Y590220D02*
D03*
X1234110Y666420D02*
D03*
X1208710Y691820D02*
D03*
X50470Y590220D02*
D03*
X75870D02*
D03*
X50470Y615620D02*
D03*
D21*
X1223080Y290830D02*
D03*
D22*
X535940Y646430D02*
D03*
X688340D02*
D03*
X637540D02*
D03*
X586740D02*
D03*
D23*
X1251860Y545770D02*
D03*
Y482270D02*
D03*
D24*
X1273080Y290830D02*
D03*
X1248080Y390830D02*
D03*
D25*
X1253160Y172390D02*
D03*
Y197790D02*
D03*
D26*
X49040Y285820D02*
D03*
Y199320D02*
D03*
D27*
X15240Y285820D02*
D03*
Y199320D02*
D03*
D28*
X58840Y272320D02*
D03*
X45340D02*
D03*
Y212820D02*
D03*
X58840D02*
D03*
Y263820D02*
D03*
Y255320D02*
D03*
Y246820D02*
D03*
Y238320D02*
D03*
Y229820D02*
D03*
Y221320D02*
D03*
X45340D02*
D03*
Y229820D02*
D03*
Y238320D02*
D03*
Y246820D02*
D03*
Y255320D02*
D03*
Y263820D02*
D03*
D29*
X1234110Y590220D02*
D03*
D30*
X25070D02*
D03*
D31*
X1248080Y340830D02*
D03*
D32*
X1280000Y35000D02*
D03*
Y680000D02*
D03*
X35000Y35000D02*
D03*
Y680000D02*
D03*
M02*
