G04*
G04 #@! TF.GenerationSoftware,Altium Limited,Altium Designer,26.7.1 (11)*
G04*
G04 Layer_Color=65535*
G04 Board_Origin=18000000|21950000*
%FSLAX44Y44*%
%MOMM*%
G71*
G04*
G04 #@! TF.SameCoordinates,D071BD7E-3876-4D20-9434-7D3039072E30*
G04*
G04*
G04 #@! TF.FilePolarity,Positive*
G04*
G01*
G75*
%ADD10C,0.2000*%
%ADD11C,0.1000*%
%ADD12C,0.3000*%
%ADD13C,0.2540*%
G36*
X818050Y238592D02*
X819375D01*
Y237493D01*
X818050D01*
Y235152D01*
X816852D01*
Y237493D01*
X812608D01*
Y238592D01*
X817077Y244908D01*
X818050D01*
Y238592D01*
D02*
G37*
G36*
X808323Y244893D02*
X808450D01*
X808746Y244879D01*
X809056Y244837D01*
X809394Y244795D01*
X809705Y244724D01*
X809859Y244682D01*
X809986Y244640D01*
X810001D01*
X810015Y244626D01*
X810099Y244583D01*
X810226Y244527D01*
X810381Y244428D01*
X810550Y244301D01*
X810733Y244132D01*
X810903Y243935D01*
X811072Y243709D01*
Y243695D01*
X811086Y243681D01*
X811142Y243596D01*
X811199Y243456D01*
X811283Y243272D01*
X811354Y243061D01*
X811424Y242807D01*
X811467Y242539D01*
X811481Y242243D01*
Y242229D01*
Y242201D01*
Y242145D01*
X811467Y242074D01*
Y241975D01*
X811452Y241877D01*
X811396Y241637D01*
X811311Y241355D01*
X811199Y241059D01*
X811030Y240763D01*
X810917Y240622D01*
X810804Y240481D01*
X810790Y240467D01*
X810776Y240453D01*
X810733Y240411D01*
X810677Y240368D01*
X810607Y240312D01*
X810522Y240256D01*
X810409Y240185D01*
X810296Y240100D01*
X810156Y240030D01*
X810001Y239960D01*
X809831Y239875D01*
X809648Y239804D01*
X809437Y239748D01*
X809225Y239678D01*
X808986Y239635D01*
X808732Y239593D01*
X808760Y239579D01*
X808816Y239551D01*
X808901Y239494D01*
X809014Y239438D01*
X809267Y239283D01*
X809394Y239184D01*
X809507Y239100D01*
X809535Y239071D01*
X809606Y239001D01*
X809718Y238888D01*
X809859Y238747D01*
X810015Y238550D01*
X810198Y238338D01*
X810381Y238085D01*
X810579Y237803D01*
X812256Y235152D01*
X810649D01*
X809366Y237182D01*
Y237197D01*
X809338Y237225D01*
X809310Y237267D01*
X809267Y237323D01*
X809169Y237478D01*
X809042Y237676D01*
X808887Y237887D01*
X808732Y238113D01*
X808577Y238324D01*
X808436Y238522D01*
X808422Y238536D01*
X808379Y238592D01*
X808309Y238677D01*
X808210Y238775D01*
X807999Y238987D01*
X807886Y239086D01*
X807773Y239170D01*
X807759Y239184D01*
X807731Y239198D01*
X807674Y239226D01*
X807590Y239269D01*
X807505Y239311D01*
X807407Y239353D01*
X807181Y239424D01*
X807167D01*
X807139Y239438D01*
X807082D01*
X807012Y239452D01*
X806913Y239466D01*
X806801D01*
X806645Y239480D01*
X804982D01*
Y235152D01*
X803685D01*
Y244908D01*
X808210D01*
X808323Y244893D01*
D02*
G37*
G36*
X639544Y528143D02*
X638350D01*
Y529506D01*
X639544D01*
Y528143D01*
D02*
G37*
G36*
X687822Y527900D02*
X687494Y526051D01*
X686776D01*
X686459Y527900D01*
Y529506D01*
X687822D01*
Y527900D01*
D02*
G37*
G36*
X685613D02*
X685307Y526051D01*
X684578D01*
X684250Y527900D01*
Y529506D01*
X685613D01*
Y527900D01*
D02*
G37*
G36*
X651452Y526970D02*
X651537D01*
X651632Y526960D01*
X651727Y526939D01*
X651843Y526917D01*
X652097Y526865D01*
X652361Y526780D01*
X652636Y526664D01*
X652773Y526590D01*
X652900Y526505D01*
X652911D01*
X652932Y526484D01*
X652963Y526453D01*
X653016Y526421D01*
X653143Y526315D01*
X653291Y526167D01*
X653460Y525977D01*
X653640Y525755D01*
X653798Y525491D01*
X653946Y525195D01*
Y525185D01*
X653957Y525153D01*
X653978Y525111D01*
X653999Y525047D01*
X654031Y524973D01*
X654062Y524878D01*
X654094Y524762D01*
X654126Y524646D01*
X654157Y524508D01*
X654189Y524371D01*
X654252Y524054D01*
X654295Y523705D01*
X654305Y523335D01*
Y523325D01*
Y523283D01*
Y523230D01*
X654295Y523156D01*
Y523061D01*
X654284Y522944D01*
X654274Y522818D01*
X654252Y522680D01*
X654210Y522384D01*
X654136Y522057D01*
X654041Y521719D01*
X653914Y521381D01*
Y521370D01*
X653893Y521339D01*
X653872Y521296D01*
X653840Y521243D01*
X653798Y521169D01*
X653756Y521085D01*
X653629Y520895D01*
X653471Y520673D01*
X653270Y520451D01*
X653048Y520239D01*
X652784Y520049D01*
X652773D01*
X652752Y520028D01*
X652710Y520007D01*
X652657Y519975D01*
X652583Y519944D01*
X652509Y519901D01*
X652414Y519870D01*
X652308Y519827D01*
X652076Y519743D01*
X651812Y519669D01*
X651526Y519616D01*
X651378Y519606D01*
X651220Y519595D01*
X651114D01*
X651009Y519606D01*
X650861Y519627D01*
X650692Y519658D01*
X650512Y519701D01*
X650322Y519753D01*
X650142Y519838D01*
X650121Y519849D01*
X650068Y519880D01*
X649973Y519944D01*
X649867Y520018D01*
X649741Y520102D01*
X649614Y520218D01*
X649487Y520345D01*
X649371Y520483D01*
Y517048D01*
X648177D01*
Y526822D01*
X649265D01*
Y525903D01*
X649286Y525914D01*
X649328Y525977D01*
X649413Y526083D01*
X649519Y526199D01*
X649645Y526326D01*
X649793Y526463D01*
X649952Y526590D01*
X650132Y526706D01*
X650142D01*
X650153Y526717D01*
X650216Y526749D01*
X650322Y526791D01*
X650459Y526843D01*
X650628Y526896D01*
X650829Y526939D01*
X651061Y526970D01*
X651304Y526981D01*
X651389D01*
X651452Y526970D01*
D02*
G37*
G36*
X692291Y529527D02*
X692365Y529517D01*
X692566Y529496D01*
X692788Y529453D01*
X693042Y529390D01*
X693295Y529305D01*
X693549Y529189D01*
X693559D01*
X693580Y529179D01*
X693612Y529158D01*
X693665Y529126D01*
X693781Y529052D01*
X693929Y528946D01*
X694098Y528809D01*
X694267Y528650D01*
X694436Y528471D01*
X694584Y528259D01*
Y528249D01*
X694595Y528238D01*
X694616Y528196D01*
X694637Y528154D01*
X694669Y528101D01*
X694701Y528038D01*
X694764Y527879D01*
X694827Y527689D01*
X694891Y527477D01*
X694933Y527245D01*
X694944Y527002D01*
Y526992D01*
Y526970D01*
Y526939D01*
Y526896D01*
X694922Y526770D01*
X694901Y526622D01*
X694859Y526442D01*
X694796Y526252D01*
X694711Y526051D01*
X694595Y525850D01*
Y525840D01*
X694584Y525829D01*
X694531Y525766D01*
X694457Y525671D01*
X694341Y525554D01*
X694204Y525417D01*
X694024Y525280D01*
X693824Y525153D01*
X693591Y525026D01*
X693602D01*
X693633Y525016D01*
X693676Y525005D01*
X693739Y524984D01*
X693802Y524963D01*
X693887Y524931D01*
X694088Y524846D01*
X694299Y524730D01*
X694521Y524593D01*
X694743Y524413D01*
X694933Y524191D01*
X694944Y524181D01*
X694954Y524160D01*
X694975Y524128D01*
X695007Y524075D01*
X695049Y524022D01*
X695091Y523948D01*
X695134Y523864D01*
X695176Y523758D01*
X695218Y523652D01*
X695261Y523536D01*
X695345Y523272D01*
X695398Y522966D01*
X695419Y522797D01*
Y522628D01*
Y522617D01*
Y522575D01*
X695408Y522501D01*
Y522416D01*
X695387Y522300D01*
X695366Y522173D01*
X695345Y522036D01*
X695303Y521877D01*
X695250Y521708D01*
X695187Y521539D01*
X695113Y521360D01*
X695018Y521180D01*
X694912Y520990D01*
X694785Y520810D01*
X694648Y520630D01*
X694479Y520461D01*
X694468Y520451D01*
X694436Y520419D01*
X694384Y520377D01*
X694310Y520324D01*
X694225Y520261D01*
X694109Y520187D01*
X693982Y520102D01*
X693834Y520028D01*
X693676Y519944D01*
X693496Y519859D01*
X693306Y519785D01*
X693094Y519722D01*
X692873Y519669D01*
X692640Y519627D01*
X692397Y519595D01*
X692133Y519584D01*
X692080D01*
X692006Y519595D01*
X691922D01*
X691805Y519606D01*
X691679Y519627D01*
X691541Y519648D01*
X691383Y519679D01*
X691214Y519722D01*
X691045Y519775D01*
X690865Y519827D01*
X690685Y519901D01*
X690506Y519996D01*
X690337Y520092D01*
X690157Y520208D01*
X689998Y520345D01*
X689988Y520356D01*
X689967Y520377D01*
X689925Y520419D01*
X689861Y520483D01*
X689798Y520556D01*
X689724Y520652D01*
X689650Y520757D01*
X689565Y520884D01*
X689481Y521011D01*
X689396Y521169D01*
X689312Y521328D01*
X689238Y521507D01*
X689174Y521698D01*
X689111Y521898D01*
X689069Y522110D01*
X689037Y522332D01*
X690231Y522490D01*
Y522480D01*
X690241Y522448D01*
X690252Y522395D01*
X690273Y522321D01*
X690294Y522237D01*
X690315Y522141D01*
X690389Y521920D01*
X690485Y521677D01*
X690601Y521434D01*
X690749Y521212D01*
X690833Y521117D01*
X690918Y521021D01*
X690928D01*
X690939Y521000D01*
X690971Y520979D01*
X691002Y520947D01*
X691108Y520884D01*
X691256Y520800D01*
X691435Y520715D01*
X691636Y520652D01*
X691879Y520599D01*
X692133Y520578D01*
X692217D01*
X692281Y520588D01*
X692344Y520599D01*
X692439Y520609D01*
X692630Y520652D01*
X692862Y520715D01*
X693105Y520821D01*
X693221Y520895D01*
X693337Y520969D01*
X693454Y521053D01*
X693570Y521159D01*
X693580Y521169D01*
X693591Y521190D01*
X693623Y521222D01*
X693665Y521264D01*
X693707Y521317D01*
X693750Y521391D01*
X693802Y521465D01*
X693866Y521560D01*
X693971Y521772D01*
X694056Y522015D01*
X694130Y522300D01*
X694140Y522448D01*
X694151Y522606D01*
Y522617D01*
Y522638D01*
Y522691D01*
X694140Y522744D01*
X694130Y522818D01*
X694119Y522892D01*
X694088Y523082D01*
X694014Y523304D01*
X693919Y523526D01*
X693855Y523642D01*
X693781Y523748D01*
X693697Y523853D01*
X693602Y523959D01*
X693591Y523969D01*
X693580Y523980D01*
X693549Y524012D01*
X693507Y524044D01*
X693454Y524086D01*
X693390Y524128D01*
X693232Y524234D01*
X693031Y524329D01*
X692799Y524413D01*
X692534Y524477D01*
X692386Y524487D01*
X692239Y524498D01*
X692175D01*
X692101Y524487D01*
X692006D01*
X691879Y524466D01*
X691742Y524445D01*
X691573Y524413D01*
X691393Y524371D01*
X691520Y525417D01*
X691541D01*
X691594Y525406D01*
X691657Y525396D01*
X691795D01*
X691848Y525406D01*
X691922D01*
X691996Y525417D01*
X692175Y525449D01*
X692386Y525491D01*
X692619Y525565D01*
X692862Y525660D01*
X693094Y525798D01*
X693105D01*
X693126Y525819D01*
X693147Y525840D01*
X693190Y525871D01*
X693295Y525966D01*
X693411Y526104D01*
X693517Y526273D01*
X693623Y526484D01*
X693665Y526600D01*
X693686Y526738D01*
X693707Y526875D01*
X693718Y527023D01*
Y527034D01*
Y527055D01*
Y527087D01*
X693707Y527139D01*
X693697Y527256D01*
X693665Y527414D01*
X693612Y527583D01*
X693528Y527763D01*
X693411Y527953D01*
X693348Y528038D01*
X693263Y528122D01*
X693242Y528143D01*
X693179Y528186D01*
X693084Y528259D01*
X692957Y528344D01*
X692788Y528418D01*
X692587Y528492D01*
X692365Y528534D01*
X692112Y528555D01*
X692048D01*
X691996Y528545D01*
X691932D01*
X691869Y528534D01*
X691700Y528503D01*
X691520Y528450D01*
X691319Y528365D01*
X691129Y528259D01*
X690939Y528111D01*
X690918Y528090D01*
X690865Y528027D01*
X690780Y527932D01*
X690696Y527784D01*
X690590Y527604D01*
X690495Y527372D01*
X690411Y527108D01*
X690347Y526801D01*
X689153Y527013D01*
Y527023D01*
X689164Y527065D01*
X689174Y527129D01*
X689195Y527213D01*
X689227Y527309D01*
X689259Y527425D01*
X689301Y527551D01*
X689354Y527689D01*
X689491Y527995D01*
X689565Y528143D01*
X689660Y528302D01*
X689766Y528450D01*
X689882Y528598D01*
X690009Y528745D01*
X690146Y528872D01*
X690157Y528883D01*
X690178Y528904D01*
X690231Y528936D01*
X690284Y528978D01*
X690368Y529031D01*
X690453Y529084D01*
X690558Y529147D01*
X690685Y529210D01*
X690812Y529263D01*
X690960Y529327D01*
X691119Y529380D01*
X691288Y529432D01*
X691478Y529475D01*
X691668Y529506D01*
X691869Y529527D01*
X692080Y529538D01*
X692217D01*
X692291Y529527D01*
D02*
G37*
G36*
X643897Y526970D02*
X643982D01*
X644183Y526949D01*
X644405Y526917D01*
X644658Y526875D01*
X644901Y526822D01*
X645144Y526738D01*
X645155D01*
X645176Y526727D01*
X645208Y526717D01*
X645250Y526696D01*
X645356Y526643D01*
X645503Y526569D01*
X645651Y526474D01*
X645799Y526357D01*
X645947Y526231D01*
X646074Y526083D01*
X646085Y526062D01*
X646127Y526009D01*
X646180Y525914D01*
X646243Y525798D01*
X646317Y525639D01*
X646380Y525449D01*
X646444Y525238D01*
X646497Y524994D01*
X645324Y524836D01*
Y524846D01*
Y524857D01*
X645303Y524921D01*
X645282Y525026D01*
X645239Y525142D01*
X645176Y525280D01*
X645091Y525417D01*
X644986Y525554D01*
X644859Y525681D01*
X644838Y525692D01*
X644785Y525734D01*
X644700Y525787D01*
X644584Y525840D01*
X644426Y525903D01*
X644235Y525945D01*
X644024Y525988D01*
X643771Y525998D01*
X643633D01*
X643570Y525988D01*
X643496D01*
X643316Y525966D01*
X643126Y525935D01*
X642925Y525882D01*
X642746Y525819D01*
X642672Y525776D01*
X642598Y525723D01*
X642587Y525713D01*
X642545Y525671D01*
X642492Y525618D01*
X642429Y525544D01*
X642355Y525449D01*
X642302Y525333D01*
X642260Y525216D01*
X642249Y525079D01*
Y525068D01*
Y525037D01*
X642260Y524994D01*
X642270Y524942D01*
X642312Y524804D01*
X642344Y524730D01*
X642386Y524656D01*
X642397Y524646D01*
X642418Y524625D01*
X642450Y524593D01*
X642503Y524551D01*
X642566Y524498D01*
X642651Y524445D01*
X642746Y524392D01*
X642851Y524339D01*
X642862D01*
X642894Y524329D01*
X642957Y524308D01*
X643052Y524276D01*
X643115Y524255D01*
X643189Y524234D01*
X643274Y524212D01*
X643369Y524181D01*
X643485Y524149D01*
X643612Y524117D01*
X643749Y524075D01*
X643908Y524033D01*
X643918D01*
X643961Y524022D01*
X644024Y524001D01*
X644119Y523980D01*
X644214Y523948D01*
X644331Y523917D01*
X644468Y523874D01*
X644605Y523832D01*
X644901Y523748D01*
X645186Y523652D01*
X645324Y523610D01*
X645451Y523557D01*
X645567Y523515D01*
X645673Y523473D01*
X645683D01*
X645694Y523462D01*
X645757Y523431D01*
X645852Y523388D01*
X645958Y523314D01*
X646085Y523230D01*
X646222Y523124D01*
X646349Y522997D01*
X646465Y522849D01*
X646476Y522828D01*
X646507Y522775D01*
X646560Y522691D01*
X646613Y522564D01*
X646666Y522416D01*
X646719Y522247D01*
X646750Y522046D01*
X646761Y521824D01*
Y521814D01*
Y521793D01*
Y521761D01*
Y521719D01*
X646740Y521603D01*
X646719Y521455D01*
X646676Y521286D01*
X646613Y521095D01*
X646518Y520895D01*
X646402Y520694D01*
Y520683D01*
X646380Y520673D01*
X646338Y520609D01*
X646254Y520514D01*
X646148Y520398D01*
X646000Y520261D01*
X645831Y520123D01*
X645630Y519996D01*
X645398Y519880D01*
X645387D01*
X645366Y519870D01*
X645334Y519859D01*
X645282Y519838D01*
X645218Y519817D01*
X645144Y519785D01*
X645060Y519764D01*
X644965Y519743D01*
X644743Y519690D01*
X644489Y519637D01*
X644214Y519606D01*
X643908Y519595D01*
X643771D01*
X643675Y519606D01*
X643570Y519616D01*
X643432Y519627D01*
X643285Y519637D01*
X643126Y519669D01*
X642788Y519732D01*
X642429Y519827D01*
X642260Y519891D01*
X642091Y519975D01*
X641943Y520060D01*
X641795Y520155D01*
X641784Y520166D01*
X641763Y520187D01*
X641731Y520218D01*
X641678Y520261D01*
X641626Y520324D01*
X641562Y520398D01*
X641488Y520483D01*
X641414Y520578D01*
X641330Y520694D01*
X641256Y520821D01*
X641182Y520958D01*
X641108Y521117D01*
X641044Y521275D01*
X640981Y521455D01*
X640928Y521655D01*
X640886Y521856D01*
X642069Y522046D01*
Y522036D01*
X642080Y522015D01*
Y521983D01*
X642091Y521930D01*
X642101Y521867D01*
X642122Y521803D01*
X642175Y521645D01*
X642249Y521465D01*
X642344Y521275D01*
X642460Y521106D01*
X642619Y520947D01*
X642629D01*
X642640Y520937D01*
X642703Y520895D01*
X642809Y520831D01*
X642957Y520768D01*
X643137Y520694D01*
X643358Y520641D01*
X643612Y520599D01*
X643897Y520578D01*
X643982D01*
X644035Y520588D01*
X644109D01*
X644183Y520599D01*
X644362Y520620D01*
X644563Y520662D01*
X644774Y520715D01*
X644965Y520800D01*
X645134Y520905D01*
X645155Y520916D01*
X645197Y520969D01*
X645260Y521032D01*
X645334Y521127D01*
X645408Y521243D01*
X645472Y521381D01*
X645514Y521529D01*
X645535Y521698D01*
Y521719D01*
Y521761D01*
X645514Y521846D01*
X645493Y521930D01*
X645451Y522036D01*
X645387Y522141D01*
X645292Y522247D01*
X645176Y522342D01*
X645165Y522353D01*
X645123Y522374D01*
X645049Y522406D01*
X644996Y522427D01*
X644933Y522448D01*
X644848Y522480D01*
X644764Y522511D01*
X644669Y522543D01*
X644552Y522575D01*
X644426Y522617D01*
X644278Y522659D01*
X644119Y522701D01*
X643950Y522744D01*
X643940D01*
X643897Y522754D01*
X643823Y522775D01*
X643739Y522797D01*
X643633Y522828D01*
X643506Y522860D01*
X643369Y522902D01*
X643221Y522944D01*
X642925Y523040D01*
X642619Y523135D01*
X642471Y523177D01*
X642344Y523230D01*
X642217Y523283D01*
X642112Y523325D01*
X642101D01*
X642091Y523335D01*
X642027Y523367D01*
X641943Y523420D01*
X641826Y523505D01*
X641700Y523600D01*
X641573Y523705D01*
X641446Y523843D01*
X641340Y523991D01*
X641330Y524012D01*
X641298Y524065D01*
X641256Y524160D01*
X641213Y524276D01*
X641171Y524413D01*
X641129Y524572D01*
X641097Y524751D01*
X641087Y524942D01*
Y524952D01*
Y524963D01*
Y525026D01*
X641097Y525111D01*
X641118Y525227D01*
X641140Y525364D01*
X641171Y525512D01*
X641224Y525671D01*
X641298Y525819D01*
X641309Y525840D01*
X641340Y525882D01*
X641383Y525956D01*
X641457Y526051D01*
X641530Y526157D01*
X641636Y526273D01*
X641752Y526379D01*
X641890Y526484D01*
X641900Y526495D01*
X641943Y526516D01*
X642006Y526558D01*
X642091Y526600D01*
X642196Y526653D01*
X642323Y526717D01*
X642481Y526780D01*
X642651Y526833D01*
X642661D01*
X642672Y526843D01*
X642735Y526854D01*
X642830Y526875D01*
X642968Y526907D01*
X643115Y526939D01*
X643295Y526960D01*
X643485Y526970D01*
X643686Y526981D01*
X643823D01*
X643897Y526970D01*
D02*
G37*
G36*
X669457Y519637D02*
Y519627D01*
X669436Y519584D01*
X669415Y519532D01*
X669383Y519447D01*
X669352Y519352D01*
X669309Y519246D01*
X669257Y519130D01*
X669214Y519003D01*
X669098Y518739D01*
X668992Y518475D01*
X668929Y518348D01*
X668876Y518232D01*
X668834Y518126D01*
X668781Y518042D01*
Y518031D01*
X668771Y518021D01*
X668749Y517989D01*
X668728Y517947D01*
X668654Y517841D01*
X668570Y517714D01*
X668464Y517566D01*
X668337Y517429D01*
X668200Y517291D01*
X668052Y517175D01*
X668031Y517165D01*
X667978Y517133D01*
X667894Y517080D01*
X667777Y517038D01*
X667629Y516985D01*
X667460Y516932D01*
X667281Y516901D01*
X667069Y516890D01*
X667006D01*
X666932Y516901D01*
X666848Y516911D01*
X666731Y516922D01*
X666594Y516953D01*
X666457Y516985D01*
X666298Y517038D01*
X666161Y518158D01*
X666182D01*
X666224Y518137D01*
X666298Y518126D01*
X666393Y518105D01*
X666499Y518084D01*
X666615Y518063D01*
X666731Y518052D01*
X666837Y518042D01*
X666900D01*
X666974Y518052D01*
X667069Y518063D01*
X667165Y518073D01*
X667270Y518105D01*
X667376Y518137D01*
X667471Y518179D01*
X667482Y518190D01*
X667513Y518200D01*
X667555Y518232D01*
X667608Y518274D01*
X667672Y518327D01*
X667746Y518390D01*
X667872Y518549D01*
X667883Y518559D01*
X667894Y518591D01*
X667925Y518644D01*
X667957Y518729D01*
X668010Y518845D01*
X668073Y519003D01*
X668105Y519098D01*
X668147Y519204D01*
X668189Y519320D01*
X668232Y519447D01*
X668242Y519468D01*
X668263Y519521D01*
X668295Y519616D01*
X668348Y519743D01*
X665675Y526822D01*
X666943D01*
X668411Y522723D01*
Y522712D01*
X668422Y522691D01*
X668443Y522649D01*
X668464Y522585D01*
X668485Y522511D01*
X668517Y522427D01*
X668549Y522332D01*
X668591Y522226D01*
X668665Y521983D01*
X668760Y521698D01*
X668845Y521402D01*
X668929Y521085D01*
Y521095D01*
X668940Y521127D01*
X668950Y521169D01*
X668971Y521222D01*
X668982Y521296D01*
X669014Y521391D01*
X669035Y521486D01*
X669066Y521592D01*
X669140Y521835D01*
X669225Y522110D01*
X669320Y522395D01*
X669426Y522691D01*
X670947Y526822D01*
X672141D01*
X669457Y519637D01*
D02*
G37*
G36*
X681651Y523188D02*
X682972D01*
Y522089D01*
X681651D01*
Y519753D01*
X680457D01*
Y522089D01*
X676209D01*
Y523188D01*
X680668Y529506D01*
X681651D01*
Y523188D01*
D02*
G37*
G36*
X661987Y526970D02*
X662082D01*
X662283Y526949D01*
X662515Y526928D01*
X662758Y526886D01*
X663001Y526833D01*
X663223Y526759D01*
X663234D01*
X663244Y526749D01*
X663276Y526738D01*
X663318Y526717D01*
X663413Y526674D01*
X663540Y526611D01*
X663678Y526537D01*
X663815Y526442D01*
X663942Y526336D01*
X664058Y526220D01*
X664069Y526210D01*
X664100Y526167D01*
X664153Y526093D01*
X664206Y525998D01*
X664269Y525882D01*
X664333Y525745D01*
X664396Y525586D01*
X664438Y525406D01*
Y525396D01*
X664449Y525343D01*
X664460Y525269D01*
X664470Y525153D01*
X664481Y525005D01*
X664491Y524815D01*
Y524699D01*
X664502Y524582D01*
Y524455D01*
Y524308D01*
Y522712D01*
Y522691D01*
Y522638D01*
Y522554D01*
Y522448D01*
Y522311D01*
Y522163D01*
X664512Y521994D01*
Y521824D01*
X664523Y521465D01*
Y521286D01*
X664533Y521117D01*
X664544Y520958D01*
X664555Y520821D01*
X664565Y520694D01*
X664576Y520599D01*
Y520578D01*
X664586Y520525D01*
X664607Y520440D01*
X664639Y520324D01*
X664681Y520197D01*
X664734Y520060D01*
X664798Y519901D01*
X664872Y519753D01*
X663625D01*
X663614Y519775D01*
X663593Y519817D01*
X663561Y519901D01*
X663530Y520007D01*
X663487Y520134D01*
X663445Y520282D01*
X663413Y520451D01*
X663392Y520641D01*
X663382Y520630D01*
X663361Y520620D01*
X663329Y520588D01*
X663276Y520546D01*
X663213Y520504D01*
X663149Y520440D01*
X662980Y520324D01*
X662779Y520187D01*
X662568Y520049D01*
X662336Y519933D01*
X662103Y519827D01*
X662093D01*
X662072Y519817D01*
X662040Y519806D01*
X661998Y519796D01*
X661945Y519775D01*
X661871Y519753D01*
X661712Y519711D01*
X661512Y519669D01*
X661290Y519627D01*
X661047Y519606D01*
X660782Y519595D01*
X660666D01*
X660592Y519606D01*
X660497Y519616D01*
X660381Y519627D01*
X660254Y519637D01*
X660127Y519669D01*
X659831Y519732D01*
X659536Y519827D01*
X659398Y519891D01*
X659250Y519975D01*
X659124Y520060D01*
X658997Y520155D01*
X658986Y520166D01*
X658965Y520187D01*
X658944Y520218D01*
X658902Y520261D01*
X658849Y520313D01*
X658796Y520387D01*
X658743Y520461D01*
X658690Y520556D01*
X658574Y520757D01*
X658468Y521011D01*
X658426Y521148D01*
X658405Y521296D01*
X658384Y521455D01*
X658373Y521613D01*
Y521624D01*
Y521634D01*
Y521698D01*
X658384Y521803D01*
X658405Y521930D01*
X658426Y522078D01*
X658468Y522237D01*
X658532Y522395D01*
X658606Y522564D01*
X658616Y522585D01*
X658648Y522638D01*
X658701Y522712D01*
X658775Y522818D01*
X658859Y522923D01*
X658965Y523040D01*
X659081Y523145D01*
X659219Y523251D01*
X659240Y523261D01*
X659293Y523293D01*
X659367Y523346D01*
X659472Y523399D01*
X659599Y523462D01*
X659747Y523526D01*
X659916Y523589D01*
X660085Y523642D01*
X660106D01*
X660148Y523663D01*
X660233Y523674D01*
X660349Y523705D01*
X660497Y523727D01*
X660687Y523758D01*
X660899Y523790D01*
X661152Y523822D01*
X661173D01*
X661216Y523832D01*
X661290Y523843D01*
X661385Y523853D01*
X661512Y523874D01*
X661649Y523895D01*
X661797Y523917D01*
X661966Y523938D01*
X662315Y524001D01*
X662663Y524075D01*
X662832Y524117D01*
X663001Y524160D01*
X663149Y524202D01*
X663287Y524244D01*
Y524255D01*
Y524286D01*
Y524329D01*
X663297Y524371D01*
Y524477D01*
Y524519D01*
Y524551D01*
Y524561D01*
Y524582D01*
Y524625D01*
Y524667D01*
X663276Y524794D01*
X663255Y524952D01*
X663213Y525121D01*
X663149Y525290D01*
X663065Y525449D01*
X662949Y525576D01*
X662927Y525597D01*
X662906Y525618D01*
X662864Y525639D01*
X662811Y525671D01*
X662758Y525702D01*
X662610Y525787D01*
X662420Y525861D01*
X662188Y525924D01*
X661913Y525966D01*
X661596Y525988D01*
X661459D01*
X661385Y525977D01*
X661311D01*
X661121Y525956D01*
X660920Y525914D01*
X660719Y525861D01*
X660518Y525787D01*
X660349Y525692D01*
X660328Y525681D01*
X660286Y525639D01*
X660212Y525554D01*
X660127Y525449D01*
X660032Y525311D01*
X659927Y525121D01*
X659842Y524910D01*
X659800Y524783D01*
X659758Y524646D01*
X658585Y524804D01*
Y524815D01*
X658595Y524836D01*
X658606Y524878D01*
X658616Y524931D01*
X658637Y524994D01*
X658659Y525068D01*
X658711Y525238D01*
X658785Y525428D01*
X658870Y525628D01*
X658976Y525829D01*
X659102Y526009D01*
Y526019D01*
X659124Y526030D01*
X659176Y526083D01*
X659261Y526167D01*
X659377Y526273D01*
X659525Y526389D01*
X659705Y526505D01*
X659916Y526622D01*
X660159Y526727D01*
X660170D01*
X660191Y526738D01*
X660233Y526749D01*
X660286Y526770D01*
X660349Y526791D01*
X660423Y526812D01*
X660518Y526833D01*
X660624Y526854D01*
X660730Y526875D01*
X660856Y526896D01*
X661131Y526939D01*
X661438Y526970D01*
X661765Y526981D01*
X661913D01*
X661987Y526970D01*
D02*
G37*
G36*
X656915Y519753D02*
X655721D01*
Y529506D01*
X656915D01*
Y519753D01*
D02*
G37*
G36*
X639544D02*
X638350D01*
Y526822D01*
X639544D01*
Y519753D01*
D02*
G37*
G36*
X632391Y529496D02*
X632517D01*
X632644Y529485D01*
X632929Y529475D01*
X633215Y529443D01*
X633500Y529411D01*
X633627Y529380D01*
X633743Y529358D01*
X633754D01*
X633785Y529348D01*
X633828Y529337D01*
X633880Y529316D01*
X633954Y529295D01*
X634039Y529274D01*
X634240Y529200D01*
X634462Y529105D01*
X634694Y528988D01*
X634937Y528841D01*
X635169Y528661D01*
X635180Y528650D01*
X635201Y528629D01*
X635243Y528598D01*
X635296Y528545D01*
X635360Y528481D01*
X635434Y528397D01*
X635518Y528312D01*
X635603Y528207D01*
X635698Y528090D01*
X635793Y527964D01*
X635888Y527826D01*
X635983Y527678D01*
X636163Y527351D01*
X636321Y526992D01*
Y526981D01*
X636342Y526949D01*
X636353Y526886D01*
X636385Y526812D01*
X636416Y526717D01*
X636448Y526600D01*
X636480Y526474D01*
X636522Y526326D01*
X636554Y526157D01*
X636585Y525977D01*
X636617Y525787D01*
X636649Y525586D01*
X636680Y525375D01*
X636691Y525153D01*
X636712Y524677D01*
Y524667D01*
Y524625D01*
Y524572D01*
Y524487D01*
X636702Y524392D01*
Y524276D01*
X636691Y524149D01*
X636680Y524012D01*
X636649Y523705D01*
X636596Y523378D01*
X636533Y523040D01*
X636448Y522701D01*
Y522691D01*
X636437Y522659D01*
X636416Y522617D01*
X636406Y522564D01*
X636374Y522490D01*
X636342Y522406D01*
X636268Y522205D01*
X636173Y521983D01*
X636057Y521740D01*
X635930Y521507D01*
X635782Y521286D01*
Y521275D01*
X635761Y521264D01*
X635740Y521233D01*
X635708Y521190D01*
X635634Y521095D01*
X635518Y520969D01*
X635391Y520821D01*
X635243Y520673D01*
X635074Y520535D01*
X634895Y520398D01*
X634884D01*
X634874Y520387D01*
X634810Y520345D01*
X634705Y520292D01*
X634567Y520218D01*
X634398Y520145D01*
X634197Y520060D01*
X633965Y519986D01*
X633722Y519912D01*
X633711D01*
X633690Y519901D01*
X633658D01*
X633606Y519891D01*
X633542Y519880D01*
X633458Y519859D01*
X633373Y519849D01*
X633278Y519838D01*
X633046Y519806D01*
X632781Y519775D01*
X632486Y519764D01*
X632169Y519753D01*
X628650D01*
Y529506D01*
X632285D01*
X632391Y529496D01*
D02*
G37*
G36*
X580594Y147355D02*
X580778D01*
X580989Y147341D01*
X581201Y147313D01*
X581680Y147270D01*
X582187Y147200D01*
X582667Y147101D01*
X582906Y147031D01*
X583118Y146960D01*
X583132D01*
X583160Y146946D01*
X583216Y146918D01*
X583301Y146890D01*
X583386Y146847D01*
X583498Y146791D01*
X583738Y146650D01*
X584006Y146481D01*
X584288Y146284D01*
X584556Y146030D01*
X584795Y145748D01*
Y145734D01*
X584823Y145705D01*
X584852Y145663D01*
X584880Y145607D01*
X584922Y145522D01*
X584979Y145438D01*
X585035Y145325D01*
X585077Y145212D01*
X585190Y144944D01*
X585289Y144620D01*
X585345Y144268D01*
X585373Y143873D01*
Y143760D01*
X585359Y143690D01*
Y143591D01*
X585345Y143478D01*
X585289Y143210D01*
X585218Y142914D01*
X585105Y142604D01*
X584950Y142294D01*
X584852Y142139D01*
X584739Y141998D01*
X584725Y141984D01*
X584711Y141970D01*
X584668Y141927D01*
X584626Y141885D01*
X584556Y141829D01*
X584471Y141758D01*
X584274Y141617D01*
X584020Y141476D01*
X583710Y141335D01*
X583357Y141223D01*
X582949Y141138D01*
X582850Y142294D01*
X582864D01*
X582892Y142308D01*
X582920D01*
X582977Y142322D01*
X583132Y142365D01*
X583301Y142421D01*
X583498Y142491D01*
X583696Y142590D01*
X583879Y142703D01*
X584034Y142844D01*
X584048Y142858D01*
X584090Y142914D01*
X584147Y143013D01*
X584203Y143126D01*
X584274Y143281D01*
X584330Y143464D01*
X584372Y143676D01*
X584386Y143901D01*
Y144000D01*
X584372Y144099D01*
X584358Y144225D01*
X584330Y144380D01*
X584288Y144536D01*
X584231Y144705D01*
X584147Y144860D01*
X584133Y144874D01*
X584104Y144930D01*
X584048Y145015D01*
X583964Y145099D01*
X583865Y145212D01*
X583752Y145325D01*
X583625Y145438D01*
X583470Y145550D01*
X583456Y145565D01*
X583386Y145593D01*
X583287Y145649D01*
X583160Y145705D01*
X582991Y145776D01*
X582794Y145847D01*
X582568Y145917D01*
X582314Y145988D01*
X582300D01*
X582286Y146002D01*
X582244D01*
X582187Y146016D01*
X582046Y146044D01*
X581863Y146086D01*
X581638Y146114D01*
X581398Y146143D01*
X581130Y146157D01*
X580848Y146171D01*
X580834D01*
X580792D01*
X580721D01*
X580608D01*
X580637Y146157D01*
X580707Y146100D01*
X580806Y146016D01*
X580947Y145917D01*
X581088Y145776D01*
X581243Y145607D01*
X581398Y145409D01*
X581539Y145184D01*
X581553Y145156D01*
X581595Y145071D01*
X581652Y144944D01*
X581708Y144789D01*
X581778Y144578D01*
X581835Y144352D01*
X581877Y144099D01*
X581891Y143831D01*
Y143718D01*
X581877Y143633D01*
X581863Y143520D01*
X581849Y143408D01*
X581821Y143267D01*
X581778Y143126D01*
X581680Y142802D01*
X581609Y142632D01*
X581525Y142463D01*
X581426Y142280D01*
X581299Y142111D01*
X581172Y141942D01*
X581017Y141787D01*
X581003Y141772D01*
X580975Y141744D01*
X580933Y141716D01*
X580862Y141660D01*
X580764Y141589D01*
X580665Y141519D01*
X580538Y141448D01*
X580397Y141378D01*
X580242Y141293D01*
X580073Y141223D01*
X579875Y141152D01*
X579678Y141082D01*
X579453Y141025D01*
X579213Y140997D01*
X578973Y140969D01*
X578705Y140955D01*
X578691D01*
X578635D01*
X578564D01*
X578466Y140969D01*
X578339Y140983D01*
X578184Y140997D01*
X578029Y141025D01*
X577845Y141068D01*
X577479Y141166D01*
X577282Y141237D01*
X577070Y141321D01*
X576873Y141420D01*
X576689Y141547D01*
X576492Y141674D01*
X576323Y141829D01*
X576309Y141843D01*
X576281Y141871D01*
X576238Y141913D01*
X576182Y141984D01*
X576111Y142069D01*
X576027Y142181D01*
X575956Y142294D01*
X575858Y142435D01*
X575773Y142576D01*
X575703Y142745D01*
X575548Y143126D01*
X575491Y143323D01*
X575449Y143549D01*
X575421Y143774D01*
X575407Y144014D01*
Y144113D01*
X575421Y144183D01*
Y144254D01*
X575435Y144352D01*
X575477Y144592D01*
X575534Y144860D01*
X575632Y145156D01*
X575759Y145452D01*
X575928Y145748D01*
Y145762D01*
X575956Y145776D01*
X575985Y145818D01*
X576027Y145875D01*
X576140Y146016D01*
X576295Y146199D01*
X576506Y146382D01*
X576760Y146594D01*
X577056Y146777D01*
X577394Y146946D01*
X577408D01*
X577437Y146960D01*
X577493Y146988D01*
X577564Y147016D01*
X577662Y147045D01*
X577789Y147087D01*
X577930Y147115D01*
X578085Y147157D01*
X578268Y147200D01*
X578480Y147242D01*
X578705Y147270D01*
X578945Y147298D01*
X579213Y147327D01*
X579495Y147355D01*
X579805Y147369D01*
X580129D01*
X580143D01*
X580214D01*
X580312D01*
X580439D01*
X580594Y147355D01*
D02*
G37*
G36*
X585204Y138587D02*
X583174Y137304D01*
X583160D01*
X583132Y137275D01*
X583090Y137247D01*
X583033Y137205D01*
X582878Y137106D01*
X582681Y136980D01*
X582469Y136824D01*
X582244Y136669D01*
X582032Y136514D01*
X581835Y136373D01*
X581821Y136359D01*
X581764Y136317D01*
X581680Y136246D01*
X581581Y136148D01*
X581370Y135936D01*
X581271Y135823D01*
X581186Y135711D01*
X581172Y135697D01*
X581158Y135668D01*
X581130Y135612D01*
X581088Y135527D01*
X581045Y135443D01*
X581003Y135344D01*
X580933Y135119D01*
Y135105D01*
X580919Y135076D01*
Y135020D01*
X580905Y134950D01*
X580890Y134851D01*
Y134738D01*
X580876Y134583D01*
Y132920D01*
X585204D01*
Y131623D01*
X575449D01*
Y136148D01*
X575463Y136260D01*
Y136387D01*
X575477Y136683D01*
X575519Y136994D01*
X575562Y137332D01*
X575632Y137642D01*
X575675Y137797D01*
X575717Y137924D01*
Y137938D01*
X575731Y137952D01*
X575773Y138037D01*
X575830Y138164D01*
X575928Y138319D01*
X576055Y138488D01*
X576224Y138671D01*
X576422Y138840D01*
X576647Y139010D01*
X576661D01*
X576675Y139024D01*
X576760Y139080D01*
X576901Y139136D01*
X577084Y139221D01*
X577296Y139291D01*
X577549Y139362D01*
X577817Y139404D01*
X578113Y139418D01*
X578127D01*
X578156D01*
X578212D01*
X578283Y139404D01*
X578381D01*
X578480Y139390D01*
X578719Y139334D01*
X579001Y139249D01*
X579297Y139136D01*
X579594Y138967D01*
X579734Y138854D01*
X579875Y138742D01*
X579889Y138728D01*
X579904Y138713D01*
X579946Y138671D01*
X579988Y138615D01*
X580045Y138544D01*
X580101Y138460D01*
X580172Y138347D01*
X580256Y138234D01*
X580327Y138093D01*
X580397Y137938D01*
X580482Y137769D01*
X580552Y137586D01*
X580608Y137374D01*
X580679Y137163D01*
X580721Y136923D01*
X580764Y136669D01*
X580778Y136698D01*
X580806Y136754D01*
X580862Y136839D01*
X580919Y136951D01*
X581074Y137205D01*
X581172Y137332D01*
X581257Y137445D01*
X581285Y137473D01*
X581356Y137543D01*
X581468Y137656D01*
X581609Y137797D01*
X581807Y137952D01*
X582018Y138135D01*
X582272Y138319D01*
X582554Y138516D01*
X585204Y140194D01*
Y138587D01*
D02*
G37*
G36*
X1258321Y465976D02*
X1258395Y465966D01*
X1258596Y465945D01*
X1258818Y465902D01*
X1259071Y465839D01*
X1259325Y465754D01*
X1259578Y465638D01*
X1259589D01*
X1259610Y465628D01*
X1259642Y465606D01*
X1259695Y465575D01*
X1259811Y465501D01*
X1259959Y465395D01*
X1260128Y465258D01*
X1260297Y465099D01*
X1260466Y464920D01*
X1260614Y464708D01*
Y464698D01*
X1260624Y464687D01*
X1260646Y464645D01*
X1260667Y464603D01*
X1260698Y464550D01*
X1260730Y464486D01*
X1260793Y464328D01*
X1260857Y464138D01*
X1260920Y463926D01*
X1260963Y463694D01*
X1260973Y463451D01*
Y463440D01*
Y463419D01*
Y463387D01*
Y463345D01*
X1260952Y463218D01*
X1260931Y463070D01*
X1260889Y462891D01*
X1260825Y462701D01*
X1260741Y462500D01*
X1260624Y462299D01*
Y462289D01*
X1260614Y462278D01*
X1260561Y462215D01*
X1260487Y462119D01*
X1260371Y462003D01*
X1260233Y461866D01*
X1260054Y461729D01*
X1259853Y461602D01*
X1259621Y461475D01*
X1259631D01*
X1259663Y461464D01*
X1259705Y461454D01*
X1259769Y461433D01*
X1259832Y461412D01*
X1259916Y461380D01*
X1260117Y461295D01*
X1260329Y461179D01*
X1260550Y461042D01*
X1260772Y460862D01*
X1260963Y460640D01*
X1260973Y460630D01*
X1260984Y460608D01*
X1261005Y460577D01*
X1261036Y460524D01*
X1261079Y460471D01*
X1261121Y460397D01*
X1261163Y460313D01*
X1261206Y460207D01*
X1261248Y460101D01*
X1261290Y459985D01*
X1261375Y459721D01*
X1261427Y459414D01*
X1261449Y459245D01*
Y459076D01*
Y459066D01*
Y459024D01*
X1261438Y458950D01*
Y458865D01*
X1261417Y458749D01*
X1261396Y458622D01*
X1261375Y458485D01*
X1261332Y458326D01*
X1261280Y458157D01*
X1261216Y457988D01*
X1261142Y457808D01*
X1261047Y457629D01*
X1260941Y457439D01*
X1260815Y457259D01*
X1260677Y457079D01*
X1260508Y456910D01*
X1260498Y456900D01*
X1260466Y456868D01*
X1260413Y456826D01*
X1260339Y456773D01*
X1260255Y456710D01*
X1260138Y456636D01*
X1260012Y456551D01*
X1259864Y456477D01*
X1259705Y456393D01*
X1259525Y456308D01*
X1259335Y456234D01*
X1259124Y456171D01*
X1258902Y456118D01*
X1258670Y456076D01*
X1258427Y456044D01*
X1258162Y456033D01*
X1258110D01*
X1258036Y456044D01*
X1257951D01*
X1257835Y456054D01*
X1257708Y456076D01*
X1257571Y456097D01*
X1257412Y456128D01*
X1257243Y456171D01*
X1257074Y456223D01*
X1256894Y456276D01*
X1256715Y456350D01*
X1256535Y456445D01*
X1256366Y456540D01*
X1256187Y456657D01*
X1256028Y456794D01*
X1256017Y456805D01*
X1255996Y456826D01*
X1255954Y456868D01*
X1255891Y456931D01*
X1255827Y457005D01*
X1255753Y457100D01*
X1255679Y457206D01*
X1255595Y457333D01*
X1255510Y457460D01*
X1255426Y457618D01*
X1255341Y457777D01*
X1255267Y457956D01*
X1255204Y458147D01*
X1255140Y458347D01*
X1255098Y458559D01*
X1255066Y458781D01*
X1256260Y458939D01*
Y458928D01*
X1256271Y458897D01*
X1256282Y458844D01*
X1256303Y458770D01*
X1256324Y458685D01*
X1256345Y458590D01*
X1256419Y458368D01*
X1256514Y458125D01*
X1256630Y457882D01*
X1256778Y457660D01*
X1256863Y457565D01*
X1256947Y457470D01*
X1256958D01*
X1256968Y457449D01*
X1257000Y457428D01*
X1257032Y457396D01*
X1257137Y457333D01*
X1257285Y457248D01*
X1257465Y457164D01*
X1257666Y457100D01*
X1257909Y457048D01*
X1258162Y457026D01*
X1258247D01*
X1258310Y457037D01*
X1258374Y457048D01*
X1258469Y457058D01*
X1258659Y457100D01*
X1258892Y457164D01*
X1259135Y457270D01*
X1259251Y457343D01*
X1259367Y457417D01*
X1259483Y457502D01*
X1259599Y457608D01*
X1259610Y457618D01*
X1259621Y457639D01*
X1259652Y457671D01*
X1259695Y457713D01*
X1259737Y457766D01*
X1259779Y457840D01*
X1259832Y457914D01*
X1259895Y458009D01*
X1260001Y458220D01*
X1260086Y458464D01*
X1260159Y458749D01*
X1260170Y458897D01*
X1260181Y459055D01*
Y459066D01*
Y459087D01*
Y459140D01*
X1260170Y459193D01*
X1260159Y459267D01*
X1260149Y459341D01*
X1260117Y459531D01*
X1260043Y459753D01*
X1259948Y459975D01*
X1259885Y460091D01*
X1259811Y460196D01*
X1259726Y460302D01*
X1259631Y460408D01*
X1259621Y460418D01*
X1259610Y460429D01*
X1259578Y460461D01*
X1259536Y460492D01*
X1259483Y460535D01*
X1259420Y460577D01*
X1259261Y460682D01*
X1259061Y460778D01*
X1258828Y460862D01*
X1258564Y460925D01*
X1258416Y460936D01*
X1258268Y460947D01*
X1258205D01*
X1258131Y460936D01*
X1258036D01*
X1257909Y460915D01*
X1257771Y460894D01*
X1257602Y460862D01*
X1257423Y460820D01*
X1257550Y461866D01*
X1257571D01*
X1257624Y461855D01*
X1257687Y461845D01*
X1257824D01*
X1257877Y461855D01*
X1257951D01*
X1258025Y461866D01*
X1258205Y461898D01*
X1258416Y461940D01*
X1258648Y462014D01*
X1258892Y462109D01*
X1259124Y462246D01*
X1259135D01*
X1259156Y462267D01*
X1259177Y462289D01*
X1259219Y462320D01*
X1259325Y462415D01*
X1259441Y462553D01*
X1259547Y462722D01*
X1259652Y462933D01*
X1259695Y463049D01*
X1259716Y463187D01*
X1259737Y463324D01*
X1259747Y463472D01*
Y463483D01*
Y463504D01*
Y463535D01*
X1259737Y463588D01*
X1259726Y463704D01*
X1259695Y463863D01*
X1259642Y464032D01*
X1259557Y464212D01*
X1259441Y464402D01*
X1259378Y464486D01*
X1259293Y464571D01*
X1259272Y464592D01*
X1259209Y464634D01*
X1259113Y464708D01*
X1258987Y464793D01*
X1258818Y464867D01*
X1258617Y464941D01*
X1258395Y464983D01*
X1258141Y465004D01*
X1258078D01*
X1258025Y464994D01*
X1257962D01*
X1257898Y464983D01*
X1257729Y464951D01*
X1257550Y464898D01*
X1257349Y464814D01*
X1257159Y464708D01*
X1256968Y464560D01*
X1256947Y464539D01*
X1256894Y464476D01*
X1256810Y464381D01*
X1256725Y464233D01*
X1256620Y464053D01*
X1256525Y463821D01*
X1256440Y463557D01*
X1256377Y463250D01*
X1255183Y463461D01*
Y463472D01*
X1255193Y463514D01*
X1255204Y463578D01*
X1255225Y463662D01*
X1255257Y463757D01*
X1255288Y463873D01*
X1255331Y464000D01*
X1255383Y464138D01*
X1255521Y464444D01*
X1255595Y464592D01*
X1255690Y464751D01*
X1255796Y464898D01*
X1255912Y465046D01*
X1256039Y465194D01*
X1256176Y465321D01*
X1256187Y465332D01*
X1256208Y465353D01*
X1256260Y465384D01*
X1256313Y465427D01*
X1256398Y465480D01*
X1256482Y465532D01*
X1256588Y465596D01*
X1256715Y465659D01*
X1256842Y465712D01*
X1256990Y465775D01*
X1257148Y465828D01*
X1257317Y465881D01*
X1257507Y465923D01*
X1257698Y465955D01*
X1257898Y465976D01*
X1258110Y465987D01*
X1258247D01*
X1258321Y465976D01*
D02*
G37*
G36*
X1253439Y459309D02*
Y459298D01*
Y459256D01*
Y459193D01*
Y459108D01*
X1253429Y459002D01*
Y458886D01*
X1253418Y458749D01*
X1253397Y458611D01*
X1253365Y458305D01*
X1253312Y457988D01*
X1253238Y457682D01*
X1253186Y457544D01*
X1253133Y457407D01*
Y457396D01*
X1253122Y457375D01*
X1253101Y457343D01*
X1253080Y457301D01*
X1253006Y457174D01*
X1252900Y457026D01*
X1252774Y456868D01*
X1252615Y456699D01*
X1252414Y456540D01*
X1252192Y456393D01*
X1252182D01*
X1252161Y456382D01*
X1252129Y456361D01*
X1252076Y456340D01*
X1252023Y456308D01*
X1251949Y456287D01*
X1251865Y456255D01*
X1251770Y456223D01*
X1251548Y456149D01*
X1251294Y456097D01*
X1251009Y456054D01*
X1250692Y456044D01*
X1250565D01*
X1250481Y456054D01*
X1250375Y456065D01*
X1250248Y456086D01*
X1250111Y456107D01*
X1249963Y456139D01*
X1249804Y456171D01*
X1249646Y456223D01*
X1249477Y456276D01*
X1249318Y456350D01*
X1249149Y456435D01*
X1249001Y456530D01*
X1248853Y456646D01*
X1248716Y456773D01*
X1248706Y456783D01*
X1248684Y456805D01*
X1248653Y456847D01*
X1248610Y456910D01*
X1248558Y456984D01*
X1248505Y457079D01*
X1248441Y457196D01*
X1248378Y457322D01*
X1248325Y457470D01*
X1248262Y457629D01*
X1248209Y457808D01*
X1248156Y458009D01*
X1248124Y458220D01*
X1248093Y458453D01*
X1248072Y458696D01*
Y458960D01*
X1249234Y459129D01*
Y459119D01*
Y459076D01*
X1249244Y459024D01*
Y458950D01*
X1249255Y458854D01*
X1249266Y458749D01*
X1249297Y458516D01*
X1249350Y458263D01*
X1249424Y458009D01*
X1249466Y457893D01*
X1249519Y457777D01*
X1249583Y457682D01*
X1249646Y457597D01*
X1249667Y457576D01*
X1249720Y457534D01*
X1249804Y457470D01*
X1249921Y457396D01*
X1250069Y457322D01*
X1250248Y457259D01*
X1250449Y457217D01*
X1250681Y457196D01*
X1250766D01*
X1250850Y457206D01*
X1250967Y457227D01*
X1251104Y457248D01*
X1251241Y457291D01*
X1251379Y457343D01*
X1251516Y457417D01*
X1251537Y457428D01*
X1251580Y457460D01*
X1251632Y457513D01*
X1251717Y457576D01*
X1251791Y457660D01*
X1251875Y457766D01*
X1251949Y457882D01*
X1252013Y458020D01*
X1252023Y458041D01*
X1252034Y458094D01*
X1252055Y458189D01*
X1252087Y458316D01*
X1252108Y458485D01*
X1252129Y458696D01*
X1252140Y458939D01*
X1252150Y459087D01*
Y459235D01*
Y465955D01*
X1253439D01*
Y459309D01*
D02*
G37*
G36*
X601799Y147945D02*
X594172D01*
X594186Y147931D01*
X594243Y147861D01*
X594327Y147776D01*
X594426Y147635D01*
X594553Y147480D01*
X594694Y147283D01*
X594849Y147057D01*
X595004Y146804D01*
Y146790D01*
X595018Y146775D01*
X595074Y146691D01*
X595145Y146550D01*
X595229Y146381D01*
X595328Y146183D01*
X595427Y145972D01*
X595526Y145760D01*
X595610Y145549D01*
X594454D01*
Y145563D01*
X594426Y145591D01*
X594412Y145648D01*
X594370Y145718D01*
X594327Y145803D01*
X594271Y145901D01*
X594130Y146141D01*
X593975Y146423D01*
X593778Y146705D01*
X593552Y147001D01*
X593312Y147297D01*
X593298Y147311D01*
X593284Y147325D01*
X593242Y147367D01*
X593200Y147424D01*
X593059Y147551D01*
X592889Y147720D01*
X592692Y147889D01*
X592467Y148072D01*
X592241Y148227D01*
X592001Y148368D01*
Y149144D01*
X601799D01*
Y147945D01*
D02*
G37*
G36*
Y140361D02*
X594172D01*
X594186Y140347D01*
X594243Y140277D01*
X594327Y140192D01*
X594426Y140051D01*
X594553Y139896D01*
X594694Y139699D01*
X594849Y139473D01*
X595004Y139219D01*
Y139205D01*
X595018Y139191D01*
X595074Y139107D01*
X595145Y138966D01*
X595229Y138797D01*
X595328Y138599D01*
X595427Y138388D01*
X595526Y138176D01*
X595610Y137965D01*
X594454D01*
Y137979D01*
X594426Y138007D01*
X594412Y138063D01*
X594370Y138134D01*
X594327Y138218D01*
X594271Y138317D01*
X594130Y138557D01*
X593975Y138839D01*
X593778Y139121D01*
X593552Y139417D01*
X593312Y139713D01*
X593298Y139727D01*
X593284Y139741D01*
X593242Y139783D01*
X593200Y139840D01*
X593059Y139967D01*
X592889Y140136D01*
X592692Y140305D01*
X592467Y140488D01*
X592241Y140643D01*
X592001Y140784D01*
Y141559D01*
X601799D01*
Y140361D01*
D02*
G37*
G36*
Y134680D02*
X599769Y133397D01*
X599755D01*
X599726Y133369D01*
X599684Y133341D01*
X599628Y133299D01*
X599473Y133200D01*
X599275Y133073D01*
X599064Y132918D01*
X598838Y132763D01*
X598627Y132608D01*
X598429Y132467D01*
X598415Y132453D01*
X598359Y132411D01*
X598274Y132340D01*
X598176Y132241D01*
X597964Y132030D01*
X597866Y131917D01*
X597781Y131804D01*
X597767Y131790D01*
X597753Y131762D01*
X597725Y131706D01*
X597682Y131621D01*
X597640Y131537D01*
X597598Y131438D01*
X597527Y131212D01*
Y131198D01*
X597513Y131170D01*
Y131114D01*
X597499Y131043D01*
X597485Y130944D01*
Y130832D01*
X597471Y130677D01*
Y129013D01*
X601799D01*
Y127716D01*
X592044D01*
Y132241D01*
X592058Y132354D01*
Y132481D01*
X592072Y132777D01*
X592114Y133087D01*
X592156Y133426D01*
X592227Y133736D01*
X592269Y133891D01*
X592311Y134018D01*
Y134032D01*
X592326Y134046D01*
X592368Y134130D01*
X592424Y134257D01*
X592523Y134412D01*
X592650Y134581D01*
X592819Y134765D01*
X593016Y134934D01*
X593242Y135103D01*
X593256D01*
X593270Y135117D01*
X593355Y135174D01*
X593496Y135230D01*
X593679Y135315D01*
X593890Y135385D01*
X594144Y135456D01*
X594412Y135498D01*
X594708Y135512D01*
X594722D01*
X594750D01*
X594807D01*
X594877Y135498D01*
X594976D01*
X595074Y135484D01*
X595314Y135427D01*
X595596Y135343D01*
X595892Y135230D01*
X596188Y135061D01*
X596329Y134948D01*
X596470Y134835D01*
X596484Y134821D01*
X596498Y134807D01*
X596540Y134765D01*
X596583Y134708D01*
X596639Y134638D01*
X596696Y134553D01*
X596766Y134440D01*
X596851Y134328D01*
X596921Y134187D01*
X596992Y134032D01*
X597076Y133863D01*
X597147Y133679D01*
X597203Y133468D01*
X597274Y133256D01*
X597316Y133017D01*
X597358Y132763D01*
X597372Y132791D01*
X597400Y132848D01*
X597457Y132932D01*
X597513Y133045D01*
X597668Y133299D01*
X597767Y133426D01*
X597851Y133538D01*
X597880Y133567D01*
X597950Y133637D01*
X598063Y133750D01*
X598204Y133891D01*
X598401Y134046D01*
X598613Y134229D01*
X598867Y134412D01*
X599148Y134610D01*
X601799Y136287D01*
Y134680D01*
D02*
G37*
G36*
X651329Y147378D02*
X651315D01*
X651258D01*
X651174D01*
X651061Y147393D01*
X650934Y147407D01*
X650793Y147435D01*
X650652Y147463D01*
X650497Y147519D01*
X650483D01*
X650469Y147533D01*
X650384Y147562D01*
X650257Y147618D01*
X650088Y147703D01*
X649891Y147815D01*
X649665Y147956D01*
X649440Y148111D01*
X649200Y148309D01*
X649186D01*
X649172Y148337D01*
X649087Y148407D01*
X648960Y148534D01*
X648777Y148718D01*
X648566Y148929D01*
X648312Y149197D01*
X648030Y149521D01*
X647734Y149874D01*
X647720Y149888D01*
X647678Y149944D01*
X647607Y150029D01*
X647523Y150127D01*
X647410Y150254D01*
X647283Y150409D01*
X647142Y150564D01*
X646987Y150748D01*
X646648Y151100D01*
X646310Y151452D01*
X646141Y151622D01*
X645972Y151777D01*
X645817Y151918D01*
X645662Y152030D01*
X645648D01*
X645633Y152059D01*
X645591Y152087D01*
X645535Y152115D01*
X645380Y152214D01*
X645197Y152326D01*
X644971Y152425D01*
X644731Y152524D01*
X644464Y152580D01*
X644210Y152608D01*
X644196D01*
X644182D01*
X644097Y152594D01*
X643956Y152580D01*
X643801Y152538D01*
X643604Y152481D01*
X643406Y152383D01*
X643209Y152256D01*
X643011Y152087D01*
X642983Y152059D01*
X642927Y151988D01*
X642856Y151889D01*
X642758Y151734D01*
X642673Y151537D01*
X642589Y151311D01*
X642532Y151044D01*
X642518Y150748D01*
Y150663D01*
X642532Y150607D01*
X642546Y150437D01*
X642589Y150240D01*
X642645Y150029D01*
X642744Y149789D01*
X642870Y149563D01*
X643040Y149352D01*
X643068Y149324D01*
X643138Y149267D01*
X643251Y149183D01*
X643420Y149098D01*
X643618Y149000D01*
X643871Y148915D01*
X644153Y148859D01*
X644478Y148830D01*
X644351Y147604D01*
X644337D01*
X644294Y147618D01*
X644224D01*
X644125Y147632D01*
X644012Y147660D01*
X643885Y147689D01*
X643730Y147731D01*
X643575Y147773D01*
X643237Y147886D01*
X642899Y148055D01*
X642729Y148154D01*
X642560Y148281D01*
X642405Y148407D01*
X642264Y148548D01*
X642250Y148562D01*
X642236Y148591D01*
X642194Y148633D01*
X642151Y148703D01*
X642095Y148788D01*
X642039Y148887D01*
X641968Y149000D01*
X641898Y149141D01*
X641827Y149296D01*
X641757Y149465D01*
X641700Y149648D01*
X641644Y149845D01*
X641602Y150057D01*
X641560Y150282D01*
X641545Y150522D01*
X641531Y150776D01*
Y150917D01*
X641545Y151015D01*
X641560Y151128D01*
X641574Y151269D01*
X641602Y151424D01*
X641630Y151579D01*
X641729Y151946D01*
X641870Y152312D01*
X641954Y152496D01*
X642053Y152679D01*
X642180Y152848D01*
X642321Y153003D01*
X642335Y153017D01*
X642349Y153045D01*
X642405Y153074D01*
X642462Y153130D01*
X642532Y153200D01*
X642631Y153271D01*
X642729Y153341D01*
X642856Y153426D01*
X643124Y153567D01*
X643463Y153708D01*
X643632Y153764D01*
X643829Y153792D01*
X644026Y153821D01*
X644238Y153835D01*
X644266D01*
X644337D01*
X644449Y153821D01*
X644604Y153807D01*
X644774Y153778D01*
X644971Y153722D01*
X645182Y153666D01*
X645394Y153581D01*
X645422Y153567D01*
X645492Y153539D01*
X645605Y153482D01*
X645760Y153398D01*
X645929Y153285D01*
X646141Y153144D01*
X646352Y152975D01*
X646592Y152778D01*
X646620Y152749D01*
X646705Y152679D01*
X646775Y152608D01*
X646846Y152538D01*
X646930Y152453D01*
X647043Y152340D01*
X647156Y152228D01*
X647283Y152087D01*
X647424Y151946D01*
X647579Y151777D01*
X647734Y151593D01*
X647917Y151396D01*
X648101Y151171D01*
X648298Y150945D01*
X648312Y150931D01*
X648340Y150903D01*
X648382Y150846D01*
X648439Y150776D01*
X648523Y150691D01*
X648608Y150592D01*
X648791Y150367D01*
X649003Y150127D01*
X649214Y149902D01*
X649397Y149704D01*
X649468Y149620D01*
X649538Y149549D01*
X649553Y149535D01*
X649595Y149493D01*
X649651Y149437D01*
X649736Y149366D01*
X649834Y149296D01*
X649933Y149211D01*
X650173Y149042D01*
Y153849D01*
X651329D01*
Y147378D01*
D02*
G37*
G36*
Y143276D02*
X643702D01*
X643716Y143262D01*
X643773Y143192D01*
X643857Y143107D01*
X643956Y142966D01*
X644083Y142811D01*
X644224Y142614D01*
X644379Y142388D01*
X644534Y142134D01*
Y142120D01*
X644548Y142106D01*
X644604Y142022D01*
X644675Y141881D01*
X644760Y141711D01*
X644858Y141514D01*
X644957Y141303D01*
X645055Y141091D01*
X645140Y140880D01*
X643984D01*
Y140894D01*
X643956Y140922D01*
X643942Y140978D01*
X643900Y141049D01*
X643857Y141133D01*
X643801Y141232D01*
X643660Y141472D01*
X643505Y141754D01*
X643307Y142036D01*
X643082Y142332D01*
X642842Y142628D01*
X642828Y142642D01*
X642814Y142656D01*
X642772Y142698D01*
X642729Y142755D01*
X642589Y142881D01*
X642419Y143051D01*
X642222Y143220D01*
X641997Y143403D01*
X641771Y143558D01*
X641531Y143699D01*
Y144474D01*
X651329D01*
Y143276D01*
D02*
G37*
G36*
Y137595D02*
X649299Y136312D01*
X649285D01*
X649256Y136284D01*
X649214Y136256D01*
X649158Y136214D01*
X649003Y136115D01*
X648805Y135988D01*
X648594Y135833D01*
X648368Y135678D01*
X648157Y135523D01*
X647960Y135382D01*
X647945Y135368D01*
X647889Y135325D01*
X647804Y135255D01*
X647706Y135156D01*
X647494Y134945D01*
X647396Y134832D01*
X647311Y134719D01*
X647297Y134705D01*
X647283Y134677D01*
X647255Y134621D01*
X647212Y134536D01*
X647170Y134451D01*
X647128Y134353D01*
X647057Y134127D01*
Y134113D01*
X647043Y134085D01*
Y134029D01*
X647029Y133958D01*
X647015Y133859D01*
Y133747D01*
X647001Y133591D01*
Y131928D01*
X651329D01*
Y130631D01*
X641574D01*
Y135156D01*
X641588Y135269D01*
Y135396D01*
X641602Y135692D01*
X641644Y136002D01*
X641686Y136340D01*
X641757Y136651D01*
X641799Y136806D01*
X641841Y136932D01*
Y136947D01*
X641855Y136961D01*
X641898Y137045D01*
X641954Y137172D01*
X642053Y137327D01*
X642180Y137496D01*
X642349Y137680D01*
X642546Y137849D01*
X642772Y138018D01*
X642786D01*
X642800Y138032D01*
X642885Y138088D01*
X643026Y138145D01*
X643209Y138229D01*
X643420Y138300D01*
X643674Y138370D01*
X643942Y138413D01*
X644238Y138427D01*
X644252D01*
X644280D01*
X644337D01*
X644407Y138413D01*
X644506D01*
X644604Y138399D01*
X644844Y138342D01*
X645126Y138258D01*
X645422Y138145D01*
X645718Y137976D01*
X645859Y137863D01*
X646000Y137750D01*
X646014Y137736D01*
X646028Y137722D01*
X646070Y137680D01*
X646113Y137623D01*
X646169Y137553D01*
X646226Y137468D01*
X646296Y137355D01*
X646381Y137243D01*
X646451Y137102D01*
X646522Y136947D01*
X646606Y136777D01*
X646677Y136594D01*
X646733Y136383D01*
X646804Y136171D01*
X646846Y135932D01*
X646888Y135678D01*
X646902Y135706D01*
X646930Y135762D01*
X646987Y135847D01*
X647043Y135960D01*
X647198Y136214D01*
X647297Y136340D01*
X647382Y136453D01*
X647410Y136481D01*
X647480Y136552D01*
X647593Y136665D01*
X647734Y136806D01*
X647931Y136961D01*
X648143Y137144D01*
X648397Y137327D01*
X648679Y137525D01*
X651329Y139202D01*
Y137595D01*
D02*
G37*
G36*
X615124Y152092D02*
X615293D01*
X615476Y152078D01*
X615674Y152064D01*
X616125Y152022D01*
X616590Y151951D01*
X617041Y151867D01*
X617253Y151810D01*
X617464Y151740D01*
X617478D01*
X617506Y151726D01*
X617563Y151697D01*
X617633Y151669D01*
X617732Y151641D01*
X617831Y151585D01*
X618070Y151472D01*
X618324Y151331D01*
X618606Y151147D01*
X618860Y150936D01*
X619099Y150682D01*
Y150668D01*
X619128Y150654D01*
X619156Y150612D01*
X619184Y150555D01*
X619226Y150485D01*
X619283Y150414D01*
X619381Y150203D01*
X619480Y149949D01*
X619579Y149653D01*
X619635Y149301D01*
X619663Y148920D01*
Y148779D01*
X619649Y148681D01*
X619635Y148568D01*
X619607Y148427D01*
X619579Y148272D01*
X619536Y148103D01*
X619480Y147933D01*
X619424Y147750D01*
X619339Y147567D01*
X619240Y147384D01*
X619128Y147200D01*
X618987Y147017D01*
X618832Y146848D01*
X618662Y146693D01*
X618648Y146679D01*
X618606Y146651D01*
X618535Y146608D01*
X618423Y146538D01*
X618296Y146467D01*
X618127Y146397D01*
X617929Y146298D01*
X617704Y146214D01*
X617450Y146129D01*
X617154Y146044D01*
X616830Y145960D01*
X616463Y145889D01*
X616068Y145819D01*
X615646Y145777D01*
X615180Y145748D01*
X614687Y145734D01*
X614673D01*
X614617D01*
X614518D01*
X614405D01*
X614250Y145748D01*
X614081D01*
X613898Y145763D01*
X613686Y145777D01*
X613249Y145819D01*
X612784Y145889D01*
X612319Y145974D01*
X612107Y146030D01*
X611896Y146087D01*
X611882D01*
X611853Y146101D01*
X611797Y146129D01*
X611727Y146157D01*
X611628Y146185D01*
X611529Y146242D01*
X611290Y146355D01*
X611036Y146496D01*
X610768Y146679D01*
X610500Y146890D01*
X610275Y147144D01*
Y147158D01*
X610247Y147172D01*
X610218Y147214D01*
X610190Y147271D01*
X610134Y147341D01*
X610091Y147426D01*
X609979Y147637D01*
X609880Y147891D01*
X609781Y148187D01*
X609725Y148540D01*
X609697Y148920D01*
Y149047D01*
X609711Y149202D01*
X609739Y149385D01*
X609781Y149597D01*
X609838Y149822D01*
X609908Y150062D01*
X610021Y150288D01*
Y150302D01*
X610035Y150316D01*
X610077Y150386D01*
X610148Y150499D01*
X610247Y150640D01*
X610387Y150795D01*
X610542Y150964D01*
X610726Y151119D01*
X610937Y151274D01*
X610965Y151288D01*
X611036Y151345D01*
X611163Y151401D01*
X611346Y151500D01*
X611558Y151585D01*
X611797Y151697D01*
X612079Y151796D01*
X612389Y151881D01*
X612403D01*
X612431Y151895D01*
X612474Y151909D01*
X612544Y151923D01*
X612629Y151937D01*
X612728Y151951D01*
X612854Y151979D01*
X612995Y151993D01*
X613150Y152022D01*
X613320Y152036D01*
X613517Y152050D01*
X613714Y152078D01*
X613940Y152092D01*
X614165D01*
X614419Y152106D01*
X614687D01*
X614701D01*
X614757D01*
X614856D01*
X614969D01*
X615124Y152092D01*
D02*
G37*
G36*
X619494Y141463D02*
X611868D01*
X611882Y141449D01*
X611938Y141378D01*
X612023Y141294D01*
X612121Y141153D01*
X612248Y140998D01*
X612389Y140800D01*
X612544Y140575D01*
X612699Y140321D01*
Y140307D01*
X612714Y140293D01*
X612770Y140208D01*
X612840Y140067D01*
X612925Y139898D01*
X613024Y139701D01*
X613122Y139489D01*
X613221Y139278D01*
X613306Y139066D01*
X612150D01*
Y139080D01*
X612121Y139109D01*
X612107Y139165D01*
X612065Y139236D01*
X612023Y139320D01*
X611966Y139419D01*
X611825Y139658D01*
X611670Y139940D01*
X611473Y140222D01*
X611247Y140518D01*
X611008Y140814D01*
X610994Y140829D01*
X610979Y140843D01*
X610937Y140885D01*
X610895Y140941D01*
X610754Y141068D01*
X610585Y141237D01*
X610387Y141406D01*
X610162Y141590D01*
X609936Y141745D01*
X609697Y141886D01*
Y142661D01*
X619494D01*
Y141463D01*
D02*
G37*
G36*
Y135782D02*
X617464Y134499D01*
X617450D01*
X617422Y134471D01*
X617380Y134443D01*
X617323Y134400D01*
X617168Y134302D01*
X616971Y134175D01*
X616759Y134020D01*
X616534Y133865D01*
X616322Y133709D01*
X616125Y133569D01*
X616111Y133554D01*
X616054Y133512D01*
X615970Y133442D01*
X615871Y133343D01*
X615660Y133132D01*
X615561Y133019D01*
X615476Y132906D01*
X615462Y132892D01*
X615448Y132864D01*
X615420Y132807D01*
X615378Y132723D01*
X615336Y132638D01*
X615293Y132540D01*
X615223Y132314D01*
Y132300D01*
X615209Y132272D01*
Y132215D01*
X615195Y132145D01*
X615180Y132046D01*
Y131933D01*
X615166Y131778D01*
Y130115D01*
X619494D01*
Y128818D01*
X609739D01*
Y133343D01*
X609753Y133456D01*
Y133583D01*
X609767Y133879D01*
X609809Y134189D01*
X609852Y134527D01*
X609922Y134837D01*
X609964Y134992D01*
X610007Y135119D01*
Y135133D01*
X610021Y135147D01*
X610063Y135232D01*
X610120Y135359D01*
X610218Y135514D01*
X610345Y135683D01*
X610514Y135866D01*
X610712Y136035D01*
X610937Y136205D01*
X610951D01*
X610965Y136219D01*
X611050Y136275D01*
X611191Y136332D01*
X611374Y136416D01*
X611586Y136487D01*
X611839Y136557D01*
X612107Y136599D01*
X612403Y136614D01*
X612417D01*
X612446D01*
X612502D01*
X612573Y136599D01*
X612671D01*
X612770Y136585D01*
X613009Y136529D01*
X613291Y136444D01*
X613587Y136332D01*
X613884Y136162D01*
X614025Y136050D01*
X614165Y135937D01*
X614179Y135923D01*
X614194Y135909D01*
X614236Y135866D01*
X614278Y135810D01*
X614335Y135739D01*
X614391Y135655D01*
X614462Y135542D01*
X614546Y135429D01*
X614617Y135288D01*
X614687Y135133D01*
X614772Y134964D01*
X614842Y134781D01*
X614898Y134570D01*
X614969Y134358D01*
X615011Y134118D01*
X615054Y133865D01*
X615068Y133893D01*
X615096Y133949D01*
X615152Y134034D01*
X615209Y134146D01*
X615364Y134400D01*
X615462Y134527D01*
X615547Y134640D01*
X615575Y134668D01*
X615646Y134739D01*
X615758Y134851D01*
X615899Y134992D01*
X616097Y135147D01*
X616308Y135331D01*
X616562Y135514D01*
X616844Y135711D01*
X619494Y137389D01*
Y135782D01*
D02*
G37*
G36*
X775614Y388878D02*
X774411D01*
Y396516D01*
X774396Y396501D01*
X774336Y396441D01*
X774232Y396367D01*
X774099Y396263D01*
X773935Y396129D01*
X773742Y395996D01*
X773519Y395832D01*
X773267Y395684D01*
X773252D01*
X773237Y395669D01*
X773148Y395609D01*
X773014Y395535D01*
X772850Y395446D01*
X772657Y395342D01*
X772449Y395253D01*
X772226Y395149D01*
X772018Y395060D01*
Y396233D01*
X772033D01*
X772063Y396248D01*
X772122Y396278D01*
X772182Y396323D01*
X772271Y396367D01*
X772375Y396412D01*
X772613Y396545D01*
X772880Y396709D01*
X773177Y396902D01*
X773475Y397125D01*
X773757Y397363D01*
X773772Y397378D01*
X773787Y397393D01*
X773876Y397482D01*
X774009Y397615D01*
X774173Y397779D01*
X774351Y397987D01*
X774530Y398210D01*
X774693Y398447D01*
X774827Y398685D01*
X775614D01*
Y388878D01*
D02*
G37*
G36*
X766417Y398626D02*
X766535D01*
X766833Y398611D01*
X767145Y398581D01*
X767471Y398522D01*
X767784Y398462D01*
X767932Y398418D01*
X768066Y398373D01*
X768081D01*
X768096Y398358D01*
X768185Y398329D01*
X768304Y398254D01*
X768452Y398150D01*
X768631Y398031D01*
X768809Y397868D01*
X768987Y397675D01*
X769151Y397437D01*
X769165Y397407D01*
X769210Y397318D01*
X769284Y397184D01*
X769359Y397006D01*
X769433Y396783D01*
X769507Y396531D01*
X769552Y396263D01*
X769567Y395966D01*
Y395951D01*
Y395921D01*
Y395862D01*
X769552Y395788D01*
Y395699D01*
X769537Y395594D01*
X769477Y395357D01*
X769403Y395075D01*
X769284Y394792D01*
X769106Y394495D01*
X769002Y394346D01*
X768883Y394213D01*
X768853Y394183D01*
X768809Y394153D01*
X768764Y394094D01*
X768690Y394049D01*
X768601Y393975D01*
X768497Y393915D01*
X768378Y393841D01*
X768244Y393767D01*
X768081Y393693D01*
X767917Y393618D01*
X767724Y393544D01*
X767531Y393470D01*
X767308Y393410D01*
X767070Y393366D01*
X766818Y393321D01*
X766848Y393306D01*
X766907Y393276D01*
X766996Y393232D01*
X767100Y393172D01*
X767353Y393009D01*
X767486Y392920D01*
X767590Y392831D01*
X767620Y392801D01*
X767694Y392742D01*
X767798Y392623D01*
X767932Y392474D01*
X768096Y392281D01*
X768274Y392058D01*
X768467Y391805D01*
X768660Y391523D01*
X770354Y388878D01*
X768735D01*
X767442Y390899D01*
Y390914D01*
X767412Y390944D01*
X767382Y390988D01*
X767353Y391048D01*
X767249Y391196D01*
X767115Y391389D01*
X766966Y391612D01*
X766803Y391835D01*
X766654Y392043D01*
X766506Y392236D01*
X766491Y392251D01*
X766446Y392311D01*
X766372Y392400D01*
X766298Y392504D01*
X766075Y392712D01*
X765971Y392816D01*
X765852Y392890D01*
X765837Y392905D01*
X765807Y392920D01*
X765748Y392950D01*
X765674Y392994D01*
X765495Y393083D01*
X765272Y393158D01*
X765257D01*
X765228Y393172D01*
X765168D01*
X765094Y393187D01*
X764990Y393202D01*
X764871D01*
X764723Y393217D01*
X763058D01*
Y388878D01*
X761766D01*
Y398641D01*
X766298D01*
X766417Y398626D01*
D02*
G37*
G36*
X782048Y398670D02*
X782167D01*
X782286Y398641D01*
X782583Y398596D01*
X782910Y398507D01*
X783252Y398373D01*
X783430Y398284D01*
X783594Y398195D01*
X783757Y398076D01*
X783906Y397942D01*
X783921Y397927D01*
X783935Y397912D01*
X783980Y397868D01*
X784025Y397808D01*
X784084Y397734D01*
X784158Y397645D01*
X784307Y397437D01*
X784441Y397170D01*
X784574Y396858D01*
X784663Y396516D01*
X784678Y396323D01*
X784693Y396129D01*
Y396100D01*
Y396011D01*
X784678Y395892D01*
X784649Y395728D01*
X784604Y395535D01*
X784545Y395342D01*
X784455Y395134D01*
X784336Y394941D01*
X784322Y394926D01*
X784277Y394866D01*
X784188Y394777D01*
X784069Y394658D01*
X783921Y394539D01*
X783727Y394421D01*
X783504Y394287D01*
X783252Y394183D01*
X783267D01*
X783296Y394168D01*
X783341Y394153D01*
X783400Y394123D01*
X783564Y394049D01*
X783757Y393960D01*
X783980Y393826D01*
X784203Y393663D01*
X784426Y393455D01*
X784619Y393232D01*
X784634Y393202D01*
X784693Y393113D01*
X784767Y392979D01*
X784857Y392786D01*
X784946Y392563D01*
X785020Y392296D01*
X785079Y391999D01*
X785094Y391672D01*
Y391657D01*
Y391612D01*
Y391553D01*
X785079Y391464D01*
X785065Y391360D01*
X785050Y391226D01*
X784990Y390929D01*
X784871Y390602D01*
X784812Y390424D01*
X784723Y390245D01*
X784619Y390067D01*
X784500Y389889D01*
X784366Y389725D01*
X784203Y389562D01*
X784188Y389547D01*
X784158Y389532D01*
X784114Y389487D01*
X784039Y389428D01*
X783950Y389369D01*
X783846Y389294D01*
X783727Y389220D01*
X783579Y389146D01*
X783415Y389057D01*
X783237Y388982D01*
X783044Y388908D01*
X782836Y388848D01*
X782628Y388789D01*
X782390Y388745D01*
X782137Y388730D01*
X781870Y388715D01*
X781736D01*
X781632Y388730D01*
X781513Y388745D01*
X781365Y388759D01*
X781216Y388789D01*
X781038Y388819D01*
X780666Y388923D01*
X780473Y388997D01*
X780280Y389071D01*
X780087Y389175D01*
X779894Y389280D01*
X779715Y389413D01*
X779537Y389562D01*
X779522Y389577D01*
X779492Y389606D01*
X779463Y389651D01*
X779403Y389710D01*
X779329Y389799D01*
X779255Y389903D01*
X779180Y390022D01*
X779106Y390156D01*
X779017Y390305D01*
X778943Y390468D01*
X778794Y390825D01*
X778735Y391033D01*
X778705Y391241D01*
X778675Y391464D01*
X778660Y391702D01*
Y391716D01*
Y391746D01*
Y391791D01*
X778675Y391865D01*
Y391939D01*
X778690Y392043D01*
X778720Y392251D01*
X778779Y392504D01*
X778868Y392771D01*
X778972Y393039D01*
X779136Y393291D01*
Y393306D01*
X779166Y393321D01*
X779225Y393395D01*
X779344Y393514D01*
X779492Y393648D01*
X779686Y393797D01*
X779923Y393945D01*
X780206Y394079D01*
X780518Y394183D01*
X780503D01*
X780488Y394198D01*
X780399Y394227D01*
X780265Y394302D01*
X780102Y394376D01*
X779909Y394495D01*
X779730Y394629D01*
X779552Y394777D01*
X779403Y394956D01*
X779389Y394985D01*
X779344Y395045D01*
X779284Y395149D01*
X779225Y395297D01*
X779166Y395476D01*
X779106Y395684D01*
X779062Y395907D01*
X779047Y396159D01*
Y396174D01*
Y396204D01*
Y396263D01*
X779062Y396338D01*
X779076Y396427D01*
X779091Y396531D01*
X779136Y396783D01*
X779225Y397066D01*
X779374Y397363D01*
X779448Y397526D01*
X779552Y397675D01*
X779671Y397823D01*
X779805Y397957D01*
X779819Y397972D01*
X779834Y397987D01*
X779879Y398031D01*
X779938Y398076D01*
X780027Y398121D01*
X780117Y398195D01*
X780221Y398254D01*
X780354Y398329D01*
X780637Y398462D01*
X780993Y398566D01*
X781394Y398656D01*
X781602Y398670D01*
X781840Y398685D01*
X781959D01*
X782048Y398670D01*
D02*
G37*
G36*
X834610Y436874D02*
X834595Y436859D01*
X834565Y436829D01*
X834520Y436770D01*
X834446Y436696D01*
X834372Y436592D01*
X834268Y436473D01*
X834149Y436324D01*
X834030Y436175D01*
X833896Y435997D01*
X833748Y435789D01*
X833584Y435581D01*
X833436Y435343D01*
X833272Y435091D01*
X833094Y434823D01*
X832930Y434526D01*
X832752Y434229D01*
X832737Y434214D01*
X832708Y434155D01*
X832663Y434066D01*
X832604Y433947D01*
X832529Y433798D01*
X832440Y433620D01*
X832336Y433412D01*
X832232Y433189D01*
X832128Y432951D01*
X832009Y432684D01*
X831890Y432401D01*
X831771Y432104D01*
X831548Y431495D01*
X831340Y430841D01*
Y430826D01*
X831326Y430782D01*
X831311Y430722D01*
X831281Y430633D01*
X831251Y430514D01*
X831222Y430381D01*
X831192Y430217D01*
X831147Y430054D01*
X831118Y429860D01*
X831073Y429652D01*
X830999Y429207D01*
X830939Y428702D01*
X830895Y428167D01*
X829661D01*
Y428181D01*
Y428226D01*
Y428285D01*
X829676Y428375D01*
Y428479D01*
X829691Y428612D01*
X829706Y428776D01*
X829721Y428939D01*
X829751Y429132D01*
X829780Y429355D01*
X829810Y429578D01*
X829855Y429816D01*
X829899Y430083D01*
X829959Y430351D01*
X830107Y430945D01*
Y430960D01*
X830122Y431020D01*
X830152Y431109D01*
X830182Y431227D01*
X830226Y431376D01*
X830285Y431539D01*
X830345Y431733D01*
X830419Y431956D01*
X830508Y432178D01*
X830598Y432431D01*
X830806Y432966D01*
X831058Y433531D01*
X831340Y434095D01*
X831355Y434110D01*
X831385Y434170D01*
X831430Y434244D01*
X831489Y434348D01*
X831563Y434482D01*
X831653Y434630D01*
X831757Y434794D01*
X831861Y434987D01*
X832128Y435388D01*
X832425Y435819D01*
X832737Y436250D01*
X833079Y436666D01*
X828294D01*
Y437810D01*
X834610D01*
Y436874D01*
D02*
G37*
G36*
X825159Y428167D02*
X823956D01*
Y435804D01*
X823941Y435789D01*
X823881Y435730D01*
X823777Y435656D01*
X823643Y435551D01*
X823480Y435418D01*
X823287Y435284D01*
X823064Y435121D01*
X822811Y434972D01*
X822797D01*
X822782Y434957D01*
X822692Y434898D01*
X822559Y434823D01*
X822395Y434734D01*
X822202Y434630D01*
X821994Y434541D01*
X821771Y434437D01*
X821563Y434348D01*
Y435522D01*
X821578D01*
X821608Y435537D01*
X821667Y435566D01*
X821727Y435611D01*
X821816Y435656D01*
X821920Y435700D01*
X822158Y435834D01*
X822425Y435997D01*
X822722Y436190D01*
X823019Y436413D01*
X823302Y436651D01*
X823317Y436666D01*
X823332Y436681D01*
X823421Y436770D01*
X823554Y436904D01*
X823718Y437067D01*
X823896Y437275D01*
X824074Y437498D01*
X824238Y437736D01*
X824372Y437974D01*
X825159D01*
Y428167D01*
D02*
G37*
G36*
X815961Y437914D02*
X816080D01*
X816377Y437899D01*
X816690Y437869D01*
X817016Y437810D01*
X817328Y437751D01*
X817477Y437706D01*
X817611Y437661D01*
X817626D01*
X817641Y437647D01*
X817730Y437617D01*
X817849Y437543D01*
X817997Y437439D01*
X818175Y437320D01*
X818354Y437156D01*
X818532Y436963D01*
X818696Y436725D01*
X818710Y436696D01*
X818755Y436606D01*
X818829Y436473D01*
X818904Y436294D01*
X818978Y436072D01*
X819052Y435819D01*
X819097Y435551D01*
X819111Y435254D01*
Y435239D01*
Y435210D01*
Y435150D01*
X819097Y435076D01*
Y434987D01*
X819082Y434883D01*
X819022Y434645D01*
X818948Y434363D01*
X818829Y434080D01*
X818651Y433783D01*
X818547Y433635D01*
X818428Y433501D01*
X818398Y433471D01*
X818354Y433442D01*
X818309Y433382D01*
X818235Y433338D01*
X818146Y433263D01*
X818042Y433204D01*
X817923Y433129D01*
X817789Y433055D01*
X817626Y432981D01*
X817462Y432907D01*
X817269Y432832D01*
X817076Y432758D01*
X816853Y432699D01*
X816615Y432654D01*
X816363Y432609D01*
X816392Y432594D01*
X816452Y432565D01*
X816541Y432520D01*
X816645Y432461D01*
X816898Y432297D01*
X817031Y432208D01*
X817135Y432119D01*
X817165Y432089D01*
X817239Y432030D01*
X817343Y431911D01*
X817477Y431762D01*
X817641Y431569D01*
X817819Y431346D01*
X818012Y431094D01*
X818205Y430811D01*
X819899Y428167D01*
X818279D01*
X816987Y430187D01*
Y430202D01*
X816957Y430232D01*
X816927Y430276D01*
X816898Y430336D01*
X816794Y430485D01*
X816660Y430678D01*
X816511Y430901D01*
X816348Y431124D01*
X816199Y431331D01*
X816051Y431525D01*
X816036Y431539D01*
X815991Y431599D01*
X815917Y431688D01*
X815843Y431792D01*
X815620Y432000D01*
X815516Y432104D01*
X815397Y432178D01*
X815382Y432193D01*
X815352Y432208D01*
X815293Y432238D01*
X815219Y432282D01*
X815040Y432372D01*
X814817Y432446D01*
X814802D01*
X814773Y432461D01*
X814713D01*
X814639Y432476D01*
X814535Y432491D01*
X814416D01*
X814268Y432505D01*
X812603D01*
Y428167D01*
X811311D01*
Y437929D01*
X815843D01*
X815961Y437914D01*
D02*
G37*
G36*
X-9476Y179342D02*
X-7141D01*
Y178148D01*
X-9476D01*
Y173900D01*
X-10575D01*
X-16894Y178359D01*
Y179342D01*
X-10575D01*
Y180663D01*
X-9476D01*
Y179342D01*
D02*
G37*
G36*
X-9941Y172675D02*
X-9825D01*
X-9687Y172664D01*
X-9550Y172643D01*
X-9244Y172611D01*
X-8927Y172558D01*
X-8620Y172484D01*
X-8483Y172432D01*
X-8345Y172379D01*
X-8335D01*
X-8314Y172368D01*
X-8282Y172347D01*
X-8240Y172326D01*
X-8113Y172252D01*
X-7965Y172146D01*
X-7807Y172019D01*
X-7638Y171861D01*
X-7479Y171660D01*
X-7331Y171438D01*
Y171428D01*
X-7321Y171406D01*
X-7299Y171375D01*
X-7278Y171322D01*
X-7247Y171269D01*
X-7225Y171195D01*
X-7194Y171111D01*
X-7162Y171016D01*
X-7088Y170794D01*
X-7035Y170540D01*
X-6993Y170255D01*
X-6982Y169938D01*
Y169811D01*
X-6993Y169727D01*
X-7003Y169621D01*
X-7025Y169494D01*
X-7046Y169357D01*
X-7078Y169209D01*
X-7109Y169050D01*
X-7162Y168892D01*
X-7215Y168723D01*
X-7289Y168564D01*
X-7373Y168395D01*
X-7468Y168247D01*
X-7585Y168099D01*
X-7711Y167962D01*
X-7722Y167951D01*
X-7743Y167930D01*
X-7785Y167899D01*
X-7849Y167856D01*
X-7923Y167803D01*
X-8018Y167750D01*
X-8134Y167687D01*
X-8261Y167624D01*
X-8409Y167571D01*
X-8567Y167507D01*
X-8747Y167455D01*
X-8948Y167402D01*
X-9159Y167370D01*
X-9391Y167339D01*
X-9635Y167317D01*
X-9899D01*
X-10068Y168480D01*
X-10057D01*
X-10015D01*
X-9962Y168490D01*
X-9888D01*
X-9793Y168501D01*
X-9687Y168511D01*
X-9455Y168543D01*
X-9201Y168596D01*
X-8948Y168670D01*
X-8831Y168712D01*
X-8715Y168765D01*
X-8620Y168828D01*
X-8536Y168892D01*
X-8515Y168913D01*
X-8472Y168966D01*
X-8409Y169050D01*
X-8335Y169166D01*
X-8261Y169314D01*
X-8198Y169494D01*
X-8155Y169695D01*
X-8134Y169927D01*
Y170012D01*
X-8145Y170096D01*
X-8166Y170212D01*
X-8187Y170350D01*
X-8229Y170487D01*
X-8282Y170625D01*
X-8356Y170762D01*
X-8367Y170783D01*
X-8398Y170825D01*
X-8451Y170878D01*
X-8515Y170963D01*
X-8599Y171037D01*
X-8705Y171121D01*
X-8821Y171195D01*
X-8958Y171259D01*
X-8979Y171269D01*
X-9032Y171280D01*
X-9127Y171301D01*
X-9254Y171333D01*
X-9423Y171354D01*
X-9635Y171375D01*
X-9878Y171385D01*
X-10026Y171396D01*
X-10173D01*
X-16894D01*
Y172685D01*
X-10247D01*
X-10237D01*
X-10194D01*
X-10131D01*
X-10047D01*
X-9941Y172675D01*
D02*
G37*
G36*
X1264370Y649534D02*
X1264360Y649323D01*
X1264349Y649080D01*
X1264328Y648837D01*
X1264307Y648604D01*
X1264297Y648488D01*
X1264275Y648393D01*
Y648382D01*
X1264265Y648361D01*
Y648319D01*
X1264254Y648277D01*
X1264233Y648213D01*
X1264223Y648139D01*
X1264170Y647970D01*
X1264106Y647780D01*
X1264022Y647579D01*
X1263927Y647378D01*
X1263811Y647188D01*
Y647178D01*
X1263800Y647167D01*
X1263747Y647104D01*
X1263673Y647019D01*
X1263568Y646903D01*
X1263441Y646787D01*
X1263272Y646649D01*
X1263092Y646523D01*
X1262870Y646406D01*
X1262860D01*
X1262838Y646396D01*
X1262807Y646375D01*
X1262765Y646354D01*
X1262712Y646332D01*
X1262638Y646311D01*
X1262479Y646248D01*
X1262278Y646195D01*
X1262057Y646142D01*
X1261803Y646111D01*
X1261539Y646100D01*
X1261528D01*
X1261486D01*
X1261423D01*
X1261327Y646111D01*
X1261222Y646121D01*
X1261105Y646142D01*
X1260968Y646163D01*
X1260810Y646195D01*
X1260651Y646237D01*
X1260482Y646290D01*
X1260313Y646354D01*
X1260133Y646438D01*
X1259954Y646523D01*
X1259774Y646628D01*
X1259605Y646755D01*
X1259436Y646892D01*
X1259426Y646903D01*
X1259404Y646935D01*
X1259362Y646977D01*
X1259299Y647051D01*
X1259235Y647135D01*
X1259161Y647252D01*
X1259087Y647389D01*
X1259013Y647548D01*
X1258929Y647738D01*
X1258855Y647939D01*
X1258781Y648182D01*
X1258717Y648435D01*
X1258665Y648731D01*
X1258622Y649048D01*
X1258591Y649386D01*
X1258580Y649766D01*
Y652260D01*
X1254618D01*
Y653549D01*
X1264370D01*
Y649534D01*
D02*
G37*
G36*
X1254882Y645096D02*
X1255009Y645086D01*
X1255146Y645054D01*
X1255294Y645022D01*
X1255442Y644969D01*
X1255452D01*
X1255474Y644959D01*
X1255505Y644948D01*
X1255558Y644927D01*
X1255611Y644895D01*
X1255685Y644864D01*
X1255854Y644779D01*
X1256055Y644673D01*
X1256277Y644536D01*
X1256509Y644378D01*
X1256742Y644187D01*
X1256752Y644177D01*
X1256773Y644166D01*
X1256805Y644135D01*
X1256858Y644082D01*
X1256911Y644029D01*
X1256985Y643955D01*
X1257069Y643881D01*
X1257164Y643786D01*
X1257270Y643680D01*
X1257376Y643564D01*
X1257502Y643437D01*
X1257629Y643289D01*
X1257766Y643141D01*
X1257904Y642972D01*
X1258052Y642803D01*
X1258210Y642613D01*
X1258221Y642592D01*
X1258274Y642539D01*
X1258337Y642465D01*
X1258432Y642359D01*
X1258538Y642233D01*
X1258665Y642085D01*
X1258802Y641916D01*
X1258961Y641747D01*
X1259288Y641387D01*
X1259637Y641039D01*
X1259806Y640870D01*
X1259975Y640711D01*
X1260133Y640574D01*
X1260281Y640458D01*
X1260292Y640447D01*
X1260313Y640436D01*
X1260355Y640405D01*
X1260408Y640373D01*
X1260482Y640320D01*
X1260556Y640278D01*
X1260746Y640172D01*
X1260968Y640067D01*
X1261211Y639972D01*
X1261465Y639908D01*
X1261592Y639897D01*
X1261718Y639887D01*
X1261729D01*
X1261750D01*
X1261792D01*
X1261835Y639897D01*
X1261898D01*
X1261972Y639919D01*
X1262131Y639950D01*
X1262321Y640014D01*
X1262521Y640109D01*
X1262627Y640162D01*
X1262722Y640236D01*
X1262817Y640310D01*
X1262912Y640405D01*
X1262923Y640415D01*
X1262934Y640426D01*
X1262955Y640458D01*
X1262986Y640500D01*
X1263029Y640553D01*
X1263071Y640616D01*
X1263166Y640764D01*
X1263251Y640965D01*
X1263335Y641187D01*
X1263388Y641451D01*
X1263409Y641599D01*
Y641831D01*
X1263398Y641895D01*
Y641969D01*
X1263377Y642053D01*
X1263346Y642243D01*
X1263282Y642465D01*
X1263187Y642698D01*
X1263124Y642814D01*
X1263060Y642930D01*
X1262976Y643036D01*
X1262881Y643141D01*
X1262870Y643152D01*
X1262860Y643163D01*
X1262828Y643184D01*
X1262786Y643226D01*
X1262733Y643258D01*
X1262669Y643300D01*
X1262595Y643353D01*
X1262511Y643395D01*
X1262416Y643448D01*
X1262310Y643490D01*
X1262057Y643575D01*
X1261782Y643638D01*
X1261623Y643649D01*
X1261454Y643659D01*
X1261581Y644885D01*
X1261602D01*
X1261644Y644874D01*
X1261708Y644864D01*
X1261803Y644853D01*
X1261919Y644832D01*
X1262057Y644800D01*
X1262204Y644769D01*
X1262363Y644716D01*
X1262521Y644663D01*
X1262701Y644600D01*
X1262870Y644515D01*
X1263039Y644430D01*
X1263219Y644325D01*
X1263377Y644209D01*
X1263536Y644082D01*
X1263673Y643934D01*
X1263684Y643923D01*
X1263705Y643892D01*
X1263737Y643849D01*
X1263789Y643786D01*
X1263842Y643701D01*
X1263906Y643596D01*
X1263969Y643480D01*
X1264043Y643342D01*
X1264106Y643194D01*
X1264170Y643025D01*
X1264233Y642846D01*
X1264286Y642645D01*
X1264339Y642433D01*
X1264370Y642212D01*
X1264392Y641969D01*
X1264402Y641715D01*
Y641578D01*
X1264392Y641482D01*
X1264381Y641366D01*
X1264360Y641229D01*
X1264339Y641070D01*
X1264307Y640912D01*
X1264265Y640732D01*
X1264212Y640553D01*
X1264149Y640362D01*
X1264075Y640183D01*
X1263980Y639993D01*
X1263874Y639813D01*
X1263758Y639644D01*
X1263620Y639485D01*
X1263610Y639475D01*
X1263589Y639454D01*
X1263536Y639412D01*
X1263483Y639359D01*
X1263409Y639295D01*
X1263314Y639221D01*
X1263208Y639147D01*
X1263081Y639073D01*
X1262955Y638999D01*
X1262807Y638925D01*
X1262648Y638852D01*
X1262479Y638788D01*
X1262289Y638735D01*
X1262099Y638693D01*
X1261898Y638672D01*
X1261687Y638661D01*
X1261676D01*
X1261665D01*
X1261634D01*
X1261592D01*
X1261475Y638672D01*
X1261327Y638693D01*
X1261148Y638725D01*
X1260958Y638767D01*
X1260746Y638820D01*
X1260535Y638904D01*
X1260524D01*
X1260514Y638915D01*
X1260482Y638925D01*
X1260440Y638947D01*
X1260324Y639010D01*
X1260176Y639095D01*
X1259996Y639211D01*
X1259795Y639348D01*
X1259584Y639507D01*
X1259352Y639707D01*
X1259341Y639718D01*
X1259320Y639729D01*
X1259288Y639771D01*
X1259235Y639813D01*
X1259172Y639876D01*
X1259098Y639950D01*
X1259003Y640035D01*
X1258908Y640141D01*
X1258792Y640267D01*
X1258665Y640405D01*
X1258517Y640553D01*
X1258369Y640722D01*
X1258200Y640901D01*
X1258031Y641102D01*
X1257840Y641324D01*
X1257640Y641556D01*
X1257629Y641567D01*
X1257598Y641599D01*
X1257555Y641662D01*
X1257492Y641725D01*
X1257418Y641821D01*
X1257333Y641916D01*
X1257143Y642138D01*
X1256942Y642370D01*
X1256731Y642592D01*
X1256636Y642698D01*
X1256551Y642793D01*
X1256467Y642877D01*
X1256404Y642941D01*
X1256393Y642951D01*
X1256351Y642993D01*
X1256287Y643046D01*
X1256203Y643120D01*
X1256108Y643205D01*
X1256002Y643289D01*
X1255770Y643458D01*
Y638651D01*
X1254618D01*
Y645107D01*
X1254639D01*
X1254692D01*
X1254776D01*
X1254882Y645096D01*
D02*
G37*
G36*
X912314Y343733D02*
Y343723D01*
Y343681D01*
Y343617D01*
Y343533D01*
X912304Y343427D01*
Y343311D01*
X912293Y343173D01*
X912272Y343036D01*
X912240Y342730D01*
X912187Y342413D01*
X912113Y342106D01*
X912061Y341969D01*
X912008Y341832D01*
Y341821D01*
X911997Y341800D01*
X911976Y341768D01*
X911955Y341726D01*
X911881Y341599D01*
X911775Y341451D01*
X911648Y341293D01*
X911490Y341124D01*
X911289Y340965D01*
X911067Y340817D01*
X911057D01*
X911036Y340807D01*
X911004Y340785D01*
X910951Y340764D01*
X910898Y340733D01*
X910824Y340712D01*
X910740Y340680D01*
X910645Y340648D01*
X910423Y340574D01*
X910169Y340521D01*
X909884Y340479D01*
X909567Y340468D01*
X909440D01*
X909356Y340479D01*
X909250Y340490D01*
X909123Y340511D01*
X908986Y340532D01*
X908838Y340564D01*
X908679Y340595D01*
X908521Y340648D01*
X908352Y340701D01*
X908193Y340775D01*
X908024Y340859D01*
X907876Y340955D01*
X907728Y341071D01*
X907591Y341198D01*
X907580Y341208D01*
X907559Y341229D01*
X907528Y341272D01*
X907485Y341335D01*
X907432Y341409D01*
X907380Y341504D01*
X907316Y341620D01*
X907253Y341747D01*
X907200Y341895D01*
X907137Y342053D01*
X907084Y342233D01*
X907031Y342434D01*
X906999Y342645D01*
X906968Y342878D01*
X906946Y343121D01*
Y343385D01*
X908109Y343554D01*
Y343543D01*
Y343501D01*
X908119Y343448D01*
Y343374D01*
X908130Y343279D01*
X908140Y343173D01*
X908172Y342941D01*
X908225Y342687D01*
X908299Y342434D01*
X908341Y342318D01*
X908394Y342201D01*
X908457Y342106D01*
X908521Y342022D01*
X908542Y342001D01*
X908595Y341958D01*
X908679Y341895D01*
X908795Y341821D01*
X908943Y341747D01*
X909123Y341684D01*
X909324Y341641D01*
X909556Y341620D01*
X909641D01*
X909725Y341631D01*
X909842Y341652D01*
X909979Y341673D01*
X910116Y341715D01*
X910254Y341768D01*
X910391Y341842D01*
X910412Y341853D01*
X910454Y341884D01*
X910507Y341937D01*
X910592Y342001D01*
X910666Y342085D01*
X910750Y342191D01*
X910824Y342307D01*
X910888Y342444D01*
X910898Y342466D01*
X910909Y342518D01*
X910930Y342613D01*
X910962Y342740D01*
X910983Y342909D01*
X911004Y343121D01*
X911014Y343364D01*
X911025Y343512D01*
Y343660D01*
Y350380D01*
X912314D01*
Y343733D01*
D02*
G37*
G36*
X927519Y349112D02*
X923620D01*
X923102Y346491D01*
X923113Y346502D01*
X923145Y346523D01*
X923187Y346544D01*
X923250Y346586D01*
X923335Y346629D01*
X923430Y346682D01*
X923536Y346745D01*
X923662Y346798D01*
X923789Y346851D01*
X923937Y346914D01*
X924244Y347009D01*
X924413Y347051D01*
X924582Y347083D01*
X924761Y347094D01*
X924941Y347104D01*
X924994D01*
X925068Y347094D01*
X925152D01*
X925258Y347072D01*
X925385Y347062D01*
X925533Y347030D01*
X925681Y346998D01*
X925850Y346946D01*
X926019Y346893D01*
X926198Y346819D01*
X926378Y346734D01*
X926558Y346629D01*
X926737Y346512D01*
X926917Y346375D01*
X927086Y346217D01*
X927096Y346206D01*
X927128Y346174D01*
X927170Y346121D01*
X927223Y346058D01*
X927297Y345974D01*
X927371Y345857D01*
X927445Y345741D01*
X927530Y345604D01*
X927614Y345445D01*
X927688Y345266D01*
X927773Y345086D01*
X927836Y344875D01*
X927889Y344663D01*
X927931Y344431D01*
X927963Y344188D01*
X927974Y343934D01*
Y343924D01*
Y343871D01*
Y343807D01*
X927963Y343712D01*
X927952Y343596D01*
X927931Y343469D01*
X927910Y343321D01*
X927878Y343152D01*
X927836Y342983D01*
X927783Y342793D01*
X927720Y342603D01*
X927646Y342413D01*
X927561Y342223D01*
X927456Y342022D01*
X927340Y341832D01*
X927202Y341652D01*
X927192Y341641D01*
X927160Y341599D01*
X927107Y341546D01*
X927033Y341472D01*
X926938Y341377D01*
X926822Y341282D01*
X926684Y341166D01*
X926526Y341060D01*
X926357Y340955D01*
X926167Y340838D01*
X925955Y340743D01*
X925723Y340659D01*
X925480Y340574D01*
X925216Y340521D01*
X924941Y340479D01*
X924645Y340468D01*
X924518D01*
X924423Y340479D01*
X924307Y340490D01*
X924180Y340511D01*
X924032Y340532D01*
X923874Y340564D01*
X923705Y340595D01*
X923525Y340648D01*
X923345Y340712D01*
X923166Y340785D01*
X922986Y340870D01*
X922807Y340965D01*
X922637Y341081D01*
X922468Y341208D01*
X922458Y341219D01*
X922437Y341240D01*
X922394Y341282D01*
X922342Y341345D01*
X922268Y341419D01*
X922194Y341504D01*
X922120Y341610D01*
X922035Y341736D01*
X921951Y341863D01*
X921866Y342011D01*
X921792Y342180D01*
X921718Y342349D01*
X921644Y342539D01*
X921591Y342740D01*
X921549Y342962D01*
X921517Y343184D01*
X922775Y343279D01*
Y343269D01*
X922785Y343237D01*
X922796Y343195D01*
X922807Y343131D01*
X922817Y343057D01*
X922849Y342962D01*
X922902Y342761D01*
X922986Y342539D01*
X923102Y342307D01*
X923240Y342096D01*
X923324Y342001D01*
X923409Y341906D01*
X923419D01*
X923430Y341884D01*
X923462Y341863D01*
X923504Y341832D01*
X923610Y341758D01*
X923758Y341684D01*
X923937Y341599D01*
X924148Y341525D01*
X924381Y341472D01*
X924508Y341462D01*
X924645Y341451D01*
X924730D01*
X924793Y341462D01*
X924867Y341472D01*
X924952Y341483D01*
X925152Y341536D01*
X925385Y341610D01*
X925501Y341662D01*
X925628Y341726D01*
X925755Y341800D01*
X925871Y341884D01*
X925987Y341979D01*
X926103Y342096D01*
X926114Y342106D01*
X926124Y342127D01*
X926156Y342159D01*
X926198Y342212D01*
X926241Y342286D01*
X926293Y342360D01*
X926346Y342455D01*
X926410Y342561D01*
X926463Y342677D01*
X926515Y342804D01*
X926568Y342952D01*
X926610Y343100D01*
X926653Y343269D01*
X926684Y343448D01*
X926695Y343628D01*
X926706Y343829D01*
Y343839D01*
Y343871D01*
Y343924D01*
X926695Y343998D01*
X926684Y344082D01*
X926674Y344188D01*
X926653Y344294D01*
X926632Y344420D01*
X926568Y344674D01*
X926463Y344949D01*
X926399Y345075D01*
X926315Y345202D01*
X926230Y345329D01*
X926124Y345445D01*
X926114Y345456D01*
X926103Y345466D01*
X926061Y345498D01*
X926019Y345540D01*
X925966Y345583D01*
X925892Y345635D01*
X925818Y345688D01*
X925723Y345752D01*
X925617Y345804D01*
X925512Y345857D01*
X925247Y345952D01*
X925110Y345995D01*
X924952Y346026D01*
X924793Y346037D01*
X924624Y346048D01*
X924529D01*
X924413Y346037D01*
X924275Y346016D01*
X924106Y345984D01*
X923927Y345931D01*
X923747Y345868D01*
X923567Y345773D01*
X923546Y345762D01*
X923493Y345731D01*
X923409Y345667D01*
X923303Y345593D01*
X923197Y345488D01*
X923071Y345371D01*
X922954Y345234D01*
X922849Y345086D01*
X921729Y345244D01*
X922669Y350253D01*
X927519D01*
Y349112D01*
D02*
G37*
G36*
X918443Y340627D02*
X917249D01*
Y348245D01*
X917227Y348224D01*
X917175Y348171D01*
X917080Y348097D01*
X916942Y347992D01*
X916784Y347865D01*
X916583Y347728D01*
X916361Y347580D01*
X916107Y347421D01*
X916097D01*
X916076Y347400D01*
X916044Y347379D01*
X915991Y347358D01*
X915928Y347315D01*
X915854Y347284D01*
X915685Y347189D01*
X915495Y347094D01*
X915283Y346988D01*
X915061Y346893D01*
X914850Y346808D01*
Y347960D01*
X914861Y347971D01*
X914892Y347981D01*
X914945Y348013D01*
X915019Y348045D01*
X915104Y348087D01*
X915209Y348150D01*
X915326Y348214D01*
X915442Y348277D01*
X915716Y348446D01*
X916012Y348647D01*
X916319Y348858D01*
X916604Y349101D01*
X916615Y349112D01*
X916636Y349133D01*
X916678Y349165D01*
X916731Y349217D01*
X916784Y349281D01*
X916858Y349344D01*
X917016Y349524D01*
X917196Y349714D01*
X917375Y349936D01*
X917534Y350168D01*
X917671Y350411D01*
X918443D01*
Y340627D01*
D02*
G37*
G36*
X29416Y636458D02*
X28222D01*
Y644076D01*
X28201Y644055D01*
X28149Y644002D01*
X28053Y643928D01*
X27916Y643822D01*
X27757Y643696D01*
X27557Y643558D01*
X27335Y643410D01*
X27081Y643252D01*
X27071D01*
X27050Y643231D01*
X27018Y643210D01*
X26965Y643189D01*
X26902Y643146D01*
X26828Y643115D01*
X26659Y643019D01*
X26468Y642924D01*
X26257Y642819D01*
X26035Y642724D01*
X25824Y642639D01*
Y643791D01*
X25834Y643801D01*
X25866Y643812D01*
X25919Y643844D01*
X25993Y643875D01*
X26077Y643918D01*
X26183Y643981D01*
X26299Y644044D01*
X26416Y644108D01*
X26690Y644277D01*
X26986Y644478D01*
X27293Y644689D01*
X27578Y644932D01*
X27589Y644943D01*
X27610Y644964D01*
X27652Y644995D01*
X27705Y645048D01*
X27757Y645112D01*
X27831Y645175D01*
X27990Y645355D01*
X28170Y645545D01*
X28349Y645767D01*
X28508Y645999D01*
X28645Y646242D01*
X29416D01*
Y636458D01*
D02*
G37*
G36*
X20530Y646200D02*
X20773Y646189D01*
X21016Y646168D01*
X21249Y646147D01*
X21365Y646137D01*
X21460Y646115D01*
X21470D01*
X21492Y646105D01*
X21534D01*
X21576Y646094D01*
X21640Y646073D01*
X21714Y646063D01*
X21883Y646010D01*
X22073Y645946D01*
X22274Y645862D01*
X22474Y645767D01*
X22664Y645650D01*
X22675D01*
X22686Y645640D01*
X22749Y645587D01*
X22834Y645513D01*
X22950Y645407D01*
X23066Y645281D01*
X23203Y645112D01*
X23330Y644932D01*
X23446Y644710D01*
Y644699D01*
X23457Y644678D01*
X23478Y644647D01*
X23499Y644604D01*
X23520Y644552D01*
X23542Y644478D01*
X23605Y644319D01*
X23658Y644118D01*
X23711Y643896D01*
X23742Y643643D01*
X23753Y643379D01*
Y643368D01*
Y643326D01*
Y643262D01*
X23742Y643167D01*
X23732Y643062D01*
X23711Y642945D01*
X23689Y642808D01*
X23658Y642650D01*
X23616Y642491D01*
X23563Y642322D01*
X23499Y642153D01*
X23415Y641973D01*
X23330Y641794D01*
X23224Y641614D01*
X23098Y641445D01*
X22960Y641276D01*
X22950Y641265D01*
X22918Y641244D01*
X22876Y641202D01*
X22802Y641139D01*
X22717Y641075D01*
X22601Y641001D01*
X22464Y640927D01*
X22305Y640853D01*
X22115Y640769D01*
X21914Y640695D01*
X21671Y640621D01*
X21418Y640557D01*
X21122Y640505D01*
X20805Y640462D01*
X20467Y640431D01*
X20086Y640420D01*
X17593D01*
Y636458D01*
X16303D01*
Y646210D01*
X20319D01*
X20530Y646200D01*
D02*
G37*
G36*
X1241552Y259268D02*
X1240221D01*
X1236438Y269021D01*
X1237844D01*
X1240379Y261931D01*
Y261920D01*
X1240390Y261888D01*
X1240411Y261846D01*
X1240432Y261783D01*
X1240453Y261709D01*
X1240485Y261624D01*
X1240517Y261529D01*
X1240559Y261413D01*
X1240633Y261170D01*
X1240718Y260905D01*
X1240802Y260620D01*
X1240887Y260335D01*
Y260345D01*
X1240897Y260367D01*
X1240908Y260420D01*
X1240929Y260472D01*
X1240950Y260546D01*
X1240971Y260631D01*
X1241003Y260726D01*
X1241035Y260832D01*
X1241109Y261075D01*
X1241204Y261349D01*
X1241309Y261635D01*
X1241415Y261931D01*
X1244046Y269021D01*
X1245356D01*
X1241552Y259268D01*
D02*
G37*
G36*
X1260382D02*
X1259188D01*
Y266886D01*
X1259167Y266865D01*
X1259114Y266812D01*
X1259019Y266738D01*
X1258881Y266632D01*
X1258723Y266506D01*
X1258522Y266368D01*
X1258300Y266220D01*
X1258047Y266062D01*
X1258036D01*
X1258015Y266041D01*
X1257983Y266020D01*
X1257930Y265999D01*
X1257867Y265956D01*
X1257793Y265925D01*
X1257624Y265830D01*
X1257434Y265734D01*
X1257222Y265629D01*
X1257001Y265534D01*
X1256789Y265449D01*
Y266601D01*
X1256800Y266611D01*
X1256831Y266622D01*
X1256884Y266654D01*
X1256958Y266685D01*
X1257043Y266728D01*
X1257148Y266791D01*
X1257265Y266854D01*
X1257381Y266918D01*
X1257656Y267087D01*
X1257952Y267288D01*
X1258258Y267499D01*
X1258543Y267742D01*
X1258554Y267753D01*
X1258575Y267774D01*
X1258617Y267805D01*
X1258670Y267858D01*
X1258723Y267922D01*
X1258797Y267985D01*
X1258955Y268165D01*
X1259135Y268355D01*
X1259314Y268577D01*
X1259473Y268809D01*
X1259610Y269052D01*
X1260382D01*
Y259268D01*
D02*
G37*
G36*
X1251189Y269010D02*
X1251305D01*
X1251443Y268999D01*
X1251601Y268989D01*
X1251918Y268957D01*
X1252246Y268904D01*
X1252563Y268841D01*
X1252700Y268799D01*
X1252837Y268756D01*
X1252848D01*
X1252869Y268746D01*
X1252901Y268725D01*
X1252954Y268704D01*
X1253080Y268640D01*
X1253228Y268545D01*
X1253408Y268418D01*
X1253587Y268249D01*
X1253767Y268059D01*
X1253926Y267826D01*
Y267816D01*
X1253947Y267795D01*
X1253968Y267763D01*
X1253989Y267710D01*
X1254021Y267647D01*
X1254053Y267573D01*
X1254095Y267488D01*
X1254137Y267393D01*
X1254211Y267171D01*
X1254274Y266928D01*
X1254317Y266654D01*
X1254338Y266358D01*
Y266347D01*
Y266315D01*
Y266252D01*
X1254327Y266189D01*
X1254317Y266094D01*
X1254306Y265988D01*
X1254285Y265872D01*
X1254253Y265745D01*
X1254169Y265470D01*
X1254116Y265322D01*
X1254053Y265174D01*
X1253979Y265026D01*
X1253883Y264879D01*
X1253778Y264741D01*
X1253661Y264604D01*
X1253651Y264593D01*
X1253630Y264572D01*
X1253587Y264540D01*
X1253535Y264488D01*
X1253461Y264435D01*
X1253376Y264371D01*
X1253270Y264297D01*
X1253144Y264223D01*
X1253006Y264149D01*
X1252859Y264076D01*
X1252689Y264002D01*
X1252499Y263927D01*
X1252298Y263864D01*
X1252076Y263801D01*
X1251833Y263748D01*
X1251580Y263706D01*
X1251590D01*
X1251601Y263695D01*
X1251665Y263663D01*
X1251759Y263610D01*
X1251876Y263547D01*
X1252003Y263473D01*
X1252129Y263399D01*
X1252256Y263304D01*
X1252362Y263220D01*
X1252372Y263209D01*
X1252383Y263199D01*
X1252415Y263167D01*
X1252457Y263125D01*
X1252510Y263072D01*
X1252573Y263008D01*
X1252710Y262860D01*
X1252869Y262670D01*
X1253049Y262448D01*
X1253239Y262195D01*
X1253429Y261920D01*
X1255120Y259268D01*
X1253503D01*
X1252214Y261297D01*
X1252203Y261307D01*
X1252193Y261339D01*
X1252161Y261381D01*
X1252119Y261444D01*
X1252076Y261518D01*
X1252013Y261603D01*
X1251886Y261793D01*
X1251738Y262015D01*
X1251590Y262237D01*
X1251432Y262448D01*
X1251284Y262638D01*
Y262649D01*
X1251263Y262660D01*
X1251221Y262712D01*
X1251157Y262797D01*
X1251062Y262892D01*
X1250967Y262998D01*
X1250851Y263103D01*
X1250735Y263209D01*
X1250629Y263283D01*
X1250618Y263294D01*
X1250576Y263315D01*
X1250523Y263346D01*
X1250449Y263389D01*
X1250354Y263431D01*
X1250259Y263473D01*
X1250154Y263515D01*
X1250037Y263547D01*
X1250027D01*
X1249995Y263558D01*
X1249942Y263568D01*
X1249868Y263579D01*
X1249762D01*
X1249636Y263589D01*
X1249488Y263600D01*
X1247829D01*
Y259268D01*
X1246540D01*
Y269021D01*
X1251073D01*
X1251189Y269010D01*
D02*
G37*
G36*
X1261034Y126224D02*
X1259840D01*
Y133843D01*
X1259819Y133821D01*
X1259766Y133769D01*
X1259671Y133695D01*
X1259534Y133589D01*
X1259376Y133462D01*
X1259175Y133325D01*
X1258953Y133177D01*
X1258699Y133018D01*
X1258689D01*
X1258668Y132997D01*
X1258636Y132976D01*
X1258583Y132955D01*
X1258520Y132913D01*
X1258446Y132881D01*
X1258277Y132786D01*
X1258086Y132691D01*
X1257875Y132585D01*
X1257653Y132490D01*
X1257442Y132406D01*
Y133557D01*
X1257452Y133568D01*
X1257484Y133578D01*
X1257537Y133610D01*
X1257611Y133642D01*
X1257695Y133684D01*
X1257801Y133748D01*
X1257917Y133811D01*
X1258034Y133874D01*
X1258308Y134043D01*
X1258604Y134244D01*
X1258911Y134455D01*
X1259196Y134698D01*
X1259206Y134709D01*
X1259228Y134730D01*
X1259270Y134762D01*
X1259323Y134815D01*
X1259376Y134878D01*
X1259449Y134942D01*
X1259608Y135121D01*
X1259788Y135311D01*
X1259967Y135533D01*
X1260126Y135766D01*
X1260263Y136009D01*
X1261034D01*
Y126224D01*
D02*
G37*
G36*
X1250838Y136136D02*
X1250965Y136125D01*
X1251102Y136114D01*
X1251250Y136093D01*
X1251419Y136061D01*
X1251609Y136030D01*
X1251799Y135988D01*
X1252000Y135935D01*
X1252212Y135871D01*
X1252423Y135797D01*
X1252634Y135713D01*
X1252835Y135618D01*
X1253046Y135501D01*
X1253057Y135491D01*
X1253099Y135470D01*
X1253152Y135438D01*
X1253226Y135385D01*
X1253321Y135322D01*
X1253416Y135237D01*
X1253532Y135142D01*
X1253659Y135037D01*
X1253796Y134910D01*
X1253934Y134783D01*
X1254071Y134635D01*
X1254209Y134476D01*
X1254335Y134297D01*
X1254473Y134117D01*
X1254589Y133917D01*
X1254705Y133705D01*
X1254716Y133695D01*
X1254726Y133652D01*
X1254758Y133589D01*
X1254790Y133504D01*
X1254843Y133399D01*
X1254885Y133261D01*
X1254938Y133113D01*
X1254990Y132944D01*
X1255043Y132765D01*
X1255096Y132564D01*
X1255149Y132353D01*
X1255191Y132120D01*
X1255223Y131888D01*
X1255255Y131634D01*
X1255265Y131370D01*
X1255276Y131106D01*
Y131095D01*
Y131053D01*
Y130990D01*
X1255265Y130905D01*
Y130799D01*
X1255255Y130673D01*
X1255244Y130535D01*
X1255234Y130387D01*
X1255212Y130218D01*
X1255181Y130049D01*
X1255117Y129679D01*
X1255033Y129310D01*
X1254906Y128940D01*
Y128929D01*
X1254885Y128897D01*
X1254864Y128845D01*
X1254832Y128781D01*
X1254800Y128697D01*
X1254747Y128602D01*
X1254695Y128485D01*
X1254631Y128369D01*
X1254473Y128105D01*
X1254283Y127830D01*
X1254061Y127545D01*
X1253796Y127270D01*
X1253807Y127260D01*
X1253839Y127239D01*
X1253881Y127207D01*
X1253955Y127165D01*
X1254029Y127122D01*
X1254124Y127059D01*
X1254230Y126995D01*
X1254346Y126922D01*
X1254600Y126774D01*
X1254885Y126626D01*
X1255181Y126478D01*
X1255466Y126362D01*
X1255075Y125474D01*
X1255064D01*
X1255033Y125495D01*
X1254969Y125516D01*
X1254895Y125548D01*
X1254800Y125590D01*
X1254684Y125632D01*
X1254557Y125696D01*
X1254420Y125770D01*
X1254272Y125844D01*
X1254103Y125928D01*
X1253754Y126129D01*
X1253374Y126372D01*
X1252983Y126657D01*
X1252972Y126647D01*
X1252930Y126636D01*
X1252877Y126605D01*
X1252793Y126562D01*
X1252687Y126520D01*
X1252571Y126467D01*
X1252433Y126414D01*
X1252275Y126362D01*
X1252106Y126309D01*
X1251916Y126256D01*
X1251725Y126203D01*
X1251514Y126161D01*
X1251060Y126087D01*
X1250827Y126076D01*
X1250584Y126066D01*
X1250457D01*
X1250362Y126076D01*
X1250246Y126087D01*
X1250109Y126097D01*
X1249961Y126118D01*
X1249792Y126150D01*
X1249612Y126182D01*
X1249422Y126224D01*
X1249221Y126277D01*
X1249020Y126330D01*
X1248809Y126404D01*
X1248598Y126488D01*
X1248386Y126583D01*
X1248186Y126700D01*
X1248175Y126710D01*
X1248143Y126731D01*
X1248080Y126763D01*
X1248006Y126816D01*
X1247922Y126879D01*
X1247816Y126964D01*
X1247700Y127059D01*
X1247573Y127165D01*
X1247446Y127281D01*
X1247309Y127418D01*
X1247171Y127566D01*
X1247034Y127725D01*
X1246897Y127894D01*
X1246770Y128073D01*
X1246643Y128274D01*
X1246527Y128485D01*
X1246516Y128496D01*
X1246506Y128538D01*
X1246474Y128602D01*
X1246432Y128686D01*
X1246389Y128802D01*
X1246347Y128929D01*
X1246294Y129077D01*
X1246241Y129246D01*
X1246178Y129436D01*
X1246125Y129637D01*
X1246083Y129848D01*
X1246041Y130081D01*
X1245998Y130313D01*
X1245967Y130567D01*
X1245956Y130831D01*
X1245946Y131095D01*
Y131116D01*
Y131159D01*
Y131233D01*
X1245956Y131338D01*
X1245967Y131465D01*
X1245977Y131613D01*
X1245998Y131782D01*
X1246020Y131972D01*
X1246051Y132163D01*
X1246083Y132374D01*
X1246189Y132818D01*
X1246263Y133040D01*
X1246337Y133272D01*
X1246421Y133504D01*
X1246527Y133726D01*
X1246537Y133737D01*
X1246558Y133779D01*
X1246590Y133843D01*
X1246632Y133917D01*
X1246696Y134022D01*
X1246770Y134138D01*
X1246854Y134255D01*
X1246949Y134392D01*
X1247066Y134540D01*
X1247192Y134688D01*
X1247319Y134836D01*
X1247467Y134984D01*
X1247636Y135132D01*
X1247805Y135269D01*
X1247985Y135406D01*
X1248186Y135523D01*
X1248196Y135533D01*
X1248239Y135554D01*
X1248291Y135575D01*
X1248376Y135618D01*
X1248482Y135670D01*
X1248598Y135723D01*
X1248746Y135776D01*
X1248894Y135840D01*
X1249073Y135892D01*
X1249253Y135945D01*
X1249454Y135998D01*
X1249676Y136051D01*
X1249897Y136093D01*
X1250130Y136114D01*
X1250373Y136136D01*
X1250616Y136146D01*
X1250743D01*
X1250838Y136136D01*
D02*
G37*
G36*
X807775Y38281D02*
X806577D01*
Y45908D01*
X806563Y45894D01*
X806492Y45837D01*
X806408Y45753D01*
X806267Y45654D01*
X806112Y45527D01*
X805914Y45386D01*
X805689Y45231D01*
X805435Y45076D01*
X805421D01*
X805407Y45062D01*
X805322Y45006D01*
X805181Y44935D01*
X805012Y44851D01*
X804815Y44752D01*
X804603Y44653D01*
X804392Y44555D01*
X804181Y44470D01*
Y45626D01*
X804195D01*
X804223Y45654D01*
X804279Y45668D01*
X804350Y45710D01*
X804434Y45753D01*
X804533Y45809D01*
X804773Y45950D01*
X805054Y46105D01*
X805337Y46302D01*
X805632Y46528D01*
X805928Y46768D01*
X805943Y46782D01*
X805957Y46796D01*
X805999Y46838D01*
X806055Y46880D01*
X806182Y47021D01*
X806351Y47191D01*
X806521Y47388D01*
X806704Y47614D01*
X806859Y47839D01*
X807000Y48079D01*
X807775D01*
Y38281D01*
D02*
G37*
G36*
X797921Y48022D02*
X798203Y48008D01*
X798485Y47980D01*
X798767Y47938D01*
X799007Y47895D01*
X799021D01*
X799049Y47881D01*
X799091D01*
X799148Y47853D01*
X799303Y47811D01*
X799500Y47740D01*
X799726Y47642D01*
X799966Y47515D01*
X800205Y47374D01*
X800431Y47191D01*
X800445Y47176D01*
X800459Y47162D01*
X800501Y47120D01*
X800558Y47078D01*
X800699Y46937D01*
X800868Y46740D01*
X801051Y46500D01*
X801248Y46218D01*
X801432Y45894D01*
X801587Y45527D01*
Y45513D01*
X801601Y45485D01*
X801629Y45429D01*
X801643Y45344D01*
X801685Y45245D01*
X801713Y45132D01*
X801742Y45006D01*
X801784Y44851D01*
X801826Y44695D01*
X801854Y44512D01*
X801925Y44117D01*
X801967Y43681D01*
X801981Y43201D01*
Y43187D01*
Y43159D01*
Y43088D01*
Y43018D01*
X801967Y42919D01*
Y42806D01*
X801953Y42539D01*
X801911Y42228D01*
X801869Y41904D01*
X801798Y41566D01*
X801713Y41228D01*
Y41213D01*
X801699Y41185D01*
X801685Y41143D01*
X801671Y41087D01*
X801615Y40932D01*
X801530Y40734D01*
X801446Y40509D01*
X801333Y40283D01*
X801192Y40043D01*
X801051Y39818D01*
X801037Y39790D01*
X800981Y39719D01*
X800896Y39620D01*
X800783Y39494D01*
X800656Y39353D01*
X800501Y39212D01*
X800346Y39057D01*
X800163Y38930D01*
X800135Y38916D01*
X800078Y38873D01*
X799980Y38817D01*
X799839Y38747D01*
X799669Y38662D01*
X799472Y38591D01*
X799247Y38507D01*
X798993Y38436D01*
X798965D01*
X798922Y38422D01*
X798880Y38408D01*
X798739Y38394D01*
X798542Y38366D01*
X798316Y38338D01*
X798048Y38310D01*
X797752Y38295D01*
X797428Y38281D01*
X793918D01*
Y48036D01*
X797668D01*
X797921Y48022D01*
D02*
G37*
G36*
X791902Y46880D02*
X786136D01*
Y43906D01*
X791535D01*
Y42750D01*
X786136D01*
Y39437D01*
X792128D01*
Y38281D01*
X784839D01*
Y48036D01*
X791902D01*
Y46880D01*
D02*
G37*
G36*
X778482Y39437D02*
X783289D01*
Y38281D01*
X777185D01*
Y48036D01*
X778482D01*
Y39437D01*
D02*
G37*
G36*
X412744Y437707D02*
Y437693D01*
Y437651D01*
Y437594D01*
Y437510D01*
X412730Y437397D01*
Y437284D01*
X412702Y437016D01*
X412674Y436706D01*
X412617Y436382D01*
X412533Y436086D01*
X412434Y435804D01*
Y435790D01*
X412420Y435776D01*
X412378Y435691D01*
X412307Y435579D01*
X412209Y435424D01*
X412068Y435268D01*
X411912Y435099D01*
X411715Y434930D01*
X411490Y434789D01*
X411461Y434775D01*
X411377Y434733D01*
X411250Y434676D01*
X411067Y434620D01*
X410841Y434549D01*
X410587Y434493D01*
X410305Y434451D01*
X409995Y434437D01*
X409868D01*
X409784Y434451D01*
X409671Y434465D01*
X409558Y434479D01*
X409262Y434535D01*
X408952Y434620D01*
X408628Y434747D01*
X408459Y434831D01*
X408304Y434930D01*
X408163Y435043D01*
X408022Y435170D01*
X408008Y435184D01*
X407994Y435198D01*
X407965Y435254D01*
X407923Y435311D01*
X407867Y435381D01*
X407810Y435480D01*
X407754Y435593D01*
X407683Y435720D01*
X407627Y435860D01*
X407571Y436030D01*
X407514Y436199D01*
X407458Y436396D01*
X407430Y436608D01*
X407387Y436847D01*
X407373Y437087D01*
Y437355D01*
X408543Y437524D01*
Y437510D01*
Y437482D01*
Y437425D01*
X408557Y437341D01*
X408572Y437256D01*
Y437157D01*
X408614Y436918D01*
X408656Y436664D01*
X408741Y436410D01*
X408825Y436185D01*
X408882Y436086D01*
X408952Y436002D01*
X408966Y435987D01*
X409023Y435945D01*
X409107Y435875D01*
X409220Y435804D01*
X409375Y435720D01*
X409544Y435663D01*
X409756Y435607D01*
X409981Y435593D01*
X410066D01*
X410150Y435607D01*
X410277Y435621D01*
X410404Y435649D01*
X410545Y435677D01*
X410686Y435734D01*
X410827Y435804D01*
X410841Y435818D01*
X410883Y435846D01*
X410940Y435903D01*
X411024Y435959D01*
X411095Y436058D01*
X411180Y436157D01*
X411250Y436269D01*
X411306Y436410D01*
Y436424D01*
X411334Y436481D01*
X411349Y436580D01*
X411377Y436706D01*
X411405Y436875D01*
X411419Y437087D01*
X411447Y437341D01*
Y437637D01*
Y444361D01*
X412744D01*
Y437707D01*
D02*
G37*
G36*
X417833Y444389D02*
X417946Y444375D01*
X418087Y444361D01*
X418242Y444333D01*
X418397Y444305D01*
X418764Y444206D01*
X419130Y444065D01*
X419313Y443980D01*
X419497Y443882D01*
X419666Y443755D01*
X419821Y443614D01*
X419835Y443600D01*
X419863Y443586D01*
X419891Y443529D01*
X419948Y443473D01*
X420018Y443402D01*
X420089Y443304D01*
X420159Y443205D01*
X420244Y443078D01*
X420385Y442810D01*
X420526Y442472D01*
X420582Y442303D01*
X420610Y442105D01*
X420639Y441908D01*
X420653Y441697D01*
Y441669D01*
Y441598D01*
X420639Y441485D01*
X420625Y441330D01*
X420596Y441161D01*
X420540Y440964D01*
X420484Y440752D01*
X420399Y440541D01*
X420385Y440513D01*
X420357Y440442D01*
X420300Y440329D01*
X420216Y440174D01*
X420103Y440005D01*
X419962Y439794D01*
X419793Y439582D01*
X419595Y439342D01*
X419567Y439314D01*
X419497Y439230D01*
X419426Y439159D01*
X419356Y439089D01*
X419271Y439004D01*
X419158Y438891D01*
X419046Y438779D01*
X418905Y438652D01*
X418764Y438511D01*
X418595Y438356D01*
X418411Y438201D01*
X418214Y438017D01*
X417988Y437834D01*
X417763Y437637D01*
X417749Y437623D01*
X417720Y437594D01*
X417664Y437552D01*
X417594Y437496D01*
X417509Y437411D01*
X417410Y437327D01*
X417185Y437143D01*
X416945Y436932D01*
X416720Y436720D01*
X416522Y436537D01*
X416438Y436467D01*
X416367Y436396D01*
X416353Y436382D01*
X416311Y436340D01*
X416254Y436283D01*
X416184Y436199D01*
X416113Y436100D01*
X416029Y436002D01*
X415860Y435762D01*
X420667D01*
Y434606D01*
X414196D01*
Y434620D01*
Y434676D01*
Y434761D01*
X414210Y434874D01*
X414224Y435001D01*
X414253Y435142D01*
X414281Y435283D01*
X414337Y435438D01*
Y435452D01*
X414351Y435466D01*
X414380Y435550D01*
X414436Y435677D01*
X414520Y435846D01*
X414633Y436044D01*
X414774Y436269D01*
X414929Y436495D01*
X415127Y436735D01*
Y436749D01*
X415155Y436763D01*
X415225Y436847D01*
X415352Y436974D01*
X415535Y437157D01*
X415747Y437369D01*
X416015Y437623D01*
X416339Y437905D01*
X416691Y438201D01*
X416706Y438215D01*
X416762Y438257D01*
X416847Y438327D01*
X416945Y438412D01*
X417072Y438525D01*
X417227Y438652D01*
X417382Y438793D01*
X417565Y438948D01*
X417918Y439286D01*
X418270Y439624D01*
X418439Y439794D01*
X418595Y439963D01*
X418736Y440118D01*
X418848Y440273D01*
Y440287D01*
X418876Y440301D01*
X418905Y440343D01*
X418933Y440400D01*
X419031Y440555D01*
X419144Y440738D01*
X419243Y440964D01*
X419342Y441203D01*
X419398Y441471D01*
X419426Y441725D01*
Y441739D01*
Y441753D01*
X419412Y441838D01*
X419398Y441979D01*
X419356Y442134D01*
X419299Y442331D01*
X419201Y442528D01*
X419074Y442726D01*
X418905Y442923D01*
X418876Y442951D01*
X418806Y443008D01*
X418707Y443078D01*
X418552Y443177D01*
X418355Y443261D01*
X418129Y443346D01*
X417861Y443402D01*
X417565Y443416D01*
X417481D01*
X417424Y443402D01*
X417255Y443388D01*
X417058Y443346D01*
X416847Y443290D01*
X416607Y443191D01*
X416381Y443064D01*
X416170Y442895D01*
X416142Y442867D01*
X416085Y442796D01*
X416001Y442683D01*
X415916Y442514D01*
X415817Y442317D01*
X415733Y442063D01*
X415676Y441781D01*
X415648Y441457D01*
X414422Y441584D01*
Y441598D01*
X414436Y441640D01*
Y441711D01*
X414450Y441810D01*
X414478Y441922D01*
X414506Y442049D01*
X414549Y442204D01*
X414591Y442359D01*
X414704Y442698D01*
X414873Y443036D01*
X414972Y443205D01*
X415098Y443374D01*
X415225Y443529D01*
X415366Y443670D01*
X415380Y443684D01*
X415409Y443699D01*
X415451Y443741D01*
X415521Y443783D01*
X415606Y443839D01*
X415705Y443896D01*
X415817Y443966D01*
X415958Y444037D01*
X416113Y444107D01*
X416283Y444178D01*
X416466Y444234D01*
X416663Y444291D01*
X416875Y444333D01*
X417100Y444375D01*
X417340Y444389D01*
X417594Y444403D01*
X417735D01*
X417833Y444389D01*
D02*
G37*
%LPC*%
G36*
X816852Y242962D02*
X813779Y238592D01*
X816852D01*
Y242962D01*
D02*
G37*
G36*
X808055Y243822D02*
X804982D01*
Y240594D01*
X807886D01*
X808055Y240608D01*
X808252Y240622D01*
X808478Y240636D01*
X808704Y240664D01*
X808929Y240707D01*
X809127Y240763D01*
X809155Y240777D01*
X809211Y240805D01*
X809296Y240848D01*
X809408Y240904D01*
X809535Y240989D01*
X809662Y241087D01*
X809789Y241214D01*
X809888Y241355D01*
X809902Y241369D01*
X809930Y241426D01*
X809972Y241510D01*
X810029Y241623D01*
X810071Y241750D01*
X810113Y241891D01*
X810142Y242060D01*
X810156Y242229D01*
Y242243D01*
Y242257D01*
X810142Y242342D01*
X810127Y242469D01*
X810099Y242638D01*
X810029Y242807D01*
X809944Y243004D01*
X809817Y243188D01*
X809648Y243371D01*
X809620Y243385D01*
X809549Y243442D01*
X809437Y243512D01*
X809253Y243596D01*
X809042Y243681D01*
X808760Y243752D01*
X808436Y243808D01*
X808055Y243822D01*
D02*
G37*
G36*
X651188Y526040D02*
X651114D01*
X651061Y526030D01*
X650998Y526019D01*
X650913Y525998D01*
X650734Y525956D01*
X650522Y525861D01*
X650417Y525808D01*
X650301Y525734D01*
X650184Y525660D01*
X650068Y525554D01*
X649952Y525449D01*
X649836Y525322D01*
X649825Y525311D01*
X649815Y525290D01*
X649783Y525248D01*
X649741Y525185D01*
X649698Y525111D01*
X649656Y525026D01*
X649603Y524921D01*
X649550Y524794D01*
X649487Y524656D01*
X649434Y524498D01*
X649392Y524329D01*
X649350Y524139D01*
X649307Y523938D01*
X649276Y523727D01*
X649265Y523494D01*
X649255Y523240D01*
Y523230D01*
Y523177D01*
Y523114D01*
X649265Y523018D01*
X649276Y522902D01*
X649286Y522775D01*
X649297Y522628D01*
X649328Y522480D01*
X649392Y522152D01*
X649487Y521814D01*
X649550Y521655D01*
X649624Y521497D01*
X649709Y521349D01*
X649804Y521222D01*
X649815Y521212D01*
X649825Y521190D01*
X649857Y521159D01*
X649899Y521127D01*
X649952Y521074D01*
X650015Y521021D01*
X650174Y520905D01*
X650375Y520778D01*
X650596Y520683D01*
X650723Y520641D01*
X650850Y520609D01*
X650987Y520588D01*
X651135Y520578D01*
X651209D01*
X651273Y520588D01*
X651336Y520599D01*
X651421Y520609D01*
X651611Y520662D01*
X651822Y520736D01*
X651938Y520800D01*
X652055Y520863D01*
X652171Y520937D01*
X652287Y521021D01*
X652403Y521127D01*
X652509Y521243D01*
X652520Y521254D01*
X652530Y521275D01*
X652562Y521317D01*
X652594Y521370D01*
X652646Y521444D01*
X652689Y521529D01*
X652741Y521634D01*
X652794Y521761D01*
X652847Y521898D01*
X652900Y522046D01*
X652953Y522226D01*
X652995Y522416D01*
X653027Y522617D01*
X653058Y522839D01*
X653069Y523082D01*
X653080Y523335D01*
Y523346D01*
Y523399D01*
Y523462D01*
X653069Y523557D01*
X653058Y523674D01*
X653048Y523800D01*
X653037Y523938D01*
X653006Y524096D01*
X652942Y524424D01*
X652847Y524762D01*
X652784Y524931D01*
X652710Y525079D01*
X652615Y525227D01*
X652520Y525364D01*
X652509Y525375D01*
X652498Y525396D01*
X652467Y525428D01*
X652424Y525470D01*
X652372Y525523D01*
X652298Y525576D01*
X652139Y525702D01*
X651949Y525829D01*
X651727Y525935D01*
X651600Y525977D01*
X651463Y526009D01*
X651326Y526030D01*
X651188Y526040D01*
D02*
G37*
G36*
X680457Y527583D02*
X677382Y523188D01*
X680457D01*
Y527583D01*
D02*
G37*
G36*
X663297Y523304D02*
X663287D01*
X663266Y523293D01*
X663223Y523283D01*
X663170Y523261D01*
X663107Y523230D01*
X663023Y523209D01*
X662917Y523177D01*
X662811Y523145D01*
X662674Y523114D01*
X662526Y523071D01*
X662367Y523040D01*
X662188Y522997D01*
X661998Y522955D01*
X661797Y522923D01*
X661575Y522881D01*
X661332Y522849D01*
X661300D01*
X661258Y522839D01*
X661216Y522828D01*
X661078Y522807D01*
X660920Y522775D01*
X660751Y522744D01*
X660582Y522701D01*
X660423Y522659D01*
X660286Y522606D01*
X660275Y522596D01*
X660233Y522585D01*
X660180Y522554D01*
X660117Y522511D01*
X660032Y522448D01*
X659958Y522384D01*
X659884Y522311D01*
X659810Y522215D01*
X659800Y522205D01*
X659789Y522173D01*
X659758Y522120D01*
X659736Y522046D01*
X659705Y521962D01*
X659673Y521867D01*
X659662Y521761D01*
X659652Y521645D01*
Y521624D01*
X659662Y521571D01*
X659673Y521476D01*
X659694Y521370D01*
X659736Y521243D01*
X659800Y521106D01*
X659895Y520979D01*
X660011Y520852D01*
X660032Y520842D01*
X660074Y520800D01*
X660159Y520757D01*
X660275Y520694D01*
X660423Y520641D01*
X660613Y520588D01*
X660825Y520546D01*
X661068Y520535D01*
X661184D01*
X661247Y520546D01*
X661321Y520556D01*
X661480Y520578D01*
X661681Y520609D01*
X661881Y520662D01*
X662093Y520736D01*
X662304Y520831D01*
X662315D01*
X662325Y520842D01*
X662389Y520884D01*
X662484Y520958D01*
X662610Y521053D01*
X662737Y521169D01*
X662864Y521317D01*
X662991Y521476D01*
X663096Y521666D01*
X663107Y521687D01*
X663128Y521740D01*
X663160Y521835D01*
X663192Y521962D01*
X663223Y522131D01*
X663255Y522342D01*
X663276Y522585D01*
X663287Y522860D01*
X663297Y523304D01*
D02*
G37*
G36*
X632190Y528354D02*
X629939D01*
Y520905D01*
X632179D01*
X632264Y520916D01*
X632359D01*
X632570Y520926D01*
X632813Y520947D01*
X633067Y520979D01*
X633310Y521021D01*
X633532Y521074D01*
X633542D01*
X633553Y521085D01*
X633585Y521095D01*
X633627Y521106D01*
X633722Y521148D01*
X633849Y521201D01*
X633986Y521275D01*
X634134Y521360D01*
X634282Y521465D01*
X634409Y521581D01*
X634419Y521592D01*
X634430Y521603D01*
X634483Y521666D01*
X634567Y521772D01*
X634673Y521909D01*
X634779Y522089D01*
X634895Y522300D01*
X635011Y522543D01*
X635117Y522818D01*
Y522828D01*
X635127Y522849D01*
X635138Y522892D01*
X635159Y522955D01*
X635180Y523029D01*
X635201Y523124D01*
X635222Y523230D01*
X635254Y523346D01*
X635275Y523473D01*
X635296Y523621D01*
X635317Y523769D01*
X635339Y523938D01*
X635370Y524297D01*
X635381Y524699D01*
Y524720D01*
Y524762D01*
Y524846D01*
X635370Y524952D01*
Y525079D01*
X635360Y525227D01*
X635339Y525385D01*
X635317Y525565D01*
X635254Y525945D01*
X635169Y526336D01*
X635043Y526706D01*
X634958Y526886D01*
X634874Y527044D01*
X634863Y527055D01*
X634852Y527076D01*
X634821Y527118D01*
X634779Y527182D01*
X634736Y527245D01*
X634673Y527319D01*
X634535Y527488D01*
X634356Y527678D01*
X634145Y527858D01*
X633912Y528027D01*
X633785Y528090D01*
X633648Y528154D01*
X633637D01*
X633627Y528164D01*
X633595Y528175D01*
X633553Y528186D01*
X633489Y528196D01*
X633426Y528217D01*
X633341Y528238D01*
X633246Y528259D01*
X633141Y528270D01*
X633014Y528291D01*
X632877Y528312D01*
X632729Y528323D01*
X632560Y528333D01*
X632380Y528344D01*
X632190Y528354D01*
D02*
G37*
G36*
X578649Y146044D02*
X578635D01*
X578607D01*
X578550D01*
X578480Y146030D01*
X578381D01*
X578283Y146016D01*
X578057Y145973D01*
X577789Y145917D01*
X577507Y145818D01*
X577239Y145677D01*
X577000Y145494D01*
X576986D01*
X576972Y145466D01*
X576901Y145395D01*
X576802Y145283D01*
X576689Y145127D01*
X576591Y144930D01*
X576492Y144705D01*
X576422Y144451D01*
X576394Y144310D01*
Y144084D01*
X576408Y144028D01*
X576422Y143873D01*
X576478Y143690D01*
X576549Y143464D01*
X576675Y143224D01*
X576830Y142985D01*
X576943Y142872D01*
X577056Y142759D01*
X577070D01*
X577084Y142731D01*
X577127Y142703D01*
X577169Y142675D01*
X577310Y142576D01*
X577507Y142477D01*
X577747Y142365D01*
X578043Y142266D01*
X578381Y142210D01*
X578748Y142181D01*
X578762D01*
X578790D01*
X578832D01*
X578903Y142195D01*
X578987D01*
X579072Y142210D01*
X579283Y142252D01*
X579523Y142322D01*
X579777Y142407D01*
X580031Y142548D01*
X580256Y142731D01*
X580284Y142759D01*
X580341Y142830D01*
X580439Y142957D01*
X580538Y143112D01*
X580651Y143323D01*
X580750Y143563D01*
X580806Y143831D01*
X580834Y144127D01*
Y144211D01*
X580820Y144268D01*
X580806Y144423D01*
X580764Y144606D01*
X580693Y144831D01*
X580594Y145057D01*
X580453Y145283D01*
X580256Y145494D01*
X580228Y145522D01*
X580143Y145579D01*
X580016Y145663D01*
X579833Y145776D01*
X579608Y145875D01*
X579340Y145959D01*
X579016Y146016D01*
X578649Y146044D01*
D02*
G37*
G36*
X578127Y138093D02*
X578113D01*
X578099D01*
X578015Y138079D01*
X577888Y138065D01*
X577719Y138037D01*
X577549Y137966D01*
X577352Y137882D01*
X577169Y137755D01*
X576986Y137586D01*
X576972Y137557D01*
X576915Y137487D01*
X576845Y137374D01*
X576760Y137191D01*
X576675Y136980D01*
X576605Y136698D01*
X576549Y136373D01*
X576535Y135993D01*
Y132920D01*
X579763D01*
Y135823D01*
X579749Y135993D01*
X579734Y136190D01*
X579720Y136416D01*
X579692Y136641D01*
X579650Y136867D01*
X579594Y137064D01*
X579579Y137092D01*
X579551Y137149D01*
X579509Y137233D01*
X579453Y137346D01*
X579368Y137473D01*
X579269Y137600D01*
X579142Y137727D01*
X579001Y137825D01*
X578987Y137839D01*
X578931Y137868D01*
X578846Y137910D01*
X578734Y137966D01*
X578607Y138009D01*
X578466Y138051D01*
X578297Y138079D01*
X578127Y138093D01*
D02*
G37*
G36*
X594722Y134187D02*
X594708D01*
X594694D01*
X594609Y134173D01*
X594482Y134159D01*
X594313Y134130D01*
X594144Y134060D01*
X593947Y133975D01*
X593763Y133848D01*
X593580Y133679D01*
X593566Y133651D01*
X593510Y133581D01*
X593439Y133468D01*
X593355Y133285D01*
X593270Y133073D01*
X593200Y132791D01*
X593143Y132467D01*
X593129Y132086D01*
Y129013D01*
X596357D01*
Y131917D01*
X596343Y132086D01*
X596329Y132284D01*
X596315Y132509D01*
X596287Y132735D01*
X596245Y132960D01*
X596188Y133158D01*
X596174Y133186D01*
X596146Y133242D01*
X596104Y133327D01*
X596047Y133440D01*
X595962Y133567D01*
X595864Y133693D01*
X595737Y133820D01*
X595596Y133919D01*
X595582Y133933D01*
X595526Y133961D01*
X595441Y134003D01*
X595328Y134060D01*
X595201Y134102D01*
X595060Y134144D01*
X594891Y134173D01*
X594722Y134187D01*
D02*
G37*
G36*
X644252Y137102D02*
X644238D01*
X644224D01*
X644139Y137088D01*
X644012Y137073D01*
X643843Y137045D01*
X643674Y136975D01*
X643477Y136890D01*
X643293Y136763D01*
X643110Y136594D01*
X643096Y136566D01*
X643040Y136496D01*
X642969Y136383D01*
X642885Y136199D01*
X642800Y135988D01*
X642729Y135706D01*
X642673Y135382D01*
X642659Y135001D01*
Y131928D01*
X645887D01*
Y134832D01*
X645873Y135001D01*
X645859Y135199D01*
X645845Y135424D01*
X645817Y135650D01*
X645775Y135875D01*
X645718Y136073D01*
X645704Y136101D01*
X645676Y136157D01*
X645633Y136242D01*
X645577Y136355D01*
X645492Y136481D01*
X645394Y136608D01*
X645267Y136735D01*
X645126Y136834D01*
X645112Y136848D01*
X645055Y136876D01*
X644971Y136918D01*
X644858Y136975D01*
X644731Y137017D01*
X644590Y137059D01*
X644421Y137088D01*
X644252Y137102D01*
D02*
G37*
G36*
X615124Y150880D02*
X614687D01*
X614673D01*
X614659D01*
X614588D01*
X614462D01*
X614292Y150866D01*
X614109D01*
X613884Y150851D01*
X613644Y150837D01*
X613376Y150809D01*
X612840Y150739D01*
X612573Y150696D01*
X612319Y150640D01*
X612079Y150584D01*
X611853Y150499D01*
X611656Y150414D01*
X611487Y150316D01*
X611473D01*
X611459Y150288D01*
X611417Y150259D01*
X611360Y150217D01*
X611233Y150090D01*
X611078Y149935D01*
X610937Y149724D01*
X610810Y149484D01*
X610754Y149357D01*
X610712Y149216D01*
X610698Y149061D01*
X610684Y148906D01*
Y148821D01*
X610698Y148765D01*
X610726Y148610D01*
X610768Y148427D01*
X610853Y148215D01*
X610979Y147990D01*
X611064Y147877D01*
X611149Y147764D01*
X611261Y147666D01*
X611388Y147567D01*
X611402D01*
X611431Y147539D01*
X611487Y147510D01*
X611558Y147468D01*
X611670Y147426D01*
X611797Y147369D01*
X611952Y147327D01*
X612136Y147271D01*
X612347Y147214D01*
X612587Y147158D01*
X612854Y147102D01*
X613150Y147059D01*
X613489Y147017D01*
X613855Y146989D01*
X614250Y146975D01*
X614687Y146961D01*
X614715D01*
X614786D01*
X614913D01*
X615082Y146975D01*
X615265D01*
X615491Y146989D01*
X615730Y147003D01*
X615984Y147031D01*
X616534Y147102D01*
X616802Y147144D01*
X617055Y147200D01*
X617295Y147257D01*
X617520Y147341D01*
X617718Y147426D01*
X617887Y147525D01*
X617901D01*
X617915Y147553D01*
X618014Y147623D01*
X618141Y147750D01*
X618282Y147905D01*
X618423Y148117D01*
X618550Y148356D01*
X618648Y148624D01*
X618662Y148765D01*
X618676Y148920D01*
Y149005D01*
X618662Y149061D01*
X618634Y149202D01*
X618578Y149399D01*
X618479Y149611D01*
X618338Y149851D01*
X618254Y149963D01*
X618141Y150076D01*
X618028Y150189D01*
X617887Y150302D01*
X617873D01*
X617845Y150330D01*
X617803Y150358D01*
X617732Y150386D01*
X617633Y150443D01*
X617506Y150485D01*
X617365Y150541D01*
X617196Y150598D01*
X616985Y150640D01*
X616759Y150696D01*
X616492Y150753D01*
X616209Y150795D01*
X615871Y150823D01*
X615519Y150851D01*
X615124Y150880D01*
D02*
G37*
G36*
X612417Y135288D02*
X612403D01*
X612389D01*
X612305Y135274D01*
X612178Y135260D01*
X612009Y135232D01*
X611839Y135162D01*
X611642Y135077D01*
X611459Y134950D01*
X611276Y134781D01*
X611261Y134753D01*
X611205Y134682D01*
X611135Y134570D01*
X611050Y134386D01*
X610965Y134175D01*
X610895Y133893D01*
X610839Y133569D01*
X610825Y133188D01*
Y130115D01*
X614053D01*
Y133019D01*
X614039Y133188D01*
X614025Y133385D01*
X614010Y133611D01*
X613982Y133836D01*
X613940Y134062D01*
X613884Y134259D01*
X613869Y134288D01*
X613841Y134344D01*
X613799Y134429D01*
X613742Y134541D01*
X613658Y134668D01*
X613559Y134795D01*
X613432Y134922D01*
X613291Y135021D01*
X613277Y135035D01*
X613221Y135063D01*
X613136Y135105D01*
X613024Y135162D01*
X612897Y135204D01*
X612756Y135246D01*
X612587Y135274D01*
X612417Y135288D01*
D02*
G37*
G36*
X766134Y397556D02*
X763058D01*
Y394332D01*
X765971D01*
X766134Y394346D01*
X766327Y394361D01*
X766550Y394376D01*
X766788Y394406D01*
X767011Y394450D01*
X767204Y394510D01*
X767234Y394525D01*
X767293Y394539D01*
X767382Y394584D01*
X767486Y394644D01*
X767605Y394733D01*
X767739Y394837D01*
X767858Y394956D01*
X767962Y395089D01*
X767977Y395104D01*
X768007Y395164D01*
X768051Y395238D01*
X768096Y395357D01*
X768140Y395476D01*
X768185Y395624D01*
X768214Y395788D01*
X768229Y395966D01*
Y395981D01*
Y395996D01*
Y396085D01*
X768200Y396204D01*
X768170Y396367D01*
X768111Y396545D01*
X768021Y396739D01*
X767888Y396932D01*
X767724Y397110D01*
X767694Y397125D01*
X767635Y397184D01*
X767501Y397259D01*
X767338Y397333D01*
X767115Y397422D01*
X766848Y397482D01*
X766521Y397541D01*
X766134Y397556D01*
D02*
G37*
G36*
X781870Y397705D02*
X781751D01*
X781632Y397675D01*
X781469Y397645D01*
X781290Y397601D01*
X781097Y397511D01*
X780904Y397407D01*
X780726Y397259D01*
X780711Y397244D01*
X780651Y397184D01*
X780592Y397080D01*
X780503Y396962D01*
X780429Y396813D01*
X780354Y396620D01*
X780295Y396427D01*
X780280Y396204D01*
Y396174D01*
Y396085D01*
X780310Y395966D01*
X780339Y395803D01*
X780384Y395624D01*
X780458Y395446D01*
X780562Y395253D01*
X780711Y395075D01*
X780726Y395060D01*
X780785Y395015D01*
X780889Y394941D01*
X781023Y394866D01*
X781186Y394777D01*
X781394Y394718D01*
X781617Y394658D01*
X781870Y394644D01*
X781989D01*
X782108Y394673D01*
X782271Y394703D01*
X782449Y394748D01*
X782643Y394822D01*
X782836Y394926D01*
X783014Y395075D01*
X783029Y395089D01*
X783088Y395149D01*
X783163Y395238D01*
X783237Y395372D01*
X783326Y395520D01*
X783385Y395713D01*
X783445Y395921D01*
X783460Y396144D01*
Y396159D01*
Y396174D01*
Y396248D01*
X783430Y396382D01*
X783400Y396531D01*
X783341Y396694D01*
X783267Y396887D01*
X783148Y397066D01*
X782999Y397244D01*
X782984Y397259D01*
X782925Y397318D01*
X782821Y397393D01*
X782687Y397482D01*
X782524Y397556D01*
X782330Y397630D01*
X782122Y397690D01*
X781870Y397705D01*
D02*
G37*
G36*
X781840Y393663D02*
X781766D01*
X781706Y393648D01*
X781543Y393633D01*
X781350Y393589D01*
X781127Y393529D01*
X780889Y393425D01*
X780666Y393291D01*
X780443Y393098D01*
X780414Y393069D01*
X780354Y392994D01*
X780265Y392875D01*
X780176Y392712D01*
X780072Y392504D01*
X779983Y392266D01*
X779923Y391984D01*
X779894Y391687D01*
Y391672D01*
Y391598D01*
X779909Y391508D01*
X779923Y391375D01*
X779953Y391226D01*
X779998Y391048D01*
X780057Y390869D01*
X780131Y390691D01*
X780146Y390676D01*
X780176Y390617D01*
X780235Y390528D01*
X780310Y390424D01*
X780414Y390305D01*
X780533Y390171D01*
X780681Y390052D01*
X780845Y389948D01*
X780874Y389933D01*
X780934Y389903D01*
X781023Y389874D01*
X781157Y389829D01*
X781320Y389770D01*
X781484Y389740D01*
X781677Y389710D01*
X781885Y389696D01*
X781974D01*
X782033Y389710D01*
X782182Y389725D01*
X782390Y389770D01*
X782613Y389829D01*
X782851Y389933D01*
X783074Y390067D01*
X783296Y390245D01*
X783326Y390275D01*
X783385Y390349D01*
X783475Y390468D01*
X783579Y390632D01*
X783683Y390825D01*
X783772Y391077D01*
X783831Y391345D01*
X783861Y391657D01*
Y391672D01*
Y391702D01*
Y391746D01*
X783846Y391805D01*
X783831Y391954D01*
X783787Y392162D01*
X783727Y392385D01*
X783623Y392623D01*
X783475Y392860D01*
X783281Y393083D01*
X783252Y393113D01*
X783177Y393172D01*
X783059Y393262D01*
X782895Y393381D01*
X782687Y393485D01*
X782435Y393574D01*
X782152Y393633D01*
X781840Y393663D01*
D02*
G37*
G36*
X815679Y436844D02*
X812603D01*
Y433620D01*
X815516D01*
X815679Y433635D01*
X815872Y433649D01*
X816095Y433664D01*
X816333Y433694D01*
X816556Y433739D01*
X816749Y433798D01*
X816779Y433813D01*
X816838Y433828D01*
X816927Y433872D01*
X817031Y433932D01*
X817150Y434021D01*
X817284Y434125D01*
X817403Y434244D01*
X817507Y434378D01*
X817522Y434393D01*
X817551Y434452D01*
X817596Y434526D01*
X817641Y434645D01*
X817685Y434764D01*
X817730Y434912D01*
X817759Y435076D01*
X817774Y435254D01*
Y435269D01*
Y435284D01*
Y435373D01*
X817745Y435492D01*
X817715Y435656D01*
X817655Y435834D01*
X817566Y436027D01*
X817432Y436220D01*
X817269Y436398D01*
X817239Y436413D01*
X817180Y436473D01*
X817046Y436547D01*
X816883Y436621D01*
X816660Y436711D01*
X816392Y436770D01*
X816065Y436829D01*
X815679Y436844D01*
D02*
G37*
G36*
X-10575Y178148D02*
X-14971D01*
X-10575Y175073D01*
Y178148D01*
D02*
G37*
G36*
X1263219Y652260D02*
X1259732D01*
Y649629D01*
X1259743Y649545D01*
Y649439D01*
X1259753Y649323D01*
X1259774Y649185D01*
X1259795Y649048D01*
X1259848Y648752D01*
X1259933Y648456D01*
X1259986Y648319D01*
X1260049Y648192D01*
X1260112Y648065D01*
X1260197Y647960D01*
X1260207Y647949D01*
X1260218Y647939D01*
X1260250Y647907D01*
X1260281Y647875D01*
X1260387Y647791D01*
X1260535Y647695D01*
X1260725Y647600D01*
X1260947Y647516D01*
X1261211Y647452D01*
X1261349Y647442D01*
X1261507Y647431D01*
X1261518D01*
X1261539D01*
X1261571D01*
X1261613D01*
X1261729Y647452D01*
X1261866Y647474D01*
X1262035Y647505D01*
X1262204Y647569D01*
X1262384Y647643D01*
X1262553Y647748D01*
X1262574Y647759D01*
X1262627Y647801D01*
X1262701Y647875D01*
X1262786Y647960D01*
X1262881Y648086D01*
X1262976Y648224D01*
X1263060Y648382D01*
X1263124Y648562D01*
Y648572D01*
X1263134Y648625D01*
X1263155Y648710D01*
X1263176Y648837D01*
Y648911D01*
X1263187Y648995D01*
X1263198Y649101D01*
X1263208Y649206D01*
Y649333D01*
X1263219Y649460D01*
Y652260D01*
D02*
G37*
G36*
X20393Y645059D02*
X17593D01*
Y641572D01*
X20224D01*
X20308Y641582D01*
X20414D01*
X20530Y641593D01*
X20668Y641614D01*
X20805Y641635D01*
X21101Y641688D01*
X21397Y641773D01*
X21534Y641825D01*
X21661Y641889D01*
X21788Y641952D01*
X21893Y642037D01*
X21904Y642047D01*
X21914Y642058D01*
X21946Y642090D01*
X21978Y642121D01*
X22062Y642227D01*
X22157Y642375D01*
X22252Y642565D01*
X22337Y642787D01*
X22400Y643051D01*
X22411Y643189D01*
X22422Y643347D01*
Y643358D01*
Y643379D01*
Y643410D01*
Y643453D01*
X22400Y643569D01*
X22379Y643706D01*
X22348Y643875D01*
X22284Y644044D01*
X22210Y644224D01*
X22104Y644393D01*
X22094Y644414D01*
X22052Y644467D01*
X21978Y644541D01*
X21893Y644626D01*
X21766Y644721D01*
X21629Y644816D01*
X21470Y644900D01*
X21291Y644964D01*
X21280D01*
X21228Y644974D01*
X21143Y644995D01*
X21016Y645016D01*
X20942D01*
X20858Y645027D01*
X20752Y645038D01*
X20646Y645048D01*
X20519D01*
X20393Y645059D01*
D02*
G37*
G36*
X1251115Y267943D02*
X1247829D01*
Y264720D01*
X1250745D01*
X1250819Y264731D01*
X1250904D01*
X1251104Y264741D01*
X1251326Y264762D01*
X1251559Y264794D01*
X1251781Y264836D01*
X1251981Y264900D01*
X1251992D01*
X1252003Y264910D01*
X1252066Y264931D01*
X1252150Y264974D01*
X1252267Y265037D01*
X1252383Y265121D01*
X1252510Y265217D01*
X1252637Y265343D01*
X1252742Y265481D01*
X1252753Y265502D01*
X1252785Y265555D01*
X1252827Y265629D01*
X1252880Y265745D01*
X1252922Y265872D01*
X1252964Y266020D01*
X1252996Y266189D01*
X1253006Y266358D01*
Y266368D01*
Y266390D01*
Y266421D01*
X1252996Y266474D01*
Y266527D01*
X1252985Y266601D01*
X1252943Y266759D01*
X1252880Y266939D01*
X1252795Y267129D01*
X1252668Y267309D01*
X1252584Y267404D01*
X1252499Y267488D01*
X1252489Y267499D01*
X1252478Y267509D01*
X1252446Y267531D01*
X1252404Y267562D01*
X1252351Y267594D01*
X1252277Y267636D01*
X1252203Y267679D01*
X1252108Y267721D01*
X1252003Y267763D01*
X1251886Y267795D01*
X1251759Y267837D01*
X1251622Y267869D01*
X1251464Y267901D01*
X1251295Y267922D01*
X1251115Y267943D01*
D02*
G37*
G36*
X1250796Y135037D02*
X1250553D01*
X1250479Y135026D01*
X1250373D01*
X1250257Y135005D01*
X1250109Y134984D01*
X1249950Y134952D01*
X1249781Y134910D01*
X1249591Y134857D01*
X1249401Y134794D01*
X1249200Y134709D01*
X1248999Y134614D01*
X1248799Y134508D01*
X1248608Y134371D01*
X1248408Y134223D01*
X1248228Y134043D01*
X1248217Y134033D01*
X1248186Y134001D01*
X1248143Y133938D01*
X1248080Y133864D01*
X1248006Y133758D01*
X1247932Y133631D01*
X1247837Y133483D01*
X1247752Y133304D01*
X1247668Y133113D01*
X1247583Y132892D01*
X1247499Y132649D01*
X1247425Y132384D01*
X1247362Y132099D01*
X1247319Y131782D01*
X1247288Y131455D01*
X1247277Y131095D01*
Y131074D01*
Y131011D01*
X1247288Y130916D01*
Y130778D01*
X1247309Y130620D01*
X1247330Y130440D01*
X1247351Y130239D01*
X1247393Y130017D01*
X1247446Y129785D01*
X1247509Y129553D01*
X1247583Y129310D01*
X1247679Y129066D01*
X1247784Y128823D01*
X1247911Y128591D01*
X1248048Y128380D01*
X1248217Y128179D01*
X1248228Y128168D01*
X1248260Y128137D01*
X1248313Y128084D01*
X1248386Y128020D01*
X1248482Y127947D01*
X1248587Y127862D01*
X1248725Y127767D01*
X1248873Y127672D01*
X1249031Y127577D01*
X1249221Y127482D01*
X1249411Y127397D01*
X1249623Y127323D01*
X1249855Y127260D01*
X1250098Y127207D01*
X1250352Y127175D01*
X1250616Y127165D01*
X1250732D01*
X1250796Y127175D01*
X1250870D01*
X1251039Y127196D01*
X1251239Y127228D01*
X1251461Y127270D01*
X1251694Y127334D01*
X1251926Y127418D01*
X1251916D01*
X1251895Y127439D01*
X1251863Y127460D01*
X1251821Y127482D01*
X1251768Y127513D01*
X1251694Y127556D01*
X1251535Y127640D01*
X1251345Y127725D01*
X1251134Y127820D01*
X1250891Y127904D01*
X1250648Y127978D01*
X1250954Y128919D01*
X1250965D01*
X1251007Y128908D01*
X1251060Y128887D01*
X1251144Y128855D01*
X1251239Y128823D01*
X1251345Y128781D01*
X1251472Y128739D01*
X1251609Y128686D01*
X1251895Y128549D01*
X1252212Y128390D01*
X1252518Y128200D01*
X1252803Y127989D01*
X1252814Y127999D01*
X1252856Y128042D01*
X1252909Y128094D01*
X1252983Y128179D01*
X1253067Y128295D01*
X1253162Y128422D01*
X1253268Y128581D01*
X1253374Y128771D01*
X1253479Y128971D01*
X1253585Y129204D01*
X1253680Y129458D01*
X1253765Y129743D01*
X1253839Y130049D01*
X1253892Y130377D01*
X1253934Y130725D01*
X1253944Y131106D01*
Y131116D01*
Y131159D01*
Y131222D01*
X1253934Y131307D01*
Y131412D01*
X1253923Y131529D01*
X1253913Y131666D01*
X1253892Y131803D01*
X1253849Y132131D01*
X1253775Y132479D01*
X1253670Y132828D01*
X1253532Y133166D01*
Y133177D01*
X1253511Y133209D01*
X1253490Y133251D01*
X1253458Y133314D01*
X1253416Y133388D01*
X1253363Y133473D01*
X1253236Y133673D01*
X1253067Y133895D01*
X1252867Y134117D01*
X1252634Y134339D01*
X1252359Y134540D01*
X1252349Y134551D01*
X1252328Y134561D01*
X1252285Y134582D01*
X1252222Y134614D01*
X1252148Y134656D01*
X1252064Y134698D01*
X1251968Y134741D01*
X1251852Y134794D01*
X1251725Y134836D01*
X1251599Y134878D01*
X1251303Y134963D01*
X1250975Y135015D01*
X1250796Y135037D01*
D02*
G37*
G36*
X797470Y46880D02*
X795215D01*
Y39437D01*
X797527D01*
X797625Y39451D01*
X797837Y39465D01*
X798076Y39480D01*
X798330Y39508D01*
X798584Y39550D01*
X798795Y39606D01*
X798824Y39620D01*
X798894Y39635D01*
X798993Y39677D01*
X799120Y39733D01*
X799261Y39818D01*
X799402Y39903D01*
X799543Y40001D01*
X799684Y40114D01*
X799698Y40142D01*
X799754Y40198D01*
X799839Y40297D01*
X799937Y40438D01*
X800050Y40621D01*
X800177Y40833D01*
X800290Y41073D01*
X800388Y41340D01*
Y41354D01*
X800403Y41383D01*
X800417Y41425D01*
X800431Y41481D01*
X800445Y41552D01*
X800473Y41651D01*
X800501Y41749D01*
X800529Y41862D01*
X800572Y42144D01*
X800614Y42468D01*
X800642Y42835D01*
X800656Y43229D01*
Y43243D01*
Y43300D01*
Y43370D01*
X800642Y43483D01*
Y43610D01*
X800628Y43751D01*
X800614Y43920D01*
X800600Y44089D01*
X800529Y44470D01*
X800445Y44865D01*
X800318Y45231D01*
X800233Y45414D01*
X800149Y45570D01*
Y45584D01*
X800121Y45612D01*
X800092Y45654D01*
X800064Y45710D01*
X799951Y45851D01*
X799810Y46021D01*
X799627Y46204D01*
X799416Y46387D01*
X799176Y46542D01*
X798922Y46669D01*
X798894Y46683D01*
X798824Y46697D01*
X798697Y46740D01*
X798513Y46782D01*
X798288Y46810D01*
X798006Y46852D01*
X797837Y46866D01*
X797654D01*
X797470Y46880D01*
D02*
G37*
%LPD*%
D10*
X1290210Y475670D02*
G03*
X1290210Y475670I-500J0D01*
G01*
X73240Y272320D02*
G03*
X73240Y272320I-1000J0D01*
G01*
X835660Y235760D02*
Y241760D01*
X577390Y165100D02*
X583390D01*
X591360D02*
X597360D01*
X644700Y170180D02*
X650700D01*
X611680Y166370D02*
X617680D01*
X792020Y397510D02*
X798020D01*
X813610D02*
X819610D01*
X-2160Y287270D02*
X1340D01*
X-2160Y197870D02*
Y287270D01*
Y197870D02*
X1340D01*
X26940Y287270D02*
X33740D01*
X26940Y197870D02*
X33740D01*
X1287080Y287830D02*
Y305030D01*
X1209080Y287830D02*
Y305030D01*
X738220Y51180D02*
X750220D01*
X738220Y35180D02*
X750220D01*
X1196010Y706420D02*
X1246810D01*
Y575620D02*
Y706420D01*
X1196010Y575620D02*
X1246810D01*
X1196010D02*
Y706420D01*
X879500Y414640D02*
X892000D01*
X879500Y401889D02*
Y414640D01*
Y366640D02*
Y373890D01*
Y366640D02*
X886000D01*
Y362640D02*
Y366640D01*
X882000Y362640D02*
X886000D01*
X882000Y358640D02*
Y362640D01*
Y358640D02*
X958000D01*
Y362640D01*
X954000D02*
X958000D01*
X954000D02*
Y366640D01*
X960500D01*
Y373890D01*
Y401889D02*
Y414640D01*
X948000D02*
X960500D01*
X115870Y577520D02*
Y628320D01*
X10470Y577520D02*
X115870D01*
X10470D02*
Y628320D01*
X115870D01*
D11*
X1223080Y275830D02*
G03*
X1223080Y276830I0J500D01*
G01*
D02*
G03*
X1223080Y275830I0J-500D01*
G01*
X715220Y43180D02*
G03*
X714220Y43180I-500J0D01*
G01*
D02*
G03*
X715220Y43180I500J0D01*
G01*
X897500Y432890D02*
G03*
X897500Y431890I0J-500D01*
G01*
D02*
G03*
X897500Y432890I0J500D01*
G01*
X1253160Y214590D02*
G03*
X1253160Y155590I0J-29500D01*
G01*
D02*
G03*
X1253160Y214590I0J29500D01*
G01*
X341170Y523790D02*
G03*
X340170Y523790I-500J0D01*
G01*
D02*
G03*
X341170Y523790I500J0D01*
G01*
X1234710Y469570D02*
X1269010D01*
X1234710Y558470D02*
X1269010D01*
X323170Y508790D02*
X333170D01*
X322670D02*
X323170D01*
X322670Y498790D02*
Y508790D01*
Y452790D02*
Y468790D01*
Y452790D02*
X553670D01*
Y468790D01*
X543170Y508790D02*
X553670D01*
Y498790D02*
Y508790D01*
D12*
X1253160Y146090D02*
G03*
X1253160Y149090I0J1500D01*
G01*
D02*
G03*
X1253160Y146090I0J-1500D01*
G01*
D13*
X121920Y34290D02*
X1176120D01*
X121920Y704990D02*
X1176120D01*
Y34290D02*
Y704990D01*
X121920Y34290D02*
Y704990D01*
X10160Y375920D02*
X115570D01*
X10160Y567690D02*
X115570D01*
Y375920D02*
Y567690D01*
X10160Y375920D02*
Y567690D01*
M02*
