G04*
G04 #@! TF.GenerationSoftware,Altium Limited,Altium Designer,26.7.1 (11)*
G04*
G04 Layer_Color=32896*
G04 Board_Origin=18000000|21950000*
%FSLAX44Y44*%
%MOMM*%
G71*
G04*
G04 #@! TF.SameCoordinates,D071BD7E-3876-4D20-9434-7D3039072E30*
G04*
G04*
G04 #@! TF.FilePolarity,Positive*
G04*
G01*
G75*
G36*
X609677Y653183D02*
X609921Y653134D01*
X610145Y653066D01*
X610331Y652988D01*
X610477Y652900D01*
X610536Y652861D01*
X610584Y652832D01*
X610633Y652802D01*
X610662Y652783D01*
X610672Y652773D01*
X610682Y652763D01*
X610857Y652588D01*
X610994Y652393D01*
X611111Y652188D01*
X611189Y651993D01*
X611257Y651817D01*
X611277Y651739D01*
X611296Y651671D01*
X611306Y651622D01*
X611316Y651583D01*
X611326Y651554D01*
Y651544D01*
X610536Y651408D01*
X610496Y651612D01*
X610438Y651788D01*
X610379Y651934D01*
X610311Y652051D01*
X610253Y652149D01*
X610204Y652217D01*
X610165Y652256D01*
X610155Y652266D01*
X610028Y652364D01*
X609902Y652432D01*
X609775Y652490D01*
X609648Y652520D01*
X609550Y652539D01*
X609463Y652559D01*
X609385D01*
X609219Y652549D01*
X609072Y652510D01*
X608946Y652471D01*
X608838Y652412D01*
X608751Y652364D01*
X608682Y652315D01*
X608643Y652276D01*
X608634Y652266D01*
X608536Y652159D01*
X608468Y652032D01*
X608409Y651915D01*
X608380Y651808D01*
X608360Y651700D01*
X608341Y651622D01*
Y651573D01*
Y651564D01*
Y651554D01*
X608360Y651359D01*
X608409Y651193D01*
X608468Y651057D01*
X608546Y650949D01*
X608624Y650862D01*
X608682Y650793D01*
X608731Y650754D01*
X608751Y650744D01*
X608907Y650657D01*
X609063Y650598D01*
X609209Y650549D01*
X609346Y650520D01*
X609472Y650501D01*
X609560Y650491D01*
X609687D01*
X609726Y650501D01*
X609775D01*
X609863Y649808D01*
X609745Y649837D01*
X609638Y649857D01*
X609541Y649867D01*
X609463Y649876D01*
X609394Y649886D01*
X609307D01*
X609112Y649867D01*
X608946Y649828D01*
X608790Y649779D01*
X608663Y649710D01*
X608556Y649642D01*
X608478Y649594D01*
X608438Y649555D01*
X608419Y649535D01*
X608302Y649398D01*
X608214Y649252D01*
X608146Y649096D01*
X608107Y648960D01*
X608078Y648833D01*
X608068Y648735D01*
X608058Y648696D01*
Y648667D01*
Y648657D01*
Y648647D01*
X608078Y648443D01*
X608117Y648257D01*
X608175Y648091D01*
X608243Y647955D01*
X608321Y647838D01*
X608380Y647760D01*
X608419Y647711D01*
X608438Y647691D01*
X608585Y647565D01*
X608741Y647467D01*
X608897Y647409D01*
X609053Y647360D01*
X609180Y647331D01*
X609277Y647321D01*
X609316Y647311D01*
X609375D01*
X609541Y647321D01*
X609697Y647360D01*
X609833Y647409D01*
X609941Y647458D01*
X610038Y647516D01*
X610106Y647555D01*
X610145Y647594D01*
X610165Y647604D01*
X610272Y647731D01*
X610370Y647877D01*
X610448Y648043D01*
X610506Y648199D01*
X610555Y648345D01*
X610584Y648462D01*
X610604Y648501D01*
Y648540D01*
X610614Y648560D01*
Y648569D01*
X611404Y648462D01*
X611384Y648316D01*
X611355Y648179D01*
X611267Y647926D01*
X611170Y647701D01*
X611053Y647506D01*
X611004Y647428D01*
X610945Y647360D01*
X610896Y647301D01*
X610857Y647243D01*
X610818Y647204D01*
X610789Y647175D01*
X610779Y647165D01*
X610770Y647155D01*
X610662Y647067D01*
X610545Y646989D01*
X610438Y646921D01*
X610321Y646872D01*
X610087Y646775D01*
X609863Y646716D01*
X609765Y646697D01*
X609668Y646687D01*
X609589Y646677D01*
X609511Y646667D01*
X609453Y646658D01*
X609375D01*
X609209Y646667D01*
X609043Y646687D01*
X608887Y646706D01*
X608741Y646745D01*
X608604Y646794D01*
X608478Y646843D01*
X608360Y646892D01*
X608253Y646950D01*
X608165Y646999D01*
X608078Y647048D01*
X608000Y647097D01*
X607941Y647145D01*
X607892Y647184D01*
X607863Y647204D01*
X607844Y647223D01*
X607834Y647233D01*
X607727Y647350D01*
X607629Y647467D01*
X607551Y647584D01*
X607483Y647701D01*
X607414Y647818D01*
X607366Y647945D01*
X607297Y648169D01*
X607268Y648267D01*
X607249Y648364D01*
X607239Y648443D01*
X607229Y648521D01*
X607219Y648579D01*
Y648618D01*
Y648647D01*
Y648657D01*
X607229Y648882D01*
X607268Y649086D01*
X607317Y649262D01*
X607375Y649408D01*
X607444Y649525D01*
X607492Y649613D01*
X607531Y649671D01*
X607541Y649691D01*
X607668Y649837D01*
X607814Y649954D01*
X607961Y650052D01*
X608097Y650120D01*
X608224Y650179D01*
X608321Y650208D01*
X608360Y650228D01*
X608390D01*
X608409Y650237D01*
X608419D01*
X608263Y650315D01*
X608126Y650413D01*
X608019Y650501D01*
X607922Y650588D01*
X607853Y650666D01*
X607795Y650725D01*
X607766Y650764D01*
X607756Y650783D01*
X607678Y650910D01*
X607629Y651047D01*
X607590Y651174D01*
X607561Y651291D01*
X607541Y651388D01*
X607531Y651466D01*
Y651515D01*
Y651535D01*
X607541Y651700D01*
X607570Y651847D01*
X607609Y651983D01*
X607649Y652110D01*
X607687Y652207D01*
X607727Y652286D01*
X607756Y652334D01*
X607766Y652354D01*
X607863Y652490D01*
X607970Y652617D01*
X608087Y652724D01*
X608195Y652812D01*
X608292Y652880D01*
X608370Y652929D01*
X608429Y652959D01*
X608438Y652968D01*
X608448D01*
X608614Y653046D01*
X608780Y653105D01*
X608946Y653144D01*
X609092Y653173D01*
X609219Y653193D01*
X609316Y653202D01*
X609541D01*
X609677Y653183D01*
D02*
G37*
G36*
X617061Y646765D02*
X616212D01*
Y649379D01*
X614574D01*
X614330Y649389D01*
X614105Y649398D01*
X613900Y649428D01*
X613705Y649467D01*
X613540Y649506D01*
X613384Y649555D01*
X613247Y649603D01*
X613130Y649662D01*
X613023Y649710D01*
X612935Y649759D01*
X612867Y649808D01*
X612798Y649847D01*
X612759Y649886D01*
X612730Y649915D01*
X612711Y649925D01*
X612701Y649935D01*
X612603Y650042D01*
X612525Y650159D01*
X612457Y650276D01*
X612398Y650393D01*
X612301Y650618D01*
X612242Y650842D01*
X612213Y650939D01*
X612203Y651027D01*
X612194Y651115D01*
X612184Y651183D01*
X612174Y651242D01*
Y651281D01*
Y651310D01*
Y651320D01*
X612184Y651495D01*
X612203Y651661D01*
X612233Y651808D01*
X612272Y651934D01*
X612311Y652042D01*
X612340Y652120D01*
X612360Y652168D01*
X612369Y652188D01*
X612447Y652334D01*
X612535Y652451D01*
X612623Y652559D01*
X612701Y652646D01*
X612769Y652715D01*
X612828Y652763D01*
X612876Y652793D01*
X612886Y652802D01*
X613013Y652880D01*
X613149Y652949D01*
X613276Y652998D01*
X613403Y653036D01*
X613510Y653066D01*
X613598Y653085D01*
X613657Y653105D01*
X613676D01*
X613813Y653124D01*
X613969Y653144D01*
X614135Y653154D01*
X614291Y653163D01*
X614437Y653173D01*
X617061D01*
Y646765D01*
D02*
G37*
%LPC*%
G36*
X616212Y652422D02*
X614388D01*
X614213Y652412D01*
X614076Y652402D01*
X613969Y652393D01*
X613891Y652383D01*
X613832Y652373D01*
X613803Y652364D01*
X613793D01*
X613676Y652315D01*
X613569Y652266D01*
X613481Y652198D01*
X613403Y652139D01*
X613335Y652081D01*
X613296Y652032D01*
X613266Y651993D01*
X613257Y651983D01*
X613189Y651876D01*
X613140Y651759D01*
X613101Y651642D01*
X613081Y651535D01*
X613062Y651437D01*
X613052Y651359D01*
Y651310D01*
Y651291D01*
X613072Y651096D01*
X613111Y650920D01*
X613159Y650774D01*
X613228Y650657D01*
X613296Y650559D01*
X613345Y650491D01*
X613384Y650442D01*
X613403Y650432D01*
X613471Y650384D01*
X613549Y650335D01*
X613725Y650257D01*
X613920Y650208D01*
X614115Y650169D01*
X614291Y650149D01*
X614359Y650140D01*
X614427D01*
X614486Y650130D01*
X616212D01*
Y652422D01*
D02*
G37*
%LPD*%
M02*
