G04*
G04 #@! TF.GenerationSoftware,Altium Limited,Altium Designer,26.7.1 (11)*
G04*
G04 Layer_Color=16711935*
G04 Board_Origin=18000000|21950000*
%FSLAX44Y44*%
%MOMM*%
G71*
G04*
G04 #@! TF.SameCoordinates,D071BD7E-3876-4D20-9434-7D3039072E30*
G04*
G04*
G04 #@! TF.FilePolarity,Negative*
G04*
G01*
G75*
%ADD14R,0.9000X1.0000*%
%ADD15R,1.0000X0.9000*%
%ADD18R,1.6000X1.6000*%
%ADD20C,1.5500*%
%ADD21R,1.9500X1.9500*%
%ADD22C,2.4000*%
%ADD23C,0.5100*%
%ADD24C,1.9500*%
%ADD25C,1.4200*%
%ADD26O,2.4000X0.9000*%
%ADD27O,1.7000X0.9000*%
%ADD28C,0.6500*%
%ADD29R,1.5500X1.5500*%
%ADD30R,1.5500X1.5500*%
%ADD31C,2.0000*%
%ADD32C,5.0000*%
%ADD33C,0.6000*%
%ADD35R,6.0000X2.8800*%
%ADD36R,0.9900X0.8100*%
%ADD37R,3.2500X2.5000*%
%ADD38R,0.8100X0.9900*%
%ADD39R,0.6000X0.5000*%
%ADD40R,0.8000X0.8000*%
%ADD41R,0.6500X1.6000*%
%ADD42R,0.3000X1.4750*%
%ADD43R,1.4750X0.3000*%
%ADD44R,0.4500X1.4000*%
%ADD45R,1.0121X1.1581*%
%ADD46R,1.1581X1.0121*%
%ADD47R,1.2950X0.6000*%
%ADD48R,0.7000X1.0000*%
%ADD49R,0.4000X0.4000*%
%ADD50R,1.5500X0.6000*%
%ADD51R,1.5000X0.8000*%
%ADD52R,0.9400X0.8000*%
%ADD53R,0.8000X0.9400*%
%ADD54R,0.9400X0.7300*%
%ADD55R,1.0000X0.8500*%
%ADD56R,0.6000X1.0500*%
%ADD57R,0.7300X0.9400*%
%ADD58R,1.2000X0.6000*%
%ADD59R,0.8500X1.0000*%
%ADD60R,2.2000X2.1500*%
%ADD61R,4.8000X4.8000*%
%ADD62R,1.0000X2.0000*%
%ADD63R,1.5500X2.2000*%
%ADD64R,3.0000X4.5000*%
%ADD65R,1.9200X5.4500*%
%ADD66R,1.9000X1.1000*%
%ADD68R,0.8000X1.5000*%
%ADD69C,3.0000*%
D14*
X304420Y195580D02*
D03*
X320420D02*
D03*
X480950Y398780D02*
D03*
X496950D02*
D03*
X92330Y267970D02*
D03*
X108330D02*
D03*
X964310Y257810D02*
D03*
X492810Y461950D02*
D03*
X948310Y257810D02*
D03*
X1100200Y254000D02*
D03*
X1084200D02*
D03*
X611250Y563880D02*
D03*
X595250D02*
D03*
X720980Y519430D02*
D03*
X736980D02*
D03*
X476810Y461950D02*
D03*
D15*
X949960Y202820D02*
D03*
Y218820D02*
D03*
X810260Y476630D02*
D03*
X933450Y240410D02*
D03*
X1057910Y195200D02*
D03*
X1128375Y176150D02*
D03*
X1014400Y167690D02*
D03*
X769620Y477900D02*
D03*
X26670Y214250D02*
D03*
X933450Y224410D02*
D03*
X810260Y460630D02*
D03*
X26670Y230250D02*
D03*
X1057910Y211200D02*
D03*
X1128375Y192150D02*
D03*
X1014400Y151690D02*
D03*
X769620Y461900D02*
D03*
D18*
X677400Y567690D02*
D03*
X643400D02*
D03*
D20*
X1208710Y615620D02*
D03*
X75870D02*
D03*
X25070D02*
D03*
X1208710Y641020D02*
D03*
X101270Y590220D02*
D03*
X1208710Y666420D02*
D03*
X1234110Y641020D02*
D03*
Y691820D02*
D03*
Y615620D02*
D03*
X101270D02*
D03*
X1208710Y590220D02*
D03*
X1234110Y666420D02*
D03*
X1208710Y691820D02*
D03*
X50470Y590220D02*
D03*
X75870D02*
D03*
X50470Y615620D02*
D03*
D21*
X1223080Y290830D02*
D03*
D22*
X535940Y646430D02*
D03*
X688340D02*
D03*
X637540D02*
D03*
X586740D02*
D03*
D23*
X1251860Y545770D02*
D03*
Y482270D02*
D03*
D24*
X1273080Y290830D02*
D03*
X1248080Y390830D02*
D03*
D25*
X1253160Y172390D02*
D03*
Y197790D02*
D03*
D26*
X49040Y285820D02*
D03*
Y199320D02*
D03*
D27*
X15240Y285820D02*
D03*
Y199320D02*
D03*
D28*
X58840Y272320D02*
D03*
X45340D02*
D03*
Y212820D02*
D03*
X58840D02*
D03*
Y263820D02*
D03*
Y255320D02*
D03*
Y246820D02*
D03*
Y238320D02*
D03*
Y229820D02*
D03*
Y221320D02*
D03*
X45340D02*
D03*
Y229820D02*
D03*
Y238320D02*
D03*
Y246820D02*
D03*
Y255320D02*
D03*
Y263820D02*
D03*
D29*
X1234110Y590220D02*
D03*
D30*
X25070D02*
D03*
D31*
X1248080Y340830D02*
D03*
D32*
X1280000Y35000D02*
D03*
Y680000D02*
D03*
X35000Y35000D02*
D03*
Y680000D02*
D03*
D33*
X373380Y557530D02*
D03*
X880110Y189190D02*
D03*
X454090Y279970D02*
D03*
X775970Y607060D02*
D03*
X557530Y487680D02*
D03*
X617220Y474980D02*
D03*
X330200Y529590D02*
D03*
X496570Y481330D02*
D03*
X680974Y480822D02*
D03*
Y593094D02*
D03*
X776728D02*
D03*
X828421Y541401D02*
D03*
X804926Y517906D02*
D03*
Y492252D02*
D03*
X729234Y122174D02*
D03*
X699008Y159004D02*
D03*
X839178Y493992D02*
D03*
X866394Y420370D02*
D03*
X884174Y419608D02*
D03*
X349504Y504444D02*
D03*
X844804Y183086D02*
D03*
X1010590Y270510D02*
D03*
X997890Y295148D02*
D03*
X856742Y274066D02*
D03*
X1023620Y151638D02*
D03*
X1035990Y199550D02*
D03*
X615188Y246634D02*
D03*
X537464Y250190D02*
D03*
X391922Y268224D02*
D03*
X388390Y392660D02*
D03*
X353314Y439928D02*
D03*
X372872Y204724D02*
D03*
X394970Y164338D02*
D03*
X843280Y334264D02*
D03*
X349250Y455930D02*
D03*
X336296Y249428D02*
D03*
X576580Y118872D02*
D03*
X880110Y328930D02*
D03*
X627126Y227978D02*
D03*
X420878Y374820D02*
D03*
X487934Y389382D02*
D03*
X789838Y300126D02*
D03*
X430197Y386682D02*
D03*
X640080Y234442D02*
D03*
X758698Y128016D02*
D03*
X514096Y276860D02*
D03*
X637032Y243840D02*
D03*
X539496Y242570D02*
D03*
X443777Y241195D02*
D03*
X428498Y412798D02*
D03*
X649732Y190246D02*
D03*
X524764Y203454D02*
D03*
X451866Y208280D02*
D03*
X317246Y413174D02*
D03*
X723530Y151130D02*
D03*
X524510Y218186D02*
D03*
X441198Y227076D02*
D03*
X441960Y415798D02*
D03*
X304800Y401828D02*
D03*
X591058Y524764D02*
D03*
X665226Y232918D02*
D03*
X472440Y405384D02*
D03*
X589268Y220472D02*
D03*
X537718D02*
D03*
X380441Y310142D02*
D03*
X624466Y418338D02*
D03*
X370586Y332486D02*
D03*
X638048Y405892D02*
D03*
X718820Y123444D02*
D03*
X529590Y115570D02*
D03*
X321310Y290322D02*
D03*
Y320040D02*
D03*
X315976Y336042D02*
D03*
X365506Y244094D02*
D03*
X327660Y343970D02*
D03*
X342646Y254678D02*
D03*
X693530Y164661D02*
D03*
X519176Y212852D02*
D03*
X446448Y215138D02*
D03*
X417322Y343408D02*
D03*
X688530Y126492D02*
D03*
X442214Y365506D02*
D03*
X683530Y150876D02*
D03*
X463550Y342646D02*
D03*
X442468Y335970D02*
D03*
X507746Y190246D02*
D03*
X531876Y180086D02*
D03*
X636270Y160528D02*
D03*
X442722Y312420D02*
D03*
X488188Y255657D02*
D03*
X556768Y208788D02*
D03*
X668528Y127762D02*
D03*
X438912Y274066D02*
D03*
X452213Y229777D02*
D03*
X465074Y205740D02*
D03*
Y285242D02*
D03*
X287020Y231648D02*
D03*
X326136Y418338D02*
D03*
X327914Y384048D02*
D03*
X351282Y205232D02*
D03*
X409448Y159004D02*
D03*
X856742Y174244D02*
D03*
X524510Y560070D02*
D03*
X715264Y575818D02*
D03*
X724662Y421894D02*
D03*
X668528Y422491D02*
D03*
X802640Y175514D02*
D03*
X736346Y364998D02*
D03*
X479298Y535940D02*
D03*
X693279Y397002D02*
D03*
X677672Y616966D02*
D03*
X496062Y548386D02*
D03*
X599100Y482854D02*
D03*
X750570Y462026D02*
D03*
X806558Y330346D02*
D03*
X638810Y483870D02*
D03*
X578358Y565404D02*
D03*
X508254Y530352D02*
D03*
X705866Y460248D02*
D03*
X708152Y662686D02*
D03*
X490474Y525584D02*
D03*
X490670Y494734D02*
D03*
X516890Y456946D02*
D03*
X591058Y507308D02*
D03*
X755566Y469730D02*
D03*
X794004Y365760D02*
D03*
X859028Y127254D02*
D03*
X175768Y316484D02*
D03*
X264414Y321056D02*
D03*
X419354Y586740D02*
D03*
Y534162D02*
D03*
X413512Y504444D02*
D03*
X553212Y596900D02*
D03*
X703580Y445770D02*
D03*
X694944Y101600D02*
D03*
X456322Y156072D02*
D03*
X397764Y208534D02*
D03*
X397002Y482854D02*
D03*
X419354Y525780D02*
D03*
X661162Y151292D02*
D03*
X567704Y146544D02*
D03*
X376174Y250444D02*
D03*
X370586Y478028D02*
D03*
X417576D02*
D03*
X881888Y357378D02*
D03*
X746760Y673862D02*
D03*
X609346Y661924D02*
D03*
X579120Y592074D02*
D03*
X496062Y534416D02*
D03*
X360670Y527060D02*
D03*
X536194Y597154D02*
D03*
X672846Y451358D02*
D03*
X169926Y12446D02*
D03*
X257302Y137414D02*
D03*
X262382Y198374D02*
D03*
X301752Y538988D02*
D03*
X321056Y558292D02*
D03*
X772414Y90170D02*
D03*
X761746Y88900D02*
D03*
X382270Y44196D02*
D03*
X297180Y129286D02*
D03*
Y204470D02*
D03*
X296032Y322580D02*
D03*
X150876Y279400D02*
D03*
Y23876D02*
D03*
X506222Y357632D02*
D03*
X415544Y389636D02*
D03*
X369062Y454406D02*
D03*
X392176Y559562D02*
D03*
X712216Y700024D02*
D03*
X711454Y250190D02*
D03*
X803656Y152908D02*
D03*
X740410Y501904D02*
D03*
X602488Y508762D02*
D03*
X374142Y283464D02*
D03*
X828802Y157734D02*
D03*
X735838Y553212D02*
D03*
X520670Y527274D02*
D03*
X658368Y401066D02*
D03*
X785622Y396494D02*
D03*
X848868Y364236D02*
D03*
X933944Y391922D02*
D03*
X883824Y406050D02*
D03*
X905636Y369190D02*
D03*
X888238D02*
D03*
X1097406Y195200D02*
D03*
X1116456Y176150D02*
D03*
X755142Y366522D02*
D03*
X749046Y413004D02*
D03*
X1085722Y195200D02*
D03*
X964310Y248666D02*
D03*
X995020Y229616D02*
D03*
X819658Y101854D02*
D03*
X744940Y105664D02*
D03*
X516001Y89281D02*
D03*
X201168Y653542D02*
D03*
X283718Y327710D02*
D03*
X286766Y248920D02*
D03*
X325628Y513588D02*
D03*
X1077722Y136906D02*
D03*
Y178054D02*
D03*
X879856Y606044D02*
D03*
X798910Y643370D02*
D03*
Y678730D02*
D03*
X735838Y703834D02*
D03*
X117082Y633476D02*
D03*
X108204Y375920D02*
D03*
X1016508Y127000D02*
D03*
X880110Y199190D02*
D03*
X839260Y57658D02*
D03*
X921004Y175006D02*
D03*
X175595Y87457D02*
D03*
X522478Y74422D02*
D03*
X640080Y98552D02*
D03*
X608530Y127665D02*
D03*
X652780Y76962D02*
D03*
X169926Y30734D02*
D03*
X175260Y99600D02*
D03*
X585216Y269240D02*
D03*
X613410Y266446D02*
D03*
X708660Y284480D02*
D03*
X723646Y528574D02*
D03*
X622300Y394970D02*
D03*
X1092430Y226822D02*
D03*
X231902Y563880D02*
D03*
X128270Y246888D02*
D03*
X232664Y223520D02*
D03*
X287020Y215392D02*
D03*
X308356Y204724D02*
D03*
X804164Y382270D02*
D03*
X494284Y317754D02*
D03*
X628396Y411226D02*
D03*
X375158Y376682D02*
D03*
X622200Y406983D02*
D03*
X442468Y383970D02*
D03*
X491744Y351282D02*
D03*
X291835Y189992D02*
D03*
X609854Y422148D02*
D03*
X103124Y228092D02*
D03*
X1213358Y514096D02*
D03*
X958791Y340106D02*
D03*
X768530Y396748D02*
D03*
X1213358Y539420D02*
D03*
X978408Y257302D02*
D03*
X948436Y248666D02*
D03*
X594360Y372872D02*
D03*
X967740Y540512D02*
D03*
X1155268Y488620D02*
D03*
X708406Y422898D02*
D03*
X541491Y606872D02*
D03*
X455670Y504444D02*
D03*
X1249680Y655574D02*
D03*
X471678Y691134D02*
D03*
X262636Y185420D02*
D03*
X657098Y477985D02*
D03*
X618998Y691642D02*
D03*
X655914Y686054D02*
D03*
X562102Y418254D02*
D03*
X671830Y705358D02*
D03*
X534416Y393954D02*
D03*
X562102Y394208D02*
D03*
X755650Y599186D02*
D03*
X585212Y409190D02*
D03*
X620268Y660908D02*
D03*
X854964Y356362D02*
D03*
X825754Y405510D02*
D03*
X535670Y504444D02*
D03*
X781769Y445710D02*
D03*
X598932Y493522D02*
D03*
X477266Y579120D02*
D03*
X265430Y562356D02*
D03*
X435864Y616458D02*
D03*
X271900Y506992D02*
D03*
X290322Y541350D02*
D03*
X651780Y415208D02*
D03*
X639253Y456870D02*
D03*
X327850Y271970D02*
D03*
X381762Y212655D02*
D03*
X546354Y125476D02*
D03*
X593090Y198374D02*
D03*
X602742Y182118D02*
D03*
X591566D02*
D03*
X823468Y163068D02*
D03*
X790194Y501904D02*
D03*
X902500Y437388D02*
D03*
X745490Y546608D02*
D03*
X540148Y491490D02*
D03*
X643530Y422508D02*
D03*
X650314Y406400D02*
D03*
X508254Y181610D02*
D03*
X498094Y282194D02*
D03*
X349250Y407924D02*
D03*
X370924Y260737D02*
D03*
X482854Y157480D02*
D03*
X357124Y544830D02*
D03*
X729742Y560832D02*
D03*
X530670Y526098D02*
D03*
X856742Y404114D02*
D03*
X750316Y483870D02*
D03*
X588010Y485902D02*
D03*
X554097Y513211D02*
D03*
X444754Y540004D02*
D03*
X649610Y103802D02*
D03*
X643636Y150876D02*
D03*
X464058Y391922D02*
D03*
X589280Y309190D02*
D03*
X562324Y334487D02*
D03*
X472186Y417068D02*
D03*
X733552Y158750D02*
D03*
X669544Y156718D02*
D03*
X540512Y182118D02*
D03*
X473456Y226192D02*
D03*
X442398Y319970D02*
D03*
X470662Y427906D02*
D03*
X624586Y243840D02*
D03*
X587502Y144780D02*
D03*
X294894Y266412D02*
D03*
X625602Y112522D02*
D03*
X623570Y154940D02*
D03*
X629666Y166878D02*
D03*
X594614Y258572D02*
D03*
X532638Y268615D02*
D03*
X358689Y290576D02*
D03*
X354838Y423970D02*
D03*
X585216Y288544D02*
D03*
X555498D02*
D03*
X487172Y238506D02*
D03*
X657860Y127254D02*
D03*
X664972Y115316D02*
D03*
X701597Y106172D02*
D03*
X880110Y209042D02*
D03*
X924560Y218948D02*
D03*
X892556Y209042D02*
D03*
X940562Y211074D02*
D03*
X1023366Y295148D02*
D03*
X848868Y280162D02*
D03*
X827660Y265938D02*
D03*
X819404Y476504D02*
D03*
X832866Y467106D02*
D03*
X828802Y453390D02*
D03*
X922528Y431800D02*
D03*
X584962Y328930D02*
D03*
X933436Y444246D02*
D03*
X442468Y304038D02*
D03*
X471678Y303276D02*
D03*
X1023366Y224028D02*
D03*
X880110Y269190D02*
D03*
X948436Y272542D02*
D03*
X880110Y249190D02*
D03*
X889341Y278384D02*
D03*
X1010590Y235458D02*
D03*
X482092Y324104D02*
D03*
X924306Y240284D02*
D03*
X896366Y249428D02*
D03*
X829056Y445770D02*
D03*
X887730Y259080D02*
D03*
X910200D02*
D03*
X803656Y445770D02*
D03*
X798576Y414528D02*
D03*
X852678Y234190D02*
D03*
X84328Y342169D02*
D03*
X798322Y43180D02*
D03*
X344678Y536956D02*
D03*
D35*
X58420Y392430D02*
D03*
X59690Y450850D02*
D03*
D36*
X163830Y62950D02*
D03*
Y76750D02*
D03*
X889000Y132800D02*
D03*
Y146600D02*
D03*
X929640Y203750D02*
D03*
Y189950D02*
D03*
X891540Y342350D02*
D03*
X842010Y459190D02*
D03*
X732790Y463000D02*
D03*
X671830Y464270D02*
D03*
X548640Y401870D02*
D03*
X309880Y369020D02*
D03*
X307010Y322800D02*
D03*
X549910Y318050D02*
D03*
X481000Y303240D02*
D03*
X547040Y250580D02*
D03*
Y212310D02*
D03*
X539750Y116670D02*
D03*
X541020Y79290D02*
D03*
X310820Y274540D02*
D03*
X315900Y51700D02*
D03*
X194310Y200110D02*
D03*
X842010Y472990D02*
D03*
X789940Y664930D02*
D03*
X891540Y356150D02*
D03*
X732790Y476800D02*
D03*
X671830Y478070D02*
D03*
X548640Y388070D02*
D03*
X549910Y304250D02*
D03*
X233680Y516890D02*
D03*
X152400Y658410D02*
D03*
X481000Y289440D02*
D03*
X309880Y382820D02*
D03*
X307010Y309000D02*
D03*
X547040Y264380D02*
D03*
Y198510D02*
D03*
X539750Y102870D02*
D03*
X541020Y65490D02*
D03*
X310820Y260740D02*
D03*
X194310Y213910D02*
D03*
X315900Y65500D02*
D03*
X152400Y644610D02*
D03*
X789940Y678730D02*
D03*
X233680Y530690D02*
D03*
D37*
X288290Y616430D02*
D03*
Y676430D02*
D03*
D38*
X306790Y214630D02*
D03*
X320590D02*
D03*
X308060Y234950D02*
D03*
X321860D02*
D03*
X295910Y429260D02*
D03*
X309710D02*
D03*
X918600Y318440D02*
D03*
X1068290Y289230D02*
D03*
X888450Y314960D02*
D03*
X862880Y494030D02*
D03*
X888450Y234950D02*
D03*
X744940Y115000D02*
D03*
X826050D02*
D03*
X697950D02*
D03*
X642070Y114300D02*
D03*
X599660Y456870D02*
D03*
X361230Y491490D02*
D03*
X347430Y673100D02*
D03*
X346160Y654050D02*
D03*
X482050Y363220D02*
D03*
X77860Y641020D02*
D03*
X296300Y460680D02*
D03*
X597620Y115000D02*
D03*
X849080Y494030D02*
D03*
X932400Y318440D02*
D03*
X1054490Y289230D02*
D03*
X902250Y314960D02*
D03*
Y234950D02*
D03*
X900980Y218440D02*
D03*
X1092750Y146050D02*
D03*
X904790Y176530D02*
D03*
X758740Y115000D02*
D03*
X812250D02*
D03*
X711750D02*
D03*
X585860Y456870D02*
D03*
X495850Y363220D02*
D03*
X361230Y673100D02*
D03*
X359960Y654050D02*
D03*
X330920Y546100D02*
D03*
X347430Y491490D02*
D03*
X91660Y641020D02*
D03*
X310100Y460680D02*
D03*
X177080Y416560D02*
D03*
X655870Y114300D02*
D03*
X611420Y115000D02*
D03*
X887180Y218440D02*
D03*
X890990Y176530D02*
D03*
X189950Y701040D02*
D03*
X203750D02*
D03*
X1078950Y146050D02*
D03*
X1242780Y427990D02*
D03*
X344720Y546100D02*
D03*
X163280Y416560D02*
D03*
X1256580Y427990D02*
D03*
D39*
X910200Y266510D02*
D03*
X899200Y274510D02*
D03*
Y266510D02*
D03*
X910200Y274510D02*
D03*
D40*
X1164590Y624960D02*
D03*
Y639960D02*
D03*
D41*
X1035990Y282820D02*
D03*
X997890D02*
D03*
X1023290Y211820D02*
D03*
X1010590D02*
D03*
X1023290Y282820D02*
D03*
X1035990Y211820D02*
D03*
X1010590Y282820D02*
D03*
X997890Y211820D02*
D03*
D42*
X828530Y434070D02*
D03*
X733530D02*
D03*
X663530D02*
D03*
X818530Y139310D02*
D03*
X748530D02*
D03*
X698530D02*
D03*
X643530D02*
D03*
X598530Y434070D02*
D03*
Y139310D02*
D03*
X848530Y434070D02*
D03*
X843530D02*
D03*
X838530D02*
D03*
X833530D02*
D03*
X823530D02*
D03*
X813530D02*
D03*
X808530D02*
D03*
X803530D02*
D03*
X798530D02*
D03*
X793530D02*
D03*
X788530D02*
D03*
X783530D02*
D03*
X778530D02*
D03*
X773530D02*
D03*
X768530D02*
D03*
X763530D02*
D03*
X758530D02*
D03*
X753530D02*
D03*
X748530D02*
D03*
X743530D02*
D03*
X738530D02*
D03*
X723530D02*
D03*
X718530D02*
D03*
X713530D02*
D03*
X708530D02*
D03*
X703530D02*
D03*
X698530D02*
D03*
X693530D02*
D03*
X688530D02*
D03*
X683530D02*
D03*
X678530D02*
D03*
X673530D02*
D03*
X668530D02*
D03*
X653530D02*
D03*
X648530D02*
D03*
X643530D02*
D03*
X638530D02*
D03*
X633530D02*
D03*
X628530D02*
D03*
X623530D02*
D03*
X618530D02*
D03*
X613530D02*
D03*
X608530D02*
D03*
X603530D02*
D03*
X593530D02*
D03*
Y139310D02*
D03*
X603530D02*
D03*
X608530D02*
D03*
X613530D02*
D03*
X618530D02*
D03*
X623530D02*
D03*
X628530D02*
D03*
X633530D02*
D03*
X638530D02*
D03*
X653530D02*
D03*
X658530D02*
D03*
X663530D02*
D03*
X668530D02*
D03*
X673530D02*
D03*
X678530D02*
D03*
X683530D02*
D03*
X688530D02*
D03*
X693530D02*
D03*
X708530D02*
D03*
X713530D02*
D03*
X718530D02*
D03*
X723530D02*
D03*
X728530D02*
D03*
X733530D02*
D03*
X738530D02*
D03*
X743530D02*
D03*
X758530D02*
D03*
X763530D02*
D03*
X768530D02*
D03*
X773530D02*
D03*
X778530D02*
D03*
X783530D02*
D03*
X788530D02*
D03*
X793530D02*
D03*
X798530D02*
D03*
X803530D02*
D03*
X808530D02*
D03*
X823530D02*
D03*
X828530D02*
D03*
X833530D02*
D03*
X838530D02*
D03*
X843530D02*
D03*
X848530D02*
D03*
X818530Y434070D02*
D03*
X728530D02*
D03*
X658530D02*
D03*
X648530Y139310D02*
D03*
X703530D02*
D03*
X753530D02*
D03*
X813530D02*
D03*
D43*
X868410Y344190D02*
D03*
Y289190D02*
D03*
Y224190D02*
D03*
Y159190D02*
D03*
X573650Y384190D02*
D03*
Y319190D02*
D03*
Y209190D02*
D03*
Y254190D02*
D03*
X868410Y199190D02*
D03*
X573650Y414190D02*
D03*
Y409190D02*
D03*
Y404190D02*
D03*
Y399190D02*
D03*
Y394190D02*
D03*
Y389190D02*
D03*
Y374190D02*
D03*
Y369190D02*
D03*
Y364190D02*
D03*
Y359190D02*
D03*
Y354190D02*
D03*
Y349190D02*
D03*
Y344190D02*
D03*
Y339190D02*
D03*
Y334190D02*
D03*
Y329190D02*
D03*
Y324190D02*
D03*
Y309190D02*
D03*
Y304190D02*
D03*
Y299190D02*
D03*
Y294190D02*
D03*
Y289190D02*
D03*
Y284190D02*
D03*
Y279190D02*
D03*
Y274190D02*
D03*
Y269190D02*
D03*
Y264190D02*
D03*
Y249190D02*
D03*
Y244190D02*
D03*
Y239190D02*
D03*
Y234190D02*
D03*
Y229190D02*
D03*
Y224190D02*
D03*
Y219190D02*
D03*
Y214190D02*
D03*
Y199190D02*
D03*
Y194190D02*
D03*
Y189190D02*
D03*
Y184190D02*
D03*
Y179190D02*
D03*
Y174190D02*
D03*
Y169190D02*
D03*
Y164190D02*
D03*
Y159190D02*
D03*
X868410Y169190D02*
D03*
Y174190D02*
D03*
Y179190D02*
D03*
Y184190D02*
D03*
Y189190D02*
D03*
Y194190D02*
D03*
Y204190D02*
D03*
Y209190D02*
D03*
Y214190D02*
D03*
Y229190D02*
D03*
Y234190D02*
D03*
Y239190D02*
D03*
Y244190D02*
D03*
Y249190D02*
D03*
Y254190D02*
D03*
Y259190D02*
D03*
Y264190D02*
D03*
Y269190D02*
D03*
Y274190D02*
D03*
Y279190D02*
D03*
Y284190D02*
D03*
Y299190D02*
D03*
Y304190D02*
D03*
Y309190D02*
D03*
Y314190D02*
D03*
Y319190D02*
D03*
Y324190D02*
D03*
Y329190D02*
D03*
Y334190D02*
D03*
Y339190D02*
D03*
Y354190D02*
D03*
Y359190D02*
D03*
Y364190D02*
D03*
Y369190D02*
D03*
Y374190D02*
D03*
Y379190D02*
D03*
Y384190D02*
D03*
Y389190D02*
D03*
Y394190D02*
D03*
Y399190D02*
D03*
Y404190D02*
D03*
Y409190D02*
D03*
Y414190D02*
D03*
X573650Y379190D02*
D03*
Y314190D02*
D03*
Y259190D02*
D03*
Y204190D02*
D03*
X868410Y164190D02*
D03*
Y219190D02*
D03*
Y294190D02*
D03*
Y349190D02*
D03*
D44*
X1105430Y166900D02*
D03*
Y210900D02*
D03*
X1098930Y166900D02*
D03*
X1085930Y210900D02*
D03*
Y166900D02*
D03*
X1092430Y210900D02*
D03*
X1098930D02*
D03*
X1092430Y166900D02*
D03*
D45*
X913130Y131430D02*
D03*
Y147970D02*
D03*
X678180Y95870D02*
D03*
X204470Y516240D02*
D03*
X678180Y112410D02*
D03*
X204470Y532780D02*
D03*
D46*
X370190Y544830D02*
D03*
X907430Y196850D02*
D03*
X549290Y368300D02*
D03*
X386730Y544830D02*
D03*
X532750Y368300D02*
D03*
X890890Y196850D02*
D03*
D47*
X453190Y351970D02*
D03*
X338630Y471970D02*
D03*
Y367970D02*
D03*
Y327970D02*
D03*
X453190Y303970D02*
D03*
X338630Y279970D02*
D03*
Y263969D02*
D03*
X453190Y471970D02*
D03*
Y327970D02*
D03*
Y367970D02*
D03*
X338630Y351970D02*
D03*
Y303970D02*
D03*
X453190Y263969D02*
D03*
Y279970D02*
D03*
X338630Y407970D02*
D03*
X453190Y311970D02*
D03*
Y399970D02*
D03*
Y439970D02*
D03*
X338630Y391970D02*
D03*
Y335970D02*
D03*
Y383970D02*
D03*
Y415970D02*
D03*
Y455970D02*
D03*
Y439970D02*
D03*
X453190Y391970D02*
D03*
X338630Y287969D02*
D03*
Y399970D02*
D03*
Y463970D02*
D03*
Y447970D02*
D03*
Y375970D02*
D03*
X453190Y455970D02*
D03*
X338630Y359970D02*
D03*
X453190Y415970D02*
D03*
Y463970D02*
D03*
X338630Y319970D02*
D03*
X453190Y287969D02*
D03*
Y423970D02*
D03*
Y359970D02*
D03*
Y319970D02*
D03*
Y383970D02*
D03*
Y447970D02*
D03*
Y271970D02*
D03*
X338630Y431970D02*
D03*
Y423970D02*
D03*
Y295969D02*
D03*
X453190Y343970D02*
D03*
X338630D02*
D03*
X453190Y295969D02*
D03*
Y335970D02*
D03*
X338630Y271970D02*
D03*
Y311970D02*
D03*
X453190Y431970D02*
D03*
Y375970D02*
D03*
Y407970D02*
D03*
D48*
X201270Y644329D02*
D03*
X182270Y666310D02*
D03*
Y644329D02*
D03*
X191770D02*
D03*
X201270Y666310D02*
D03*
X191770D02*
D03*
D49*
X510780Y84060D02*
D03*
Y60060D02*
D03*
Y68060D02*
D03*
X486780Y76060D02*
D03*
Y84060D02*
D03*
X510780Y76060D02*
D03*
X486780Y68060D02*
D03*
Y60060D02*
D03*
D50*
X274650Y248920D02*
D03*
X220650Y210820D02*
D03*
Y248920D02*
D03*
X274650Y198120D02*
D03*
X220650Y236220D02*
D03*
Y223520D02*
D03*
Y198120D02*
D03*
Y185420D02*
D03*
Y172720D02*
D03*
X274650D02*
D03*
Y185420D02*
D03*
Y210820D02*
D03*
Y223520D02*
D03*
Y236220D02*
D03*
D51*
X267000Y62100D02*
D03*
X187000D02*
D03*
X267000Y49600D02*
D03*
X187000D02*
D03*
Y99600D02*
D03*
Y87100D02*
D03*
Y74600D02*
D03*
X267000Y99600D02*
D03*
Y87100D02*
D03*
Y74600D02*
D03*
D52*
X892810Y419450D02*
D03*
X303530Y569310D02*
D03*
X892810Y406050D02*
D03*
X303530Y555910D02*
D03*
D53*
X918800Y341300D02*
D03*
X932200D02*
D03*
D54*
X789940Y629170D02*
D03*
X133350Y658610D02*
D03*
Y644410D02*
D03*
X789940Y643370D02*
D03*
D55*
X779780Y503040D02*
D03*
Y518040D02*
D03*
D56*
X744550Y557630D02*
D03*
X754050Y579630D02*
D03*
X763550Y557630D02*
D03*
D57*
X1030720Y135890D02*
D03*
X1016520D02*
D03*
D58*
X280140Y560350D02*
D03*
X92910Y237490D02*
D03*
X117910Y227990D02*
D03*
Y237490D02*
D03*
Y246990D02*
D03*
X92910D02*
D03*
Y227990D02*
D03*
X255140Y541350D02*
D03*
Y560350D02*
D03*
X280140Y541350D02*
D03*
Y550850D02*
D03*
X255140D02*
D03*
D59*
X286900Y497840D02*
D03*
X199510Y563880D02*
D03*
X271900Y497840D02*
D03*
X839260Y66980D02*
D03*
X214510Y563880D02*
D03*
X854260Y66980D02*
D03*
D60*
X193450Y375920D02*
D03*
X149450D02*
D03*
D61*
X227000Y74600D02*
D03*
D62*
X419970Y604520D02*
D03*
X369970D02*
D03*
D63*
X992810Y667870D02*
D03*
X464490Y611990D02*
D03*
Y570990D02*
D03*
X992810Y626870D02*
D03*
D64*
X879780Y657880D02*
D03*
Y542880D02*
D03*
D65*
X151960Y311150D02*
D03*
X84260D02*
D03*
D66*
X920420Y366900D02*
D03*
Y391900D02*
D03*
D68*
X252000Y34600D02*
D03*
X239500D02*
D03*
X227000D02*
D03*
X214500D02*
D03*
X202000D02*
D03*
Y114600D02*
D03*
X214500D02*
D03*
X227000D02*
D03*
X239500D02*
D03*
X252000D02*
D03*
D69*
X1220000Y40000D02*
D03*
X90000D02*
D03*
Y680000D02*
D03*
M02*
