G04*
G04 #@! TF.GenerationSoftware,Altium Limited,Altium Designer,26.7.1 (11)*
G04*
G04 Layer_Color=32768*
G04 Board_Origin=18000000|21950000*
%FSLAX44Y44*%
%MOMM*%
G71*
G04*
G04 #@! TF.SameCoordinates,D071BD7E-3876-4D20-9434-7D3039072E30*
G04*
G04*
G04 #@! TF.FilePolarity,Positive*
G04*
G01*
G75*
%ADD11C,0.1000*%
%ADD71C,0.0500*%
D11*
X283290Y646430D02*
X293290D01*
X288290Y641430D02*
Y651430D01*
X625400Y549690D02*
Y585690D01*
X695400D01*
Y549690D02*
Y585690D01*
X625400Y549690D02*
X695400D01*
X880700Y254010D02*
X923200D01*
Y287010D01*
X880700D02*
X923200D01*
X880700Y254010D02*
Y287010D01*
X97290Y232370D02*
X106790Y222870D01*
X97290D02*
Y252110D01*
X113530D01*
Y222870D02*
Y252110D01*
X97290Y222870D02*
X113530D01*
X1185080Y271080D02*
Y410580D01*
Y271080D02*
X1311080D01*
Y410580D01*
X1185080D02*
X1311080D01*
X709220Y25180D02*
Y61180D01*
Y25180D02*
X779220D01*
Y61180D01*
X709220D02*
X779220D01*
X775530Y502660D02*
X784030D01*
X775530D02*
Y518420D01*
X784030D01*
Y502660D02*
Y518420D01*
X214890Y559630D02*
Y568130D01*
X199130Y559630D02*
X214890D01*
X199130D02*
Y568130D01*
X214890D01*
X838880Y62730D02*
Y71230D01*
X854640D01*
Y62730D02*
Y71230D01*
X838880Y62730D02*
X854640D01*
X287280Y493590D02*
Y502090D01*
X271520Y493590D02*
X287280D01*
X271520D02*
Y502090D01*
X287280D01*
X859500Y348639D02*
Y437640D01*
Y348639D02*
X980500D01*
Y437640D01*
X859500D02*
X980500D01*
X287500Y14100D02*
Y135100D01*
X166500D02*
X287500D01*
X166500Y14100D02*
Y135100D01*
Y14100D02*
X287500D01*
X805780Y510380D02*
X953780D01*
X805780D02*
Y690380D01*
X953780D01*
Y510380D02*
Y690380D01*
X216270Y629330D02*
Y681310D01*
X167270Y629330D02*
X216270D01*
X167270D02*
Y681310D01*
X216270D01*
X523780Y47060D02*
Y97060D01*
X473780Y47060D02*
X523780D01*
X473780D02*
Y97060D01*
X523780D01*
X900920Y407400D02*
X939920D01*
Y351400D02*
Y407400D01*
X900920Y351400D02*
X939920D01*
X900920D02*
Y407400D01*
X1213660Y136090D02*
X1292660D01*
Y224590D01*
X1213660D02*
X1292660D01*
X1213660Y136090D02*
Y224590D01*
X302670Y534290D02*
X573670D01*
Y442790D02*
Y534290D01*
X302670Y442790D02*
X573670D01*
X302670D02*
Y534290D01*
D71*
X157330Y82300D02*
X170330D01*
Y57400D02*
Y82300D01*
X157330Y57400D02*
X170330D01*
X157330D02*
Y82300D01*
X249290Y602930D02*
X327290D01*
Y689930D01*
X249290D02*
X327290D01*
X249290Y602930D02*
Y689930D01*
X327420Y188080D02*
Y203080D01*
X297420Y188080D02*
X327420D01*
X297420D02*
Y203080D01*
X327420D01*
X326140Y208130D02*
Y221130D01*
X301240Y208130D02*
X326140D01*
X301240D02*
Y221130D01*
X326140D01*
X327410Y228450D02*
Y241450D01*
X302510Y228450D02*
X327410D01*
X302510D02*
Y241450D01*
X327410D01*
X820660Y231260D02*
Y246260D01*
Y231260D02*
X850660D01*
Y246260D01*
X820660D02*
X850660D01*
X503950Y391280D02*
Y406280D01*
X473950Y391280D02*
X503950D01*
X473950D02*
Y406280D01*
X503950D01*
X315260Y422760D02*
Y435760D01*
X290360Y422760D02*
X315260D01*
X290360D02*
Y435760D01*
X315260D01*
X115330Y260470D02*
Y275470D01*
X85330Y260470D02*
X115330D01*
X85330D02*
Y275470D01*
X115330D01*
X957460Y195820D02*
Y225820D01*
X942460D02*
X957460D01*
X942460Y195820D02*
Y225820D01*
Y195820D02*
X957460D01*
X882500Y152150D02*
X895500D01*
Y127250D02*
Y152150D01*
X882500Y127250D02*
X895500D01*
X882500D02*
Y152150D01*
X923140Y184400D02*
X936140D01*
X923140D02*
Y209300D01*
X936140D01*
Y184400D02*
Y209300D01*
X572890Y150100D02*
X587890D01*
Y180100D01*
X572890D02*
X587890D01*
X572890Y150100D02*
Y180100D01*
X1207560Y457570D02*
X1300710D01*
Y570470D01*
X1207560D02*
X1300710D01*
X1207560Y457570D02*
Y570470D01*
X586860Y180100D02*
X601860D01*
X586860Y150100D02*
Y180100D01*
Y150100D02*
X601860D01*
Y180100D01*
X878280Y129440D02*
Y443940D01*
X563780Y129440D02*
X878280D01*
X563780D02*
Y443940D01*
X878280D01*
X655200Y155180D02*
Y185180D01*
X640200Y155180D02*
X655200D01*
X640200D02*
Y185180D01*
X655200D01*
X607180Y151370D02*
X622180D01*
Y181370D01*
X607180D02*
X622180D01*
X607180Y151370D02*
Y181370D01*
X941310Y250310D02*
Y265310D01*
X971310D01*
Y250310D02*
Y265310D01*
X941310Y250310D02*
X971310D01*
X1077200Y246500D02*
Y261500D01*
X1107200D01*
Y246500D02*
Y261500D01*
X1077200Y246500D02*
X1107200D01*
X588250Y571380D02*
X618250D01*
X588250Y556380D02*
Y571380D01*
Y556380D02*
X618250D01*
Y571380D01*
X340610Y660550D02*
X365510D01*
X340610Y647550D02*
Y660550D01*
Y647550D02*
X365510D01*
Y660550D01*
X341880Y679600D02*
X366780D01*
X341880Y666600D02*
Y679600D01*
Y666600D02*
X366780D01*
Y679600D01*
X187810Y194560D02*
Y219460D01*
Y194560D02*
X200810D01*
Y219460D01*
X187810D02*
X200810D01*
X34170Y207250D02*
Y237250D01*
X19170D02*
X34170D01*
X19170Y207250D02*
Y237250D01*
Y207250D02*
X34170D01*
X802520Y382510D02*
Y412510D01*
X787520Y382510D02*
X802520D01*
X787520D02*
Y412510D01*
X802520D01*
X824110Y382510D02*
Y412510D01*
X809110Y382510D02*
X824110D01*
X809110D02*
Y412510D01*
X824110D01*
X66940Y192320D02*
Y292820D01*
X-29760Y192320D02*
X66940D01*
X-29760D02*
Y292820D01*
X66940D01*
X145900Y639060D02*
Y663960D01*
Y639060D02*
X158900D01*
Y663960D01*
X145900D02*
X158900D01*
X127150Y639260D02*
Y663760D01*
Y639260D02*
X139550D01*
Y663760D01*
X127150D02*
X139550D01*
X184400Y694540D02*
X209300D01*
Y707540D01*
X184400D02*
X209300D01*
X184400Y694540D02*
Y707540D01*
X246640Y533100D02*
Y568600D01*
X288640D01*
Y533100D02*
Y568600D01*
X246640Y533100D02*
X288640D01*
X1077680Y220400D02*
X1113680D01*
Y157400D02*
Y220400D01*
X1077680Y157400D02*
X1113680D01*
X1077680D02*
Y220400D01*
X1135875Y169150D02*
Y199150D01*
X1120876D02*
X1135875D01*
X1120876Y169150D02*
Y199150D01*
Y169150D02*
X1135875D01*
X325370Y539600D02*
X350270D01*
Y552600D01*
X325370D02*
X350270D01*
X325370Y539600D02*
Y552600D01*
X1065410Y188200D02*
Y218200D01*
X1050410D02*
X1065410D01*
X1050410Y188200D02*
Y218200D01*
Y188200D02*
X1065410D01*
X1006900Y144690D02*
Y174690D01*
Y144690D02*
X1021900D01*
Y174690D01*
X1006900D02*
X1021900D01*
X1011370Y142090D02*
X1035870D01*
X1011370Y129690D02*
Y142090D01*
Y129690D02*
X1035870D01*
Y142090D01*
X885440Y183030D02*
X910340D01*
X885440Y170030D02*
Y183030D01*
Y170030D02*
X910340D01*
Y183030D01*
X713980Y511930D02*
X743980D01*
Y526930D01*
X713980D02*
X743980D01*
X713980Y511930D02*
Y526930D01*
X469810Y469450D02*
X499810D01*
X469810Y454450D02*
Y469450D01*
Y454450D02*
X499810D01*
Y469450D01*
X802760Y453630D02*
Y483630D01*
Y453630D02*
X817760D01*
Y483630D01*
X802760D02*
X817760D01*
X777120Y454900D02*
Y484900D01*
X762120D02*
X777120D01*
X762120Y454900D02*
Y484900D01*
Y454900D02*
X777120D01*
X739390Y121500D02*
X764290D01*
X739390Y108500D02*
Y121500D01*
Y108500D02*
X764290D01*
Y121500D01*
X72310Y634520D02*
X97210D01*
Y647520D01*
X72310D02*
X97210D01*
X72310Y634520D02*
Y647520D01*
X843530Y487530D02*
X868430D01*
Y500530D01*
X843530D02*
X868430D01*
X843530Y487530D02*
Y500530D01*
X240180Y511340D02*
Y536240D01*
X227180D02*
X240180D01*
X227180Y511340D02*
Y536240D01*
Y511340D02*
X240180D01*
X692400Y121500D02*
X717300D01*
X692400Y108500D02*
Y121500D01*
Y108500D02*
X717300D01*
Y121500D01*
X636520Y120800D02*
X661420D01*
X636520Y107800D02*
Y120800D01*
Y107800D02*
X661420D01*
Y120800D01*
X592070Y121500D02*
X616970D01*
X592070Y108500D02*
Y121500D01*
Y108500D02*
X616970D01*
Y121500D01*
X553540Y192960D02*
Y217860D01*
X540540D02*
X553540D01*
X540540Y192960D02*
Y217860D01*
Y192960D02*
X553540D01*
X796440Y659380D02*
Y684280D01*
X783440D02*
X796440D01*
X783440Y659380D02*
Y684280D01*
Y659380D02*
X796440D01*
X157730Y423060D02*
X182630D01*
X157730Y410060D02*
Y423060D01*
Y410060D02*
X182630D01*
Y423060D01*
X1237230Y434490D02*
X1262130D01*
X1237230Y421490D02*
Y434490D01*
Y421490D02*
X1262130D01*
Y434490D01*
X1073400Y152550D02*
X1098300D01*
X1073400Y139550D02*
Y152550D01*
Y139550D02*
X1098300D01*
Y152550D01*
X309400Y46150D02*
Y71050D01*
Y46150D02*
X322400D01*
Y71050D01*
X309400D02*
X322400D01*
X547520Y59940D02*
Y84840D01*
X534520D02*
X547520D01*
X534520Y59940D02*
Y84840D01*
Y59940D02*
X547520D01*
X341880Y484990D02*
X366780D01*
Y497990D01*
X341880D02*
X366780D01*
X341880Y484990D02*
Y497990D01*
X546250Y97320D02*
Y122220D01*
X533250D02*
X546250D01*
X533250Y97320D02*
Y122220D01*
Y97320D02*
X546250D01*
X290750Y467180D02*
X315650D01*
X290750Y454180D02*
Y467180D01*
Y454180D02*
X315650D01*
Y467180D01*
X487500Y283890D02*
Y308790D01*
X474500D02*
X487500D01*
X474500Y283890D02*
Y308790D01*
Y283890D02*
X487500D01*
X317320Y255190D02*
Y280090D01*
X304320D02*
X317320D01*
X304320Y255190D02*
Y280090D01*
Y255190D02*
X317320D01*
X303380Y363470D02*
Y388370D01*
Y363470D02*
X316380D01*
Y388370D01*
X303380D02*
X316380D01*
X476500Y369720D02*
X501400D01*
X476500Y356720D02*
Y369720D01*
Y356720D02*
X501400D01*
Y369720D01*
X313510Y303450D02*
Y328350D01*
X300510D02*
X313510D01*
X300510Y303450D02*
Y328350D01*
Y303450D02*
X313510D01*
X882900Y321460D02*
X907800D01*
X882900Y308460D02*
Y321460D01*
Y308460D02*
X907800D01*
Y321460D01*
X1048940Y282730D02*
X1073840D01*
Y295730D01*
X1048940D02*
X1073840D01*
X1048940Y282730D02*
Y295730D01*
X540540Y245030D02*
Y269930D01*
Y245030D02*
X553540D01*
Y269930D01*
X540540D02*
X553540D01*
X556410Y298700D02*
Y323600D01*
X543410D02*
X556410D01*
X543410Y298700D02*
Y323600D01*
Y298700D02*
X556410D01*
X555140Y382520D02*
Y407420D01*
X542140D02*
X555140D01*
X542140Y382520D02*
Y407420D01*
Y382520D02*
X555140D01*
X806700Y108500D02*
X831600D01*
Y121500D01*
X806700D02*
X831600D01*
X806700Y108500D02*
Y121500D01*
X580310Y450370D02*
X605210D01*
Y463370D01*
X580310D02*
X605210D01*
X580310Y450370D02*
Y463370D01*
X665330Y458720D02*
Y483620D01*
Y458720D02*
X678330D01*
Y483620D01*
X665330D02*
X678330D01*
X726290Y457450D02*
Y482350D01*
Y457450D02*
X739290D01*
Y482350D01*
X726290D02*
X739290D01*
X835510Y453640D02*
Y478540D01*
Y453640D02*
X848510D01*
Y478540D01*
X835510D02*
X848510D01*
X913050Y324940D02*
X937950D01*
X913050Y311940D02*
Y324940D01*
Y311940D02*
X937950D01*
Y324940D01*
X885040Y336800D02*
Y361700D01*
Y336800D02*
X898040D01*
Y361700D01*
X885040D02*
X898040D01*
X882900Y241450D02*
X907800D01*
X882900Y228450D02*
Y241450D01*
Y228450D02*
X907800D01*
Y241450D01*
X881630Y224940D02*
X906530D01*
X881630Y211940D02*
Y224940D01*
Y211940D02*
X906530D01*
Y224940D01*
X796140Y624020D02*
Y648520D01*
X783740D02*
X796140D01*
X783740Y624020D02*
Y648520D01*
Y624020D02*
X796140D01*
X297330Y550410D02*
Y574810D01*
Y550410D02*
X309730D01*
Y574810D01*
X297330D02*
X309730D01*
X913300Y335100D02*
X937700D01*
Y347500D01*
X913300D02*
X937700D01*
X913300Y335100D02*
Y347500D01*
X886610Y400550D02*
Y424950D01*
Y400550D02*
X899010D01*
Y424950D01*
X886610D02*
X899010D01*
X1193760Y708670D02*
X1249060D01*
Y573370D02*
Y708670D01*
X1193760Y573370D02*
X1249060D01*
X1193760D02*
Y708670D01*
X118120Y575270D02*
Y630570D01*
X8220Y575270D02*
X118120D01*
X8220D02*
Y630570D01*
X118120D01*
X72160Y281400D02*
X164060D01*
Y340900D01*
X72160D02*
X164060D01*
X72160Y281400D02*
Y340900D01*
X480940Y557490D02*
Y625490D01*
X448040D02*
X480940D01*
X448040Y557490D02*
Y625490D01*
Y557490D02*
X480940D01*
X736550Y549880D02*
X771550D01*
X736550D02*
Y587380D01*
X771550D01*
Y549880D02*
Y587380D01*
X975810Y681370D02*
X1009810D01*
Y613370D02*
Y681370D01*
X975810Y613370D02*
X1009810D01*
X975810D02*
Y681370D01*
X135950Y353670D02*
Y398170D01*
X206950D01*
Y353670D02*
Y398170D01*
X135950Y353670D02*
X206950D01*
X329660Y253370D02*
Y482570D01*
X462160D01*
Y253370D02*
Y482570D01*
X329660Y253370D02*
X462160D01*
X988040Y201320D02*
X1045840D01*
X988040D02*
Y293320D01*
X1045840D01*
Y201320D02*
Y293320D01*
X925950Y217410D02*
Y247410D01*
Y217410D02*
X940950D01*
Y247410D01*
X925950D02*
X940950D01*
M02*
