G04*
G04 #@! TF.GenerationSoftware,Altium Limited,Altium Designer,26.7.1 (11)*
G04*
G04 Layer_Color=128*
G04 Board_Origin=18000000|21950000*
%FSLAX44Y44*%
%MOMM*%
G71*
G04*
G04 #@! TF.SameCoordinates,D071BD7E-3876-4D20-9434-7D3039072E30*
G04*
G04*
G04 #@! TF.FilePolarity,Positive*
G04*
G01*
G75*
%ADD72C,0.1270*%
D72*
X1203610Y615620D02*
X1213810D01*
X1208710Y610520D02*
Y620720D01*
X1216580Y290830D02*
X1229580D01*
X1223080Y284330D02*
Y297330D01*
X527940Y646430D02*
X543940D01*
X535940Y638430D02*
Y654430D01*
X70770Y615620D02*
X80970D01*
X75870Y610520D02*
Y620720D01*
X19970Y615620D02*
X30170D01*
X25070Y610520D02*
Y620720D01*
X1246760Y545770D02*
X1256960D01*
X1251860Y540670D02*
Y550870D01*
X1246760Y482270D02*
X1256960D01*
X1251860Y477170D02*
Y487370D01*
X1203610Y641020D02*
X1213810D01*
X1208710Y635920D02*
Y646120D01*
X680340Y646430D02*
X696340D01*
X688340Y638430D02*
Y654430D01*
X1266580Y290830D02*
X1279580D01*
X1273080Y284330D02*
Y297330D01*
X1248560Y172390D02*
X1257760D01*
X1253160Y167790D02*
Y176990D01*
X96170Y590220D02*
X106370D01*
X101270Y585120D02*
Y595320D01*
X46040Y285820D02*
X52040D01*
X49040Y282820D02*
Y288820D01*
X12240Y285820D02*
X18240D01*
X15240Y282820D02*
Y288820D01*
X56840Y272320D02*
X60840D01*
X58840Y270320D02*
Y274320D01*
X43340Y272320D02*
X47340D01*
X45340Y270320D02*
Y274320D01*
X43340Y212820D02*
X47340D01*
X45340Y210820D02*
Y214820D01*
X56840Y212820D02*
X60840D01*
X58840Y210820D02*
Y214820D01*
X46040Y199320D02*
X52040D01*
X49040Y196320D02*
Y202320D01*
X12240Y199320D02*
X18240D01*
X15240Y196320D02*
Y202320D01*
X629540Y646430D02*
X645540D01*
X637540Y638430D02*
Y654430D01*
X578740Y646430D02*
X594740D01*
X586740Y638430D02*
Y654430D01*
X56840Y263820D02*
X60840D01*
X58840Y261820D02*
Y265820D01*
X56840Y255320D02*
X60840D01*
X58840Y253320D02*
Y257320D01*
X56840Y246820D02*
X60840D01*
X58840Y244820D02*
Y248820D01*
X56840Y238320D02*
X60840D01*
X58840Y236320D02*
Y240320D01*
X56840Y229820D02*
X60840D01*
X58840Y227820D02*
Y231820D01*
X56840Y221320D02*
X60840D01*
X58840Y219320D02*
Y223320D01*
X43340Y221320D02*
X47340D01*
X45340Y219320D02*
Y223320D01*
X43340Y229820D02*
X47340D01*
X45340Y227820D02*
Y231820D01*
X43340Y238320D02*
X47340D01*
X45340Y236320D02*
Y240320D01*
X43340Y246820D02*
X47340D01*
X45340Y244820D02*
Y248820D01*
X43340Y255320D02*
X47340D01*
X45340Y253320D02*
Y257320D01*
X43340Y263820D02*
X47340D01*
X45340Y261820D02*
Y265820D01*
X1229010Y590220D02*
X1239210D01*
X1234110Y585120D02*
Y595320D01*
X1203610Y666420D02*
X1213810D01*
X1208710Y661320D02*
Y671520D01*
X1229010Y641020D02*
X1239210D01*
X1234110Y635920D02*
Y646120D01*
X1229010Y691820D02*
X1239210D01*
X1234110Y686720D02*
Y696920D01*
X1229010Y615620D02*
X1239210D01*
X1234110Y610520D02*
Y620720D01*
X96170Y615620D02*
X106370D01*
X101270Y610520D02*
Y620720D01*
X1203610Y590220D02*
X1213810D01*
X1208710Y585120D02*
Y595320D01*
X19970Y590220D02*
X30170D01*
X25070Y585120D02*
Y595320D01*
X1228080Y340830D02*
X1268080D01*
X1248080Y320830D02*
Y360830D01*
X1241580Y390830D02*
X1254580D01*
X1248080Y384330D02*
Y397330D01*
X1248560Y197790D02*
X1257760D01*
X1253160Y193190D02*
Y202390D01*
X1229010Y666420D02*
X1239210D01*
X1234110Y661320D02*
Y671520D01*
X1203610Y691820D02*
X1213810D01*
X1208710Y686720D02*
Y696920D01*
X45370Y590220D02*
X55570D01*
X50470Y585120D02*
Y595320D01*
X70770Y590220D02*
X80970D01*
X75870Y585120D02*
Y595320D01*
X45370Y615620D02*
X55570D01*
X50470Y610520D02*
Y620720D01*
X1264000Y35000D02*
X1296000D01*
X1280000Y19000D02*
Y51000D01*
X1264000Y680000D02*
X1296000D01*
X1280000Y664000D02*
Y696000D01*
X19000Y35000D02*
X51000D01*
X35000Y19000D02*
Y51000D01*
X19000Y680000D02*
X51000D01*
X35000Y664000D02*
Y696000D01*
X371630Y557530D02*
X375130D01*
X373380Y555780D02*
Y559280D01*
X878360Y189190D02*
X881860D01*
X880110Y187440D02*
Y190940D01*
X452341Y279970D02*
X455840D01*
X454090Y278220D02*
Y281719D01*
X774220Y607060D02*
X777720D01*
X775970Y605310D02*
Y608810D01*
X555780Y487680D02*
X559280D01*
X557530Y485930D02*
Y489430D01*
X615470Y474980D02*
X618970D01*
X617220Y473230D02*
Y476730D01*
X328450Y529590D02*
X331950D01*
X330200Y527840D02*
Y531340D01*
X494820Y481330D02*
X498320D01*
X496570Y479580D02*
Y483080D01*
X679224Y480822D02*
X682724D01*
X680974Y479072D02*
Y482572D01*
X679224Y593094D02*
X682724D01*
X680974Y591344D02*
Y594843D01*
X774978Y593094D02*
X778478D01*
X776728Y591344D02*
Y594843D01*
X826671Y541401D02*
X830171D01*
X828421Y539651D02*
Y543151D01*
X803176Y517906D02*
X806676D01*
X804926Y516156D02*
Y519656D01*
X803176Y492252D02*
X806676D01*
X804926Y490502D02*
Y494002D01*
X727484Y122174D02*
X730984D01*
X729234Y120424D02*
Y123924D01*
X697258Y159004D02*
X700758D01*
X699008Y157254D02*
Y160754D01*
X837428Y493992D02*
X840928D01*
X839178Y492242D02*
Y495742D01*
X864644Y420370D02*
X868144D01*
X866394Y418620D02*
Y422120D01*
X882424Y419608D02*
X885924D01*
X884174Y417858D02*
Y421358D01*
X347754Y504444D02*
X351254D01*
X349504Y502694D02*
Y506194D01*
X843054Y183086D02*
X846554D01*
X844804Y181336D02*
Y184836D01*
X1008840Y270510D02*
X1012340D01*
X1010590Y268760D02*
Y272260D01*
X996140Y295148D02*
X999640D01*
X997890Y293398D02*
Y296898D01*
X854992Y274066D02*
X858492D01*
X856742Y272316D02*
Y275816D01*
X1021870Y151638D02*
X1025370D01*
X1023620Y149888D02*
Y153388D01*
X1034240Y199550D02*
X1037740D01*
X1035990Y197800D02*
Y201300D01*
X613438Y246634D02*
X616938D01*
X615188Y244884D02*
Y248384D01*
X535714Y250190D02*
X539214D01*
X537464Y248440D02*
Y251940D01*
X390172Y268224D02*
X393672D01*
X391922Y266474D02*
Y269974D01*
X386640Y392660D02*
X390140D01*
X388390Y390910D02*
Y394410D01*
X351564Y439928D02*
X355064D01*
X353314Y438178D02*
Y441678D01*
X371122Y204724D02*
X374622D01*
X372872Y202974D02*
Y206474D01*
X393220Y164338D02*
X396720D01*
X394970Y162588D02*
Y166088D01*
X841530Y334264D02*
X845030D01*
X843280Y332514D02*
Y336014D01*
X347500Y455930D02*
X351000D01*
X349250Y454180D02*
Y457680D01*
X334546Y249428D02*
X338046D01*
X336296Y247678D02*
Y251178D01*
X574830Y118872D02*
X578330D01*
X576580Y117122D02*
Y120622D01*
X878360Y328930D02*
X881860D01*
X880110Y327180D02*
Y330680D01*
X625376Y227978D02*
X628876D01*
X627126Y226228D02*
Y229728D01*
X419128Y374820D02*
X422628D01*
X420878Y373070D02*
Y376570D01*
X486184Y389382D02*
X489684D01*
X487934Y387632D02*
Y391132D01*
X788088Y300126D02*
X791588D01*
X789838Y298376D02*
Y301876D01*
X428447Y386682D02*
X431947D01*
X430197Y384931D02*
Y388432D01*
X638330Y234442D02*
X641830D01*
X640080Y232692D02*
Y236192D01*
X756948Y128016D02*
X760448D01*
X758698Y126266D02*
Y129766D01*
X512346Y276860D02*
X515846D01*
X514096Y275110D02*
Y278610D01*
X635282Y243840D02*
X638782D01*
X637032Y242090D02*
Y245590D01*
X537746Y242570D02*
X541246D01*
X539496Y240820D02*
Y244320D01*
X442027Y241195D02*
X445527D01*
X443777Y239445D02*
Y242945D01*
X426748Y412798D02*
X430248D01*
X428498Y411048D02*
Y414548D01*
X647982Y190246D02*
X651482D01*
X649732Y188496D02*
Y191996D01*
X523014Y203454D02*
X526514D01*
X524764Y201704D02*
Y205204D01*
X450116Y208280D02*
X453616D01*
X451866Y206530D02*
Y210030D01*
X315496Y413174D02*
X318996D01*
X317246Y411424D02*
Y414924D01*
X721780Y151130D02*
X725280D01*
X723530Y149380D02*
Y152880D01*
X522760Y218186D02*
X526260D01*
X524510Y216436D02*
Y219936D01*
X439448Y227076D02*
X442948D01*
X441198Y225326D02*
Y228826D01*
X440210Y415798D02*
X443710D01*
X441960Y414048D02*
Y417548D01*
X303050Y401828D02*
X306550D01*
X304800Y400078D02*
Y403578D01*
X589308Y524764D02*
X592808D01*
X591058Y523014D02*
Y526514D01*
X663476Y232918D02*
X666976D01*
X665226Y231168D02*
Y234668D01*
X470690Y405384D02*
X474190D01*
X472440Y403634D02*
Y407134D01*
X587518Y220472D02*
X591018D01*
X589268Y218722D02*
Y222222D01*
X535968Y220472D02*
X539468D01*
X537718Y218722D02*
Y222222D01*
X378691Y310142D02*
X382191D01*
X380441Y308392D02*
Y311892D01*
X622716Y418338D02*
X626216D01*
X624466Y416588D02*
Y420088D01*
X368836Y332486D02*
X372336D01*
X370586Y330736D02*
Y334236D01*
X636298Y405892D02*
X639798D01*
X638048Y404142D02*
Y407642D01*
X717070Y123444D02*
X720570D01*
X718820Y121694D02*
Y125194D01*
X527840Y115570D02*
X531340D01*
X529590Y113820D02*
Y117320D01*
X319560Y290322D02*
X323060D01*
X321310Y288572D02*
Y292072D01*
X319560Y320040D02*
X323060D01*
X321310Y318290D02*
Y321790D01*
X314226Y336042D02*
X317726D01*
X315976Y334292D02*
Y337792D01*
X363756Y244094D02*
X367256D01*
X365506Y242344D02*
Y245844D01*
X325910Y343970D02*
X329410D01*
X327660Y342220D02*
Y345720D01*
X340896Y254678D02*
X344396D01*
X342646Y252928D02*
Y256428D01*
X691780Y164661D02*
X695280D01*
X693530Y162911D02*
Y166411D01*
X517426Y212852D02*
X520926D01*
X519176Y211102D02*
Y214602D01*
X444698Y215138D02*
X448198D01*
X446448Y213388D02*
Y216888D01*
X415572Y343408D02*
X419072D01*
X417322Y341658D02*
Y345158D01*
X686780Y126492D02*
X690280D01*
X688530Y124742D02*
Y128242D01*
X440464Y365506D02*
X443964D01*
X442214Y363756D02*
Y367256D01*
X681780Y150876D02*
X685280D01*
X683530Y149126D02*
Y152626D01*
X461800Y342646D02*
X465300D01*
X463550Y340896D02*
Y344396D01*
X440718Y335970D02*
X444218D01*
X442468Y334220D02*
Y337720D01*
X505996Y190246D02*
X509496D01*
X507746Y188496D02*
Y191996D01*
X530126Y180086D02*
X533626D01*
X531876Y178336D02*
Y181836D01*
X634520Y160528D02*
X638020D01*
X636270Y158778D02*
Y162278D01*
X440972Y312420D02*
X444472D01*
X442722Y310670D02*
Y314170D01*
X486438Y255657D02*
X489938D01*
X488188Y253907D02*
Y257407D01*
X555018Y208788D02*
X558518D01*
X556768Y207038D02*
Y210538D01*
X666778Y127762D02*
X670278D01*
X668528Y126012D02*
Y129512D01*
X437162Y274066D02*
X440662D01*
X438912Y272316D02*
Y275816D01*
X450463Y229777D02*
X453963D01*
X452213Y228027D02*
Y231527D01*
X463324Y205740D02*
X466824D01*
X465074Y203990D02*
Y207490D01*
X463324Y285242D02*
X466824D01*
X465074Y283492D02*
Y286992D01*
X285270Y231648D02*
X288770D01*
X287020Y229898D02*
Y233398D01*
X324386Y418338D02*
X327886D01*
X326136Y416588D02*
Y420088D01*
X326164Y384048D02*
X329664D01*
X327914Y382298D02*
Y385798D01*
X349532Y205232D02*
X353032D01*
X351282Y203482D02*
Y206982D01*
X407698Y159004D02*
X411198D01*
X409448Y157254D02*
Y160754D01*
X854992Y174244D02*
X858492D01*
X856742Y172494D02*
Y175994D01*
X522760Y560070D02*
X526260D01*
X524510Y558320D02*
Y561820D01*
X713514Y575818D02*
X717014D01*
X715264Y574068D02*
Y577568D01*
X722912Y421894D02*
X726412D01*
X724662Y420144D02*
Y423644D01*
X666778Y422491D02*
X670278D01*
X668528Y420741D02*
Y424241D01*
X800890Y175514D02*
X804390D01*
X802640Y173764D02*
Y177264D01*
X734596Y364998D02*
X738096D01*
X736346Y363248D02*
Y366748D01*
X477548Y535940D02*
X481048D01*
X479298Y534190D02*
Y537690D01*
X691529Y397002D02*
X695029D01*
X693279Y395252D02*
Y398752D01*
X675922Y616966D02*
X679422D01*
X677672Y615216D02*
Y618716D01*
X494312Y548386D02*
X497812D01*
X496062Y546636D02*
Y550136D01*
X597350Y482854D02*
X600850D01*
X599100Y481104D02*
Y484604D01*
X748820Y462026D02*
X752320D01*
X750570Y460276D02*
Y463776D01*
X804808Y330346D02*
X808308D01*
X806558Y328596D02*
Y332096D01*
X637060Y483870D02*
X640560D01*
X638810Y482120D02*
Y485620D01*
X576608Y565404D02*
X580108D01*
X578358Y563654D02*
Y567154D01*
X506504Y530352D02*
X510004D01*
X508254Y528602D02*
Y532102D01*
X704116Y460248D02*
X707616D01*
X705866Y458498D02*
Y461998D01*
X706402Y662686D02*
X709902D01*
X708152Y660936D02*
Y664436D01*
X488724Y525584D02*
X492224D01*
X490474Y523834D02*
Y527334D01*
X488920Y494734D02*
X492420D01*
X490670Y492984D02*
Y496484D01*
X515140Y456946D02*
X518640D01*
X516890Y455196D02*
Y458696D01*
X589308Y507308D02*
X592808D01*
X591058Y505558D02*
Y509058D01*
X753816Y469730D02*
X757316D01*
X755566Y467980D02*
Y471480D01*
X792254Y365760D02*
X795754D01*
X794004Y364010D02*
Y367510D01*
X857278Y127254D02*
X860778D01*
X859028Y125504D02*
Y129004D01*
X174018Y316484D02*
X177518D01*
X175768Y314734D02*
Y318234D01*
X262664Y321056D02*
X266164D01*
X264414Y319306D02*
Y322806D01*
X417604Y586740D02*
X421104D01*
X419354Y584990D02*
Y588490D01*
X417604Y534162D02*
X421104D01*
X419354Y532412D02*
Y535912D01*
X411762Y504444D02*
X415262D01*
X413512Y502694D02*
Y506194D01*
X551462Y596900D02*
X554962D01*
X553212Y595150D02*
Y598650D01*
X701830Y445770D02*
X705330D01*
X703580Y444020D02*
Y447520D01*
X693194Y101600D02*
X696694D01*
X694944Y99850D02*
Y103350D01*
X454572Y156072D02*
X458072D01*
X456322Y154322D02*
Y157822D01*
X396014Y208534D02*
X399514D01*
X397764Y206784D02*
Y210284D01*
X395252Y482854D02*
X398752D01*
X397002Y481104D02*
Y484604D01*
X417604Y525780D02*
X421104D01*
X419354Y524030D02*
Y527530D01*
X659412Y151292D02*
X662912D01*
X661162Y149542D02*
Y153042D01*
X565954Y146544D02*
X569454D01*
X567704Y144794D02*
Y148294D01*
X374424Y250444D02*
X377924D01*
X376174Y248694D02*
Y252194D01*
X368836Y478028D02*
X372336D01*
X370586Y476278D02*
Y479778D01*
X415826Y478028D02*
X419326D01*
X417576Y476278D02*
Y479778D01*
X880138Y357378D02*
X883638D01*
X881888Y355628D02*
Y359128D01*
X745010Y673862D02*
X748510D01*
X746760Y672112D02*
Y675612D01*
X607596Y661924D02*
X611096D01*
X609346Y660174D02*
Y663674D01*
X577370Y592074D02*
X580870D01*
X579120Y590324D02*
Y593824D01*
X494312Y534416D02*
X497812D01*
X496062Y532666D02*
Y536166D01*
X358920Y527060D02*
X362420D01*
X360670Y525310D02*
Y528810D01*
X534444Y597154D02*
X537944D01*
X536194Y595404D02*
Y598904D01*
X671096Y451358D02*
X674596D01*
X672846Y449608D02*
Y453108D01*
X168176Y12446D02*
X171676D01*
X169926Y10696D02*
Y14196D01*
X255552Y137414D02*
X259052D01*
X257302Y135664D02*
Y139164D01*
X260632Y198374D02*
X264132D01*
X262382Y196624D02*
Y200124D01*
X300002Y538988D02*
X303502D01*
X301752Y537238D02*
Y540738D01*
X319306Y558292D02*
X322806D01*
X321056Y556542D02*
Y560042D01*
X770664Y90170D02*
X774164D01*
X772414Y88420D02*
Y91920D01*
X759996Y88900D02*
X763496D01*
X761746Y87150D02*
Y90650D01*
X380520Y44196D02*
X384020D01*
X382270Y42446D02*
Y45946D01*
X295430Y129286D02*
X298930D01*
X297180Y127536D02*
Y131036D01*
X295430Y204470D02*
X298930D01*
X297180Y202720D02*
Y206220D01*
X294282Y322580D02*
X297782D01*
X296032Y320830D02*
Y324330D01*
X149126Y279400D02*
X152626D01*
X150876Y277650D02*
Y281150D01*
X149126Y23876D02*
X152626D01*
X150876Y22126D02*
Y25626D01*
X504472Y357632D02*
X507972D01*
X506222Y355882D02*
Y359382D01*
X413794Y389636D02*
X417294D01*
X415544Y387886D02*
Y391386D01*
X367312Y454406D02*
X370812D01*
X369062Y452656D02*
Y456156D01*
X390426Y559562D02*
X393926D01*
X392176Y557812D02*
Y561312D01*
X710466Y700024D02*
X713966D01*
X712216Y698274D02*
Y701774D01*
X709704Y250190D02*
X713204D01*
X711454Y248440D02*
Y251940D01*
X801906Y152908D02*
X805406D01*
X803656Y151158D02*
Y154658D01*
X738660Y501904D02*
X742160D01*
X740410Y500154D02*
Y503654D01*
X600738Y508762D02*
X604238D01*
X602488Y507012D02*
Y510512D01*
X372392Y283464D02*
X375892D01*
X374142Y281714D02*
Y285214D01*
X827052Y157734D02*
X830552D01*
X828802Y155984D02*
Y159484D01*
X734088Y553212D02*
X737588D01*
X735838Y551462D02*
Y554962D01*
X518920Y527274D02*
X522420D01*
X520670Y525524D02*
Y529024D01*
X656618Y401066D02*
X660118D01*
X658368Y399316D02*
Y402816D01*
X783872Y396494D02*
X787372D01*
X785622Y394744D02*
Y398244D01*
X847118Y364236D02*
X850618D01*
X848868Y362486D02*
Y365986D01*
X932194Y391922D02*
X935694D01*
X933944Y390172D02*
Y393672D01*
X882074Y406050D02*
X885574D01*
X883824Y404300D02*
Y407800D01*
X903886Y369190D02*
X907386D01*
X905636Y367440D02*
Y370940D01*
X886488Y369190D02*
X889988D01*
X888238Y367440D02*
Y370940D01*
X1095656Y195200D02*
X1099156D01*
X1097406Y193450D02*
Y196950D01*
X1114706Y176150D02*
X1118206D01*
X1116456Y174400D02*
Y177900D01*
X753392Y366522D02*
X756892D01*
X755142Y364772D02*
Y368272D01*
X747296Y413004D02*
X750796D01*
X749046Y411254D02*
Y414754D01*
X1083972Y195200D02*
X1087472D01*
X1085722Y193450D02*
Y196950D01*
X962560Y248666D02*
X966060D01*
X964310Y246916D02*
Y250416D01*
X993270Y229616D02*
X996770D01*
X995020Y227866D02*
Y231366D01*
X817908Y101854D02*
X821408D01*
X819658Y100104D02*
Y103604D01*
X743190Y105664D02*
X746690D01*
X744940Y103914D02*
Y107414D01*
X514251Y89281D02*
X517751D01*
X516001Y87531D02*
Y91031D01*
X199418Y653542D02*
X202918D01*
X201168Y651792D02*
Y655292D01*
X281968Y327710D02*
X285468D01*
X283718Y325960D02*
Y329460D01*
X285016Y248920D02*
X288516D01*
X286766Y247170D02*
Y250670D01*
X323878Y513588D02*
X327378D01*
X325628Y511838D02*
Y515338D01*
X1075972Y136906D02*
X1079472D01*
X1077722Y135156D02*
Y138656D01*
X1075972Y178054D02*
X1079472D01*
X1077722Y176304D02*
Y179804D01*
X878106Y606044D02*
X881606D01*
X879856Y604294D02*
Y607794D01*
X797160Y643370D02*
X800660D01*
X798910Y641620D02*
Y645120D01*
X797160Y678730D02*
X800660D01*
X798910Y676980D02*
Y680480D01*
X734088Y703834D02*
X737588D01*
X735838Y702084D02*
Y705584D01*
X115332Y633476D02*
X118832D01*
X117082Y631726D02*
Y635226D01*
X106454Y375920D02*
X109954D01*
X108204Y374170D02*
Y377670D01*
X1014758Y127000D02*
X1018258D01*
X1016508Y125250D02*
Y128750D01*
X878360Y199190D02*
X881860D01*
X880110Y197440D02*
Y200940D01*
X837510Y57658D02*
X841010D01*
X839260Y55908D02*
Y59408D01*
X919254Y175006D02*
X922754D01*
X921004Y173256D02*
Y176756D01*
X173845Y87457D02*
X177345D01*
X175595Y85707D02*
Y89207D01*
X520728Y74422D02*
X524228D01*
X522478Y72672D02*
Y76172D01*
X638330Y98552D02*
X641830D01*
X640080Y96802D02*
Y100302D01*
X606780Y127665D02*
X610280D01*
X608530Y125915D02*
Y129415D01*
X651030Y76962D02*
X654530D01*
X652780Y75212D02*
Y78712D01*
X168176Y30734D02*
X171676D01*
X169926Y28984D02*
Y32484D01*
X173510Y99600D02*
X177010D01*
X175260Y97850D02*
Y101350D01*
X583466Y269240D02*
X586966D01*
X585216Y267490D02*
Y270990D01*
X611660Y266446D02*
X615160D01*
X613410Y264696D02*
Y268196D01*
X706910Y284480D02*
X710410D01*
X708660Y282730D02*
Y286230D01*
X721896Y528574D02*
X725396D01*
X723646Y526824D02*
Y530324D01*
X620550Y394970D02*
X624050D01*
X622300Y393220D02*
Y396720D01*
X1090680Y226822D02*
X1094180D01*
X1092430Y225072D02*
Y228572D01*
X230152Y563880D02*
X233652D01*
X231902Y562130D02*
Y565630D01*
X126520Y246888D02*
X130020D01*
X128270Y245138D02*
Y248638D01*
X230914Y223520D02*
X234414D01*
X232664Y221770D02*
Y225270D01*
X285270Y215392D02*
X288770D01*
X287020Y213642D02*
Y217142D01*
X306606Y204724D02*
X310106D01*
X308356Y202974D02*
Y206474D01*
X802414Y382270D02*
X805914D01*
X804164Y380520D02*
Y384020D01*
X492534Y317754D02*
X496034D01*
X494284Y316004D02*
Y319504D01*
X626646Y411226D02*
X630146D01*
X628396Y409476D02*
Y412976D01*
X373408Y376682D02*
X376908D01*
X375158Y374932D02*
Y378432D01*
X620450Y406983D02*
X623950D01*
X622200Y405233D02*
Y408733D01*
X440718Y383970D02*
X444218D01*
X442468Y382220D02*
Y385720D01*
X489994Y351282D02*
X493494D01*
X491744Y349532D02*
Y353032D01*
X290085Y189992D02*
X293585D01*
X291835Y188242D02*
Y191742D01*
X608104Y422148D02*
X611604D01*
X609854Y420398D02*
Y423898D01*
X101374Y228092D02*
X104874D01*
X103124Y226342D02*
Y229842D01*
X1211608Y514096D02*
X1215108D01*
X1213358Y512346D02*
Y515846D01*
X957041Y340106D02*
X960540D01*
X958791Y338356D02*
Y341856D01*
X766780Y396748D02*
X770280D01*
X768530Y394998D02*
Y398498D01*
X1211608Y539420D02*
X1215108D01*
X1213358Y537670D02*
Y541170D01*
X976658Y257302D02*
X980158D01*
X978408Y255552D02*
Y259052D01*
X946686Y248666D02*
X950186D01*
X948436Y246916D02*
Y250416D01*
X592610Y372872D02*
X596110D01*
X594360Y371122D02*
Y374622D01*
X965990Y540512D02*
X969490D01*
X967740Y538762D02*
Y542262D01*
X1153518Y488620D02*
X1157018D01*
X1155268Y486870D02*
Y490370D01*
X706656Y422898D02*
X710156D01*
X708406Y421148D02*
Y424648D01*
X539741Y606872D02*
X543241D01*
X541491Y605123D02*
Y608623D01*
X453920Y504444D02*
X457420D01*
X455670Y502694D02*
Y506194D01*
X1247930Y655574D02*
X1251430D01*
X1249680Y653824D02*
Y657324D01*
X469928Y691134D02*
X473428D01*
X471678Y689384D02*
Y692884D01*
X260886Y185420D02*
X264386D01*
X262636Y183670D02*
Y187170D01*
X655348Y477985D02*
X658848D01*
X657098Y476235D02*
Y479735D01*
X617248Y691642D02*
X620748D01*
X618998Y689892D02*
Y693392D01*
X654164Y686054D02*
X657664D01*
X655914Y684304D02*
Y687804D01*
X560352Y418254D02*
X563852D01*
X562102Y416504D02*
Y420004D01*
X670080Y705358D02*
X673580D01*
X671830Y703608D02*
Y707108D01*
X532666Y393954D02*
X536166D01*
X534416Y392204D02*
Y395704D01*
X560352Y394208D02*
X563852D01*
X562102Y392458D02*
Y395958D01*
X753900Y599186D02*
X757400D01*
X755650Y597436D02*
Y600936D01*
X583462Y409190D02*
X586962D01*
X585212Y407440D02*
Y410940D01*
X618518Y660908D02*
X622018D01*
X620268Y659158D02*
Y662658D01*
X853214Y356362D02*
X856714D01*
X854964Y354612D02*
Y358112D01*
X824004Y405510D02*
X827504D01*
X825754Y403760D02*
Y407260D01*
X533920Y504444D02*
X537420D01*
X535670Y502694D02*
Y506194D01*
X780019Y445710D02*
X783519D01*
X781769Y443960D02*
Y447460D01*
X597182Y493522D02*
X600682D01*
X598932Y491772D02*
Y495272D01*
X475516Y579120D02*
X479016D01*
X477266Y577370D02*
Y580870D01*
X263680Y562356D02*
X267180D01*
X265430Y560606D02*
Y564106D01*
X434114Y616458D02*
X437614D01*
X435864Y614708D02*
Y618208D01*
X270150Y506992D02*
X273650D01*
X271900Y505242D02*
Y508742D01*
X288572Y541350D02*
X292072D01*
X290322Y539600D02*
Y543100D01*
X650030Y415208D02*
X653530D01*
X651780Y413458D02*
Y416958D01*
X637503Y456870D02*
X641003D01*
X639253Y455120D02*
Y458620D01*
X326100Y271970D02*
X329599D01*
X327850Y270219D02*
Y273720D01*
X380012Y212655D02*
X383512D01*
X381762Y210905D02*
Y214405D01*
X544604Y125476D02*
X548104D01*
X546354Y123726D02*
Y127226D01*
X591340Y198374D02*
X594840D01*
X593090Y196624D02*
Y200124D01*
X600992Y182118D02*
X604492D01*
X602742Y180368D02*
Y183868D01*
X589816Y182118D02*
X593316D01*
X591566Y180368D02*
Y183868D01*
X821718Y163068D02*
X825218D01*
X823468Y161318D02*
Y164818D01*
X788444Y501904D02*
X791944D01*
X790194Y500154D02*
Y503654D01*
X900750Y437388D02*
X904250D01*
X902500Y435638D02*
Y439138D01*
X743740Y546608D02*
X747240D01*
X745490Y544858D02*
Y548358D01*
X538398Y491490D02*
X541898D01*
X540148Y489740D02*
Y493240D01*
X641780Y422508D02*
X645280D01*
X643530Y420758D02*
Y424258D01*
X648564Y406400D02*
X652064D01*
X650314Y404650D02*
Y408150D01*
X506504Y181610D02*
X510004D01*
X508254Y179860D02*
Y183360D01*
X496344Y282194D02*
X499844D01*
X498094Y280444D02*
Y283944D01*
X347500Y407924D02*
X351000D01*
X349250Y406174D02*
Y409674D01*
X369174Y260737D02*
X372674D01*
X370924Y258987D02*
Y262487D01*
X481104Y157480D02*
X484604D01*
X482854Y155730D02*
Y159230D01*
X355374Y544830D02*
X358874D01*
X357124Y543080D02*
Y546580D01*
X727992Y560832D02*
X731492D01*
X729742Y559082D02*
Y562582D01*
X528920Y526098D02*
X532420D01*
X530670Y524348D02*
Y527848D01*
X854992Y404114D02*
X858492D01*
X856742Y402364D02*
Y405864D01*
X748566Y483870D02*
X752066D01*
X750316Y482120D02*
Y485620D01*
X586260Y485902D02*
X589760D01*
X588010Y484152D02*
Y487652D01*
X552347Y513211D02*
X555847D01*
X554097Y511461D02*
Y514961D01*
X443004Y540004D02*
X446504D01*
X444754Y538254D02*
Y541754D01*
X647860Y103802D02*
X651360D01*
X649610Y102052D02*
Y105552D01*
X641886Y150876D02*
X645386D01*
X643636Y149126D02*
Y152626D01*
X462308Y391922D02*
X465808D01*
X464058Y390172D02*
Y393672D01*
X587530Y309190D02*
X591030D01*
X589280Y307440D02*
Y310940D01*
X560574Y334487D02*
X564075D01*
X562324Y332737D02*
Y336236D01*
X470436Y417068D02*
X473936D01*
X472186Y415318D02*
Y418818D01*
X731802Y158750D02*
X735302D01*
X733552Y157000D02*
Y160500D01*
X667794Y156718D02*
X671294D01*
X669544Y154968D02*
Y158468D01*
X538762Y182118D02*
X542262D01*
X540512Y180368D02*
Y183868D01*
X471706Y226192D02*
X475206D01*
X473456Y224442D02*
Y227942D01*
X440648Y319970D02*
X444148D01*
X442398Y318220D02*
Y321720D01*
X468912Y427906D02*
X472412D01*
X470662Y426156D02*
Y429656D01*
X622836Y243840D02*
X626336D01*
X624586Y242090D02*
Y245590D01*
X585752Y144780D02*
X589252D01*
X587502Y143030D02*
Y146530D01*
X293144Y266412D02*
X296644D01*
X294894Y264662D02*
Y268162D01*
X623852Y112522D02*
X627352D01*
X625602Y110772D02*
Y114272D01*
X621820Y154940D02*
X625320D01*
X623570Y153190D02*
Y156690D01*
X627916Y166878D02*
X631416D01*
X629666Y165128D02*
Y168628D01*
X592864Y258572D02*
X596364D01*
X594614Y256822D02*
Y260322D01*
X530888Y268615D02*
X534388D01*
X532638Y266865D02*
Y270365D01*
X356939Y290576D02*
X360439D01*
X358689Y288826D02*
Y292326D01*
X353088Y423970D02*
X356588D01*
X354838Y422220D02*
Y425720D01*
X583466Y288544D02*
X586966D01*
X585216Y286794D02*
Y290294D01*
X553748Y288544D02*
X557248D01*
X555498Y286794D02*
Y290294D01*
X485422Y238506D02*
X488922D01*
X487172Y236756D02*
Y240256D01*
X656110Y127254D02*
X659610D01*
X657860Y125504D02*
Y129004D01*
X663222Y115316D02*
X666722D01*
X664972Y113566D02*
Y117066D01*
X699847Y106172D02*
X703347D01*
X701597Y104422D02*
Y107922D01*
X878360Y209042D02*
X881860D01*
X880110Y207292D02*
Y210792D01*
X922810Y218948D02*
X926310D01*
X924560Y217198D02*
Y220698D01*
X890806Y209042D02*
X894306D01*
X892556Y207292D02*
Y210792D01*
X938812Y211074D02*
X942312D01*
X940562Y209324D02*
Y212824D01*
X1021616Y295148D02*
X1025116D01*
X1023366Y293398D02*
Y296898D01*
X847118Y280162D02*
X850618D01*
X848868Y278412D02*
Y281912D01*
X825910Y265938D02*
X829410D01*
X827660Y264188D02*
Y267688D01*
X817654Y476504D02*
X821154D01*
X819404Y474754D02*
Y478254D01*
X831116Y467106D02*
X834616D01*
X832866Y465356D02*
Y468856D01*
X827052Y453390D02*
X830552D01*
X828802Y451640D02*
Y455140D01*
X920778Y431800D02*
X924278D01*
X922528Y430050D02*
Y433550D01*
X583212Y328930D02*
X586712D01*
X584962Y327180D02*
Y330680D01*
X931686Y444246D02*
X935186D01*
X933436Y442496D02*
Y445996D01*
X440718Y304038D02*
X444218D01*
X442468Y302288D02*
Y305788D01*
X469928Y303276D02*
X473428D01*
X471678Y301526D02*
Y305026D01*
X1021616Y224028D02*
X1025116D01*
X1023366Y222278D02*
Y225778D01*
X878360Y269190D02*
X881860D01*
X880110Y267440D02*
Y270940D01*
X946686Y272542D02*
X950186D01*
X948436Y270792D02*
Y274292D01*
X878360Y249190D02*
X881860D01*
X880110Y247440D02*
Y250940D01*
X887591Y278384D02*
X891091D01*
X889341Y276634D02*
Y280134D01*
X1008840Y235458D02*
X1012340D01*
X1010590Y233708D02*
Y237208D01*
X480342Y324104D02*
X483842D01*
X482092Y322354D02*
Y325854D01*
X922556Y240284D02*
X926056D01*
X924306Y238534D02*
Y242034D01*
X894616Y249428D02*
X898116D01*
X896366Y247678D02*
Y251178D01*
X827306Y445770D02*
X830806D01*
X829056Y444020D02*
Y447520D01*
X885980Y259080D02*
X889480D01*
X887730Y257330D02*
Y260830D01*
X908450Y259080D02*
X911950D01*
X910200Y257330D02*
Y260830D01*
X801906Y445770D02*
X805406D01*
X803656Y444020D02*
Y447520D01*
X796826Y414528D02*
X800326D01*
X798576Y412778D02*
Y416278D01*
X850928Y234190D02*
X854428D01*
X852678Y232440D02*
Y235940D01*
X82578Y342169D02*
X86078D01*
X84328Y340420D02*
Y343919D01*
X796572Y43180D02*
X800072D01*
X798322Y41430D02*
Y44930D01*
X342928Y536956D02*
X346428D01*
X344678Y535206D02*
Y538706D01*
M02*
