G04*
G04 #@! TF.GenerationSoftware,Altium Limited,Altium Designer,26.7.1 (11)*
G04*
G04 Layer_Color=16711935*
G04 Board_Origin=18000000|21950000*
%FSLAX44Y44*%
%MOMM*%
G71*
G04*
G04 #@! TF.SameCoordinates,D071BD7E-3876-4D20-9434-7D3039072E30*
G04*
G04*
G04 #@! TF.FilePolarity,Positive*
G04*
G01*
G75*
%ADD13C,0.2540*%
G36*
X1352315Y429081D02*
X1351379Y429077D01*
X1351364Y429092D01*
X1351335Y429122D01*
X1351275Y429166D01*
X1351200Y429240D01*
X1351096Y429314D01*
X1350977Y429418D01*
X1350828Y429536D01*
X1350679Y429654D01*
X1350500Y429787D01*
X1350291Y429935D01*
X1350083Y430098D01*
X1349845Y430246D01*
X1349591Y430408D01*
X1349323Y430586D01*
X1349026Y430748D01*
X1348728Y430925D01*
X1348713Y430940D01*
X1348653Y430970D01*
X1348564Y431014D01*
X1348445Y431073D01*
X1348296Y431147D01*
X1348117Y431235D01*
X1347909Y431339D01*
X1347686Y431442D01*
X1347448Y431545D01*
X1347180Y431663D01*
X1346897Y431781D01*
X1346599Y431898D01*
X1345989Y432119D01*
X1345335Y432325D01*
X1345320Y432325D01*
X1345275Y432340D01*
X1345216Y432354D01*
X1345127Y432384D01*
X1345008Y432413D01*
X1344874Y432442D01*
X1344710Y432471D01*
X1344547Y432515D01*
X1344353Y432544D01*
X1344145Y432588D01*
X1343699Y432661D01*
X1343194Y432719D01*
X1342659Y432761D01*
X1342654Y433994D01*
X1342669Y433994D01*
X1342714Y433995D01*
X1342773Y433995D01*
X1342862Y433980D01*
X1342966Y433981D01*
X1343100Y433966D01*
X1343264Y433952D01*
X1343427Y433938D01*
X1343620Y433909D01*
X1343843Y433880D01*
X1344066Y433851D01*
X1344304Y433807D01*
X1344572Y433764D01*
X1344840Y433705D01*
X1345435Y433559D01*
X1345449Y433559D01*
X1345509Y433544D01*
X1345598Y433515D01*
X1345717Y433485D01*
X1345866Y433441D01*
X1346030Y433382D01*
X1346223Y433324D01*
X1346446Y433250D01*
X1346669Y433162D01*
X1346922Y433074D01*
X1347458Y432867D01*
X1348023Y432617D01*
X1348589Y432337D01*
X1348604Y432322D01*
X1348663Y432292D01*
X1348738Y432248D01*
X1348842Y432189D01*
X1348976Y432115D01*
X1349125Y432026D01*
X1349289Y431923D01*
X1349482Y431820D01*
X1349884Y431554D01*
X1350316Y431258D01*
X1350748Y430947D01*
X1351166Y430607D01*
X1351149Y435392D01*
X1352293Y435396D01*
X1352315Y429081D01*
D02*
G37*
G36*
X1350035Y426948D02*
X1350050Y426918D01*
X1350079Y426859D01*
X1350124Y426800D01*
X1350169Y426711D01*
X1350214Y426607D01*
X1350349Y426369D01*
X1350513Y426102D01*
X1350707Y425806D01*
X1350931Y425510D01*
X1351170Y425228D01*
X1351185Y425213D01*
X1351200Y425199D01*
X1351289Y425110D01*
X1351424Y424977D01*
X1351588Y424814D01*
X1351796Y424636D01*
X1352020Y424459D01*
X1352258Y424296D01*
X1352496Y424163D01*
X1352499Y423376D01*
X1342692Y423341D01*
X1342688Y424544D01*
X1350325Y424571D01*
X1350311Y424586D01*
X1350251Y424645D01*
X1350176Y424749D01*
X1350072Y424883D01*
X1349937Y425046D01*
X1349803Y425238D01*
X1349639Y425461D01*
X1349489Y425713D01*
X1349489Y425727D01*
X1349474Y425742D01*
X1349415Y425831D01*
X1349340Y425965D01*
X1349250Y426128D01*
X1349145Y426320D01*
X1349055Y426528D01*
X1348951Y426751D01*
X1348861Y426959D01*
X1350035Y426963D01*
X1350035Y426948D01*
D02*
G37*
G36*
X1344077Y418249D02*
X1342710Y418244D01*
X1342706Y419611D01*
X1344073Y419616D01*
X1344077Y418249D01*
D02*
G37*
G36*
X1342984Y416640D02*
X1343103Y416626D01*
X1343236Y416611D01*
X1343385Y416567D01*
X1343534Y416523D01*
X1343549Y416523D01*
X1343564Y416508D01*
X1343653Y416479D01*
X1343772Y416420D01*
X1343951Y416332D01*
X1344144Y416228D01*
X1344368Y416080D01*
X1344591Y415933D01*
X1344829Y415740D01*
X1344844Y415740D01*
X1344859Y415711D01*
X1344949Y415637D01*
X1345083Y415518D01*
X1345262Y415341D01*
X1345470Y415118D01*
X1345724Y414852D01*
X1346008Y414526D01*
X1346321Y414171D01*
X1346336Y414156D01*
X1346380Y414096D01*
X1346440Y414022D01*
X1346545Y413919D01*
X1346649Y413785D01*
X1346783Y413637D01*
X1347067Y413311D01*
X1347410Y412956D01*
X1347753Y412601D01*
X1347917Y412423D01*
X1348081Y412275D01*
X1348245Y412142D01*
X1348394Y412023D01*
X1348409Y412024D01*
X1348424Y411994D01*
X1348468Y411964D01*
X1348528Y411935D01*
X1348677Y411846D01*
X1348870Y411743D01*
X1349094Y411640D01*
X1349332Y411551D01*
X1349599Y411493D01*
X1349852Y411464D01*
X1349867Y411464D01*
X1349882Y411464D01*
X1349971Y411479D01*
X1350105Y411495D01*
X1350268Y411525D01*
X1350461Y411600D01*
X1350654Y411690D01*
X1350861Y411809D01*
X1351054Y411988D01*
X1351069Y412018D01*
X1351128Y412078D01*
X1351202Y412197D01*
X1351305Y412346D01*
X1351394Y412539D01*
X1351467Y412762D01*
X1351526Y413030D01*
X1351539Y413327D01*
X1351539Y413416D01*
X1351524Y413476D01*
X1351509Y413624D01*
X1351478Y413817D01*
X1351403Y414040D01*
X1351313Y414278D01*
X1351179Y414500D01*
X1351000Y414707D01*
X1350970Y414722D01*
X1350910Y414781D01*
X1350791Y414870D01*
X1350627Y414959D01*
X1350419Y415062D01*
X1350181Y415135D01*
X1349898Y415194D01*
X1349571Y415222D01*
X1349701Y416456D01*
X1349715Y416456D01*
X1349760Y416456D01*
X1349834Y416442D01*
X1349924Y416427D01*
X1350043Y416398D01*
X1350176Y416384D01*
X1350474Y416295D01*
X1350816Y416178D01*
X1351158Y416016D01*
X1351501Y415794D01*
X1351650Y415676D01*
X1351799Y415527D01*
X1351814Y415513D01*
X1351829Y415483D01*
X1351874Y415439D01*
X1351918Y415379D01*
X1351963Y415290D01*
X1352038Y415187D01*
X1352098Y415068D01*
X1352173Y414934D01*
X1352233Y414786D01*
X1352307Y414623D01*
X1352368Y414430D01*
X1352413Y414237D01*
X1352504Y413792D01*
X1352519Y413554D01*
X1352535Y413301D01*
X1352536Y413167D01*
X1352521Y413063D01*
X1352507Y412944D01*
X1352492Y412811D01*
X1352478Y412662D01*
X1352434Y412499D01*
X1352346Y412141D01*
X1352214Y411770D01*
X1352125Y411576D01*
X1352022Y411397D01*
X1351889Y411233D01*
X1351756Y411070D01*
X1351741Y411055D01*
X1351726Y411040D01*
X1351681Y410995D01*
X1351622Y410935D01*
X1351533Y410876D01*
X1351444Y410801D01*
X1351222Y410652D01*
X1350940Y410502D01*
X1350614Y410367D01*
X1350243Y410262D01*
X1350035Y410246D01*
X1349827Y410231D01*
X1349797Y410230D01*
X1349723Y410230D01*
X1349604Y410245D01*
X1349455Y410259D01*
X1349277Y410288D01*
X1349084Y410332D01*
X1348875Y410391D01*
X1348667Y410479D01*
X1348637Y410494D01*
X1348563Y410523D01*
X1348459Y410582D01*
X1348310Y410671D01*
X1348131Y410774D01*
X1347922Y410907D01*
X1347714Y411085D01*
X1347475Y411277D01*
X1347446Y411307D01*
X1347356Y411381D01*
X1347222Y411514D01*
X1347132Y411603D01*
X1347028Y411707D01*
X1346909Y411825D01*
X1346774Y411973D01*
X1346640Y412121D01*
X1346476Y412284D01*
X1346312Y412462D01*
X1346133Y412669D01*
X1345954Y412877D01*
X1345745Y413114D01*
X1345730Y413128D01*
X1345700Y413158D01*
X1345656Y413217D01*
X1345596Y413291D01*
X1345447Y413469D01*
X1345253Y413691D01*
X1345044Y413913D01*
X1344835Y414150D01*
X1344656Y414343D01*
X1344581Y414417D01*
X1344507Y414491D01*
X1344492Y414506D01*
X1344447Y414535D01*
X1344388Y414595D01*
X1344298Y414669D01*
X1344104Y414831D01*
X1343866Y414994D01*
X1343883Y410195D01*
X1342739Y410190D01*
X1342716Y416654D01*
X1342731Y416654D01*
X1342790Y416654D01*
X1342880Y416655D01*
X1342984Y416640D01*
D02*
G37*
G36*
X1352506Y404891D02*
X1352509Y403910D01*
X1346194Y403888D01*
X1346199Y402565D01*
X1345099Y402561D01*
X1345094Y403884D01*
X1342762Y403875D01*
X1342757Y405079D01*
X1345090Y405087D01*
X1345075Y409322D01*
X1346175Y409326D01*
X1352506Y404891D01*
D02*
G37*
G36*
X1352437Y394980D02*
X1351501Y394976D01*
X1351486Y394991D01*
X1351456Y395021D01*
X1351396Y395065D01*
X1351322Y395139D01*
X1351218Y395213D01*
X1351098Y395317D01*
X1350949Y395435D01*
X1350800Y395553D01*
X1350622Y395686D01*
X1350413Y395834D01*
X1350204Y395997D01*
X1349966Y396145D01*
X1349713Y396307D01*
X1349445Y396485D01*
X1349147Y396647D01*
X1348849Y396824D01*
X1348834Y396839D01*
X1348775Y396869D01*
X1348685Y396913D01*
X1348566Y396972D01*
X1348418Y397046D01*
X1348239Y397134D01*
X1348031Y397237D01*
X1347807Y397341D01*
X1347569Y397444D01*
X1347301Y397562D01*
X1347019Y397679D01*
X1346721Y397797D01*
X1346111Y398018D01*
X1345456Y398224D01*
X1345442Y398224D01*
X1345397Y398238D01*
X1345338Y398253D01*
X1345248Y398282D01*
X1345129Y398312D01*
X1344995Y398341D01*
X1344832Y398370D01*
X1344668Y398414D01*
X1344475Y398443D01*
X1344267Y398487D01*
X1343821Y398560D01*
X1343315Y398617D01*
X1342780Y398660D01*
X1342776Y399893D01*
X1342791Y399893D01*
X1342835Y399893D01*
X1342895Y399894D01*
X1342984Y399879D01*
X1343088Y399879D01*
X1343222Y399865D01*
X1343385Y399851D01*
X1343549Y399837D01*
X1343742Y399808D01*
X1343965Y399779D01*
X1344188Y399750D01*
X1344426Y399706D01*
X1344693Y399662D01*
X1344961Y399604D01*
X1345556Y399457D01*
X1345571Y399457D01*
X1345630Y399443D01*
X1345720Y399413D01*
X1345839Y399384D01*
X1345987Y399340D01*
X1346151Y399281D01*
X1346344Y399222D01*
X1346568Y399149D01*
X1346791Y399061D01*
X1347044Y398972D01*
X1347579Y398766D01*
X1348145Y398516D01*
X1348710Y398235D01*
X1348725Y398220D01*
X1348785Y398191D01*
X1348860Y398147D01*
X1348964Y398088D01*
X1349098Y398014D01*
X1349247Y397925D01*
X1349410Y397822D01*
X1349604Y397718D01*
X1350006Y397452D01*
X1350438Y397157D01*
X1350870Y396846D01*
X1351287Y396506D01*
X1351270Y401291D01*
X1352414Y401295D01*
X1352437Y394980D01*
D02*
G37*
G36*
X1346601Y389699D02*
X1346750Y389699D01*
X1346913Y389685D01*
X1347107Y389671D01*
X1347315Y389657D01*
X1347538Y389628D01*
X1347776Y389599D01*
X1348296Y389511D01*
X1348831Y389380D01*
X1349382Y389218D01*
X1349397Y389203D01*
X1349456Y389189D01*
X1349545Y389159D01*
X1349664Y389100D01*
X1349828Y389041D01*
X1350007Y388968D01*
X1350200Y388879D01*
X1350438Y388761D01*
X1350676Y388643D01*
X1350944Y388511D01*
X1351227Y388363D01*
X1351510Y388186D01*
X1351808Y388008D01*
X1352121Y387816D01*
X1352433Y387595D01*
X1352746Y387373D01*
X1352749Y386511D01*
X1352735Y386526D01*
X1352690Y386540D01*
X1352615Y386585D01*
X1352526Y386644D01*
X1352407Y386703D01*
X1352273Y386777D01*
X1351975Y386954D01*
X1351648Y387131D01*
X1351320Y387308D01*
X1351008Y387456D01*
X1350874Y387515D01*
X1350755Y387574D01*
X1350740Y387574D01*
X1350710Y387589D01*
X1350665Y387618D01*
X1350591Y387648D01*
X1350516Y387677D01*
X1350412Y387721D01*
X1350174Y387809D01*
X1349892Y387912D01*
X1349564Y388015D01*
X1349207Y388118D01*
X1348835Y388206D01*
X1348821Y388206D01*
X1348776Y388220D01*
X1348716Y388235D01*
X1348627Y388250D01*
X1348508Y388264D01*
X1348374Y388293D01*
X1348226Y388323D01*
X1348062Y388337D01*
X1347691Y388395D01*
X1347260Y388438D01*
X1346814Y388466D01*
X1346338Y388479D01*
X1346323Y388479D01*
X1346308Y388479D01*
X1346264Y388479D01*
X1346190Y388479D01*
X1346115Y388464D01*
X1346026Y388463D01*
X1345907Y388463D01*
X1345789Y388448D01*
X1345506Y388417D01*
X1345165Y388371D01*
X1344778Y388310D01*
X1344348Y388220D01*
X1343873Y388114D01*
X1343383Y387978D01*
X1342849Y387813D01*
X1342300Y387618D01*
X1341736Y387393D01*
X1341142Y387123D01*
X1340549Y386824D01*
X1339956Y386465D01*
X1339953Y387327D01*
X1339968Y387342D01*
X1340012Y387372D01*
X1340086Y387417D01*
X1340175Y387491D01*
X1340294Y387581D01*
X1340442Y387686D01*
X1340605Y387790D01*
X1340798Y387910D01*
X1340990Y388044D01*
X1341213Y388179D01*
X1341465Y388313D01*
X1341717Y388463D01*
X1342266Y388747D01*
X1342874Y389017D01*
X1342889Y389017D01*
X1342948Y389047D01*
X1343037Y389077D01*
X1343171Y389122D01*
X1343319Y389182D01*
X1343497Y389242D01*
X1343705Y389302D01*
X1343943Y389362D01*
X1344180Y389423D01*
X1344462Y389483D01*
X1344744Y389543D01*
X1345041Y389604D01*
X1345680Y389680D01*
X1346007Y389697D01*
X1346334Y389713D01*
X1346349Y389713D01*
X1346408Y389713D01*
X1346497Y389713D01*
X1346601Y389699D01*
D02*
G37*
G36*
X1349905Y384064D02*
X1348910Y384060D01*
X1348939Y384046D01*
X1348999Y384001D01*
X1349088Y383927D01*
X1349208Y383824D01*
X1349342Y383705D01*
X1349476Y383557D01*
X1349625Y383380D01*
X1349745Y383187D01*
X1349760Y383157D01*
X1349790Y383083D01*
X1349850Y382964D01*
X1349910Y382816D01*
X1349970Y382623D01*
X1350030Y382415D01*
X1350061Y382163D01*
X1350076Y381910D01*
X1350077Y381776D01*
X1350063Y381628D01*
X1350033Y381449D01*
X1350004Y381256D01*
X1349946Y381033D01*
X1349857Y380825D01*
X1349754Y380631D01*
X1349739Y380601D01*
X1349695Y380542D01*
X1349621Y380452D01*
X1349517Y380348D01*
X1349384Y380229D01*
X1349236Y380109D01*
X1349043Y380004D01*
X1348835Y379915D01*
X1348850Y379900D01*
X1348895Y379870D01*
X1348954Y379826D01*
X1349029Y379767D01*
X1349133Y379678D01*
X1349238Y379574D01*
X1349342Y379456D01*
X1349462Y379322D01*
X1349581Y379174D01*
X1349686Y379011D01*
X1349895Y378625D01*
X1349970Y378418D01*
X1350030Y378195D01*
X1350076Y377972D01*
X1350091Y377720D01*
X1350092Y377616D01*
X1350077Y377542D01*
X1350077Y377452D01*
X1350063Y377348D01*
X1350019Y377125D01*
X1349946Y376857D01*
X1349843Y376590D01*
X1349695Y376337D01*
X1349503Y376098D01*
X1349473Y376068D01*
X1349399Y376008D01*
X1349251Y375919D01*
X1349058Y375799D01*
X1348806Y375694D01*
X1348509Y375604D01*
X1348138Y375543D01*
X1347930Y375513D01*
X1347707Y375512D01*
X1342863Y375495D01*
X1342858Y376698D01*
X1347301Y376714D01*
X1347316Y376714D01*
X1347331Y376714D01*
X1347420Y376715D01*
X1347554Y376715D01*
X1347702Y376731D01*
X1348044Y376762D01*
X1348208Y376792D01*
X1348341Y376837D01*
X1348356Y376837D01*
X1348400Y376867D01*
X1348460Y376897D01*
X1348534Y376942D01*
X1348608Y377001D01*
X1348697Y377076D01*
X1348786Y377165D01*
X1348860Y377270D01*
X1348874Y377285D01*
X1348889Y377329D01*
X1348919Y377389D01*
X1348963Y377463D01*
X1348992Y377567D01*
X1349021Y377701D01*
X1349036Y377835D01*
X1349050Y377984D01*
X1349050Y378102D01*
X1349019Y378251D01*
X1348989Y378414D01*
X1348929Y378607D01*
X1348839Y378815D01*
X1348705Y379037D01*
X1348540Y379230D01*
X1348511Y379245D01*
X1348451Y379304D01*
X1348332Y379378D01*
X1348153Y379466D01*
X1347930Y379570D01*
X1347662Y379643D01*
X1347335Y379701D01*
X1346949Y379715D01*
X1342848Y379700D01*
X1342843Y380904D01*
X1347435Y380920D01*
X1347450Y380920D01*
X1347465Y380920D01*
X1347509Y380920D01*
X1347569Y380920D01*
X1347717Y380936D01*
X1347881Y380951D01*
X1348089Y380997D01*
X1348282Y381042D01*
X1348474Y381117D01*
X1348638Y381221D01*
X1348652Y381236D01*
X1348697Y381281D01*
X1348771Y381341D01*
X1348845Y381445D01*
X1348904Y381579D01*
X1348977Y381743D01*
X1349021Y381936D01*
X1349035Y382174D01*
X1349035Y382263D01*
X1349020Y382352D01*
X1349004Y382486D01*
X1348974Y382619D01*
X1348914Y382783D01*
X1348854Y382946D01*
X1348764Y383109D01*
X1348750Y383124D01*
X1348720Y383183D01*
X1348645Y383257D01*
X1348571Y383346D01*
X1348451Y383450D01*
X1348317Y383553D01*
X1348153Y383642D01*
X1347975Y383730D01*
X1347945Y383745D01*
X1347885Y383760D01*
X1347767Y383789D01*
X1347603Y383818D01*
X1347395Y383862D01*
X1347142Y383891D01*
X1346845Y383904D01*
X1346503Y383918D01*
X1342833Y383905D01*
X1342829Y385109D01*
X1349901Y385134D01*
X1349905Y384064D01*
D02*
G37*
G36*
X1349946Y372712D02*
X1348950Y372708D01*
X1348980Y372693D01*
X1349039Y372649D01*
X1349129Y372575D01*
X1349248Y372472D01*
X1349382Y372353D01*
X1349517Y372205D01*
X1349666Y372027D01*
X1349785Y371834D01*
X1349800Y371805D01*
X1349830Y371731D01*
X1349890Y371612D01*
X1349950Y371464D01*
X1350010Y371271D01*
X1350070Y371063D01*
X1350101Y370810D01*
X1350117Y370558D01*
X1350117Y370424D01*
X1350103Y370275D01*
X1350074Y370097D01*
X1350045Y369904D01*
X1349986Y369681D01*
X1349898Y369472D01*
X1349794Y369279D01*
X1349780Y369249D01*
X1349735Y369189D01*
X1349661Y369100D01*
X1349558Y368996D01*
X1349424Y368876D01*
X1349276Y368757D01*
X1349084Y368652D01*
X1348876Y368562D01*
X1348891Y368548D01*
X1348935Y368518D01*
X1348995Y368474D01*
X1349069Y368414D01*
X1349174Y368326D01*
X1349278Y368222D01*
X1349383Y368103D01*
X1349502Y367970D01*
X1349621Y367822D01*
X1349726Y367659D01*
X1349935Y367273D01*
X1350010Y367066D01*
X1350071Y366843D01*
X1350116Y366620D01*
X1350132Y366368D01*
X1350132Y366264D01*
X1350117Y366189D01*
X1350118Y366100D01*
X1350103Y365996D01*
X1350060Y365773D01*
X1349986Y365505D01*
X1349883Y365237D01*
X1349736Y364984D01*
X1349543Y364746D01*
X1349514Y364716D01*
X1349440Y364656D01*
X1349291Y364567D01*
X1349098Y364447D01*
X1348846Y364342D01*
X1348549Y364252D01*
X1348178Y364191D01*
X1347970Y364161D01*
X1347747Y364160D01*
X1342903Y364143D01*
X1342899Y365346D01*
X1347342Y365362D01*
X1347357Y365362D01*
X1347372Y365362D01*
X1347461Y365363D01*
X1347594Y365363D01*
X1347743Y365378D01*
X1348085Y365409D01*
X1348248Y365440D01*
X1348382Y365485D01*
X1348396Y365485D01*
X1348441Y365515D01*
X1348500Y365545D01*
X1348574Y365589D01*
X1348648Y365649D01*
X1348737Y365724D01*
X1348826Y365813D01*
X1348900Y365918D01*
X1348915Y365932D01*
X1348930Y365977D01*
X1348959Y366036D01*
X1349003Y366111D01*
X1349033Y366215D01*
X1349062Y366349D01*
X1349076Y366483D01*
X1349091Y366631D01*
X1349090Y366750D01*
X1349060Y366899D01*
X1349030Y367062D01*
X1348970Y367255D01*
X1348880Y367463D01*
X1348745Y367685D01*
X1348581Y367878D01*
X1348551Y367892D01*
X1348492Y367952D01*
X1348372Y368026D01*
X1348194Y368114D01*
X1347971Y368217D01*
X1347703Y368291D01*
X1347376Y368349D01*
X1346989Y368362D01*
X1342888Y368348D01*
X1342884Y369551D01*
X1347475Y369568D01*
X1347490Y369568D01*
X1347505Y369568D01*
X1347550Y369568D01*
X1347609Y369568D01*
X1347758Y369584D01*
X1347921Y369599D01*
X1348129Y369644D01*
X1348322Y369690D01*
X1348515Y369765D01*
X1348678Y369869D01*
X1348693Y369884D01*
X1348737Y369929D01*
X1348811Y369989D01*
X1348885Y370093D01*
X1348944Y370227D01*
X1349018Y370391D01*
X1349062Y370584D01*
X1349076Y370822D01*
X1349075Y370911D01*
X1349060Y371000D01*
X1349045Y371133D01*
X1349015Y371267D01*
X1348955Y371430D01*
X1348895Y371594D01*
X1348805Y371757D01*
X1348790Y371772D01*
X1348760Y371831D01*
X1348685Y371905D01*
X1348611Y371994D01*
X1348492Y372097D01*
X1348358Y372201D01*
X1348194Y372290D01*
X1348015Y372378D01*
X1347985Y372393D01*
X1347926Y372407D01*
X1347807Y372437D01*
X1347643Y372466D01*
X1347435Y372510D01*
X1347182Y372538D01*
X1346885Y372552D01*
X1346543Y372566D01*
X1342873Y372553D01*
X1342869Y373756D01*
X1349942Y373782D01*
X1349946Y372712D01*
D02*
G37*
G36*
X1352838Y361652D02*
X1352823Y361637D01*
X1352764Y361592D01*
X1352675Y361533D01*
X1352556Y361443D01*
X1352393Y361338D01*
X1352216Y361219D01*
X1352023Y361085D01*
X1351786Y360950D01*
X1351548Y360801D01*
X1351281Y360651D01*
X1350718Y360337D01*
X1350110Y360052D01*
X1349798Y359918D01*
X1349487Y359798D01*
X1349472Y359798D01*
X1349427Y359768D01*
X1349338Y359753D01*
X1349234Y359707D01*
X1349101Y359677D01*
X1348937Y359632D01*
X1348759Y359587D01*
X1348566Y359527D01*
X1348344Y359482D01*
X1348106Y359436D01*
X1347586Y359345D01*
X1347037Y359284D01*
X1346442Y359267D01*
X1346427Y359267D01*
X1346368Y359266D01*
X1346264Y359266D01*
X1346145Y359281D01*
X1345982Y359280D01*
X1345788Y359294D01*
X1345580Y359323D01*
X1345342Y359352D01*
X1345090Y359381D01*
X1344807Y359424D01*
X1344227Y359556D01*
X1343603Y359717D01*
X1343290Y359835D01*
X1342978Y359953D01*
X1342963Y359967D01*
X1342903Y359982D01*
X1342814Y360026D01*
X1342695Y360071D01*
X1342546Y360144D01*
X1342382Y360218D01*
X1342189Y360307D01*
X1341980Y360410D01*
X1341534Y360661D01*
X1341042Y360941D01*
X1340536Y361252D01*
X1340045Y361606D01*
X1340042Y362468D01*
X1340056Y362468D01*
X1340071Y362439D01*
X1340131Y362424D01*
X1340190Y362380D01*
X1340265Y362335D01*
X1340354Y362291D01*
X1340473Y362232D01*
X1340592Y362158D01*
X1340875Y362011D01*
X1341217Y361848D01*
X1341605Y361657D01*
X1342036Y361480D01*
X1342512Y361288D01*
X1343003Y361112D01*
X1343539Y360950D01*
X1344089Y360804D01*
X1344669Y360672D01*
X1345249Y360585D01*
X1345844Y360513D01*
X1346438Y360500D01*
X1346453Y360500D01*
X1346497Y360500D01*
X1346557Y360500D01*
X1346646Y360501D01*
X1346765Y360516D01*
X1346898Y360517D01*
X1347047Y360532D01*
X1347210Y360532D01*
X1347597Y360578D01*
X1348013Y360625D01*
X1348458Y360700D01*
X1348918Y360806D01*
X1348933Y360806D01*
X1348963Y360821D01*
X1349022Y360836D01*
X1349082Y360851D01*
X1349171Y360866D01*
X1349289Y360896D01*
X1349527Y360972D01*
X1349824Y361062D01*
X1350150Y361167D01*
X1350492Y361287D01*
X1350833Y361437D01*
X1350862Y361452D01*
X1350892Y361467D01*
X1350952Y361497D01*
X1351011Y361527D01*
X1351100Y361572D01*
X1351189Y361617D01*
X1351308Y361676D01*
X1351441Y361736D01*
X1351589Y361811D01*
X1351752Y361901D01*
X1351930Y362005D01*
X1352123Y362110D01*
X1352346Y362230D01*
X1352583Y362364D01*
X1352835Y362514D01*
X1352838Y361652D01*
D02*
G37*
G36*
X650215Y-44520D02*
X650304Y-44520D01*
X650408Y-44534D01*
X650631Y-44579D01*
X650899Y-44653D01*
X651166Y-44756D01*
X651419Y-44905D01*
X651657Y-45098D01*
X651687Y-45128D01*
X651746Y-45202D01*
X651835Y-45350D01*
X651954Y-45543D01*
X652059Y-45796D01*
X652148Y-46093D01*
X652208Y-46464D01*
X652238Y-46672D01*
X652238Y-46895D01*
X652243Y-51739D01*
X651039Y-51740D01*
X651035Y-47298D01*
X651035Y-47283D01*
X651035Y-47268D01*
X651035Y-47179D01*
X651035Y-47045D01*
X651020Y-46896D01*
X650990Y-46555D01*
X650960Y-46391D01*
X650915Y-46258D01*
X650915Y-46243D01*
X650885Y-46198D01*
X650855Y-46139D01*
X650811Y-46064D01*
X650751Y-45990D01*
X650677Y-45901D01*
X650588Y-45812D01*
X650484Y-45738D01*
X650469Y-45723D01*
X650424Y-45708D01*
X650365Y-45679D01*
X650290Y-45634D01*
X650186Y-45604D01*
X650053Y-45575D01*
X649919Y-45560D01*
X649770Y-45545D01*
X649651Y-45546D01*
X649503Y-45575D01*
X649339Y-45605D01*
X649146Y-45665D01*
X648938Y-45754D01*
X648716Y-45888D01*
X648523Y-46052D01*
X648508Y-46082D01*
X648448Y-46141D01*
X648374Y-46260D01*
X648285Y-46438D01*
X648181Y-46661D01*
X648107Y-46929D01*
X648048Y-47256D01*
X648034Y-47642D01*
X648038Y-51743D01*
X646834Y-51744D01*
X646830Y-47153D01*
X646830Y-47138D01*
Y-47123D01*
X646830Y-47079D01*
X646830Y-47019D01*
X646815Y-46871D01*
X646799Y-46707D01*
X646755Y-46499D01*
X646710Y-46306D01*
X646636Y-46113D01*
X646531Y-45950D01*
X646516Y-45935D01*
X646472Y-45890D01*
X646412Y-45816D01*
X646308Y-45742D01*
X646174Y-45683D01*
X646011Y-45609D01*
X645818Y-45564D01*
X645580Y-45549D01*
X645491Y-45550D01*
X645402Y-45564D01*
X645268Y-45580D01*
X645134Y-45609D01*
X644971Y-45669D01*
X644808Y-45729D01*
X644644Y-45818D01*
X644629Y-45833D01*
X644570Y-45862D01*
X644496Y-45937D01*
X644407Y-46011D01*
X644303Y-46130D01*
X644199Y-46264D01*
X644110Y-46427D01*
X644021Y-46606D01*
X644006Y-46636D01*
X643991Y-46695D01*
X643962Y-46814D01*
X643932Y-46978D01*
X643888Y-47186D01*
X643858Y-47438D01*
X643844Y-47735D01*
X643829Y-48077D01*
X643833Y-51747D01*
X642629Y-51748D01*
X642622Y-44676D01*
X643692Y-44675D01*
X643693Y-45670D01*
X643708Y-45640D01*
X643752Y-45581D01*
X643827Y-45492D01*
X643931Y-45373D01*
X644049Y-45239D01*
X644198Y-45105D01*
X644376Y-44956D01*
X644569Y-44837D01*
X644599Y-44822D01*
X644673Y-44792D01*
X644792Y-44733D01*
X644940Y-44673D01*
X645133Y-44614D01*
X645341Y-44554D01*
X645594Y-44524D01*
X645846Y-44509D01*
X645980Y-44509D01*
X646129Y-44524D01*
X646307Y-44553D01*
X646500Y-44583D01*
X646723Y-44642D01*
X646931Y-44731D01*
X647125Y-44835D01*
X647154Y-44850D01*
X647214Y-44894D01*
X647303Y-44968D01*
X647407Y-45072D01*
X647526Y-45206D01*
X647645Y-45354D01*
X647749Y-45547D01*
X647839Y-45755D01*
X647854Y-45740D01*
X647883Y-45696D01*
X647928Y-45636D01*
X647987Y-45562D01*
X648076Y-45458D01*
X648180Y-45354D01*
X648299Y-45250D01*
X648432Y-45131D01*
X648581Y-45012D01*
X648744Y-44907D01*
X649130Y-44699D01*
X649338Y-44625D01*
X649561Y-44565D01*
X649784Y-44520D01*
X650037Y-44505D01*
X650141Y-44505D01*
X650215Y-44520D01*
D02*
G37*
G36*
X638863Y-44531D02*
X638952Y-44531D01*
X639056Y-44545D01*
X639279Y-44590D01*
X639546Y-44664D01*
X639814Y-44767D01*
X640067Y-44916D01*
X640305Y-45109D01*
X640334Y-45139D01*
X640394Y-45213D01*
X640483Y-45361D01*
X640602Y-45554D01*
X640706Y-45807D01*
X640796Y-46104D01*
X640856Y-46475D01*
X640886Y-46683D01*
X640886Y-46906D01*
X640891Y-51750D01*
X639687Y-51751D01*
X639683Y-47309D01*
X639683Y-47294D01*
Y-47279D01*
X639683Y-47190D01*
X639682Y-47056D01*
X639667Y-46907D01*
X639637Y-46566D01*
X639608Y-46402D01*
X639563Y-46269D01*
Y-46254D01*
X639533Y-46209D01*
X639503Y-46150D01*
X639459Y-46075D01*
X639399Y-46001D01*
X639325Y-45912D01*
X639235Y-45823D01*
X639131Y-45749D01*
X639117Y-45734D01*
X639072Y-45719D01*
X639012Y-45690D01*
X638938Y-45645D01*
X638834Y-45615D01*
X638700Y-45586D01*
X638567Y-45571D01*
X638418Y-45556D01*
X638299Y-45557D01*
X638150Y-45586D01*
X637987Y-45616D01*
X637794Y-45676D01*
X637586Y-45765D01*
X637363Y-45899D01*
X637170Y-46063D01*
X637155Y-46093D01*
X637096Y-46152D01*
X637022Y-46271D01*
X636933Y-46449D01*
X636829Y-46672D01*
X636755Y-46940D01*
X636696Y-47267D01*
X636682Y-47653D01*
X636685Y-51754D01*
X635482Y-51755D01*
X635477Y-47164D01*
Y-47149D01*
X635477Y-47134D01*
X635477Y-47090D01*
X635477Y-47030D01*
X635462Y-46882D01*
X635447Y-46718D01*
X635402Y-46510D01*
X635358Y-46317D01*
X635283Y-46124D01*
X635179Y-45961D01*
X635164Y-45946D01*
X635120Y-45901D01*
X635060Y-45827D01*
X634956Y-45753D01*
X634822Y-45694D01*
X634659Y-45619D01*
X634465Y-45575D01*
X634228Y-45560D01*
X634139Y-45560D01*
X634049Y-45575D01*
X633916Y-45590D01*
X633782Y-45620D01*
X633619Y-45680D01*
X633455Y-45739D01*
X633292Y-45829D01*
X633277Y-45844D01*
X633218Y-45873D01*
X633143Y-45948D01*
X633054Y-46022D01*
X632950Y-46141D01*
X632846Y-46275D01*
X632757Y-46438D01*
X632668Y-46617D01*
X632654Y-46647D01*
X632639Y-46706D01*
X632609Y-46825D01*
X632580Y-46989D01*
X632535Y-47196D01*
X632506Y-47449D01*
X632491Y-47746D01*
X632477Y-48088D01*
X632480Y-51758D01*
X631277Y-51760D01*
X631270Y-44687D01*
X632340Y-44686D01*
X632341Y-45681D01*
X632356Y-45651D01*
X632400Y-45592D01*
X632474Y-45503D01*
X632578Y-45384D01*
X632697Y-45250D01*
X632845Y-45116D01*
X633024Y-44967D01*
X633217Y-44848D01*
X633246Y-44833D01*
X633321Y-44804D01*
X633439Y-44744D01*
X633588Y-44684D01*
X633781Y-44625D01*
X633989Y-44565D01*
X634242Y-44535D01*
X634494Y-44520D01*
X634628Y-44520D01*
X634776Y-44535D01*
X634955Y-44564D01*
X635148Y-44594D01*
X635371Y-44653D01*
X635579Y-44742D01*
X635772Y-44846D01*
X635802Y-44861D01*
X635862Y-44905D01*
X635951Y-44979D01*
X636055Y-45083D01*
X636174Y-45217D01*
X636293Y-45365D01*
X636397Y-45558D01*
X636487Y-45766D01*
X636501Y-45751D01*
X636531Y-45707D01*
X636576Y-45647D01*
X636635Y-45573D01*
X636724Y-45469D01*
X636828Y-45365D01*
X636947Y-45261D01*
X637080Y-45142D01*
X637229Y-45023D01*
X637392Y-44918D01*
X637778Y-44710D01*
X637986Y-44636D01*
X638209Y-44576D01*
X638432Y-44531D01*
X638684Y-44516D01*
X638788Y-44516D01*
X638863Y-44531D01*
D02*
G37*
G36*
X584283Y-42013D02*
X584476Y-42042D01*
X584699Y-42087D01*
X584952Y-42146D01*
X585205Y-42235D01*
X585457Y-42353D01*
X585472D01*
X585487Y-42368D01*
X585576Y-42413D01*
X585695Y-42487D01*
X585844Y-42591D01*
X586007Y-42724D01*
X586186Y-42888D01*
X586350Y-43081D01*
X586498Y-43288D01*
X586513Y-43318D01*
X586558Y-43393D01*
X586618Y-43511D01*
X586677Y-43660D01*
X586737Y-43853D01*
X586796Y-44061D01*
X586841Y-44284D01*
X586856Y-44536D01*
X586856Y-44566D01*
X586856Y-44640D01*
X586842Y-44759D01*
X586812Y-44908D01*
X586768Y-45086D01*
X586708Y-45279D01*
X586634Y-45487D01*
X586516Y-45681D01*
X586501Y-45711D01*
X586456Y-45770D01*
X586367Y-45859D01*
X586263Y-45978D01*
X586115Y-46112D01*
X585951Y-46246D01*
X585744Y-46395D01*
X585506Y-46514D01*
X585521D01*
X585550Y-46529D01*
X585595Y-46529D01*
X585655Y-46558D01*
X585803Y-46603D01*
X585997Y-46692D01*
X586205Y-46796D01*
X586428Y-46944D01*
X586651Y-47122D01*
X586844Y-47345D01*
X586859Y-47374D01*
X586918Y-47463D01*
X586993Y-47597D01*
X587097Y-47775D01*
X587187Y-47998D01*
X587261Y-48266D01*
X587321Y-48577D01*
X587336Y-48919D01*
X587336Y-48934D01*
X587336Y-48979D01*
X587336Y-49038D01*
X587321Y-49127D01*
X587307Y-49246D01*
X587292Y-49365D01*
X587262Y-49514D01*
X587218Y-49662D01*
X587114Y-50004D01*
X587040Y-50197D01*
X586936Y-50376D01*
X586832Y-50554D01*
X586714Y-50733D01*
X586565Y-50911D01*
X586402Y-51090D01*
X586387Y-51104D01*
X586357Y-51134D01*
X586313Y-51164D01*
X586239Y-51224D01*
X586149Y-51298D01*
X586031Y-51372D01*
X585897Y-51447D01*
X585763Y-51521D01*
X585600Y-51610D01*
X585422Y-51685D01*
X585229Y-51759D01*
X585021Y-51834D01*
X584798Y-51894D01*
X584560Y-51923D01*
X584308Y-51953D01*
X584055Y-51969D01*
X583936Y-51969D01*
X583847Y-51954D01*
X583728Y-51939D01*
X583609Y-51924D01*
X583461Y-51910D01*
X583312Y-51880D01*
X582970Y-51791D01*
X582613Y-51643D01*
X582435Y-51569D01*
X582271Y-51465D01*
X582093Y-51346D01*
X581930Y-51213D01*
X581915Y-51198D01*
X581900Y-51183D01*
X581855Y-51139D01*
X581796Y-51079D01*
X581736Y-50990D01*
X581662Y-50901D01*
X581572Y-50797D01*
X581498Y-50678D01*
X581320Y-50381D01*
X581171Y-50040D01*
X581036Y-49653D01*
X580992Y-49446D01*
X580962Y-49223D01*
X582165Y-49058D01*
X582165Y-49073D01*
X582180Y-49103D01*
X582180Y-49162D01*
X582210Y-49221D01*
X582255Y-49400D01*
X582329Y-49623D01*
X582419Y-49860D01*
X582538Y-50113D01*
X582686Y-50335D01*
X582850Y-50528D01*
X582880Y-50543D01*
X582939Y-50603D01*
X583043Y-50662D01*
X583192Y-50751D01*
X583356Y-50825D01*
X583564Y-50899D01*
X583801Y-50958D01*
X584054Y-50973D01*
X584143Y-50973D01*
X584203Y-50958D01*
X584351Y-50943D01*
X584544Y-50898D01*
X584782Y-50824D01*
X585020Y-50734D01*
X585257Y-50585D01*
X585480Y-50392D01*
X585510Y-50362D01*
X585569Y-50288D01*
X585658Y-50169D01*
X585777Y-49991D01*
X585881Y-49783D01*
X585970Y-49530D01*
X586029Y-49247D01*
X586058Y-48935D01*
X586058Y-48920D01*
Y-48906D01*
X586058Y-48861D01*
X586043Y-48802D01*
X586028Y-48653D01*
X585983Y-48460D01*
X585924Y-48252D01*
X585820Y-48014D01*
X585686Y-47792D01*
X585507Y-47584D01*
X585477Y-47554D01*
X585418Y-47495D01*
X585299Y-47421D01*
X585135Y-47317D01*
X584942Y-47213D01*
X584704Y-47139D01*
X584451Y-47080D01*
X584154Y-47050D01*
X584021Y-47050D01*
X583917Y-47065D01*
X583798Y-47080D01*
X583649Y-47095D01*
X583486Y-47125D01*
X583307Y-47170D01*
X583440Y-46115D01*
X583515Y-46115D01*
X583574Y-46129D01*
X583767Y-46129D01*
X583901Y-46114D01*
X584094Y-46084D01*
X584302Y-46040D01*
X584525Y-45965D01*
X584762Y-45876D01*
X585000Y-45742D01*
X585030Y-45727D01*
X585104Y-45667D01*
X585193Y-45563D01*
X585312Y-45429D01*
X585430Y-45266D01*
X585519Y-45058D01*
X585593Y-44805D01*
X585623Y-44508D01*
Y-44493D01*
X585623Y-44478D01*
X585623Y-44404D01*
X585593Y-44285D01*
X585563Y-44121D01*
X585518Y-43958D01*
X585429Y-43780D01*
X585325Y-43587D01*
X585176Y-43424D01*
X585161Y-43409D01*
X585102Y-43349D01*
X584998Y-43275D01*
X584864Y-43201D01*
X584700Y-43112D01*
X584507Y-43053D01*
X584284Y-42993D01*
X584031Y-42979D01*
X583913Y-42979D01*
X583779Y-43009D01*
X583630Y-43039D01*
X583437Y-43084D01*
X583244Y-43173D01*
X583051Y-43277D01*
X582858Y-43426D01*
X582843Y-43441D01*
X582784Y-43500D01*
X582710Y-43604D01*
X582621Y-43753D01*
X582517Y-43931D01*
X582428Y-44154D01*
X582339Y-44422D01*
X582280Y-44734D01*
X581076Y-44527D01*
X581076Y-44512D01*
X581091Y-44468D01*
X581106Y-44408D01*
X581120Y-44334D01*
X581150Y-44230D01*
X581180Y-44111D01*
X581283Y-43843D01*
X581402Y-43546D01*
X581580Y-43234D01*
X581788Y-42937D01*
X582055Y-42669D01*
X582070Y-42654D01*
X582085Y-42639D01*
X582129Y-42609D01*
X582203Y-42565D01*
X582278Y-42520D01*
X582367Y-42460D01*
X582589Y-42326D01*
X582872Y-42207D01*
X583213Y-42103D01*
X583585Y-42028D01*
X583793Y-41998D01*
X584135Y-41998D01*
X584283Y-42013D01*
D02*
G37*
G36*
X621046Y-43300D02*
X617152Y-43303D01*
X616620Y-45934D01*
X616635Y-45919D01*
X616665Y-45904D01*
X616709Y-45875D01*
X616769Y-45830D01*
X616858Y-45785D01*
X616947Y-45740D01*
X617184Y-45621D01*
X617452Y-45502D01*
X617764Y-45413D01*
X618106Y-45338D01*
X618462Y-45308D01*
X618581Y-45308D01*
X618670Y-45323D01*
X618789Y-45338D01*
X618908Y-45352D01*
X619057Y-45382D01*
X619205Y-45412D01*
X619547Y-45530D01*
X619725Y-45589D01*
X619904Y-45678D01*
X620097Y-45782D01*
X620275Y-45901D01*
X620454Y-46034D01*
X620617Y-46198D01*
X620632Y-46213D01*
X620662Y-46242D01*
X620707Y-46287D01*
X620751Y-46361D01*
X620826Y-46450D01*
X620900Y-46554D01*
X620975Y-46673D01*
X621064Y-46806D01*
X621153Y-46970D01*
X621228Y-47133D01*
X621302Y-47326D01*
X621377Y-47519D01*
X621421Y-47742D01*
X621466Y-47965D01*
X621496Y-48218D01*
X621511Y-48470D01*
Y-48485D01*
X621511Y-48530D01*
X621511Y-48604D01*
X621497Y-48693D01*
X621482Y-48812D01*
X621467Y-48946D01*
X621452Y-49094D01*
X621423Y-49258D01*
X621319Y-49615D01*
X621186Y-49986D01*
X621097Y-50194D01*
X620993Y-50388D01*
X620874Y-50581D01*
X620741Y-50759D01*
X620726Y-50774D01*
X620696Y-50804D01*
X620637Y-50863D01*
X620563Y-50938D01*
X620474Y-51027D01*
X620355Y-51131D01*
X620221Y-51235D01*
X620058Y-51339D01*
X619894Y-51458D01*
X619701Y-51563D01*
X619479Y-51667D01*
X619256Y-51756D01*
X619003Y-51831D01*
X618751Y-51890D01*
X618469Y-51920D01*
X618171Y-51936D01*
X618037Y-51936D01*
X617948Y-51921D01*
X617844Y-51906D01*
X617711Y-51891D01*
X617562Y-51877D01*
X617398Y-51847D01*
X617057Y-51758D01*
X616700Y-51625D01*
X616522Y-51536D01*
X616343Y-51432D01*
X616165Y-51328D01*
X616001Y-51195D01*
X615986Y-51180D01*
X615971Y-51165D01*
X615927Y-51121D01*
X615867Y-51061D01*
X615808Y-50987D01*
X615733Y-50898D01*
X615659Y-50794D01*
X615570Y-50675D01*
X615406Y-50393D01*
X615242Y-50051D01*
X615123Y-49665D01*
X615078Y-49442D01*
X615048Y-49219D01*
X616311Y-49129D01*
Y-49144D01*
X616311Y-49174D01*
X616326Y-49218D01*
X616341Y-49278D01*
X616386Y-49441D01*
X616445Y-49649D01*
X616520Y-49872D01*
X616639Y-50094D01*
X616773Y-50317D01*
X616951Y-50510D01*
X616981Y-50525D01*
X617041Y-50585D01*
X617145Y-50644D01*
X617294Y-50733D01*
X617472Y-50807D01*
X617680Y-50881D01*
X617918Y-50940D01*
X618170Y-50955D01*
X618260Y-50955D01*
X618319Y-50940D01*
X618482Y-50925D01*
X618690Y-50880D01*
X618913Y-50791D01*
X619166Y-50686D01*
X619403Y-50523D01*
X619522Y-50434D01*
X619641Y-50314D01*
X619641Y-50300D01*
X619670Y-50285D01*
X619730Y-50196D01*
X619834Y-50047D01*
X619938Y-49854D01*
X620041Y-49601D01*
X620145Y-49304D01*
X620204Y-48962D01*
X620233Y-48575D01*
X620233Y-48561D01*
X620233Y-48531D01*
X620233Y-48471D01*
X620218Y-48412D01*
X620218Y-48323D01*
X620203Y-48219D01*
X620159Y-47981D01*
X620099Y-47729D01*
X619995Y-47461D01*
X619846Y-47194D01*
X619652Y-46956D01*
X619623Y-46927D01*
X619548Y-46867D01*
X619429Y-46763D01*
X619251Y-46660D01*
X619043Y-46556D01*
X618775Y-46452D01*
X618478Y-46393D01*
X618151Y-46364D01*
X618047Y-46364D01*
X617943Y-46378D01*
X617794Y-46393D01*
X617631Y-46438D01*
X617453Y-46483D01*
X617275Y-46557D01*
X617096Y-46647D01*
X617081Y-46662D01*
X617022Y-46691D01*
X616933Y-46751D01*
X616829Y-46825D01*
X616725Y-46929D01*
X616606Y-47049D01*
X616488Y-47182D01*
X616384Y-47331D01*
X615254Y-47169D01*
X616200Y-42160D01*
X621045Y-42156D01*
X621046Y-43300D01*
D02*
G37*
G36*
X612506Y-48345D02*
X613829Y-48344D01*
X613830Y-49443D01*
X612508Y-49445D01*
X612510Y-51778D01*
X611306Y-51779D01*
X611304Y-49446D01*
X607069Y-49450D01*
X607068Y-48350D01*
X611520Y-42031D01*
X612500Y-42030D01*
X612506Y-48345D01*
D02*
G37*
G36*
X604929Y-48352D02*
X606251Y-48351D01*
X606252Y-49451D01*
X604930Y-49452D01*
X604932Y-51785D01*
X603728Y-51786D01*
X603726Y-49453D01*
X599491Y-49457D01*
X599490Y-48358D01*
X603942Y-42038D01*
X604922Y-42037D01*
X604929Y-48352D01*
D02*
G37*
G36*
X598141Y-51792D02*
X596774Y-51793D01*
X596773Y-50426D01*
X598140Y-50424D01*
X598141Y-51792D01*
D02*
G37*
G36*
X593045Y-51796D02*
X591841Y-51798D01*
X591834Y-44160D01*
X591819Y-44175D01*
X591759Y-44234D01*
X591656Y-44309D01*
X591522Y-44413D01*
X591358Y-44547D01*
X591166Y-44681D01*
X590943Y-44844D01*
X590690Y-44993D01*
X590675Y-44993D01*
X590661Y-45008D01*
X590572Y-45068D01*
X590438Y-45142D01*
X590275Y-45231D01*
X590081Y-45336D01*
X589873Y-45425D01*
X589651Y-45529D01*
X589443Y-45619D01*
X589442Y-44445D01*
X589456Y-44445D01*
X589486Y-44430D01*
X589546Y-44400D01*
X589605Y-44355D01*
X589694Y-44311D01*
X589798Y-44266D01*
X590036Y-44132D01*
X590303Y-43968D01*
X590600Y-43775D01*
X590897Y-43552D01*
X591179Y-43314D01*
X591194Y-43299D01*
X591209Y-43284D01*
X591298Y-43195D01*
X591431Y-43061D01*
X591595Y-42897D01*
X591773Y-42689D01*
X591951Y-42466D01*
X592114Y-42228D01*
X592248Y-41990D01*
X593035Y-41989D01*
X593045Y-51796D01*
D02*
G37*
G36*
X577888Y-51811D02*
X576685Y-51812D01*
X576677Y-44175D01*
X576663Y-44190D01*
X576603Y-44249D01*
X576499Y-44324D01*
X576366Y-44428D01*
X576202Y-44562D01*
X576009Y-44695D01*
X575787Y-44859D01*
X575534Y-45008D01*
X575519D01*
X575504Y-45023D01*
X575415Y-45082D01*
X575282Y-45157D01*
X575118Y-45246D01*
X574925Y-45350D01*
X574717Y-45440D01*
X574495Y-45544D01*
X574287Y-45633D01*
X574285Y-44459D01*
X574300D01*
X574330Y-44444D01*
X574389Y-44415D01*
X574449Y-44370D01*
X574538Y-44325D01*
X574642Y-44281D01*
X574879Y-44147D01*
X575147Y-43983D01*
X575444Y-43790D01*
X575741Y-43566D01*
X576023Y-43328D01*
X576038Y-43313D01*
X576053Y-43299D01*
X576142Y-43209D01*
X576275Y-43075D01*
X576438Y-42912D01*
X576617Y-42704D01*
X576795Y-42481D01*
X576958Y-42243D01*
X577091Y-42005D01*
X577879Y-42004D01*
X577888Y-51811D01*
D02*
G37*
G36*
X654774Y-41826D02*
X654819Y-41885D01*
X654878Y-41974D01*
X654967Y-42093D01*
X655072Y-42256D01*
X655191Y-42435D01*
X655325Y-42628D01*
X655459Y-42865D01*
X655608Y-43103D01*
X655756Y-43370D01*
X656069Y-43934D01*
X656352Y-44543D01*
X656486Y-44855D01*
X656605Y-45167D01*
Y-45182D01*
X656635Y-45227D01*
X656650Y-45316D01*
X656694Y-45420D01*
X656724Y-45553D01*
X656769Y-45717D01*
X656814Y-45895D01*
X656873Y-46088D01*
X656918Y-46311D01*
X656963Y-46549D01*
X657053Y-47069D01*
X657113Y-47619D01*
X657128Y-48213D01*
X657128Y-48228D01*
X657128Y-48287D01*
X657128Y-48391D01*
X657113Y-48510D01*
X657114Y-48674D01*
X657099Y-48867D01*
X657069Y-49075D01*
X657040Y-49313D01*
X657010Y-49565D01*
X656966Y-49848D01*
X656833Y-50427D01*
X656670Y-51051D01*
X656552Y-51364D01*
X656433Y-51676D01*
X656418Y-51691D01*
X656403Y-51750D01*
X656359Y-51839D01*
X656314Y-51958D01*
X656240Y-52107D01*
X656166Y-52270D01*
X656077Y-52464D01*
X655973Y-52672D01*
X655721Y-53118D01*
X655439Y-53608D01*
X655128Y-54114D01*
X654772Y-54605D01*
X653910Y-54605D01*
X653910Y-54591D01*
X653940Y-54576D01*
X653954Y-54516D01*
X653999Y-54457D01*
X654043Y-54382D01*
X654088Y-54293D01*
X654147Y-54174D01*
X654221Y-54055D01*
X654370Y-53773D01*
X654533Y-53431D01*
X654725Y-53044D01*
X654903Y-52613D01*
X655096Y-52138D01*
X655274Y-51647D01*
X655437Y-51112D01*
X655585Y-50562D01*
X655718Y-49983D01*
X655807Y-49403D01*
X655880Y-48808D01*
X655895Y-48214D01*
X655895Y-48199D01*
X655895Y-48155D01*
X655895Y-48095D01*
X655894Y-48006D01*
X655880Y-47887D01*
X655879Y-47754D01*
X655864Y-47605D01*
X655864Y-47442D01*
X655819Y-47055D01*
X655774Y-46639D01*
X655700Y-46193D01*
X655595Y-45733D01*
Y-45718D01*
X655580Y-45688D01*
X655565Y-45629D01*
X655550Y-45570D01*
X655536Y-45480D01*
X655506Y-45362D01*
X655431Y-45124D01*
X655342Y-44827D01*
X655237Y-44500D01*
X655118Y-44158D01*
X654969Y-43817D01*
X654954Y-43787D01*
X654939Y-43757D01*
X654910Y-43698D01*
X654880Y-43639D01*
X654835Y-43549D01*
X654791Y-43460D01*
X654731Y-43341D01*
X654671Y-43208D01*
X654597Y-43059D01*
X654508Y-42896D01*
X654404Y-42718D01*
X654299Y-42525D01*
X654180Y-42302D01*
X654046Y-42064D01*
X653897Y-41812D01*
X654759Y-41811D01*
X654774Y-41826D01*
D02*
G37*
G36*
X629885Y-41850D02*
X629870Y-41894D01*
X629826Y-41969D01*
X629767Y-42058D01*
X629707Y-42177D01*
X629633Y-42311D01*
X629455Y-42608D01*
X629277Y-42935D01*
X629099Y-43262D01*
X628951Y-43574D01*
X628892Y-43708D01*
X628832Y-43827D01*
X628832Y-43842D01*
X628817Y-43872D01*
X628788Y-43916D01*
X628758Y-43991D01*
X628728Y-44065D01*
X628684Y-44169D01*
X628595Y-44407D01*
X628491Y-44689D01*
X628388Y-45016D01*
X628284Y-45373D01*
X628195Y-45745D01*
X628195Y-45759D01*
X628180Y-45804D01*
X628166Y-45863D01*
X628151Y-45953D01*
X628136Y-46072D01*
X628106Y-46205D01*
X628077Y-46354D01*
X628062Y-46517D01*
X628003Y-46889D01*
X627959Y-47320D01*
X627930Y-47766D01*
X627915Y-48241D01*
X627915Y-48256D01*
Y-48271D01*
X627915Y-48315D01*
X627915Y-48390D01*
X627930Y-48464D01*
X627930Y-48553D01*
X627930Y-48672D01*
X627946Y-48791D01*
X627976Y-49073D01*
X628020Y-49415D01*
X628080Y-49801D01*
X628170Y-50232D01*
X628274Y-50707D01*
X628408Y-51198D01*
X628572Y-51732D01*
X628766Y-52282D01*
X628989Y-52846D01*
X629258Y-53440D01*
X629555Y-54035D01*
X629912Y-54629D01*
X629051Y-54629D01*
X629036Y-54615D01*
X629006Y-54570D01*
X628961Y-54496D01*
X628887Y-54407D01*
X628798Y-54288D01*
X628694Y-54139D01*
X628589Y-53976D01*
X628470Y-53783D01*
X628336Y-53590D01*
X628203Y-53367D01*
X628069Y-53115D01*
X627920Y-52862D01*
X627637Y-52313D01*
X627369Y-51704D01*
X627369Y-51689D01*
X627339Y-51630D01*
X627309Y-51540D01*
X627265Y-51407D01*
X627205Y-51258D01*
X627145Y-51080D01*
X627086Y-50872D01*
X627026Y-50634D01*
X626966Y-50397D01*
X626907Y-50114D01*
X626847Y-49832D01*
X626787Y-49535D01*
X626712Y-48896D01*
X626697Y-48569D01*
X626682Y-48242D01*
X626682Y-48228D01*
X626682Y-48168D01*
X626682Y-48079D01*
X626697Y-47975D01*
X626696Y-47826D01*
X626711Y-47663D01*
X626726Y-47470D01*
X626740Y-47262D01*
X626770Y-47039D01*
X626799Y-46801D01*
X626888Y-46281D01*
X627021Y-45746D01*
X627184Y-45196D01*
X627199Y-45181D01*
X627214Y-45121D01*
X627243Y-45032D01*
X627303Y-44913D01*
X627362Y-44750D01*
X627436Y-44571D01*
X627525Y-44378D01*
X627644Y-44140D01*
X627762Y-43903D01*
X627896Y-43635D01*
X628044Y-43352D01*
X628222Y-43070D01*
X628400Y-42773D01*
X628593Y-42460D01*
X628816Y-42148D01*
X629038Y-41836D01*
X629900Y-41835D01*
X629885Y-41850D01*
D02*
G37*
%LPC*%
G36*
X1346179Y408152D02*
X1346190Y405091D01*
X1350558Y405107D01*
X1346179Y408152D01*
D02*
G37*
G36*
X611299Y-43978D02*
X608242Y-48349D01*
X611303Y-48346D01*
X611299Y-43978D01*
D02*
G37*
G36*
X603721Y-43985D02*
X600664Y-48357D01*
X603725Y-48354D01*
X603721Y-43985D01*
D02*
G37*
%LPD*%
D13*
X1350793Y2721D02*
X1355873Y2739D01*
X1348253Y715191D02*
X1353333Y715209D01*
X1348199Y17952D02*
X1353333Y2730D01*
X1358359Y17988D01*
X1345768Y699942D02*
X1350793Y715200D01*
X1355928Y699978D01*
X1352345Y279995D02*
X1353333Y2730D01*
X1350793Y715200D02*
X1351782Y437934D01*
X1314284Y-39418D02*
X1314289Y-44498D01*
X-166Y-40688D02*
X-161Y-45768D01*
X1299052Y-47052D02*
X1314286Y-41958D01*
X1299041Y-36892D02*
X1314286Y-41958D01*
X-164Y-43228D02*
X15081Y-48293D01*
X-164Y-43228D02*
X15071Y-38133D01*
X742379Y-42510D02*
X1314286Y-41958D01*
X-164Y-43228D02*
X571744Y-42676D01*
M02*
