M48
;Layer_Color=9474304
;FILE_FORMAT=4:4
METRIC,TZ
;TYPE=PLATED
T01F00S00C0.3500
T02F00S00C0.4000
T05F00S00C0.9200
T06F00S00C1.0200
T07F00S00C1.3000
T08F00S00C1.6000
%
T01
X798322Y43180
X839260Y57658
X819658Y101854
X772414Y90170
X761746Y88900
X744940Y105664
X758698Y128016
X733552Y158750
X803656Y152908
X802640Y175514
X823468Y163068
X828802Y157734
X844804Y183086
X856742Y174244
X880110Y189190
Y199190
Y209042
X892556
X924560Y218948
X940562Y211074
X921004Y175006
X859028Y127254
X852678Y234190
X995020Y229616
X1010590Y235458
X1023366Y224028
X1035990Y199550
X1085722Y195200
X1097406
X1092430Y226822
X1077722Y178054
X1116456Y176150
X1077722Y136906
X1023620Y151638
X1016508Y127000
X729234Y122174
X718820Y123444
X723530Y151130
X699008Y159004
X693530Y164661
X683530Y150876
X669544Y156718
X661162Y151292
X643636Y150876
X636270Y160528
X629666Y166878
X623570Y154940
X608530Y127665
X625602Y112522
X640080Y98552
X649610Y103802
X664972Y115316
X668528Y127762
X657860Y127254
X688530Y126492
X694944Y101600
X701597Y106172
X652780Y76962
X649732Y190246
X640080Y234442
X627126Y227978
X665226Y232918
X589268Y220472
X593090Y198374
X591566Y182118
X602742
X587502Y144780
X567704Y146544
X576580Y118872
X546354Y125476
X529590Y115570
X516001Y89281
X522478Y74422
X531876Y180086
X540512Y182118
X508254Y181610
X507746Y190246
X524764Y203454
X524510Y218186
X519176Y212852
X537718Y220472
X556768Y208788
X465074Y205740
X451866Y208280
X446448Y215138
X441198Y227076
X452213Y229777
X473456Y226192
X482854Y157480
X456322Y156072
X409448Y159004
X394970Y164338
X397764Y208534
X381762Y212655
X372872Y204724
X351282Y205232
X382270Y44196
X297180Y129286
X257302Y137414
X262636Y185420
X262382Y198374
X291835Y189992
X297180Y204470
X308356Y204724
X287020Y215392
Y231648
X232664Y223520
X103124Y228092
X175260Y99600
X175595Y87457
X169926Y30734
Y12446
X150876Y23876
X128270Y246888
X150876Y279400
X175768Y316484
X264414Y321056
X283718Y327710
X296032Y322580
X321310Y320040
X315976Y336042
X327660Y343970
X327914Y384048
X326136Y418338
X317246Y413174
X304800Y401828
X321310Y290322
X327850Y271970
X336296Y249428
X286766Y248920
X294894Y266412
X271900Y506992
X290322Y541350
X301752Y538988
X330200Y529590
X325628Y513588
X321056Y558292
X265430Y562356
X231902Y563880
X108204Y375920
X84328Y342169
X370586Y332486
X380441Y310142
X374142Y283464
X358689Y290576
X370924Y260737
X376174Y250444
X365506Y244094
X342646Y254678
X391922Y268224
X438912Y274066
X454090Y279970
X465074Y285242
X471678Y303276
X442468Y304038
X442722Y312420
X442398Y319970
X442468Y335970
X463550Y342646
X491744Y351282
X506222Y357632
X487934Y389382
X464058Y391922
X472440Y405384
X472186Y417068
X470662Y427906
X441960Y415798
X428498Y412798
X430197Y386682
X442468Y383970
X442214Y365506
X420878Y374820
X415544Y389636
X388390Y392660
X375158Y376682
X349250Y407924
X354838Y423970
X353314Y439928
X349250Y455930
X369062Y454406
X370586Y478028
X397002Y482854
X417576Y478028
X413512Y504444
X419354Y525780
Y534162
X444754Y540004
X479298Y535940
X496062Y534416
Y548386
X490474Y525584
X508254Y530352
X520670Y527274
X530670Y526098
X535670Y504444
X540148Y491490
X557530Y487680
X554097Y513211
X591058Y507308
X602488Y508762
X598932Y493522
X599100Y482854
X588010Y485902
X617220Y474980
X638810Y483870
X657098Y477985
X680974Y480822
X672846Y451358
X668528Y422491
X651780Y415208
X650314Y406400
X638048Y405892
X628396Y411226
X622200Y406983
X622300Y394970
X624466Y418338
X609854Y422148
X643530Y422508
X658368Y401066
X693279Y397002
X708406Y422898
X724662Y421894
X703580Y445770
X705866Y460248
X639253Y456870
X585212Y409190
X562102Y418254
Y394208
X534416Y393954
X516890Y456946
X496570Y481330
X490670Y494734
X455670Y504444
X477266Y579120
X419354Y586740
X435864Y616458
X392176Y559562
X373380Y557530
X357124Y544830
X344678Y536956
X360670Y527060
X349504Y504444
X417322Y343408
X482092Y324104
X494284Y317754
X498094Y282194
X514096Y276860
X532638Y268615
X537464Y250190
X539496Y242570
X487172Y238506
X488188Y255657
X443777Y241195
X555498Y288544
X585216
Y269240
X594614Y258572
X613410Y266446
X615188Y246634
X624586Y243840
X637032
X711454Y250190
X708660Y284480
X589280Y309190
X584962Y328930
X562324Y334487
X594360Y372872
X591058Y524764
X578358Y565404
X579120Y592074
X553212Y596900
X536194Y597154
X541491Y606872
X524510Y560070
X680974Y593094
X677672Y616966
X715264Y575818
X729742Y560832
X723646Y528574
X735838Y553212
X745490Y546608
X740410Y501904
X750316Y483870
X755566Y469730
X750570Y462026
X781769Y445710
X803656Y445770
X829056
X828802Y453390
X832866Y467106
X819404Y476504
X804926Y492252
X790194Y501904
X804926Y517906
X828421Y541401
X839178Y493992
X866394Y420370
X884174Y419608
X883824Y406050
X856742Y404114
X825754Y405510
X798576Y414528
X785622Y396494
X768530Y396748
X749046Y413004
X755142Y366522
X736346Y364998
X794004Y365760
X804164Y382270
X806558Y330346
X843280Y334264
X854964Y356362
X848868Y364236
X881888Y357378
X888238Y369190
X905636
X933944Y391922
X922528Y431800
X933436Y444246
X902500Y437388
X880110Y328930
Y269190
X887730Y259080
X880110Y249190
X896366Y249428
X910200Y259080
X924306Y240284
X948436Y248666
X964310
X978408Y257302
X948436Y272542
X1010590Y270510
X997890Y295148
X1023366
X958791Y340106
X889341Y278384
X856742Y274066
X848868Y280162
X827660Y265938
X789838Y300126
X776728Y593094
X775970Y607060
X755650Y599186
X879856Y606044
X967740Y540512
X1155268Y488620
X1213358Y514096
Y539420
X1249680Y655574
X798910Y643370
Y678730
X746760Y673862
X735838Y703834
X712216Y700024
X708152Y662686
X655914Y686054
X671830Y705358
X618998Y691642
X620268Y660908
X609346Y661924
X471678Y691134
X201168Y653542
X117082Y633476
T02
X45340Y212820
Y221320
Y229820
X58840
Y221320
Y212820
Y238320
Y246820
Y255320
Y263820
Y272320
X45340
Y263820
Y255320
Y246820
Y238320
T05
X1253160Y172390
Y197790
T06
X25070Y590220
Y615620
X50470
X75870
X101270
Y590220
X75870
X50470
X1208710
Y615620
X1234110
Y590220
Y641020
X1208710
Y666420
X1234110
Y691820
X1208710
T07
X1223080Y290830
X1273080
X1248080Y390830
T08
X535940Y646430
X586740
X637540
X688340
M30
